G04*
G04 #@! TF.GenerationSoftware,Altium Limited,Altium Designer,23.3.1 (30)*
G04*
G04 Layer_Color=65535*
%FSLAX25Y25*%
%MOIN*%
G70*
G04*
G04 #@! TF.SameCoordinates,F1967EA3-8312-49A4-A2FB-0AE49F0FF499*
G04*
G04*
G04 #@! TF.FilePolarity,Positive*
G04*
G01*
G75*
%ADD10C,0.01575*%
%ADD11C,0.00787*%
%ADD12C,0.01968*%
%ADD13C,0.00394*%
%ADD14C,0.00500*%
%ADD15C,0.01181*%
%ADD16C,0.00984*%
%ADD17C,0.00591*%
%ADD18R,0.01181X0.14173*%
D10*
X76417Y185512D02*
G03*
X76417Y185512I-787J0D01*
G01*
X176299Y68543D02*
G03*
X176299Y68543I-787J0D01*
G01*
X53543Y238807D02*
Y346850D01*
Y238807D02*
X182283D01*
Y346850D01*
X53543D02*
X182283D01*
D11*
X229646Y134252D02*
G03*
X234921Y134252I2638J0D01*
G01*
X273543Y166792D02*
G03*
X278818Y166792I2638J0D01*
G01*
X204331Y131889D02*
G03*
X204331Y131889I-20472J0D01*
G01*
X74410Y186221D02*
G03*
X74410Y186221I-394J0D01*
G01*
X422835Y107087D02*
G03*
X422835Y107087I-18110J0D01*
G01*
X69451Y131496D02*
G03*
X69451Y131496I-19451J0D01*
G01*
X142205Y132598D02*
G03*
X136929Y132598I-2638J0D01*
G01*
X45257Y311024D02*
G03*
X45257Y311024I-20472J0D01*
G01*
X45276Y267735D02*
G03*
X45276Y267735I-20472J0D01*
G01*
X57087Y11811D02*
X61024D01*
X57087D02*
Y15354D01*
Y23622D02*
X61024D01*
X57087Y20079D02*
Y23622D01*
X11417Y29528D02*
Y100394D01*
X225197Y134252D02*
X229646D01*
X234921D02*
X239370D01*
X227067Y114567D02*
X229528D01*
X225197D02*
X226870D01*
X225197D02*
Y134252D01*
X226870Y114567D02*
X227067D01*
X237697D02*
X239370D01*
X235039D02*
X237500D01*
X237697D01*
X229528D02*
X235039D01*
X239370D02*
Y134252D01*
X269094Y166792D02*
X273543D01*
X278818D02*
X283267D01*
X270964Y147107D02*
X273425D01*
X269094D02*
X270767D01*
X269094D02*
Y166792D01*
X270767Y147107D02*
X270964D01*
X281594D02*
X283267D01*
X278937D02*
X281397D01*
X281594D01*
X273425D02*
X278937D01*
X283267D02*
Y166792D01*
X175984Y118110D02*
Y124015D01*
X173031Y121063D02*
X178937D01*
X193543Y285276D02*
X234882D01*
X193543D02*
Y365591D01*
X227008D01*
X234882Y357716D01*
Y285276D02*
Y357716D01*
X233180Y176378D02*
Y196063D01*
X237117Y200000D01*
X256802D01*
X233180Y176378D02*
X256802D01*
Y200000D01*
X266535Y263543D02*
Y267087D01*
X314173D01*
Y214331D02*
Y267087D01*
X266535Y214331D02*
X314173D01*
X266535D02*
Y217480D01*
X236221Y392126D02*
X283465D01*
X236221Y391732D02*
Y392126D01*
Y368110D02*
Y391732D01*
Y368110D02*
X283465D01*
Y392126D01*
X185039D02*
X232283D01*
X185039Y391732D02*
Y392126D01*
Y368110D02*
Y391732D01*
Y368110D02*
X232283D01*
Y392126D01*
X244843Y284685D02*
X286181D01*
X244843D02*
Y365000D01*
X278307D01*
X286181Y357126D01*
Y284685D02*
Y357126D01*
X75591Y194144D02*
Y196260D01*
Y188583D02*
Y191486D01*
X81299Y169291D02*
X111811D01*
Y182677D01*
X75591Y191486D02*
Y194144D01*
Y196260D02*
X81693Y202362D01*
X111811D01*
Y188583D02*
Y202362D01*
X75591Y175000D02*
Y178543D01*
Y175000D02*
X81299Y169291D01*
X75591Y178543D02*
Y182677D01*
X296063Y79921D02*
Y83465D01*
X300000D01*
X296063Y71653D02*
Y75197D01*
Y71653D02*
X300000D01*
X385039Y105118D02*
X386614D01*
X385039D02*
Y110236D01*
X386614D01*
X218504Y270472D02*
X222441D01*
X218504D02*
Y274016D01*
Y282283D02*
X222441D01*
X218504Y278740D02*
Y282283D01*
X212795Y3740D02*
Y21850D01*
X250590D01*
Y984D02*
Y21850D01*
X227756Y984D02*
X235630D01*
X212795D02*
Y3740D01*
Y984D02*
X223819D01*
X239567D02*
X250590D01*
X223819D02*
X227756D01*
X235630D02*
X239567D01*
X252756Y282283D02*
X256693D01*
Y278740D02*
Y282283D01*
X252756Y270472D02*
X256693D01*
Y274016D01*
X90158Y7087D02*
Y10236D01*
X121260Y7087D02*
Y10236D01*
Y14961D02*
Y19291D01*
X90551D02*
X121260D01*
X90551Y14961D02*
Y19291D01*
X74803Y114173D02*
Y117717D01*
X78740D01*
X74803Y105905D02*
Y109449D01*
Y105905D02*
X78740D01*
X125531Y120000D02*
Y121968D01*
X103484D02*
X125531D01*
X103484Y120000D02*
Y121968D01*
Y107795D02*
Y109764D01*
Y107795D02*
X125531D01*
Y109764D01*
X110630Y230709D02*
X114567Y230709D01*
X112598Y232677D02*
X112599Y228740D01*
X112598Y212992D02*
X112599Y209055D01*
X108661Y205118D02*
X136221Y205118D01*
Y236614D01*
X108661Y236614D02*
X136221Y236614D01*
X108661Y205118D02*
Y236614D01*
X156299Y183071D02*
Y199606D01*
Y183071D02*
X181890D01*
Y199606D01*
X163878D02*
X174311D01*
X156299D02*
X163878D01*
X174311D02*
X181890D01*
X148819Y159370D02*
X150787D01*
X149803Y158386D02*
Y160354D01*
X150984Y174724D02*
Y177874D01*
X144291Y184567D02*
X150984Y177874D01*
X120669Y184567D02*
X144291D01*
X120669Y174331D02*
Y184567D01*
X150984Y163701D02*
Y166850D01*
X144291Y157008D02*
X150984Y163701D01*
X120669Y157008D02*
X144291D01*
X120669D02*
Y167244D01*
X132480Y132598D02*
Y152283D01*
X136811D02*
X142323D01*
X134153D02*
X134350D01*
X136811D01*
X132480D02*
X134153D01*
X144783D02*
X144980D01*
X146653Y132598D02*
Y152283D01*
X144980D02*
X146653D01*
X142323D02*
X144783D01*
X132480Y132598D02*
X136929D01*
X142205D02*
X146653D01*
X32658Y303150D02*
X38564D01*
X35611Y300197D02*
Y306102D01*
X46063Y357638D02*
Y396220D01*
Y357638D02*
X173228D01*
Y396220D01*
X46063D02*
X173228D01*
X6299Y342913D02*
Y390158D01*
Y342913D02*
X6693D01*
X30315D01*
Y390158D01*
X6299D02*
X30315D01*
X35630Y256909D02*
Y262814D01*
X32677Y259861D02*
X38583D01*
X322441Y118504D02*
Y122440D01*
X323753Y121128D01*
X325065Y122440D01*
Y118504D01*
X326377D02*
Y121128D01*
X327689Y122440D01*
X329000Y121128D01*
Y118504D01*
Y120472D01*
X326377D01*
X330312Y122440D02*
X331624D01*
X330968D01*
Y118504D01*
X330312D01*
X331624D01*
X333592D02*
Y122440D01*
X336216Y118504D01*
Y122440D01*
X289240Y93569D02*
X288584Y92913D01*
Y91601D01*
X289240Y90945D01*
X289896D01*
X290552Y91601D01*
Y92913D01*
X291208Y93569D01*
X291864D01*
X292520Y92913D01*
Y91601D01*
X291864Y90945D01*
X288584Y97504D02*
Y94881D01*
X292520D01*
Y97504D01*
X290552Y94881D02*
Y96193D01*
X292520Y98816D02*
X288584D01*
X292520Y101440D01*
X288584D01*
X289240Y105376D02*
X288584Y104720D01*
Y103408D01*
X289240Y102752D01*
X289896D01*
X290552Y103408D01*
Y104720D01*
X291208Y105376D01*
X291864D01*
X292520Y104720D01*
Y103408D01*
X291864Y102752D01*
X288584Y108656D02*
Y107344D01*
X289240Y106688D01*
X291864D01*
X292520Y107344D01*
Y108656D01*
X291864Y109312D01*
X289240D01*
X288584Y108656D01*
X292520Y110624D02*
X288584D01*
Y112591D01*
X289240Y113247D01*
X290552D01*
X291208Y112591D01*
Y110624D01*
Y111935D02*
X292520Y113247D01*
X311417Y276378D02*
X307482D01*
Y278346D01*
X308137Y279002D01*
X309449D01*
X310105Y278346D01*
Y276378D01*
X311417Y280314D02*
X307482D01*
Y282282D01*
X308137Y282938D01*
X309449D01*
X310105Y282282D01*
Y280314D01*
Y281626D02*
X311417Y282938D01*
X307482Y286217D02*
Y284905D01*
X308137Y284249D01*
X310761D01*
X311417Y284905D01*
Y286217D01*
X310761Y286873D01*
X308137D01*
X307482Y286217D01*
X308137Y290809D02*
X307482Y290153D01*
Y288841D01*
X308137Y288185D01*
X310761D01*
X311417Y288841D01*
Y290153D01*
X310761Y290809D01*
X309449D01*
Y289497D01*
X311417Y292121D02*
X310761D01*
Y292777D01*
X311417D01*
Y292121D01*
X189238Y60629D02*
X186614D01*
Y58661D01*
X187926Y59317D01*
X188582D01*
X189238Y58661D01*
Y57349D01*
X188582Y56693D01*
X187270D01*
X186614Y57349D01*
X190550Y60629D02*
Y58005D01*
X191862Y56693D01*
X193174Y58005D01*
Y60629D01*
X45669Y216929D02*
X46981D01*
X46325D01*
Y220865D01*
X45669Y220209D01*
X51573Y216929D02*
X48949D01*
X51573Y219553D01*
Y220209D01*
X50917Y220865D01*
X49605D01*
X48949Y220209D01*
X52885Y220865D02*
Y218241D01*
X54197Y216929D01*
X55509Y218241D01*
Y220865D01*
X20472Y392126D02*
Y394750D01*
X21784Y396062D01*
X23096Y394750D01*
Y392126D01*
Y394094D01*
X20472D01*
X27032Y395406D02*
X26376Y396062D01*
X25064D01*
X24408Y395406D01*
Y392782D01*
X25064Y392126D01*
X26376D01*
X27032Y392782D01*
X159842Y237794D02*
X158530D01*
X157874Y237138D01*
Y234514D01*
X158530Y233858D01*
X159842D01*
X160498Y234514D01*
Y237138D01*
X159842Y237794D01*
X161810D02*
Y234514D01*
X162466Y233858D01*
X163778D01*
X164434Y234514D01*
Y237794D01*
X165745D02*
X168369D01*
X167057D01*
Y233858D01*
X169681D02*
Y237794D01*
X171649D01*
X172305Y237138D01*
Y235826D01*
X171649Y235170D01*
X169681D01*
X173617Y237794D02*
Y234514D01*
X174273Y233858D01*
X175585D01*
X176241Y234514D01*
Y237794D01*
X177553D02*
X180176D01*
X178865D01*
Y233858D01*
X81890Y350001D02*
X83202D01*
X83858Y350657D01*
Y353281D01*
X83202Y353937D01*
X81890D01*
X81235Y353281D01*
Y350657D01*
X81890Y350001D01*
X79923D02*
Y353281D01*
X79267Y353937D01*
X77955D01*
X77299Y353281D01*
Y350001D01*
X75987D02*
X73363D01*
X74675D01*
Y353937D01*
X72051D02*
Y350001D01*
X70083D01*
X69427Y350657D01*
Y351969D01*
X70083Y352625D01*
X72051D01*
X68115Y350001D02*
Y353281D01*
X67459Y353937D01*
X66148D01*
X65492Y353281D01*
Y350001D01*
X64180D02*
X61556D01*
X62868D01*
Y353937D01*
D12*
X230030Y202953D02*
G03*
X230030Y202953I-787J0D01*
G01*
D13*
X242717Y28150D02*
G03*
X242717Y28150I-197J0D01*
G01*
X246457Y41142D02*
G03*
X246063Y41535I-394J0D01*
G01*
Y32087D02*
G03*
X246457Y32480I0J394D01*
G01*
X242126D02*
G03*
X242520Y32087I394J0D01*
G01*
Y41535D02*
G03*
X242126Y41142I0J-394D01*
G01*
X214606Y278543D02*
G03*
X214606Y278543I-197J0D01*
G01*
X201417Y282480D02*
G03*
X201024Y282087I0J-394D01*
G01*
X210472D02*
G03*
X210079Y282480I-394J0D01*
G01*
Y278150D02*
G03*
X210472Y278543I0J394D01*
G01*
X201024D02*
G03*
X201417Y278150I394J0D01*
G01*
X184646Y102165D02*
G03*
X185039Y101772I394J0D01*
G01*
X193701D02*
G03*
X194095Y102165I0J394D01*
G01*
Y105709D02*
G03*
X193701Y106102I-394J0D01*
G01*
X185039D02*
G03*
X184646Y105709I0J-394D01*
G01*
X198228Y102165D02*
G03*
X198228Y102165I-197J0D01*
G01*
X260827Y281890D02*
G03*
X260827Y281890I-197J0D01*
G01*
X273622Y277953D02*
G03*
X274016Y278346I0J394D01*
G01*
X264567D02*
G03*
X264961Y277953I394J0D01*
G01*
Y282283D02*
G03*
X264567Y281890I0J-394D01*
G01*
X274016D02*
G03*
X273622Y282283I-394J0D01*
G01*
X80118Y225984D02*
G03*
X80118Y225984I-197J0D01*
G01*
X75984Y212992D02*
G03*
X76378Y212598I394J0D01*
G01*
Y222047D02*
G03*
X75984Y221654I0J-394D01*
G01*
X80315D02*
G03*
X79921Y222047I-394J0D01*
G01*
Y212598D02*
G03*
X80315Y212992I0J394D01*
G01*
X79134Y22638D02*
X83071D01*
X79134Y11615D02*
Y22638D01*
Y11615D02*
X83071D01*
Y22638D01*
X54724Y5512D02*
X65748D01*
X54724D02*
Y9449D01*
X65748D01*
Y5512D02*
Y9449D01*
X109843Y145256D02*
X110827D01*
X112795D02*
X113779D01*
X110827D02*
X112795D01*
X109843Y142106D02*
X113779D01*
X243701Y218347D02*
Y229370D01*
X239764Y218347D02*
X243701D01*
X239764D02*
Y229370D01*
X243701D01*
X287992Y121595D02*
X291929D01*
X288976Y124744D02*
X290945D01*
X291929D01*
X287992D02*
X288976D01*
X280512Y121595D02*
X284449D01*
X281496Y124744D02*
X283465D01*
X284449D01*
X280512D02*
X281496D01*
X272835Y121595D02*
X276772D01*
X273819Y124744D02*
X275787D01*
X276772D01*
X272835D02*
X273819D01*
X199489Y169466D02*
X201159Y167796D01*
X209511Y168352D02*
X214522Y173363D01*
X213408Y183385D02*
X215078Y181715D01*
X200045Y177818D02*
X205056Y182829D01*
X190802Y165526D02*
X198597Y157731D01*
X195813Y154947D02*
X198597Y157731D01*
X188018Y162742D02*
X195813Y154947D01*
X188018Y162742D02*
X190802Y165526D01*
X289370Y187205D02*
Y191142D01*
X278346D02*
X289370D01*
X278346Y187205D02*
Y191142D01*
Y187205D02*
X289370D01*
X289369Y192126D02*
Y196063D01*
X278346D02*
X289369D01*
X278346Y192126D02*
Y196063D01*
Y192126D02*
X289369D01*
X227559Y35827D02*
X238583D01*
X227559D02*
Y39764D01*
X238583D01*
Y35827D02*
Y39764D01*
X256299Y119685D02*
X260236D01*
Y130709D01*
X256299D02*
X260236D01*
X256299Y119685D02*
Y130709D01*
X279331Y185433D02*
X283268D01*
X279331Y174409D02*
Y185433D01*
Y174409D02*
X283268D01*
Y185433D01*
X240354Y161811D02*
X244291D01*
X240354Y150787D02*
Y161811D01*
Y150787D02*
X244291D01*
Y161811D01*
X214710Y203321D02*
X217494Y200537D01*
X206915Y195526D02*
X214710Y203321D01*
X206915Y195526D02*
X209699Y192742D01*
X217494Y200537D01*
X256102Y50394D02*
X257087D01*
X253150D02*
X254134D01*
X256102D01*
X253150Y53543D02*
X257087D01*
X246457Y40748D02*
Y41142D01*
Y32480D02*
Y40748D01*
X242126Y32480D02*
Y32874D01*
Y40748D02*
Y41142D01*
Y32874D02*
Y40748D01*
X165748Y163976D02*
Y164961D01*
Y161024D02*
Y162008D01*
Y163976D01*
X162598Y161024D02*
Y164961D01*
X150787Y190748D02*
Y191732D01*
Y187795D02*
Y188779D01*
Y190748D01*
X147638Y187795D02*
Y191732D01*
X316383Y73819D02*
Y84843D01*
X312446Y73819D02*
X316383D01*
X312446D02*
Y84843D01*
X316383D01*
X283859Y57087D02*
X294882D01*
Y53150D02*
Y57087D01*
X283859Y53150D02*
X294882D01*
X283859D02*
Y57087D01*
X283465Y65748D02*
Y71260D01*
X288976Y65748D02*
Y71260D01*
X231890Y282480D02*
X235827D01*
X231890Y271457D02*
Y282480D01*
Y271457D02*
X235827D01*
Y282480D01*
X201417Y282480D02*
X201811D01*
X210079D01*
X209685Y278150D02*
X210079D01*
X201417D02*
X201811D01*
X209685D01*
X240551Y264961D02*
X251575D01*
X240551D02*
Y268898D01*
X251575D01*
Y264961D02*
Y268898D01*
X217323Y262992D02*
Y266929D01*
Y262992D02*
X228346D01*
Y266929D01*
X217323D02*
X228346D01*
X277165Y201181D02*
Y205118D01*
X266142D02*
X277165D01*
X266142Y201181D02*
Y205118D01*
Y201181D02*
X277165D01*
X277165Y207578D02*
Y211515D01*
X266141D02*
X277165D01*
X266141Y207578D02*
Y211515D01*
Y207578D02*
X277165D01*
X275590Y142126D02*
Y146063D01*
X264567D02*
X275590D01*
X264567Y142126D02*
Y146063D01*
Y142126D02*
X275590D01*
X306299Y173228D02*
Y177165D01*
X295276D02*
X306299D01*
X295276Y173228D02*
Y177165D01*
Y173228D02*
X306299D01*
X232087Y218543D02*
X236024D01*
X233071Y215394D02*
X235039D01*
X232087D02*
X233071D01*
X235039D02*
X236024D01*
X224213D02*
X228150D01*
X225197Y218543D02*
X227165D01*
X228150D01*
X224213D02*
X225197D01*
X303937Y155512D02*
X307874D01*
Y166535D01*
X303937D02*
X307874D01*
X303937Y155512D02*
Y166535D01*
X295669Y162284D02*
X299606D01*
X296654Y159134D02*
X298622D01*
X295669D02*
X296654D01*
X298622D02*
X299606D01*
X293307Y151418D02*
X304331D01*
Y147481D02*
Y151418D01*
X293307Y147481D02*
X304331D01*
X293307D02*
Y151418D01*
X212794Y166613D02*
X223818D01*
Y162676D02*
Y166613D01*
X212794Y162676D02*
X223818D01*
X212794D02*
Y166613D01*
X212795Y157164D02*
Y161101D01*
Y157164D02*
X223818D01*
Y161101D01*
X212795D02*
X223818D01*
X235236Y150787D02*
Y161811D01*
X239173D01*
Y150787D02*
Y161811D01*
X235236Y150787D02*
X239173D01*
X225197Y150393D02*
Y161417D01*
X229134D01*
Y150393D02*
Y161417D01*
X225197Y150393D02*
X229134D01*
X230118D02*
Y161417D01*
X234055D01*
Y150393D02*
Y161417D01*
X230118Y150393D02*
X234055D01*
X241142Y140551D02*
X245079D01*
X242126Y143701D02*
X244094D01*
X245079D01*
X241142D02*
X242126D01*
X247441D02*
X251378D01*
X248425Y140551D02*
X250394D01*
X247441D02*
X248425D01*
X250394D02*
X251378D01*
X260236Y108268D02*
Y119291D01*
X256299Y108268D02*
X260236D01*
X256299D02*
Y119291D01*
X260236D01*
X185433Y101772D02*
X193307D01*
X185039D02*
X185433D01*
X193307D02*
X193701D01*
X185433Y106102D02*
X193701D01*
X185039D02*
X185433D01*
X273228Y277953D02*
X273622D01*
X264961D02*
X273228D01*
X264961Y282283D02*
X265354D01*
X273228D02*
X273622D01*
X265354D02*
X273228D01*
X239370Y282480D02*
X243307D01*
X239370Y271456D02*
Y282480D01*
Y271456D02*
X243307D01*
Y282480D01*
X162402Y168110D02*
Y169095D01*
Y171063D02*
Y172047D01*
Y169095D02*
Y171063D01*
X165551Y168110D02*
Y172047D01*
X75984Y212992D02*
Y213386D01*
Y221654D01*
X80315Y221260D02*
Y221654D01*
Y212992D02*
Y213386D01*
Y221260D01*
X71260Y5512D02*
X82284D01*
X71260D02*
Y9449D01*
X82284D01*
Y5512D02*
Y9449D01*
X131102Y19685D02*
Y30709D01*
X127165Y19685D02*
X131102D01*
X127165D02*
Y30709D01*
X131102D01*
X45947Y19685D02*
Y23622D01*
X42797Y20669D02*
Y22638D01*
Y23622D01*
Y19685D02*
Y20669D01*
X42797Y11811D02*
Y15748D01*
X45947Y12795D02*
Y14764D01*
Y11811D02*
Y12795D01*
Y14764D02*
Y15748D01*
X38976Y3937D02*
Y7874D01*
Y3937D02*
X50000D01*
Y7874D01*
X38976D02*
X50000D01*
X93701Y105709D02*
Y116733D01*
X89764Y105709D02*
X93701D01*
X89764D02*
Y116733D01*
X93701D01*
X185827Y176772D02*
X189764D01*
X186811Y173622D02*
X188779D01*
X185827D02*
X186811D01*
X188779D02*
X189764D01*
X185827Y186614D02*
X189764D01*
X186811Y189764D02*
X188779D01*
X189764D01*
X185827D02*
X186811D01*
X81890Y234272D02*
X88976D01*
X81890Y227972D02*
X88976D01*
X134055Y124724D02*
X145079D01*
X134055D02*
Y128661D01*
X145079D01*
Y124724D02*
Y128661D01*
X402624Y120209D02*
X401968Y120865D01*
X400656D01*
X400000Y120209D01*
Y117585D01*
X400656Y116929D01*
X401968D01*
X402624Y117585D01*
Y118897D01*
X401312D01*
X416797Y111154D02*
X416141Y111810D01*
X414829D01*
X414173Y111154D01*
Y110498D01*
X414829Y109842D01*
X416141D01*
X416797Y109186D01*
Y108530D01*
X416141Y107874D01*
X414829D01*
X414173Y108530D01*
X407087Y102361D02*
Y98425D01*
X409055D01*
X409710Y99081D01*
Y101705D01*
X409055Y102361D01*
X407087D01*
X133465Y229921D02*
X132809Y230577D01*
Y231889D01*
X132153Y232545D01*
X133465Y209842D02*
X132809Y210498D01*
Y211810D01*
X132153Y212466D01*
D14*
X1575Y170079D02*
Y205512D01*
X15157D01*
X41535D02*
X58661D01*
Y199606D02*
Y205512D01*
Y170079D02*
Y177953D01*
X1575Y170079D02*
X15157D01*
X52953D02*
X58661D01*
X155512Y-5512D02*
X190945D01*
X155512D02*
Y8071D01*
Y34449D02*
Y51575D01*
X161417D01*
X183071D02*
X190945D01*
Y-5512D02*
Y8071D01*
Y45866D02*
Y51575D01*
D15*
X11417Y29528D02*
X40945D01*
X11417Y100394D02*
X40945D01*
D16*
X310630Y90886D02*
Y133012D01*
X296063Y90886D02*
X310630D01*
X296063D02*
Y133012D01*
X310630D01*
X336614Y69882D02*
Y112008D01*
X322047Y69882D02*
X336614D01*
X322047D02*
Y112008D01*
X336614D01*
X50000Y120361D02*
X52784Y117577D01*
X50000D02*
X52784Y120361D01*
D17*
X418440Y6890D02*
X422375D01*
X421064Y8202D01*
X422375Y9514D01*
X418440D01*
X422375Y10825D02*
Y12137D01*
Y11481D01*
X419752D01*
Y10825D01*
X420408Y14105D02*
Y16729D01*
X418440Y20665D02*
Y18041D01*
X420408D01*
Y19353D01*
Y18041D01*
X422375D01*
Y21977D02*
Y23289D01*
Y22633D01*
X419752D01*
Y21977D01*
X423032Y25256D02*
Y27880D01*
X422375Y29192D02*
Y31160D01*
X421720Y31816D01*
X421064Y31160D01*
Y29848D01*
X420408Y29192D01*
X419752Y29848D01*
Y31816D01*
X422375Y35096D02*
Y33784D01*
X421720Y33128D01*
X420408D01*
X419752Y33784D01*
Y35096D01*
X420408Y35752D01*
X421064D01*
Y33128D01*
X419752Y39688D02*
Y37720D01*
X420408Y37064D01*
X421720D01*
X422375Y37720D01*
Y39688D01*
Y40999D02*
X421720D01*
Y41655D01*
X422375D01*
Y40999D01*
X423032Y44279D02*
Y46903D01*
X418440Y50839D02*
X422375D01*
Y48871D01*
X421720Y48215D01*
X420408D01*
X419752Y48871D01*
Y50839D01*
X422375Y54119D02*
Y52807D01*
X421720Y52151D01*
X420408D01*
X419752Y52807D01*
Y54119D01*
X420408Y54775D01*
X421064D01*
Y52151D01*
X419096Y56742D02*
X419752D01*
Y56086D01*
Y57398D01*
Y56742D01*
X421720D01*
X422375Y57398D01*
Y59366D02*
X421720D01*
Y60022D01*
X422375D01*
Y59366D01*
X423032Y62646D02*
Y65270D01*
X419752Y66582D02*
X422375Y67894D01*
X419752Y69206D01*
X419096Y70517D02*
X418440Y71174D01*
Y72485D01*
X419096Y73141D01*
X421720D01*
X422375Y72485D01*
Y71174D01*
X421720Y70517D01*
X419096D01*
X422375Y74453D02*
Y75765D01*
Y75109D01*
X418440D01*
X419096Y74453D01*
X309646Y134449D02*
X310695D01*
X310170D01*
Y137597D01*
X309646Y137073D01*
X338386Y104921D02*
X339435D01*
X338911D01*
Y108070D01*
X338386Y107545D01*
X110499Y153805D02*
X109975Y154330D01*
X108925D01*
X108400Y153805D01*
Y151706D01*
X108925Y151182D01*
X109975D01*
X110499Y151706D01*
X113123Y151182D02*
Y154330D01*
X111549Y152756D01*
X113648D01*
X114698Y154330D02*
X116797D01*
Y153805D01*
X114698Y151706D01*
Y151182D01*
X68242Y225196D02*
Y222048D01*
X69817D01*
X70341Y222572D01*
Y224672D01*
X69817Y225196D01*
X68242D01*
X71391Y222572D02*
X71916Y222048D01*
X72965D01*
X73490Y222572D01*
Y224672D01*
X72965Y225196D01*
X71916D01*
X71391Y224672D01*
Y224147D01*
X71916Y223622D01*
X73490D01*
X54463Y1182D02*
Y4330D01*
X56038D01*
X56562Y3805D01*
Y2756D01*
X56038Y2231D01*
X54463D01*
X55513D02*
X56562Y1182D01*
X57612Y3805D02*
X58137Y4330D01*
X59186D01*
X59711Y3805D01*
Y3281D01*
X59186Y2756D01*
X58661D01*
X59186D01*
X59711Y2231D01*
Y1706D01*
X59186Y1182D01*
X58137D01*
X57612Y1706D01*
X60760Y4330D02*
X62859D01*
Y3805D01*
X60760Y1706D01*
Y1182D01*
X208424Y190473D02*
X210523Y187325D01*
Y190473D02*
X208424Y187325D01*
X211573Y190473D02*
X213672D01*
X212622D01*
Y187325D01*
X214721D02*
Y189424D01*
X215771Y190473D01*
X216821Y189424D01*
Y187325D01*
Y188899D01*
X214721D01*
X217870Y190473D02*
Y187325D01*
X219969D01*
X221019D02*
X222068D01*
X221543D01*
Y190473D01*
X221019Y189948D01*
X208300Y139249D02*
X210399Y136100D01*
Y139249D02*
X208300Y136100D01*
X211449D02*
X212498D01*
X211973D01*
Y139249D01*
X211449Y138724D01*
X211288Y28346D02*
Y25722D01*
X211813Y25197D01*
X212862D01*
X213387Y25722D01*
Y28346D01*
X216535Y27821D02*
X216011Y28346D01*
X214961D01*
X214436Y27821D01*
Y27296D01*
X214961Y26772D01*
X216011D01*
X216535Y26247D01*
Y25722D01*
X216011Y25197D01*
X214961D01*
X214436Y25722D01*
X217585Y28346D02*
Y25197D01*
X219159D01*
X219684Y25722D01*
Y26247D01*
X219159Y26772D01*
X217585D01*
X219159D01*
X219684Y27296D01*
Y27821D01*
X219159Y28346D01*
X217585D01*
X220734Y25197D02*
X221783D01*
X221258D01*
Y28346D01*
X220734Y27821D01*
X280447Y172440D02*
Y169817D01*
X280972Y169292D01*
X282021D01*
X282546Y169817D01*
Y172440D01*
X285695D02*
X284645Y171916D01*
X283596Y170866D01*
Y169817D01*
X284120Y169292D01*
X285170D01*
X285695Y169817D01*
Y170341D01*
X285170Y170866D01*
X283596D01*
X257612Y205905D02*
Y203281D01*
X258137Y202756D01*
X259187D01*
X259712Y203281D01*
Y205905D01*
X262860D02*
X260761D01*
Y204331D01*
X261810Y204855D01*
X262335D01*
X262860Y204331D01*
Y203281D01*
X262335Y202756D01*
X261286D01*
X260761Y203281D01*
X224935Y138976D02*
Y136352D01*
X225460Y135827D01*
X226509D01*
X227034Y136352D01*
Y138976D01*
X229658Y135827D02*
Y138976D01*
X228084Y137402D01*
X230183D01*
X14699Y106692D02*
Y104069D01*
X15224Y103544D01*
X16273D01*
X16798Y104069D01*
Y106692D01*
X17848Y106168D02*
X18372Y106692D01*
X19422D01*
X19947Y106168D01*
Y105643D01*
X19422Y105118D01*
X18897D01*
X19422D01*
X19947Y104593D01*
Y104069D01*
X19422Y103544D01*
X18372D01*
X17848Y104069D01*
X150788Y195014D02*
X153412D01*
X153937Y195539D01*
Y196588D01*
X153412Y197113D01*
X150788D01*
X153937Y200262D02*
Y198163D01*
X151837Y200262D01*
X151313D01*
X150788Y199737D01*
Y198687D01*
X151313Y198163D01*
X151705Y127953D02*
Y130577D01*
X151181Y131102D01*
X150131D01*
X149606Y130577D01*
Y127953D01*
X148557Y131102D02*
X147507D01*
X148032D01*
Y127953D01*
X148557Y128478D01*
X52232Y352755D02*
X54331D01*
X53281D01*
Y349607D01*
X55380D02*
X56430D01*
X55905D01*
Y352755D01*
X55380Y352231D01*
X126640Y8661D02*
X127165Y9186D01*
Y10235D01*
X126640Y10760D01*
X126115D01*
X125591Y10235D01*
Y9186D01*
X125066Y8661D01*
X124541D01*
X124016Y9186D01*
Y10235D01*
X124541Y10760D01*
X127165Y7611D02*
X124016D01*
X125066Y6562D01*
X124016Y5512D01*
X127165D01*
X124016Y4463D02*
Y3413D01*
Y3938D01*
X127165D01*
X126640Y4463D01*
X389764Y124278D02*
X389239Y124803D01*
X388190D01*
X387665Y124278D01*
Y123753D01*
X388190Y123228D01*
X389239D01*
X389764Y122704D01*
Y122179D01*
X389239Y121654D01*
X388190D01*
X387665Y122179D01*
X390813Y121654D02*
X391863D01*
X391338D01*
Y124803D01*
X390813Y124278D01*
X233991Y361811D02*
Y364960D01*
X235565D01*
X236090Y364435D01*
Y363386D01*
X235565Y362861D01*
X233991D01*
X235040D02*
X236090Y361811D01*
X237139Y364960D02*
Y361811D01*
X239239D01*
X242387D02*
X240288D01*
X242387Y363911D01*
Y364435D01*
X241862Y364960D01*
X240813D01*
X240288Y364435D01*
X183335Y361024D02*
Y364173D01*
X184909D01*
X185434Y363648D01*
Y362598D01*
X184909Y362074D01*
X183335D01*
X184384D02*
X185434Y361024D01*
X186483Y364173D02*
Y361024D01*
X188582D01*
X189632D02*
X190681D01*
X190156D01*
Y364173D01*
X189632Y363648D01*
X281889Y51314D02*
X278741D01*
Y52888D01*
X279265Y53413D01*
X280315D01*
X280840Y52888D01*
Y51314D01*
Y52363D02*
X281889Y53413D01*
X279265Y54462D02*
X278741Y54987D01*
Y56037D01*
X279265Y56561D01*
X279790D01*
X280315Y56037D01*
Y55512D01*
Y56037D01*
X280840Y56561D01*
X281364D01*
X281889Y56037D01*
Y54987D01*
X281364Y54462D01*
X278741Y59710D02*
X279265Y58660D01*
X280315Y57611D01*
X281364D01*
X281889Y58136D01*
Y59185D01*
X281364Y59710D01*
X280840D01*
X280315Y59185D01*
Y57611D01*
X309581Y68898D02*
Y72047D01*
X311156D01*
X311681Y71522D01*
Y70473D01*
X311156Y69948D01*
X309581D01*
X310631D02*
X311681Y68898D01*
X312730Y71522D02*
X313255Y72047D01*
X314304D01*
X314829Y71522D01*
Y70997D01*
X314304Y70473D01*
X313779D01*
X314304D01*
X314829Y69948D01*
Y69423D01*
X314304Y68898D01*
X313255D01*
X312730Y69423D01*
X317978Y72047D02*
X315879D01*
Y70473D01*
X316928Y70997D01*
X317453D01*
X317978Y70473D01*
Y69423D01*
X317453Y68898D01*
X316403D01*
X315879Y69423D01*
X228346Y141996D02*
X225197D01*
Y143570D01*
X225722Y144095D01*
X226772D01*
X227296Y143570D01*
Y141996D01*
Y143045D02*
X228346Y144095D01*
Y147244D02*
Y145144D01*
X226247Y147244D01*
X225722D01*
X225197Y146719D01*
Y145669D01*
X225722Y145144D01*
X228346Y148293D02*
Y149343D01*
Y148818D01*
X225197D01*
X225722Y148293D01*
X305512Y154198D02*
X308661D01*
Y152624D01*
X308136Y152099D01*
X307087D01*
X306562Y152624D01*
Y154198D01*
Y153149D02*
X305512Y152099D01*
Y148951D02*
Y151049D01*
X307611Y148951D01*
X308136D01*
X308661Y149475D01*
Y150525D01*
X308136Y151049D01*
Y147901D02*
X308661Y147376D01*
Y146327D01*
X308136Y145802D01*
X306037D01*
X305512Y146327D01*
Y147376D01*
X306037Y147901D01*
X308136D01*
X239370Y162600D02*
X236221D01*
Y164174D01*
X236746Y164699D01*
X237795D01*
X238320Y164174D01*
Y162600D01*
Y163649D02*
X239370Y164699D01*
Y165748D02*
Y166798D01*
Y166273D01*
X236221D01*
X236746Y165748D01*
X238845Y168372D02*
X239370Y168897D01*
Y169946D01*
X238845Y170471D01*
X236746D01*
X236221Y169946D01*
Y168897D01*
X236746Y168372D01*
X237270D01*
X237795Y168897D01*
Y170471D01*
X233858Y141340D02*
X230709D01*
Y142914D01*
X231234Y143439D01*
X232283D01*
X232808Y142914D01*
Y141340D01*
Y142389D02*
X233858Y143439D01*
Y144488D02*
Y145538D01*
Y145013D01*
X230709D01*
X231234Y144488D01*
Y147112D02*
X230709Y147637D01*
Y148687D01*
X231234Y149211D01*
X231759D01*
X232283Y148687D01*
X232808Y149211D01*
X233333D01*
X233858Y148687D01*
Y147637D01*
X233333Y147112D01*
X232808D01*
X232283Y147637D01*
X231759Y147112D01*
X231234D01*
X232283Y147637D02*
Y148687D01*
X284646Y183070D02*
X287795D01*
Y181495D01*
X287270Y180971D01*
X286221D01*
X285696Y181495D01*
Y183070D01*
Y182020D02*
X284646Y180971D01*
Y179921D02*
Y178872D01*
Y179396D01*
X287795D01*
X287270Y179921D01*
X287795Y177297D02*
Y175198D01*
X287270D01*
X285171Y177297D01*
X284646D01*
X244094Y162600D02*
X240945D01*
Y164174D01*
X241470Y164699D01*
X242520D01*
X243044Y164174D01*
Y162600D01*
Y163649D02*
X244094Y164699D01*
Y165748D02*
Y166798D01*
Y166273D01*
X240945D01*
X241470Y165748D01*
X240945Y170471D02*
X241470Y169422D01*
X242520Y168372D01*
X243569D01*
X244094Y168897D01*
Y169946D01*
X243569Y170471D01*
X243044D01*
X242520Y169946D01*
Y168372D01*
X269293Y187796D02*
Y190944D01*
X270867D01*
X271392Y190420D01*
Y189370D01*
X270867Y188845D01*
X269293D01*
X270342D02*
X271392Y187796D01*
X272441D02*
X273491D01*
X272966D01*
Y190944D01*
X272441Y190420D01*
X277164Y190944D02*
X275065D01*
Y189370D01*
X276115Y189895D01*
X276639D01*
X277164Y189370D01*
Y188321D01*
X276639Y187796D01*
X275590D01*
X275065Y188321D01*
X283859Y197245D02*
Y200393D01*
X285434D01*
X285959Y199868D01*
Y198819D01*
X285434Y198294D01*
X283859D01*
X284909D02*
X285959Y197245D01*
X287008D02*
X288058D01*
X287533D01*
Y200393D01*
X287008Y199868D01*
X291206Y197245D02*
Y200393D01*
X289632Y198819D01*
X291731D01*
X98031Y107482D02*
X94882D01*
Y109056D01*
X95407Y109581D01*
X96457D01*
X96981Y109056D01*
Y107482D01*
Y108531D02*
X98031Y109581D01*
Y110630D02*
Y111680D01*
Y111155D01*
X94882D01*
X95407Y110630D01*
Y113254D02*
X94882Y113779D01*
Y114828D01*
X95407Y115353D01*
X95932D01*
X96457Y114828D01*
Y114304D01*
Y114828D01*
X96981Y115353D01*
X97506D01*
X98031Y114828D01*
Y113779D01*
X97506Y113254D01*
X237796Y231497D02*
Y234645D01*
X239371D01*
X239896Y234120D01*
Y233071D01*
X239371Y232546D01*
X237796D01*
X238846D02*
X239896Y231497D01*
X240945D02*
X241995D01*
X241470D01*
Y234645D01*
X240945Y234120D01*
X245668Y231497D02*
X243569D01*
X245668Y233596D01*
Y234120D01*
X245143Y234645D01*
X244094D01*
X243569Y234120D01*
X214895Y167401D02*
Y170549D01*
X216470D01*
X216994Y170025D01*
Y168975D01*
X216470Y168450D01*
X214895D01*
X215945D02*
X216994Y167401D01*
X218044D02*
X219093D01*
X218569D01*
Y170549D01*
X218044Y170025D01*
X220668Y167401D02*
X221717D01*
X221193D01*
Y170549D01*
X220668Y170025D01*
X255118Y121655D02*
X251969D01*
Y123229D01*
X252494Y123754D01*
X253543D01*
X254068Y123229D01*
Y121655D01*
Y122704D02*
X255118Y123754D01*
Y124803D02*
Y125853D01*
Y125328D01*
X251969D01*
X252494Y124803D01*
Y127427D02*
X251969Y127952D01*
Y129001D01*
X252494Y129526D01*
X254593D01*
X255118Y129001D01*
Y127952D01*
X254593Y127427D01*
X252494D01*
X254724Y111549D02*
X251575D01*
Y113124D01*
X252100Y113648D01*
X253150D01*
X253674Y113124D01*
Y111549D01*
Y112599D02*
X254724Y113648D01*
X254199Y114698D02*
X254724Y115223D01*
Y116272D01*
X254199Y116797D01*
X252100D01*
X251575Y116272D01*
Y115223D01*
X252100Y114698D01*
X252625D01*
X253150Y115223D01*
Y116797D01*
X74148Y1182D02*
Y4330D01*
X75722D01*
X76247Y3805D01*
Y2756D01*
X75722Y2231D01*
X74148D01*
X75197D02*
X76247Y1182D01*
X77296Y3805D02*
X77821Y4330D01*
X78871D01*
X79396Y3805D01*
Y3281D01*
X78871Y2756D01*
X79396Y2231D01*
Y1706D01*
X78871Y1182D01*
X77821D01*
X77296Y1706D01*
Y2231D01*
X77821Y2756D01*
X77296Y3281D01*
Y3805D01*
X77821Y2756D02*
X78871D01*
X78872Y23623D02*
Y26771D01*
X80446D01*
X80971Y26246D01*
Y25197D01*
X80446Y24672D01*
X78872D01*
X79922D02*
X80971Y23623D01*
X82021Y26771D02*
X84120D01*
Y26246D01*
X82021Y24147D01*
Y23623D01*
X126116Y14961D02*
Y18110D01*
X127691D01*
X128215Y17585D01*
Y16535D01*
X127691Y16011D01*
X126116D01*
X127166D02*
X128215Y14961D01*
X131364Y18110D02*
X130315Y17585D01*
X129265Y16535D01*
Y15486D01*
X129790Y14961D01*
X130839D01*
X131364Y15486D01*
Y16011D01*
X130839Y16535D01*
X129265D01*
X237927Y284253D02*
Y287401D01*
X239502D01*
X240026Y286876D01*
Y285827D01*
X239502Y285302D01*
X237927D01*
X238977D02*
X240026Y284253D01*
X243175Y287401D02*
X241076D01*
Y285827D01*
X242126Y286351D01*
X242650D01*
X243175Y285827D01*
Y284777D01*
X242650Y284253D01*
X241601D01*
X241076Y284777D01*
X240683Y261024D02*
Y264173D01*
X242258D01*
X242782Y263648D01*
Y262598D01*
X242258Y262074D01*
X240683D01*
X241733D02*
X242782Y261024D01*
X245406D02*
Y264173D01*
X243832Y262598D01*
X245931D01*
X231235Y266536D02*
Y269685D01*
X232809D01*
X233333Y269160D01*
Y268110D01*
X232809Y267585D01*
X231235D01*
X232284D02*
X233333Y266536D01*
X234383Y269160D02*
X234908Y269685D01*
X235957D01*
X236482Y269160D01*
Y268635D01*
X235957Y268110D01*
X235433D01*
X235957D01*
X236482Y267585D01*
Y267061D01*
X235957Y266536D01*
X234908D01*
X234383Y267061D01*
X38321Y392520D02*
Y395669D01*
X39895D01*
X40420Y395144D01*
Y394094D01*
X39895Y393570D01*
X38321D01*
X39371D02*
X40420Y392520D01*
X43569D02*
X41470D01*
X43569Y394619D01*
Y395144D01*
X43044Y395669D01*
X41994D01*
X41470Y395144D01*
X215354Y262862D02*
X212205D01*
Y264436D01*
X212730Y264961D01*
X213779D01*
X214304Y264436D01*
Y262862D01*
Y263911D02*
X215354Y264961D01*
Y266010D02*
Y267060D01*
Y266535D01*
X212205D01*
X212730Y266010D01*
X291208Y80840D02*
Y82939D01*
X290683Y83464D01*
X289633D01*
X289108Y82939D01*
Y80840D01*
X289633Y80316D01*
X290683D01*
X290158Y81365D02*
X291208Y80316D01*
X290683D02*
X291208Y80840D01*
X294356Y83464D02*
X292257D01*
Y81890D01*
X293307Y82415D01*
X293831D01*
X294356Y81890D01*
Y80840D01*
X293831Y80316D01*
X292782D01*
X292257Y80840D01*
X74672Y120210D02*
Y122309D01*
X74147Y122834D01*
X73098D01*
X72573Y122309D01*
Y120210D01*
X73098Y119685D01*
X74147D01*
X73623Y120735D02*
X74672Y119685D01*
X74147D02*
X74672Y120210D01*
X77296Y119685D02*
Y122834D01*
X75722Y121260D01*
X77821D01*
X51444Y22179D02*
Y24278D01*
X50919Y24803D01*
X49869D01*
X49345Y24278D01*
Y22179D01*
X49869Y21654D01*
X50919D01*
X50394Y22704D02*
X51444Y21654D01*
X50919D02*
X51444Y22179D01*
X52493Y24278D02*
X53018Y24803D01*
X54068D01*
X54592Y24278D01*
Y23753D01*
X54068Y23228D01*
X53543D01*
X54068D01*
X54592Y22704D01*
Y22179D01*
X54068Y21654D01*
X53018D01*
X52493Y22179D01*
X261286Y271785D02*
Y273884D01*
X260761Y274409D01*
X259712D01*
X259187Y273884D01*
Y271785D01*
X259712Y271260D01*
X260761D01*
X260237Y272310D02*
X261286Y271260D01*
X260761D02*
X261286Y271785D01*
X264435Y271260D02*
X262336D01*
X264435Y273359D01*
Y273884D01*
X263910Y274409D01*
X262861D01*
X262336Y273884D01*
X214961Y280447D02*
Y282546D01*
X214436Y283070D01*
X213386D01*
X212862Y282546D01*
Y280447D01*
X213386Y279922D01*
X214436D01*
X213911Y280971D02*
X214961Y279922D01*
X214436D02*
X214961Y280447D01*
X216010Y279922D02*
X217060D01*
X216535D01*
Y283070D01*
X216010Y282546D01*
X132940Y105118D02*
Y101969D01*
X135039D01*
X136089D02*
X137138D01*
X136614D01*
Y105118D01*
X136089Y104593D01*
X317192Y113779D02*
X316142D01*
X316667D01*
Y111155D01*
X316142Y110630D01*
X315617D01*
X315093Y111155D01*
X318241Y113254D02*
X318766Y113779D01*
X319816D01*
X320340Y113254D01*
Y112730D01*
X319816Y112205D01*
X320340Y111680D01*
Y111155D01*
X319816Y110630D01*
X318766D01*
X318241Y111155D01*
Y111680D01*
X318766Y112205D01*
X318241Y112730D01*
Y113254D01*
X318766Y112205D02*
X319816D01*
X307743Y271653D02*
X306693D01*
X307218D01*
Y269029D01*
X306693Y268504D01*
X306169D01*
X305644Y269029D01*
X308792Y271653D02*
X310892D01*
Y271128D01*
X308792Y269029D01*
Y268504D01*
X301050Y137795D02*
X300001D01*
X300525D01*
Y135171D01*
X300001Y134646D01*
X299476D01*
X298951Y135171D01*
X304199Y137795D02*
X303149Y137270D01*
X302100Y136221D01*
Y135171D01*
X302624Y134646D01*
X303674D01*
X304199Y135171D01*
Y135696D01*
X303674Y136221D01*
X302100D01*
X149869Y43700D02*
X148819D01*
X149344D01*
Y41076D01*
X148819Y40552D01*
X148295D01*
X147770Y41076D01*
X153017Y43700D02*
X150918D01*
Y42126D01*
X151968Y42651D01*
X152493D01*
X153017Y42126D01*
Y41076D01*
X152493Y40552D01*
X151443D01*
X150918Y41076D01*
X6562Y212598D02*
X5512D01*
X6037D01*
Y209974D01*
X5512Y209449D01*
X4988D01*
X4463Y209974D01*
X9186Y209449D02*
Y212598D01*
X7611Y211024D01*
X9710D01*
X7743Y395669D02*
X6693D01*
X7218D01*
Y393045D01*
X6693Y392520D01*
X6169D01*
X5644Y393045D01*
X8793Y395144D02*
X9317Y395669D01*
X10367D01*
X10892Y395144D01*
Y394619D01*
X10367Y394094D01*
X9842D01*
X10367D01*
X10892Y393570D01*
Y393045D01*
X10367Y392520D01*
X9317D01*
X8793Y393045D01*
X288845Y390157D02*
X287796D01*
X288321D01*
Y387533D01*
X287796Y387008D01*
X287271D01*
X286746Y387533D01*
X291994Y387008D02*
X289895D01*
X291994Y389107D01*
Y389632D01*
X291469Y390157D01*
X290420D01*
X289895Y389632D01*
X179134Y390157D02*
X178084D01*
X178609D01*
Y387533D01*
X178084Y387008D01*
X177560D01*
X177035Y387533D01*
X180183Y387008D02*
X181233D01*
X180708D01*
Y390157D01*
X180183Y389632D01*
X70472Y233464D02*
X68373D01*
Y231890D01*
X69423D01*
X68373D01*
Y230315D01*
X71522D02*
X72571D01*
X72047D01*
Y233464D01*
X71522Y232939D01*
X278741Y65093D02*
X281889D01*
Y66667D01*
X281364Y67192D01*
X279265D01*
X278741Y66667D01*
Y65093D01*
X279265Y68241D02*
X278741Y68766D01*
Y69816D01*
X279265Y70340D01*
X279790D01*
X280315Y69816D01*
X280840Y70340D01*
X281364D01*
X281889Y69816D01*
Y68766D01*
X281364Y68241D01*
X280840D01*
X280315Y68766D01*
X279790Y68241D01*
X279265D01*
X280315Y68766D02*
Y69816D01*
X222048Y35171D02*
X225196D01*
Y36746D01*
X224672Y37271D01*
X222572D01*
X222048Y36746D01*
Y35171D01*
Y40419D02*
X222572Y39370D01*
X223622Y38320D01*
X224672D01*
X225196Y38845D01*
Y39894D01*
X224672Y40419D01*
X224147D01*
X223622Y39894D01*
Y38320D01*
X192388Y97441D02*
Y100590D01*
X190813D01*
X190289Y100065D01*
Y97966D01*
X190813Y97441D01*
X192388D01*
X187140D02*
X189239D01*
Y99016D01*
X188189Y98491D01*
X187665D01*
X187140Y99016D01*
Y100065D01*
X187665Y100590D01*
X188714D01*
X189239Y100065D01*
X248164Y31102D02*
Y27953D01*
X249738D01*
X250263Y28478D01*
Y30577D01*
X249738Y31102D01*
X248164D01*
X252887Y27953D02*
Y31102D01*
X251312Y29528D01*
X253411D01*
X121392Y105905D02*
Y102756D01*
X122966D01*
X123491Y103281D01*
Y105380D01*
X122966Y105905D01*
X121392D01*
X124540Y105380D02*
X125065Y105905D01*
X126115D01*
X126640Y105380D01*
Y104856D01*
X126115Y104331D01*
X125590D01*
X126115D01*
X126640Y103806D01*
Y103281D01*
X126115Y102756D01*
X125065D01*
X124540Y103281D01*
X267061Y276377D02*
Y273229D01*
X268636D01*
X269160Y273754D01*
Y275853D01*
X268636Y276377D01*
X267061D01*
X272309Y273229D02*
X270210D01*
X272309Y275328D01*
Y275853D01*
X271784Y276377D01*
X270735D01*
X270210Y275853D01*
X203413Y276771D02*
Y273623D01*
X204987D01*
X205512Y274147D01*
Y276246D01*
X204987Y276771D01*
X203413D01*
X206561Y273623D02*
X207611D01*
X207086D01*
Y276771D01*
X206561Y276246D01*
X288977Y165223D02*
X288452Y165747D01*
X287403D01*
X286878Y165223D01*
Y163124D01*
X287403Y162599D01*
X288452D01*
X288977Y163124D01*
X290026Y165223D02*
X290551Y165747D01*
X291601D01*
X292126Y165223D01*
Y164698D01*
X291601Y164173D01*
X291076D01*
X291601D01*
X292126Y163648D01*
Y163124D01*
X291601Y162599D01*
X290551D01*
X290026Y163124D01*
X293175Y162599D02*
X294225D01*
X293700D01*
Y165747D01*
X293175Y165223D01*
X303019Y170341D02*
X302494Y170866D01*
X301445D01*
X300920Y170341D01*
Y168242D01*
X301445Y167717D01*
X302494D01*
X303019Y168242D01*
X304069Y170341D02*
X304593Y170866D01*
X305643D01*
X306168Y170341D01*
Y169816D01*
X305643Y169291D01*
X305118D01*
X305643D01*
X306168Y168767D01*
Y168242D01*
X305643Y167717D01*
X304593D01*
X304069Y168242D01*
X307217Y170341D02*
X307742Y170866D01*
X308791D01*
X309316Y170341D01*
Y168242D01*
X308791Y167717D01*
X307742D01*
X307217Y168242D01*
Y170341D01*
X173885Y171522D02*
X173360Y172047D01*
X172311D01*
X171786Y171522D01*
Y169423D01*
X172311Y168898D01*
X173360D01*
X173885Y169423D01*
X177034Y168898D02*
X174935D01*
X177034Y170997D01*
Y171522D01*
X176509Y172047D01*
X175460D01*
X174935Y171522D01*
X178083Y169423D02*
X178608Y168898D01*
X179658D01*
X180182Y169423D01*
Y171522D01*
X179658Y172047D01*
X178608D01*
X178083Y171522D01*
Y170997D01*
X178608Y170473D01*
X180182D01*
X209383Y156640D02*
X208858Y156115D01*
Y155066D01*
X209383Y154541D01*
X211482D01*
X212007Y155066D01*
Y156115D01*
X211482Y156640D01*
X212007Y159788D02*
Y157689D01*
X209908Y159788D01*
X209383D01*
X208858Y159264D01*
Y158214D01*
X209383Y157689D01*
Y160838D02*
X208858Y161363D01*
Y162412D01*
X209383Y162937D01*
X209908D01*
X210432Y162412D01*
X210957Y162937D01*
X211482D01*
X212007Y162412D01*
Y161363D01*
X211482Y160838D01*
X210957D01*
X210432Y161363D01*
X209908Y160838D01*
X209383D01*
X210432Y161363D02*
Y162412D01*
X208004Y190957D02*
X208528Y190432D01*
X209578D01*
X210103Y190957D01*
Y193056D01*
X209578Y193581D01*
X208528D01*
X208004Y193056D01*
X204855Y193581D02*
X206954D01*
X204855Y191482D01*
Y190957D01*
X205380Y190432D01*
X206430D01*
X206954Y190957D01*
X203806Y190432D02*
X201707D01*
Y190957D01*
X203806Y193056D01*
Y193581D01*
X194534Y168368D02*
Y169110D01*
X193791Y169852D01*
X193049Y169852D01*
X191565Y168368D01*
Y167626D01*
X192307Y166884D01*
X193049Y166884D01*
X194904Y164286D02*
X193420Y165771D01*
X196389D01*
X196760Y166142D01*
Y166884D01*
X196018Y167626D01*
X195276Y167626D01*
X199357Y164286D02*
X198244Y164657D01*
X196760D01*
X196018Y163915D01*
Y163173D01*
X196760Y162431D01*
X197502Y162431D01*
X197873Y162802D01*
X197873Y163544D01*
X196760Y164657D01*
X242257Y129397D02*
X241733Y128872D01*
Y127823D01*
X242257Y127298D01*
X244357D01*
X244881Y127823D01*
Y128872D01*
X244357Y129397D01*
X244881Y132546D02*
Y130447D01*
X242782Y132546D01*
X242257D01*
X241733Y132021D01*
Y130971D01*
X242257Y130447D01*
X241733Y135694D02*
Y133595D01*
X243307D01*
X242782Y134645D01*
Y135169D01*
X243307Y135694D01*
X244357D01*
X244881Y135169D01*
Y134120D01*
X244357Y133595D01*
X248163Y129791D02*
X247638Y129266D01*
Y128216D01*
X248163Y127692D01*
X250262D01*
X250787Y128216D01*
Y129266D01*
X250262Y129791D01*
X250787Y132939D02*
Y130840D01*
X248688Y132939D01*
X248163D01*
X247638Y132414D01*
Y131365D01*
X248163Y130840D01*
X250787Y135563D02*
X247638D01*
X249213Y133989D01*
Y136088D01*
X176247Y156955D02*
X175723Y157480D01*
X174673D01*
X174148Y156955D01*
Y154856D01*
X174673Y154331D01*
X175723D01*
X176247Y154856D01*
X179396Y154331D02*
X177297D01*
X179396Y156430D01*
Y156955D01*
X178871Y157480D01*
X177822D01*
X177297Y156955D01*
X180446D02*
X180970Y157480D01*
X182020D01*
X182545Y156955D01*
Y156430D01*
X182020Y155905D01*
X181495D01*
X182020D01*
X182545Y155381D01*
Y154856D01*
X182020Y154331D01*
X180970D01*
X180446Y154856D01*
X299082Y180971D02*
X298557Y181496D01*
X297508D01*
X296983Y180971D01*
Y178872D01*
X297508Y178347D01*
X298557D01*
X299082Y178872D01*
X302231Y178347D02*
X300132D01*
X302231Y180446D01*
Y180971D01*
X301706Y181496D01*
X300656D01*
X300132Y180971D01*
X305379Y178347D02*
X303280D01*
X305379Y180446D01*
Y180971D01*
X304854Y181496D01*
X303805D01*
X303280Y180971D01*
X267717Y140026D02*
X267192Y140551D01*
X266143D01*
X265618Y140026D01*
Y137927D01*
X266143Y137402D01*
X267192D01*
X267717Y137927D01*
X270866Y137402D02*
X268767D01*
X270866Y139501D01*
Y140026D01*
X270341Y140551D01*
X269291D01*
X268767Y140026D01*
X271915Y137402D02*
X272965D01*
X272440D01*
Y140551D01*
X271915Y140026D01*
X280972Y210105D02*
X280447Y210629D01*
X279398D01*
X278873Y210105D01*
Y208006D01*
X279398Y207481D01*
X280447D01*
X280972Y208006D01*
X284120Y207481D02*
X282021D01*
X284120Y209580D01*
Y210105D01*
X283596Y210629D01*
X282546D01*
X282021Y210105D01*
X285170D02*
X285695Y210629D01*
X286744D01*
X287269Y210105D01*
Y208006D01*
X286744Y207481D01*
X285695D01*
X285170Y208006D01*
Y210105D01*
X270604Y199475D02*
X270079Y199999D01*
X269030D01*
X268505Y199475D01*
Y197376D01*
X269030Y196851D01*
X270079D01*
X270604Y197376D01*
X271654Y196851D02*
X272703D01*
X272179D01*
Y199999D01*
X271654Y199475D01*
X274278Y197376D02*
X274802Y196851D01*
X275852D01*
X276377Y197376D01*
Y199475D01*
X275852Y199999D01*
X274802D01*
X274278Y199475D01*
Y198950D01*
X274802Y198425D01*
X276377D01*
X26116Y22703D02*
X25591Y23228D01*
X24542D01*
X24017Y22703D01*
Y20604D01*
X24542Y20079D01*
X25591D01*
X26116Y20604D01*
X27166Y20079D02*
X28215D01*
X27690D01*
Y23228D01*
X27166Y22703D01*
X29789D02*
X30314Y23228D01*
X31364D01*
X31888Y22703D01*
Y22178D01*
X31364Y21654D01*
X31888Y21129D01*
Y20604D01*
X31364Y20079D01*
X30314D01*
X29789Y20604D01*
Y21129D01*
X30314Y21654D01*
X29789Y22178D01*
Y22703D01*
X30314Y21654D02*
X31364D01*
X231628Y227034D02*
X231103Y227559D01*
X230054D01*
X229529Y227034D01*
Y224935D01*
X230054Y224410D01*
X231103D01*
X231628Y224935D01*
X232677Y224410D02*
X233727D01*
X233202D01*
Y227559D01*
X232677Y227034D01*
X235301Y227559D02*
X237400D01*
Y227034D01*
X235301Y224935D01*
Y224410D01*
X26116Y6955D02*
X25591Y7480D01*
X24542D01*
X24017Y6955D01*
Y4856D01*
X24542Y4331D01*
X25591D01*
X26116Y4856D01*
X27166Y4331D02*
X28215D01*
X27690D01*
Y7480D01*
X27166Y6955D01*
X31888Y7480D02*
X30839Y6955D01*
X29789Y5906D01*
Y4856D01*
X30314Y4331D01*
X31364D01*
X31888Y4856D01*
Y5381D01*
X31364Y5906D01*
X29789D01*
X224148Y210498D02*
X223623Y211023D01*
X222573D01*
X222048Y210498D01*
Y208399D01*
X222573Y207874D01*
X223623D01*
X224148Y208399D01*
X225197Y207874D02*
X226247D01*
X225722D01*
Y211023D01*
X225197Y210498D01*
X229920Y211023D02*
X227821D01*
Y209449D01*
X228871Y209974D01*
X229395D01*
X229920Y209449D01*
Y208399D01*
X229395Y207874D01*
X228346D01*
X227821Y208399D01*
X26116Y14829D02*
X25591Y15354D01*
X24542D01*
X24017Y14829D01*
Y12730D01*
X24542Y12205D01*
X25591D01*
X26116Y12730D01*
X27166Y12205D02*
X28215D01*
X27690D01*
Y15354D01*
X27166Y14829D01*
X31364Y12205D02*
Y15354D01*
X29789Y13780D01*
X31888D01*
X193045Y180053D02*
X192520Y179528D01*
Y178479D01*
X193045Y177954D01*
X195144D01*
X195669Y178479D01*
Y179528D01*
X195144Y180053D01*
X195669Y181103D02*
Y182152D01*
Y181627D01*
X192520D01*
X193045Y181103D01*
Y183726D02*
X192520Y184251D01*
Y185301D01*
X193045Y185826D01*
X193570D01*
X194095Y185301D01*
Y184776D01*
Y185301D01*
X194619Y185826D01*
X195144D01*
X195669Y185301D01*
Y184251D01*
X195144Y183726D01*
X185959Y198687D02*
X185434Y199212D01*
X184384D01*
X183860Y198687D01*
Y196588D01*
X184384Y196063D01*
X185434D01*
X185959Y196588D01*
X187008Y196063D02*
X188058D01*
X187533D01*
Y199212D01*
X187008Y198687D01*
X191731Y196063D02*
X189632D01*
X191731Y198163D01*
Y198687D01*
X191206Y199212D01*
X190157D01*
X189632Y198687D01*
X288846Y132939D02*
X288321Y133464D01*
X287271D01*
X286747Y132939D01*
Y130840D01*
X287271Y130315D01*
X288321D01*
X288846Y130840D01*
X289895Y130315D02*
X290945D01*
X290420D01*
Y133464D01*
X289895Y132939D01*
X292519Y130315D02*
X293568D01*
X293044D01*
Y133464D01*
X292519Y132939D01*
X155250Y162730D02*
X154725Y162206D01*
Y161156D01*
X155250Y160631D01*
X157349D01*
X157873Y161156D01*
Y162206D01*
X157349Y162730D01*
X157873Y163780D02*
Y164829D01*
Y164305D01*
X154725D01*
X155250Y163780D01*
Y166404D02*
X154725Y166928D01*
Y167978D01*
X155250Y168503D01*
X157349D01*
X157873Y167978D01*
Y166928D01*
X157349Y166404D01*
X155250D01*
X140289Y189633D02*
X139764Y189108D01*
Y188058D01*
X140289Y187534D01*
X142388D01*
X142913Y188058D01*
Y189108D01*
X142388Y189633D01*
Y190682D02*
X142913Y191207D01*
Y192256D01*
X142388Y192781D01*
X140289D01*
X139764Y192256D01*
Y191207D01*
X140289Y190682D01*
X140814D01*
X141339Y191207D01*
Y192781D01*
X281365Y132939D02*
X280840Y133464D01*
X279791D01*
X279266Y132939D01*
Y130840D01*
X279791Y130315D01*
X280840D01*
X281365Y130840D01*
X282415Y132939D02*
X282939Y133464D01*
X283989D01*
X284514Y132939D01*
Y132414D01*
X283989Y131890D01*
X284514Y131365D01*
Y130840D01*
X283989Y130315D01*
X282939D01*
X282415Y130840D01*
Y131365D01*
X282939Y131890D01*
X282415Y132414D01*
Y132939D01*
X282939Y131890D02*
X283989D01*
X273885Y132939D02*
X273360Y133464D01*
X272310D01*
X271786Y132939D01*
Y130840D01*
X272310Y130315D01*
X273360D01*
X273885Y130840D01*
X274934Y133464D02*
X277033D01*
Y132939D01*
X274934Y130840D01*
Y130315D01*
X149584Y184578D02*
Y185320D01*
X148842Y186062D01*
X148099Y186062D01*
X146615Y184578D01*
Y183836D01*
X147357Y183094D01*
X148099Y183094D01*
X152181Y182722D02*
X151068Y183094D01*
X149584D01*
X148842Y182351D01*
Y181609D01*
X149584Y180867D01*
X150326Y180867D01*
X150697Y181238D01*
X150697Y181980D01*
X149584Y183094D01*
X259580Y51050D02*
X259056Y50525D01*
Y49476D01*
X259580Y48951D01*
X261679D01*
X262204Y49476D01*
Y50525D01*
X261679Y51050D01*
X259056Y54199D02*
Y52100D01*
X260630D01*
X260105Y53149D01*
Y53674D01*
X260630Y54199D01*
X261679D01*
X262204Y53674D01*
Y52624D01*
X261679Y52100D01*
X129659Y126641D02*
X129134Y126116D01*
Y125066D01*
X129659Y124541D01*
X131758D01*
X132283Y125066D01*
Y126116D01*
X131758Y126641D01*
X132283Y129264D02*
X129134D01*
X130709Y127690D01*
Y129789D01*
X75899Y208324D02*
X75374Y208849D01*
X74325D01*
X73800Y208324D01*
Y206225D01*
X74325Y205700D01*
X75374D01*
X75899Y206225D01*
X76949Y208324D02*
X77473Y208849D01*
X78523D01*
X79048Y208324D01*
Y207799D01*
X78523Y207274D01*
X77998D01*
X78523D01*
X79048Y206750D01*
Y206225D01*
X78523Y205700D01*
X77473D01*
X76949Y206225D01*
X6399Y294024D02*
X5874Y294549D01*
X4825D01*
X4300Y294024D01*
Y291925D01*
X4825Y291400D01*
X5874D01*
X6399Y291925D01*
X9548Y291400D02*
X7449D01*
X9548Y293499D01*
Y294024D01*
X9023Y294549D01*
X7973D01*
X7449Y294024D01*
X41713Y336746D02*
X42238Y336221D01*
X43288D01*
X43812Y336746D01*
Y338845D01*
X43288Y339370D01*
X42238D01*
X41713Y338845D01*
X40664Y339370D02*
X39614D01*
X40139D01*
Y336221D01*
X40664Y336746D01*
X59539Y155679D02*
X57313Y153453D01*
X58426Y152340D01*
X59168Y152340D01*
X59539Y152711D01*
X59539Y153453D01*
X58426Y154566D01*
X59539Y153453D01*
X60281D01*
X60653Y153824D01*
Y154566D01*
X59539Y155679D01*
X61766Y153453D02*
X63250Y151969D01*
X62879Y151597D01*
X59910D01*
X59539Y151226D01*
X61024Y149742D01*
X61766Y149000D02*
X62508Y148258D01*
X62137Y148629D01*
X64363Y150855D01*
X63621Y150855D01*
X145146Y233858D02*
Y230709D01*
X146720D01*
X147245Y231234D01*
Y231759D01*
X146720Y232283D01*
X145146D01*
X146720D01*
X147245Y232808D01*
Y233333D01*
X146720Y233858D01*
X145146D01*
X148294Y230709D02*
Y233858D01*
X149869D01*
X150393Y233333D01*
Y232283D01*
X149869Y231759D01*
X148294D01*
X149344D02*
X150393Y230709D01*
X151443D02*
X152492D01*
X151968D01*
Y233858D01*
X151443Y233333D01*
D18*
X117461Y114881D02*
D03*
M02*
