G04*
G04 #@! TF.GenerationSoftware,Altium Limited,Altium Designer,23.3.1 (30)*
G04*
G04 Layer_Color=8388736*
%FSLAX25Y25*%
%MOIN*%
G70*
G04*
G04 #@! TF.SameCoordinates,F1967EA3-8312-49A4-A2FB-0AE49F0FF499*
G04*
G04*
G04 #@! TF.FilePolarity,Negative*
G04*
G01*
G75*
%ADD21R,0.03494X0.04194*%
%ADD22R,0.04724X0.03543*%
%ADD23R,0.04194X0.03494*%
%ADD24R,0.03937X0.06299*%
%ADD25R,0.06299X0.03937*%
%ADD26R,0.03937X0.03937*%
%ADD27R,0.03937X0.03937*%
%ADD28R,0.05512X0.03150*%
%ADD29R,0.06299X0.02362*%
G04:AMPARAMS|DCode=30|XSize=66.93mil|YSize=53.15mil|CornerRadius=0mil|HoleSize=0mil|Usage=FLASHONLY|Rotation=225.000|XOffset=0mil|YOffset=0mil|HoleType=Round|Shape=Rectangle|*
%AMROTATEDRECTD30*
4,1,4,0.00487,0.04245,0.04245,0.00487,-0.00487,-0.04245,-0.04245,-0.00487,0.00487,0.04245,0.0*
%
%ADD30ROTATEDRECTD30*%

G04:AMPARAMS|DCode=31|XSize=34.94mil|YSize=41.94mil|CornerRadius=0mil|HoleSize=0mil|Usage=FLASHONLY|Rotation=45.000|XOffset=0mil|YOffset=0mil|HoleType=Round|Shape=Rectangle|*
%AMROTATEDRECTD31*
4,1,4,0.00248,-0.02718,-0.02718,0.00248,-0.00248,0.02718,0.02718,-0.00248,0.00248,-0.02718,0.0*
%
%ADD31ROTATEDRECTD31*%

%ADD32R,0.02756X0.05118*%
%ADD33R,0.01575X0.05118*%
%ADD34R,0.05118X0.01575*%
G04:AMPARAMS|DCode=35|XSize=34.94mil|YSize=41.94mil|CornerRadius=0mil|HoleSize=0mil|Usage=FLASHONLY|Rotation=315.000|XOffset=0mil|YOffset=0mil|HoleType=Round|Shape=Rectangle|*
%AMROTATEDRECTD35*
4,1,4,-0.02718,-0.00248,0.00248,0.02718,0.02718,0.00248,-0.00248,-0.02718,-0.02718,-0.00248,0.0*
%
%ADD35ROTATEDRECTD35*%

%ADD36R,0.08268X0.04724*%
%ADD39R,0.02559X0.04528*%
%ADD40R,0.03150X0.05512*%
%ADD41R,0.11811X0.05118*%
%ADD42R,0.05118X0.05118*%
%ADD43R,0.04528X0.02559*%
%ADD44R,0.07480X0.07874*%
%ADD45R,0.01968X0.05709*%
%ADD46R,0.08661X0.06693*%
%ADD47R,0.03150X0.06299*%
%ADD48R,0.04331X0.03543*%
%ADD49R,0.09252X0.08740*%
%ADD50R,0.06693X0.06693*%
%ADD51R,0.06496X0.05118*%
%ADD52R,0.05118X0.06693*%
%ADD53R,0.13386X0.06693*%
%ADD54R,0.12205X0.06299*%
%ADD55R,0.05512X0.13780*%
%ADD56R,0.04331X0.02362*%
%ADD57C,0.03937*%
%ADD58C,0.00035*%
%ADD59R,0.18123X0.13792*%
%ADD60R,0.25210X0.16154*%
%ADD61R,0.13792X0.18123*%
%ADD62R,0.16154X0.25210*%
%ADD63O,0.08674X0.16548*%
%ADD64C,0.09068*%
%ADD65O,0.16548X0.08674*%
%ADD66O,0.07887X0.14973*%
%ADD67C,0.08268*%
%ADD68C,0.08661*%
%ADD69O,0.14973X0.07887*%
%ADD70C,0.05118*%
%ADD71C,0.12205*%
%ADD72C,0.04331*%
%ADD73C,0.00394*%
D21*
X81102Y20276D02*
D03*
Y13976D02*
D03*
X241732Y220709D02*
D03*
Y227009D02*
D03*
X258268Y122047D02*
D03*
Y128347D02*
D03*
X281299Y183071D02*
D03*
Y176771D02*
D03*
X242323Y159449D02*
D03*
Y153149D02*
D03*
X314415Y76181D02*
D03*
Y82481D02*
D03*
X233858Y280118D02*
D03*
Y273818D02*
D03*
X305906Y157874D02*
D03*
Y164174D02*
D03*
X237205Y159449D02*
D03*
Y153149D02*
D03*
X227165Y159055D02*
D03*
Y152755D02*
D03*
X232087Y159055D02*
D03*
Y152755D02*
D03*
X258268Y110629D02*
D03*
Y116929D02*
D03*
X241339Y280118D02*
D03*
Y273818D02*
D03*
X129134Y22047D02*
D03*
Y28347D02*
D03*
X91732Y108071D02*
D03*
Y114371D02*
D03*
D22*
X64764Y13976D02*
D03*
Y21457D02*
D03*
X57087Y17717D02*
D03*
X296063Y77559D02*
D03*
X303740Y81299D02*
D03*
Y73819D02*
D03*
X226181Y272638D02*
D03*
Y280118D02*
D03*
X218504Y276378D02*
D03*
X249016Y280118D02*
D03*
Y272638D02*
D03*
X256693Y276378D02*
D03*
X74803Y111811D02*
D03*
X82480Y115551D02*
D03*
Y108071D02*
D03*
D23*
X57086Y7480D02*
D03*
X63386D02*
D03*
X287008Y189173D02*
D03*
X280708D02*
D03*
X287007Y194095D02*
D03*
X280708D02*
D03*
X292520Y55118D02*
D03*
X286221D02*
D03*
X242913Y266929D02*
D03*
X249213D02*
D03*
X219685Y264961D02*
D03*
X225985D02*
D03*
X274803Y203150D02*
D03*
X268503D02*
D03*
X274803Y209547D02*
D03*
X268503D02*
D03*
X273229Y144095D02*
D03*
X266929D02*
D03*
X303937Y175197D02*
D03*
X297637D02*
D03*
X301969Y149449D02*
D03*
X295669D02*
D03*
X221456Y164644D02*
D03*
X215156D02*
D03*
X215157Y159133D02*
D03*
X221457D02*
D03*
X73622Y7480D02*
D03*
X79922D02*
D03*
X41338Y5906D02*
D03*
X47638D02*
D03*
X136417Y126693D02*
D03*
X142717D02*
D03*
D24*
X43388Y30543D02*
D03*
X48388D02*
D03*
X53388D02*
D03*
X58388D02*
D03*
X63388D02*
D03*
X68388D02*
D03*
X73388D02*
D03*
X78388D02*
D03*
X83388D02*
D03*
X88388D02*
D03*
X93388D02*
D03*
X98388D02*
D03*
X103388D02*
D03*
X108388D02*
D03*
X43384Y99378D02*
D03*
X48384D02*
D03*
X53384D02*
D03*
X58384D02*
D03*
X63384D02*
D03*
X68384D02*
D03*
X73384D02*
D03*
X78384D02*
D03*
X83384D02*
D03*
X88384D02*
D03*
X93384D02*
D03*
X98384D02*
D03*
X103384D02*
D03*
X108384D02*
D03*
D25*
X113309Y42472D02*
D03*
D03*
Y47472D02*
D03*
Y52472D02*
D03*
Y57472D02*
D03*
Y62472D02*
D03*
Y67472D02*
D03*
Y72472D02*
D03*
Y77472D02*
D03*
Y82472D02*
D03*
Y87472D02*
D03*
D26*
X77165Y66929D02*
D03*
X66142D02*
D03*
Y61417D02*
D03*
Y55905D02*
D03*
X71653Y66929D02*
D03*
D27*
Y55905D02*
D03*
X77163Y61417D02*
D03*
X77165Y55905D02*
D03*
X71653Y61417D02*
D03*
D28*
X111811Y139941D02*
D03*
Y147421D02*
D03*
X289961Y126909D02*
D03*
Y119429D02*
D03*
X282480Y126909D02*
D03*
Y119429D02*
D03*
X274803Y126909D02*
D03*
Y119429D02*
D03*
X255118Y55709D02*
D03*
Y48228D02*
D03*
X234055Y213228D02*
D03*
Y220709D02*
D03*
X226181Y220709D02*
D03*
Y213228D02*
D03*
X297638Y156969D02*
D03*
Y164449D02*
D03*
X243110Y145866D02*
D03*
Y138386D02*
D03*
X249410Y138386D02*
D03*
Y145866D02*
D03*
X187795Y171457D02*
D03*
Y178937D02*
D03*
Y191929D02*
D03*
Y184449D02*
D03*
D29*
X221457Y131909D02*
D03*
Y126909D02*
D03*
Y121909D02*
D03*
Y116909D02*
D03*
X243110D02*
D03*
Y121909D02*
D03*
Y126909D02*
D03*
Y131909D02*
D03*
X265354Y164449D02*
D03*
Y159449D02*
D03*
Y154449D02*
D03*
Y149449D02*
D03*
X287007D02*
D03*
Y154449D02*
D03*
Y159449D02*
D03*
Y164449D02*
D03*
X128740Y134941D02*
D03*
Y139941D02*
D03*
Y144941D02*
D03*
Y149941D02*
D03*
X150394D02*
D03*
Y144941D02*
D03*
Y139941D02*
D03*
Y134941D02*
D03*
D30*
X199071Y173503D02*
D03*
X209371Y183803D02*
D03*
X205196Y167378D02*
D03*
X215496Y177679D02*
D03*
D31*
X195535Y158009D02*
D03*
X191080Y162464D02*
D03*
D32*
X236811Y33268D02*
D03*
X233071D02*
D03*
X229331D02*
D03*
Y42323D02*
D03*
X233071D02*
D03*
X236811D02*
D03*
D33*
X233858Y204921D02*
D03*
X235827D02*
D03*
X237795D02*
D03*
X239764D02*
D03*
X241732D02*
D03*
X243701D02*
D03*
X245669D02*
D03*
X247638D02*
D03*
X249606D02*
D03*
X251575D02*
D03*
X253543D02*
D03*
X255512D02*
D03*
Y171457D02*
D03*
X253543D02*
D03*
X251575D02*
D03*
X249606D02*
D03*
X247638D02*
D03*
X245669D02*
D03*
X243701D02*
D03*
X241732D02*
D03*
X239764D02*
D03*
X237795D02*
D03*
X235827D02*
D03*
X233858D02*
D03*
D34*
X261723Y198917D02*
D03*
Y196949D02*
D03*
Y194980D02*
D03*
Y193012D02*
D03*
Y191043D02*
D03*
Y189075D02*
D03*
Y187106D02*
D03*
Y185137D02*
D03*
Y183169D02*
D03*
Y181201D02*
D03*
Y179232D02*
D03*
Y177263D02*
D03*
X228259D02*
D03*
Y179232D02*
D03*
Y181201D02*
D03*
Y183169D02*
D03*
Y185137D02*
D03*
Y187106D02*
D03*
Y189075D02*
D03*
Y191043D02*
D03*
Y193012D02*
D03*
Y194980D02*
D03*
Y196949D02*
D03*
Y198917D02*
D03*
D03*
D35*
X214432Y200259D02*
D03*
X209977Y195804D02*
D03*
D36*
X268503Y220709D02*
D03*
Y230709D02*
D03*
Y240709D02*
D03*
Y250709D02*
D03*
Y260709D02*
D03*
D39*
X244094Y42323D02*
D03*
Y31299D02*
D03*
X78347Y211811D02*
D03*
Y222835D02*
D03*
D40*
X160433Y162992D02*
D03*
X167913D02*
D03*
X145473Y189764D02*
D03*
X152953D02*
D03*
X167717Y170079D02*
D03*
X160236D02*
D03*
X40632Y21654D02*
D03*
X48112D02*
D03*
Y13780D02*
D03*
X40632D02*
D03*
D41*
X105905Y185827D02*
D03*
X82284D02*
D03*
D42*
X286221Y72638D02*
D03*
Y64370D02*
D03*
D43*
X200236Y280118D02*
D03*
X211260D02*
D03*
X194882Y103740D02*
D03*
X183858D02*
D03*
X274803Y280315D02*
D03*
X263779D02*
D03*
D44*
X246654Y7480D02*
D03*
X216732D02*
D03*
D45*
X231693Y18701D02*
D03*
X226575D02*
D03*
X229134D02*
D03*
X234252D02*
D03*
X236811D02*
D03*
D46*
X219488Y18189D02*
D03*
X243898Y18189D02*
D03*
D47*
X97047Y15551D02*
D03*
X108858D02*
D03*
X114764D02*
D03*
D48*
X120276Y12598D02*
D03*
X91535D02*
D03*
Y4724D02*
D03*
X120276D02*
D03*
D49*
X105905Y114882D02*
D03*
X123110D02*
D03*
D50*
X92520Y231122D02*
D03*
X78347D02*
D03*
D51*
X105118Y210610D02*
D03*
Y231122D02*
D03*
X139764Y210610D02*
D03*
X139764Y231122D02*
D03*
D52*
X160236Y178740D02*
D03*
X169291D02*
D03*
X178347D02*
D03*
D53*
X169291Y203937D02*
D03*
D54*
X125787Y170787D02*
D03*
X145473D02*
D03*
D55*
X143701Y114882D02*
D03*
X135433D02*
D03*
D56*
X210236Y127579D02*
D03*
Y131909D02*
D03*
D57*
X400787Y6299D02*
X405905Y11417D01*
X400787Y16535D02*
X405905Y11417D01*
X386614D02*
X405905D01*
D58*
X16485Y25344D02*
Y25378D01*
X16520Y25309D02*
Y25378D01*
X16450Y25309D02*
Y25344D01*
X16415Y25274D02*
Y25309D01*
X16554Y25239D02*
Y25309D01*
X16485Y25239D02*
Y25274D01*
X16450Y25204D02*
Y25239D01*
X16520Y25169D02*
Y25239D01*
X16415Y25169D02*
Y25239D01*
X16554Y25134D02*
Y25169D01*
X16450Y25134D02*
Y25169D01*
X16485Y25065D02*
Y25134D01*
X16554Y25030D02*
Y25065D01*
X16520Y25030D02*
Y25065D01*
X16624Y24786D02*
Y24821D01*
X16659Y24786D02*
Y24821D01*
X15857Y25622D02*
Y25657D01*
X16101Y25622D02*
Y25657D01*
X15892Y25622D02*
Y25657D01*
X15996Y25622D02*
Y25657D01*
X16275Y25588D02*
Y25622D01*
X16171Y25588D02*
Y25622D01*
X15927Y25588D02*
Y25622D01*
X15962Y25553D02*
Y25622D01*
X16066Y25553D02*
Y25622D01*
X16031Y25553D02*
Y25622D01*
X16101Y25553D02*
Y25588D01*
X16206Y25553D02*
Y25588D01*
X16240Y25553D02*
Y25588D01*
X16136Y25518D02*
Y25553D01*
X16171Y25518D02*
Y25553D01*
X16275Y25518D02*
Y25553D01*
X15996Y25518D02*
Y25553D01*
X16066Y25483D02*
Y25518D01*
X16101Y25483D02*
Y25518D01*
X16031Y25483D02*
Y25518D01*
X16240Y25448D02*
Y25518D01*
X16206Y25448D02*
Y25518D01*
X16275Y25448D02*
Y25483D01*
X16171Y25413D02*
Y25448D01*
X16240Y25344D02*
Y25413D01*
X16415Y25344D02*
Y25378D01*
X16310Y25309D02*
Y25344D01*
X16345Y25309D02*
Y25344D01*
X16275Y25309D02*
Y25344D01*
X16380Y25274D02*
Y25344D01*
X16345Y25239D02*
Y25274D01*
X16380Y25204D02*
Y25239D01*
X18472Y23391D02*
Y23426D01*
X18437Y23391D02*
Y23426D01*
X18332Y23391D02*
Y23426D01*
X18298Y23391D02*
Y23426D01*
X18193Y23391D02*
Y23426D01*
X18158Y23391D02*
Y23426D01*
X18123Y23391D02*
Y23426D01*
X18402Y23321D02*
Y23426D01*
X18263Y23356D02*
Y23391D01*
X18507Y23321D02*
Y23356D01*
X18367Y23321D02*
Y23356D01*
X18437Y23286D02*
Y23356D01*
X18193Y23286D02*
Y23356D01*
X18158Y23286D02*
Y23356D01*
X18332Y23286D02*
Y23321D01*
X18298Y23286D02*
Y23321D01*
X18472Y23217D02*
Y23356D01*
X18507Y23217D02*
Y23286D01*
X19065Y23112D02*
Y23147D01*
X18925Y23077D02*
Y23147D01*
X18890Y23077D02*
Y23147D01*
X18751Y23077D02*
Y23147D01*
X19030Y23077D02*
Y23147D01*
X18821Y23077D02*
Y23112D01*
X18995Y23077D02*
Y23112D01*
X18960Y23042D02*
Y23077D01*
X19065Y23042D02*
Y23077D01*
X18088Y23391D02*
Y23426D01*
X17949Y23391D02*
Y23426D01*
X17914Y23391D02*
Y23426D01*
X17879Y23391D02*
Y23426D01*
X17844Y23391D02*
Y23426D01*
X17705Y23356D02*
Y23426D01*
X17984Y23356D02*
Y23391D01*
X17740Y23321D02*
Y23426D01*
X18054Y23321D02*
Y23356D01*
X17809Y23321D02*
Y23356D01*
X17775Y23321D02*
Y23356D01*
X18123Y23286D02*
Y23356D01*
X18088Y23286D02*
Y23356D01*
X17949Y23286D02*
Y23321D01*
X17914Y23286D02*
Y23321D01*
X17879Y23286D02*
Y23321D01*
X17844Y23286D02*
Y23321D01*
X17984Y23252D02*
Y23286D01*
X17705Y23182D02*
Y23321D01*
X17461Y23112D02*
Y23147D01*
X17321Y23112D02*
Y23147D01*
X17217Y23112D02*
Y23147D01*
X17531Y23112D02*
Y23147D01*
X17391Y23077D02*
Y23147D01*
X17496Y23077D02*
Y23112D01*
X17182Y23077D02*
Y23112D01*
X17356Y23042D02*
Y23112D01*
X17147Y23042D02*
Y23112D01*
X17426Y23042D02*
Y23112D01*
X17287Y23008D02*
Y23147D01*
X17217Y23042D02*
Y23077D01*
X17461Y23042D02*
Y23077D01*
X19274Y22833D02*
Y22868D01*
X19134Y22833D02*
Y22868D01*
X19100Y22833D02*
Y22868D01*
X19169Y22798D02*
Y22868D01*
X19204Y22729D02*
Y22833D01*
X19100Y22729D02*
Y22798D01*
X19309Y22694D02*
Y22798D01*
X19134Y22694D02*
Y22763D01*
X19239Y22694D02*
Y22729D01*
X19274Y22589D02*
Y22729D01*
X19169Y22624D02*
Y22694D01*
X19204Y22554D02*
Y22694D01*
X19344Y22519D02*
Y22694D01*
X19309Y22519D02*
Y22589D01*
X19274Y22450D02*
Y22485D01*
X19239Y22345D02*
Y22554D01*
X19344Y22415D02*
Y22485D01*
X19309Y22345D02*
Y22485D01*
X19344Y22345D02*
Y22380D01*
X19274Y22310D02*
Y22345D01*
X19239Y22241D02*
Y22310D01*
X19309Y22241D02*
Y22310D01*
X19344Y22206D02*
Y22310D01*
X19169Y21787D02*
Y22589D01*
X19274Y22136D02*
Y22206D01*
X19204Y21927D02*
Y22380D01*
X19134Y21683D02*
Y22624D01*
X19100Y21613D02*
Y22694D01*
X17252Y23042D02*
Y23077D01*
X17321Y23042D02*
Y23077D01*
X17391Y23008D02*
Y23042D01*
X18890Y23008D02*
Y23042D01*
X18995Y23008D02*
Y23042D01*
X19030Y22973D02*
Y23042D01*
X17182Y22973D02*
Y23042D01*
X18925Y22973D02*
Y23008D01*
X17356Y22973D02*
Y23008D01*
X17252Y22973D02*
Y23008D01*
X18960Y22938D02*
Y22973D01*
X19065Y22938D02*
Y22973D01*
X17321Y22938D02*
Y22973D01*
X17217Y22903D02*
Y22973D01*
X18995Y22903D02*
Y22938D01*
X17287Y22903D02*
Y22938D01*
X19030Y22868D02*
Y22938D01*
X17147Y22833D02*
Y22973D01*
X17182Y22868D02*
Y22903D01*
X17252Y22833D02*
Y22903D01*
X17217Y22798D02*
Y22868D01*
X19065Y22798D02*
Y22833D01*
X19030Y22798D02*
Y22833D01*
X17182Y22798D02*
Y22833D01*
X17147Y22729D02*
Y22763D01*
X17112Y22694D02*
Y22798D01*
X18995Y21473D02*
Y22833D01*
X18960Y21404D02*
Y22903D01*
X18890Y21299D02*
Y22973D01*
X19065Y21508D02*
Y22763D01*
X18856Y21229D02*
Y23042D01*
X18681Y21090D02*
Y23147D01*
X16833Y24751D02*
Y24821D01*
X16763Y24681D02*
Y24821D01*
X16694Y24646D02*
Y24821D01*
X16624Y24611D02*
Y24716D01*
X16798Y24577D02*
Y24716D01*
X16729Y24542D02*
Y24646D01*
X16659Y24542D02*
Y24611D01*
X16520Y24019D02*
Y24995D01*
X16624Y24472D02*
Y24507D01*
X16554Y24054D02*
Y24925D01*
X16589Y24193D02*
Y24786D01*
X16798Y24402D02*
Y24542D01*
X16694Y24437D02*
Y24507D01*
X16833Y24402D02*
Y24472D01*
X16729Y24298D02*
Y24507D01*
X16624Y24298D02*
Y24402D01*
X16659Y24263D02*
Y24367D01*
X16833Y24228D02*
Y24298D01*
X16624Y24228D02*
Y24263D01*
X16694Y24123D02*
Y24263D01*
X16798Y24054D02*
Y24298D01*
X16659Y24088D02*
Y24158D01*
X16624Y24088D02*
Y24123D01*
X16589Y24088D02*
Y24123D01*
X16763Y24054D02*
Y24123D01*
X16729Y24019D02*
Y24088D01*
X16833Y23984D02*
Y24054D01*
X16624Y23984D02*
Y24019D01*
X16589Y23984D02*
Y24019D01*
X16554Y23984D02*
Y24019D01*
Y23914D02*
Y23949D01*
Y23705D02*
Y23775D01*
X16450Y23914D02*
Y25100D01*
X16485Y23949D02*
Y25030D01*
X16345Y23775D02*
Y25204D01*
X16310Y23705D02*
Y25274D01*
X16171Y23565D02*
Y25378D01*
X16136Y23530D02*
Y25413D01*
X16206Y23565D02*
Y25378D01*
X16240Y23635D02*
Y25309D01*
X16415Y23775D02*
Y25134D01*
X16101Y23461D02*
Y25448D01*
X16275Y23635D02*
Y25274D01*
X16380Y23705D02*
Y25169D01*
X15927Y23286D02*
Y25553D01*
X15996Y23356D02*
Y25483D01*
X15962Y23321D02*
Y25518D01*
X16066Y23321D02*
Y25448D01*
X16031Y23321D02*
Y25448D01*
X15892Y23217D02*
Y25518D01*
X15857Y23147D02*
Y25588D01*
X16520Y23949D02*
Y23984D01*
X16485Y23844D02*
Y23914D01*
X16520Y23775D02*
Y23879D01*
X16485Y23740D02*
Y23775D01*
X16520Y23705D02*
Y23740D01*
X16450Y23705D02*
Y23740D01*
X16415Y23705D02*
Y23740D01*
X16275Y23565D02*
Y23600D01*
X16240Y23530D02*
Y23565D01*
X16206Y23496D02*
Y23530D01*
X16275Y23461D02*
Y23530D01*
X16171Y23426D02*
Y23530D01*
X16136Y23426D02*
Y23461D01*
X16973Y22833D02*
Y22868D01*
X16938Y22798D02*
Y22868D01*
X17077Y22798D02*
Y22833D01*
X16903Y22798D02*
Y22833D01*
X16868Y22798D02*
Y22833D01*
X17042Y22763D02*
Y22833D01*
X17008Y22729D02*
Y22798D01*
X16938Y22729D02*
Y22763D01*
X16868Y22694D02*
Y22763D01*
X16973Y22694D02*
Y22763D01*
X17077Y22659D02*
Y22729D01*
X17042Y22659D02*
Y22694D01*
X16973Y22624D02*
Y22659D01*
X16938Y22624D02*
Y22659D01*
X17008Y22589D02*
Y22659D01*
X16903Y22519D02*
Y22659D01*
X16868Y22554D02*
Y22589D01*
X16973Y22554D02*
Y22589D01*
X16868Y22485D02*
Y22519D01*
X16973Y22485D02*
Y22519D01*
X16938Y22450D02*
Y22519D01*
X16903Y22415D02*
Y22485D01*
X16868Y22415D02*
Y22450D01*
Y22345D02*
Y22380D01*
X16798Y22275D02*
Y22310D01*
X16694Y22275D02*
Y22310D01*
X16659Y22275D02*
Y22310D01*
X16729Y22241D02*
Y22275D01*
X16763Y22206D02*
Y22241D01*
X16694Y22171D02*
Y22241D01*
X16729Y22171D02*
Y22206D01*
X16659Y22101D02*
Y22171D01*
X16240Y23321D02*
Y23496D01*
X16275Y23356D02*
Y23426D01*
X16101Y23356D02*
Y23426D01*
X16206Y23286D02*
Y23391D01*
X15996Y23286D02*
Y23321D01*
X16171Y23252D02*
Y23321D01*
X15962Y23252D02*
Y23286D01*
X15996Y23182D02*
Y23252D01*
X16136Y23147D02*
Y23286D01*
X16275Y23147D02*
Y23252D01*
X16101Y23147D02*
Y23252D01*
X16066Y23147D02*
Y23217D01*
X15927Y23147D02*
Y23217D01*
X16031Y23147D02*
Y23182D01*
X15892Y23112D02*
Y23147D01*
X15996Y23112D02*
Y23147D01*
X15962Y23077D02*
Y23147D01*
X15857Y23042D02*
Y23112D01*
X15927Y23008D02*
Y23112D01*
X15996Y23008D02*
Y23077D01*
X15892Y23008D02*
Y23042D01*
X15962Y22938D02*
Y23008D01*
X15857Y22938D02*
Y23008D01*
X15927Y22903D02*
Y22973D01*
X15996Y22903D02*
Y22938D01*
X15892Y22903D02*
Y22938D01*
X15962Y22868D02*
Y22903D01*
X15857Y22868D02*
Y22903D01*
X16589Y22275D02*
Y22310D01*
X16624Y22206D02*
Y22275D01*
X16589Y22171D02*
Y22206D01*
X16624Y22136D02*
Y22171D01*
X22133Y20323D02*
Y20358D01*
X21959Y20323D02*
Y20358D01*
X21924Y20323D02*
Y20358D01*
X22028Y20288D02*
Y20323D01*
X22098Y20288D02*
Y20323D01*
X22063Y20288D02*
Y20323D01*
X22133Y20253D02*
Y20288D01*
X21993Y20253D02*
Y20288D01*
X21959Y20253D02*
Y20288D01*
X21924Y20218D02*
Y20288D01*
X22098Y20218D02*
Y20253D01*
X21889Y20218D02*
Y20253D01*
X22028Y20183D02*
Y20218D01*
X21993Y20148D02*
Y20218D01*
X22133Y20148D02*
Y20183D01*
X22063Y20114D02*
Y20148D01*
X22028Y20114D02*
Y20148D01*
X22098Y20079D02*
Y20148D01*
X22133Y20044D02*
Y20114D01*
X22028Y20044D02*
Y20079D01*
X22063Y20009D02*
Y20044D01*
X22098Y20009D02*
Y20044D01*
X22133Y19939D02*
Y20009D01*
X22098Y19870D02*
Y19904D01*
X22133Y19835D02*
Y19904D01*
X22272Y19765D02*
Y19800D01*
X22377Y19730D02*
Y19800D01*
X22168Y19695D02*
Y19765D01*
X21854Y20602D02*
Y20637D01*
X21645Y20602D02*
Y20637D01*
X21610Y20602D02*
Y20637D01*
X21505Y20602D02*
Y20637D01*
X21471Y20602D02*
Y20637D01*
X21296Y20602D02*
Y20637D01*
X21749Y20567D02*
Y20637D01*
X21331Y20567D02*
Y20637D01*
X21784Y20567D02*
Y20602D01*
X21401Y20567D02*
Y20602D01*
X21575Y20567D02*
Y20602D01*
X21540Y20567D02*
Y20602D01*
X21819Y20532D02*
Y20637D01*
X21715Y20497D02*
Y20637D01*
X21436Y20532D02*
Y20602D01*
X21645Y20532D02*
Y20567D01*
X21610Y20532D02*
Y20567D01*
X21680Y20497D02*
Y20567D01*
X21471Y20497D02*
Y20567D01*
X21505Y20497D02*
Y20532D01*
X21575Y20497D02*
Y20532D01*
X21749Y20462D02*
Y20497D01*
X21610Y20462D02*
Y20497D01*
X21540Y20462D02*
Y20497D01*
X21854Y20358D02*
Y20567D01*
X21645Y20427D02*
Y20497D01*
X21784Y20358D02*
Y20497D01*
X21680Y20392D02*
Y20462D01*
X21715Y20358D02*
Y20427D01*
X21819Y20323D02*
Y20358D01*
X21889Y20288D02*
Y20323D01*
X21854Y20253D02*
Y20323D01*
X22307Y19660D02*
Y19800D01*
X22203Y19660D02*
Y19765D01*
X22238Y19591D02*
Y19730D01*
X22342Y19521D02*
Y19730D01*
X22412Y19521D02*
Y19591D01*
X22272Y19346D02*
Y19625D01*
X22377Y19451D02*
Y19521D01*
X22063Y18719D02*
Y19974D01*
X22133Y18893D02*
Y19765D01*
X22168Y18998D02*
Y19660D01*
X21993Y18614D02*
Y20044D01*
X21889Y18475D02*
Y20183D01*
X21959Y18545D02*
Y20114D01*
X22098Y18789D02*
Y19835D01*
X22412Y19242D02*
Y19381D01*
X22203Y19033D02*
Y19591D01*
X22028Y18614D02*
Y20009D01*
X21924Y18440D02*
Y20148D01*
X21854Y18370D02*
Y20218D01*
X21819Y18335D02*
Y20253D01*
X22238Y19242D02*
Y19277D01*
X22342Y19137D02*
Y19381D01*
X22412Y19068D02*
Y19207D01*
X22272Y19068D02*
Y19207D01*
X22377Y18998D02*
Y19137D01*
X22238Y18963D02*
Y19068D01*
X22307Y18963D02*
Y19068D01*
X22342Y18963D02*
Y18998D01*
X22133Y18789D02*
Y18823D01*
X22098Y18684D02*
Y18719D01*
X22133Y18649D02*
Y18719D01*
X22098Y18614D02*
Y18649D01*
X21784Y18370D02*
Y20323D01*
X21645Y18266D02*
Y20392D01*
X21261Y18022D02*
Y20637D01*
X20703Y18022D02*
Y20637D01*
X21122Y18022D02*
Y20637D01*
X21087Y18022D02*
Y20637D01*
X21157Y18022D02*
Y20602D01*
X20843Y18022D02*
Y20602D01*
X20878Y18022D02*
Y20602D01*
X20913Y18022D02*
Y20602D01*
X21226Y18022D02*
Y20602D01*
X21366Y18091D02*
Y20532D01*
X21052Y17987D02*
Y20637D01*
X21017Y17987D02*
Y20637D01*
X20982Y17987D02*
Y20637D01*
X20947Y17987D02*
Y20637D01*
X21610Y18196D02*
Y20427D01*
X21505Y18161D02*
Y20462D01*
X21401Y18126D02*
Y20497D01*
X21296Y18091D02*
Y20532D01*
X21471Y18161D02*
Y20462D01*
X21575Y18161D02*
Y20462D01*
X20738Y17987D02*
Y20637D01*
X21540Y18196D02*
Y20427D01*
X20773Y17987D02*
Y20637D01*
X20808Y17987D02*
Y20637D01*
X21749Y18335D02*
Y20288D01*
X21192Y17987D02*
Y20602D01*
X21331Y18056D02*
Y20532D01*
X21715Y18266D02*
Y20323D01*
X21680Y18231D02*
Y20358D01*
X21436Y18022D02*
Y20497D01*
X19309Y22031D02*
Y22136D01*
X19239Y22031D02*
Y22136D01*
X19344Y21996D02*
Y22031D01*
X19309Y21927D02*
Y21996D01*
X19274Y21892D02*
Y21996D01*
X19344Y21787D02*
Y21892D01*
X19239Y21718D02*
Y21927D01*
X19309Y21752D02*
Y21822D01*
X19344Y21683D02*
Y21752D01*
X19274Y21683D02*
Y21752D01*
X19344Y21613D02*
Y21648D01*
X19309Y21613D02*
Y21648D01*
X19239Y21578D02*
Y21648D01*
X19344Y21543D02*
Y21578D01*
X19274Y21508D02*
Y21578D01*
X19309Y21473D02*
Y21508D01*
X19239Y21473D02*
Y21508D01*
X20669Y20602D02*
Y20637D01*
X20215Y20602D02*
Y20637D01*
X20320Y20602D02*
Y20637D01*
X20459Y20567D02*
Y20637D01*
X20494Y20567D02*
Y20602D01*
X20285Y20567D02*
Y20602D01*
X20250Y20567D02*
Y20602D01*
X20355Y20532D02*
Y20602D01*
X20390Y20532D02*
Y20602D01*
X20320Y20532D02*
Y20567D01*
X20215Y20532D02*
Y20567D01*
X20250Y20462D02*
Y20532D01*
X20215Y20427D02*
Y20462D01*
X20076Y20323D02*
Y20358D01*
X19936Y20323D02*
Y20358D01*
X18786Y21194D02*
Y23042D01*
X19030Y21473D02*
Y22763D01*
X18821Y21229D02*
Y23008D01*
X18925Y21334D02*
Y22903D01*
X18751Y21160D02*
Y23042D01*
X19169Y21718D02*
Y21752D01*
X19204Y21613D02*
Y21718D01*
X19134Y21578D02*
Y21613D01*
X19169Y21508D02*
Y21613D01*
X19100Y21508D02*
Y21578D01*
X19204Y21473D02*
Y21508D01*
X19134Y21473D02*
Y21508D01*
X19065Y21439D02*
Y21473D01*
X18995Y21404D02*
Y21439D01*
X19030Y21334D02*
Y21404D01*
X19065Y21299D02*
Y21369D01*
X18960Y21299D02*
Y21369D01*
X18995Y21299D02*
Y21334D01*
X19030Y21264D02*
Y21299D01*
X18925Y21229D02*
Y21299D01*
X18995Y21229D02*
Y21264D01*
X18960Y21194D02*
Y21229D01*
X18786Y21125D02*
Y21160D01*
X18751Y21055D02*
Y21090D01*
X18786Y21055D02*
Y21090D01*
Y20950D02*
Y20985D01*
X18751Y20846D02*
Y20950D01*
X18716Y20811D02*
Y20881D01*
X18786Y20741D02*
Y20811D01*
X18751Y20672D02*
Y20741D01*
X18786Y20672D02*
Y20706D01*
X18716Y20637D02*
Y20672D01*
X19971Y20323D02*
Y20358D01*
X19902Y20323D02*
Y20358D01*
X19867Y20323D02*
Y20358D01*
X20006Y20288D02*
Y20323D01*
X19971Y20218D02*
Y20288D01*
X19936Y20218D02*
Y20288D01*
X19867Y20218D02*
Y20288D01*
X19902Y20183D02*
Y20253D01*
X20285Y18196D02*
Y20532D01*
X20529Y18056D02*
Y20637D01*
X20355Y18161D02*
Y20497D01*
X20425Y18056D02*
Y20602D01*
X20320Y18161D02*
Y20497D01*
X20564Y18056D02*
Y20602D01*
X19867Y18545D02*
Y20114D01*
X20599Y18022D02*
Y20602D01*
X20250Y18196D02*
Y20427D01*
X20111Y18301D02*
Y20323D01*
X20390Y18126D02*
Y20497D01*
X20669Y18056D02*
Y20567D01*
X20180Y18266D02*
Y20358D01*
X20634Y17987D02*
Y20637D01*
X19971Y18440D02*
Y20183D01*
X20041Y18335D02*
Y20288D01*
X19902Y18475D02*
Y20148D01*
X20076Y18301D02*
Y20288D01*
X20459Y18056D02*
Y20532D01*
X20146Y18231D02*
Y20358D01*
X20494Y18022D02*
Y20532D01*
X19936Y18370D02*
Y20183D01*
X20006Y18301D02*
Y20218D01*
X20215Y18091D02*
Y20392D01*
X19727Y20323D02*
Y20358D01*
X19762Y20288D02*
Y20358D01*
X19657Y20288D02*
Y20358D01*
X19797Y20253D02*
Y20323D01*
X19832Y20218D02*
Y20323D01*
X19727Y20183D02*
Y20253D01*
X19832Y20148D02*
Y20183D01*
X19657Y20148D02*
Y20183D01*
X19797Y20114D02*
Y20183D01*
X19692Y20044D02*
Y20253D01*
X19727Y20079D02*
Y20114D01*
X19762Y20009D02*
Y20114D01*
X19657Y20009D02*
Y20044D01*
X19727Y19939D02*
Y20044D01*
X19657Y19939D02*
Y19974D01*
X19692Y19870D02*
Y19904D01*
X19657Y19835D02*
Y19870D01*
X19692Y19800D02*
Y19835D01*
X19657Y19765D02*
Y19800D01*
Y19660D02*
Y19695D01*
X19832Y18614D02*
Y20079D01*
X19692Y18893D02*
Y19765D01*
X19762Y18719D02*
Y19939D01*
X19657Y18998D02*
Y19591D01*
X19727Y18719D02*
Y19870D01*
X19797Y18545D02*
Y19974D01*
X19657Y18754D02*
Y18893D01*
X19692Y18789D02*
Y18823D01*
Y18684D02*
Y18719D01*
X19657Y18649D02*
Y18719D01*
X19762Y18649D02*
Y18684D01*
X19727Y18545D02*
Y18649D01*
X22133Y18545D02*
Y18614D01*
X22028Y18545D02*
Y18579D01*
X22098Y18510D02*
Y18545D01*
X21993Y18510D02*
Y18545D01*
X22063Y18440D02*
Y18579D01*
X21959Y18475D02*
Y18510D01*
X22028Y18440D02*
Y18510D01*
X22133Y18440D02*
Y18510D01*
X21993Y18405D02*
Y18475D01*
X22098Y18405D02*
Y18475D01*
X21889Y18405D02*
Y18440D01*
X21959Y18405D02*
Y18440D01*
X21784Y18301D02*
Y18335D01*
X21854Y18266D02*
Y18335D01*
X21749Y18266D02*
Y18301D01*
X21819Y18231D02*
Y18266D01*
X21784Y18196D02*
Y18266D01*
X21854Y18196D02*
Y18231D01*
X21645Y18161D02*
Y18196D01*
X21749Y18161D02*
Y18196D01*
X21715Y18126D02*
Y18231D01*
X21819Y18126D02*
Y18196D01*
X21784Y18126D02*
Y18161D01*
X21540Y18126D02*
Y18161D01*
X21610Y18126D02*
Y18161D01*
X21680Y18126D02*
Y18161D01*
X21575Y18056D02*
Y18091D01*
X21540Y17987D02*
Y18091D01*
X21505Y17952D02*
Y17987D01*
X21575Y17882D02*
Y17952D01*
X21505Y17847D02*
Y17882D01*
X21471Y17847D02*
Y17882D01*
Y18056D02*
Y18126D01*
X21296Y18022D02*
Y18056D01*
X21401Y17987D02*
Y18056D01*
X21331Y17987D02*
Y18022D01*
X21366Y17987D02*
Y18022D01*
X20669Y17917D02*
Y18022D01*
X21087Y17952D02*
Y17987D01*
X20703Y17952D02*
Y17987D01*
X21122Y17952D02*
Y17987D01*
X21471Y17917D02*
Y17987D01*
X20843Y17917D02*
Y17987D01*
X21436Y17917D02*
Y17987D01*
X21296Y17917D02*
Y17987D01*
X21157Y17917D02*
Y17987D01*
X20913Y17917D02*
Y17987D01*
X20878Y17917D02*
Y17987D01*
X21366Y17917D02*
Y17952D01*
X20947Y17917D02*
Y17952D01*
X21331Y17917D02*
Y17952D01*
X21401Y17917D02*
Y17952D01*
X21261Y17882D02*
Y17987D01*
X21052Y17882D02*
Y17952D01*
X20634Y17882D02*
Y17952D01*
X21226Y17882D02*
Y17952D01*
X21192Y17882D02*
Y17952D01*
X21017Y17882D02*
Y17917D01*
X20564Y17882D02*
Y17917D01*
X21087Y17882D02*
Y17917D01*
X20599Y17847D02*
Y17952D01*
X20738Y17847D02*
Y17917D01*
X20982Y17847D02*
Y17882D01*
X20947Y17847D02*
Y17882D01*
X20703Y17847D02*
Y17882D01*
X21157Y17847D02*
Y17882D01*
X20843Y17847D02*
Y17882D01*
X21401Y17847D02*
Y17882D01*
X21122Y17847D02*
Y17882D01*
X20913Y17847D02*
Y17882D01*
X20878Y17847D02*
Y17882D01*
X21366Y17847D02*
Y17882D01*
X19832Y18545D02*
Y18579D01*
Y18475D02*
Y18510D01*
X19797Y18475D02*
Y18510D01*
X19867Y18440D02*
Y18475D01*
X19762Y18440D02*
Y18475D01*
X19832Y18405D02*
Y18440D01*
X19902Y18405D02*
Y18440D01*
X19971Y18335D02*
Y18370D01*
Y18266D02*
Y18301D01*
X19936Y18231D02*
Y18335D01*
X20076Y18231D02*
Y18266D01*
X20006Y18196D02*
Y18266D01*
X20111Y18161D02*
Y18266D01*
X20180Y18161D02*
Y18231D01*
X20041Y18161D02*
Y18196D01*
X19971Y18126D02*
Y18196D01*
X20146Y18126D02*
Y18161D01*
X20076Y18126D02*
Y18161D01*
X20250Y18091D02*
Y18126D01*
X20285Y18022D02*
Y18161D01*
X20320Y17987D02*
Y18126D01*
X20355Y17952D02*
Y18056D01*
X20529Y17952D02*
Y18022D01*
X20564Y17952D02*
Y18022D01*
X20215Y17917D02*
Y17987D01*
X20425Y17882D02*
Y17987D01*
X20390Y17882D02*
Y17987D01*
X20494Y17882D02*
Y17952D01*
X20459Y17882D02*
Y17952D01*
X20529Y17882D02*
Y17917D01*
X20250Y17847D02*
Y17952D01*
X20285Y17847D02*
Y17917D01*
X19692Y18510D02*
Y18614D01*
X19762Y18510D02*
Y18545D01*
X19657Y18510D02*
Y18545D01*
X19727Y18475D02*
Y18510D01*
Y18405D02*
Y18440D01*
X19692Y18405D02*
Y18440D01*
X19657Y18405D02*
Y18440D01*
X18786Y17812D02*
Y17847D01*
X18716Y17812D02*
Y17847D01*
X18786Y17743D02*
Y17777D01*
X18751Y17743D02*
Y17777D01*
X18716Y17673D02*
Y17743D01*
X18786Y17673D02*
Y17708D01*
Y17603D02*
Y17638D01*
X18716Y17568D02*
Y17638D01*
X19030Y17534D02*
Y17568D01*
X19065Y17534D02*
Y17568D01*
X18925Y17534D02*
Y17568D01*
X18821Y17534D02*
Y17568D01*
X18856Y17534D02*
Y17568D01*
X18751Y17534D02*
Y17568D01*
X18786Y17499D02*
Y17534D01*
X18960Y17429D02*
Y17534D01*
X18821Y17429D02*
Y17499D01*
X19065Y17394D02*
Y17499D01*
X18856Y17429D02*
Y17464D01*
X18890Y17359D02*
Y17464D01*
X18995Y17289D02*
Y17464D01*
X19065Y17289D02*
Y17324D01*
X18925Y17255D02*
Y17359D01*
X18960Y17220D02*
Y17289D01*
X19030Y17220D02*
Y17289D01*
X19274Y16976D02*
Y17010D01*
X19239Y16976D02*
Y17010D01*
X19344Y16941D02*
Y17010D01*
X19309Y16941D02*
Y16976D01*
X19204Y16906D02*
Y16976D01*
X19274Y16836D02*
Y16941D01*
X19344Y16836D02*
Y16871D01*
X19309Y16766D02*
Y16836D01*
X19344Y16732D02*
Y16766D01*
X19309Y16662D02*
Y16732D01*
X19239Y16627D02*
Y16732D01*
X19274Y16557D02*
Y16662D01*
X19344Y16522D02*
Y16627D01*
X19169Y16139D02*
Y16976D01*
X19204Y16209D02*
Y16836D01*
X19309Y16313D02*
Y16522D01*
X19239Y16209D02*
Y16522D01*
X19344Y16174D02*
Y16348D01*
X19274Y16174D02*
Y16209D01*
X19239Y16139D02*
Y16174D01*
X19204Y16139D02*
Y16174D01*
X19309Y16104D02*
Y16174D01*
X19274Y16069D02*
Y16139D01*
X19204Y16034D02*
Y16104D01*
X19344Y15999D02*
Y16069D01*
X19169Y15965D02*
Y16069D01*
X19274Y15965D02*
Y16034D01*
X19239Y15895D02*
Y16069D01*
X19309Y15895D02*
Y16034D01*
X19344Y15930D02*
Y15965D01*
X19204Y15930D02*
Y15965D01*
X19169Y15895D02*
Y15930D01*
X19065Y17185D02*
Y17255D01*
X19030Y17150D02*
Y17185D01*
X19065Y17080D02*
Y17150D01*
X19134Y16976D02*
Y17010D01*
X18786Y15616D02*
Y17464D01*
X18751Y15581D02*
Y17499D01*
X18995Y15790D02*
Y17220D01*
X18890Y15686D02*
Y17324D01*
X18821Y15616D02*
Y17394D01*
X18856Y15651D02*
Y17359D01*
X19134Y16034D02*
Y16941D01*
X19100Y15965D02*
Y17010D01*
X19030Y15825D02*
Y17115D01*
X18960Y15755D02*
Y17185D01*
X19065Y15860D02*
Y17045D01*
X18925Y15616D02*
Y17220D01*
X19134Y15965D02*
Y15999D01*
X19100Y15895D02*
Y15930D01*
X19065Y15755D02*
Y15825D01*
X19030Y15755D02*
Y15790D01*
X18995Y15720D02*
Y15755D01*
X19030Y15686D02*
Y15720D01*
X18960Y15686D02*
Y15720D01*
X19065Y15651D02*
Y15686D01*
X18995Y15651D02*
Y15686D01*
X19030Y15616D02*
Y15651D01*
X18960Y15616D02*
Y15651D01*
X18786Y15546D02*
Y15581D01*
X18751Y15511D02*
Y15546D01*
X18786Y15407D02*
Y15476D01*
X18751Y15337D02*
Y15476D01*
X18786Y15337D02*
Y15372D01*
X18716Y21125D02*
Y23077D01*
X18611Y20985D02*
Y23147D01*
X18646Y20985D02*
Y23112D01*
X18577Y20881D02*
Y23147D01*
X18542Y20846D02*
Y23147D01*
X18507Y20776D02*
Y23182D01*
X18472Y20741D02*
Y23182D01*
X18437Y20672D02*
Y23252D01*
X18716Y20950D02*
Y21055D01*
X18681Y20915D02*
Y21020D01*
X18646Y20846D02*
Y20950D01*
X18577Y20776D02*
Y20846D01*
X18611Y20776D02*
Y20846D01*
X18681Y20741D02*
Y20811D01*
X18542Y20741D02*
Y20811D01*
X18646Y20706D02*
Y20776D01*
X18611Y20672D02*
Y20741D01*
X18507Y20672D02*
Y20741D01*
X18542Y20672D02*
Y20706D01*
X18577Y20672D02*
Y20706D01*
X18646Y20637D02*
Y20672D01*
X18681Y20637D02*
Y20672D01*
X18507Y20602D02*
Y20637D01*
X18472Y20497D02*
Y20567D01*
X18437Y20392D02*
Y20532D01*
X18507Y20392D02*
Y20497D01*
X18472Y20358D02*
Y20392D01*
X18437Y20323D02*
Y20358D01*
X18507Y20218D02*
Y20323D01*
X18402Y20183D02*
Y20253D01*
X18472Y20148D02*
Y20183D01*
X18437Y20114D02*
Y20183D01*
X18367Y20567D02*
Y23286D01*
X18402Y20532D02*
Y23252D01*
X18332Y20462D02*
Y23217D01*
X18298Y20392D02*
Y23217D01*
X18263Y20288D02*
Y23252D01*
X18228Y20218D02*
Y23321D01*
X18193Y20148D02*
Y23252D01*
X18158Y20009D02*
Y23252D01*
X18123Y19870D02*
Y23252D01*
X18088Y19695D02*
Y23252D01*
X18367Y20427D02*
Y20497D01*
X18402Y20392D02*
Y20427D01*
X18367Y20358D02*
Y20392D01*
X18402Y20288D02*
Y20358D01*
X18298Y20288D02*
Y20358D01*
X18367Y20183D02*
Y20288D01*
X18332Y20183D02*
Y20253D01*
X18298Y20183D02*
Y20218D01*
X18263Y20148D02*
Y20218D01*
X18228Y20148D02*
Y20183D01*
X18402Y20079D02*
Y20114D01*
X18367Y20079D02*
Y20114D01*
X18332Y20079D02*
Y20114D01*
X18298Y20079D02*
Y20114D01*
X18193Y20044D02*
Y20114D01*
X18228Y19939D02*
Y19974D01*
X18193Y19904D02*
Y20009D01*
X18158Y19870D02*
Y19939D01*
X18228Y19835D02*
Y19904D01*
X18193Y19765D02*
Y19870D01*
X18123Y19800D02*
Y19835D01*
X18158Y19625D02*
Y19800D01*
X18228Y19660D02*
Y19765D01*
Y19486D02*
Y19556D01*
Y19312D02*
Y19346D01*
Y18823D02*
Y18928D01*
Y18719D02*
Y18789D01*
Y18579D02*
Y18649D01*
Y18475D02*
Y18510D01*
X18263Y18370D02*
Y18405D01*
X18472Y18335D02*
Y18405D01*
X18367Y18301D02*
Y18405D01*
X18298Y18301D02*
Y18370D01*
X18437Y18266D02*
Y18370D01*
X18507Y18231D02*
Y18335D01*
X18332Y18161D02*
Y18301D01*
X18402Y18161D02*
Y18266D01*
X18472Y18126D02*
Y18231D01*
X18507Y18126D02*
Y18161D01*
X18367Y18091D02*
Y18126D01*
X18437Y18056D02*
Y18126D01*
X18472Y18022D02*
Y18056D01*
X18507Y17987D02*
Y18056D01*
X18472Y17952D02*
Y17987D01*
X18507Y17917D02*
Y17952D01*
Y17847D02*
Y17882D01*
X18577Y17812D02*
Y17847D01*
X18646Y17812D02*
Y17847D01*
X18611Y17777D02*
Y17812D01*
X18681Y17777D02*
Y17812D01*
X18646Y17743D02*
Y17777D01*
X18611Y17673D02*
Y17743D01*
X18681Y17673D02*
Y17708D01*
Y17603D02*
Y17638D01*
X18193Y19556D02*
Y19660D01*
X18088Y19556D02*
Y19625D01*
X18123Y19521D02*
Y19591D01*
X18088Y19486D02*
Y19521D01*
X17914Y15407D02*
Y23252D01*
X17949Y15407D02*
Y23252D01*
X17531Y15581D02*
Y23077D01*
X17635Y15511D02*
Y23147D01*
X17809Y15372D02*
Y23286D01*
X17775Y15441D02*
Y23182D01*
X17740Y15441D02*
Y23182D01*
X18019Y15337D02*
Y23286D01*
X17565Y15546D02*
Y23077D01*
X18054Y15337D02*
Y23286D01*
X17879Y15407D02*
Y23217D01*
X17844Y15407D02*
Y23217D01*
X17984Y15407D02*
Y23217D01*
X18088Y19277D02*
Y19346D01*
X17600Y15511D02*
Y23112D01*
X17496Y15581D02*
Y23042D01*
X17705Y15476D02*
Y23147D01*
X17670Y15441D02*
Y23147D01*
X18123Y19068D02*
Y19486D01*
X18193Y18998D02*
Y19521D01*
X18088Y19207D02*
Y19242D01*
X18228Y19172D02*
Y19242D01*
X18158Y19068D02*
Y19103D01*
X18193Y18928D02*
Y18963D01*
X18158Y18789D02*
Y18963D01*
X18193Y18754D02*
Y18789D01*
X18158Y18649D02*
Y18719D01*
X18193Y18649D02*
Y18684D01*
X16589Y22066D02*
Y22101D01*
X16624Y22031D02*
Y22101D01*
X16415Y21996D02*
Y22031D01*
X16450Y21996D02*
Y22031D01*
X16380Y21996D02*
Y22031D01*
X16310Y21996D02*
Y22031D01*
X16589Y21961D02*
Y22031D01*
X16520Y21961D02*
Y21996D01*
X16485Y21961D02*
Y21996D01*
X16554Y21961D02*
Y21996D01*
X16345Y21927D02*
Y21996D01*
X16450Y21892D02*
Y21961D01*
X16380Y21892D02*
Y21961D01*
X16415Y21857D02*
Y21927D01*
X16554Y21857D02*
Y21927D01*
X16485Y21822D02*
Y21892D01*
X16520Y21822D02*
Y21892D01*
X16310Y21822D02*
Y21892D01*
X16380Y21787D02*
Y21857D01*
X16450Y21752D02*
Y21822D01*
X16520Y21752D02*
Y21787D01*
X16345Y21718D02*
Y21822D01*
X16415Y21718D02*
Y21752D01*
X16380Y21683D02*
Y21718D01*
X16345Y21613D02*
Y21648D01*
X16380Y21543D02*
Y21613D01*
X16345Y21473D02*
Y21543D01*
X16310Y21404D02*
Y21439D01*
X16450Y17010D02*
Y21718D01*
X17077Y16034D02*
Y22624D01*
X16659Y16627D02*
Y22031D01*
X16310Y17324D02*
Y21334D01*
Y21683D02*
Y21718D01*
Y21543D02*
Y21613D01*
Y21473D02*
Y21508D01*
X16136Y21125D02*
Y21194D01*
X16101Y21125D02*
Y21160D01*
X16066Y21020D02*
Y21194D01*
X16031Y21090D02*
Y21125D01*
X16136Y21020D02*
Y21090D01*
X16171Y20950D02*
Y21020D01*
X16031Y20950D02*
Y21020D01*
X16101Y20915D02*
Y21020D01*
X16066Y20846D02*
Y20950D01*
X16031Y20776D02*
Y20846D01*
X16101Y20776D02*
Y20846D01*
X16066Y20672D02*
Y20776D01*
X16031Y20672D02*
Y20706D01*
Y20602D02*
Y20637D01*
X15892Y20323D02*
Y20358D01*
X15857Y20253D02*
Y20358D01*
X15927Y20183D02*
Y20288D01*
X15962Y20218D02*
Y20253D01*
X15892Y20079D02*
Y20218D01*
X15857Y20009D02*
Y20148D01*
X15927Y19974D02*
Y20044D01*
X15892Y19800D02*
Y20009D01*
X15857Y19730D02*
Y19800D01*
Y19521D02*
Y19556D01*
X16206Y17603D02*
Y21160D01*
X15892Y19033D02*
Y19730D01*
X16240Y17499D02*
Y21194D01*
X16136Y17777D02*
Y20915D01*
X15857Y19277D02*
Y19381D01*
X16729Y16522D02*
Y22136D01*
X17112Y15999D02*
Y22659D01*
X16415Y17080D02*
Y21578D01*
X17321Y15755D02*
Y22903D01*
X17008Y16139D02*
Y22519D01*
X17147Y15965D02*
Y22694D01*
X16833Y16348D02*
Y22275D01*
X16798Y16383D02*
Y22241D01*
X16694Y16522D02*
Y22101D01*
X16485Y16941D02*
Y21683D01*
X16624Y16697D02*
Y21927D01*
X17461Y15616D02*
Y23008D01*
X17391Y15651D02*
Y22973D01*
X17356Y15720D02*
Y22903D01*
X17287Y15790D02*
Y22833D01*
X17252Y15825D02*
Y22798D01*
X17217Y15860D02*
Y22763D01*
X17182Y15895D02*
Y22729D01*
X17042Y16069D02*
Y22554D01*
X16380Y17150D02*
Y21473D01*
X16275Y17429D02*
Y21194D01*
X16589Y16732D02*
Y21857D01*
X16868Y16278D02*
Y22310D01*
X16554Y16766D02*
Y21822D01*
X16973Y16139D02*
Y22450D01*
X16938Y16174D02*
Y22415D01*
X16903Y16209D02*
Y22345D01*
X17426Y15581D02*
Y22973D01*
X16520Y16836D02*
Y21718D01*
X16345Y17150D02*
Y21369D01*
X16763Y16243D02*
Y22171D01*
X16206Y17429D02*
Y17464D01*
X15996Y18301D02*
Y20358D01*
X16066Y18022D02*
Y20602D01*
X16031Y18161D02*
Y20462D01*
X15962Y18440D02*
Y20148D01*
X16171Y17638D02*
Y20915D01*
X16101Y17812D02*
Y20706D01*
X15927Y18545D02*
Y19904D01*
X15857Y18614D02*
Y19137D01*
X15892Y18754D02*
Y18858D01*
X15822Y18684D02*
Y18719D01*
X15857Y18405D02*
Y18475D01*
X15892Y18301D02*
Y18475D01*
X15962Y18335D02*
Y18405D01*
X15927Y18266D02*
Y18301D01*
X15962Y18231D02*
Y18301D01*
X15857Y18161D02*
Y18370D01*
X15996Y18231D02*
Y18266D01*
X15892Y18161D02*
Y18231D01*
X15962Y18126D02*
Y18161D01*
X15927Y18126D02*
Y18161D01*
X16031Y18022D02*
Y18091D01*
X16066Y17917D02*
Y17987D01*
X16031Y17882D02*
Y17952D01*
Y17812D02*
Y17847D01*
X16066Y17743D02*
Y17812D01*
X16031Y17638D02*
Y17777D01*
X16101Y17638D02*
Y17743D01*
X16066Y17534D02*
Y17673D01*
X16171Y17568D02*
Y17603D01*
X16136Y17534D02*
Y17603D01*
X16206Y17534D02*
Y17568D01*
X16171Y17429D02*
Y17534D01*
X18088Y15372D02*
Y19033D01*
X18123Y15372D02*
Y18754D01*
X18158Y15372D02*
Y18614D01*
X18193Y15372D02*
Y18510D01*
X18228Y15337D02*
Y18405D01*
X18263Y15407D02*
Y18301D01*
X18298Y15337D02*
Y18231D01*
X18332Y15407D02*
Y18126D01*
X18402Y15407D02*
Y18126D01*
X18367Y15407D02*
Y18056D01*
X18437Y15372D02*
Y18022D01*
X18472Y15441D02*
Y17882D01*
X18542Y15476D02*
Y17847D01*
X18507Y15441D02*
Y17812D01*
X18646Y15511D02*
Y17673D01*
X18577Y15441D02*
Y17708D01*
X18611Y15476D02*
Y17638D01*
X18681Y15546D02*
Y17568D01*
X18716Y15511D02*
Y17534D01*
X17042Y15965D02*
Y16034D01*
X17077Y15965D02*
Y15999D01*
X17112Y15930D02*
Y15965D01*
X17077Y15895D02*
Y15930D01*
X17147Y15825D02*
Y15930D01*
X17182Y15790D02*
Y15825D01*
X17217Y15755D02*
Y15825D01*
X17252Y15755D02*
Y15790D01*
X17147Y15720D02*
Y15755D01*
X17217Y15686D02*
Y15720D01*
X17287Y15651D02*
Y15755D01*
X17321Y15651D02*
Y15720D01*
X17182Y15651D02*
Y15720D01*
X16589Y16662D02*
Y16697D01*
X16624Y16627D02*
Y16662D01*
X16659Y16557D02*
Y16592D01*
X16624Y16522D02*
Y16557D01*
X16659Y16488D02*
Y16522D01*
X16589Y16488D02*
Y16522D01*
X16624Y16453D02*
Y16488D01*
X16694Y16453D02*
Y16488D01*
X16729Y16348D02*
Y16453D01*
X16589Y16278D02*
Y16383D01*
X16659Y16209D02*
Y16453D01*
X16798Y16174D02*
Y16313D01*
X16694Y16209D02*
Y16278D01*
X16624Y16174D02*
Y16243D01*
X16833Y16174D02*
Y16209D01*
X16868Y16174D02*
Y16209D01*
X16729Y16174D02*
Y16209D01*
X16589Y16174D02*
Y16209D01*
X16903Y16139D02*
Y16174D01*
X16868Y16104D02*
Y16139D01*
X16938Y16104D02*
Y16139D01*
X16973Y16069D02*
Y16104D01*
X17008Y16034D02*
Y16069D01*
X16868Y16034D02*
Y16069D01*
X16973Y15999D02*
Y16034D01*
X16903Y15965D02*
Y16069D01*
X16938Y15965D02*
Y16034D01*
X17008Y15965D02*
Y15999D01*
X16868Y15930D02*
Y15965D01*
X16973Y15895D02*
Y15965D01*
X17008Y15895D02*
Y15930D01*
X16903Y15895D02*
Y15930D01*
X17461Y15546D02*
Y15581D01*
X17496Y15511D02*
Y15546D01*
X17426Y15511D02*
Y15546D01*
X17531Y15441D02*
Y15511D01*
X17461Y15441D02*
Y15511D01*
X17600Y15441D02*
Y15476D01*
X18681Y15407D02*
Y15476D01*
X18542Y15372D02*
Y15441D01*
X18611Y15372D02*
Y15441D01*
X17635Y15372D02*
Y15441D01*
X17565Y15372D02*
Y15441D01*
X17496Y15372D02*
Y15441D01*
X17426Y15372D02*
Y15441D01*
X18472Y15372D02*
Y15407D01*
X17775Y15372D02*
Y15407D01*
X17740Y15372D02*
Y15407D01*
X17670Y15372D02*
Y15407D01*
X18716Y15337D02*
Y15407D01*
X18507Y15337D02*
Y15407D01*
X17705Y15337D02*
Y15407D01*
X17531Y15337D02*
Y15407D01*
X17914Y15337D02*
Y15372D01*
X17984Y15337D02*
Y15372D01*
X18646Y15337D02*
Y15372D01*
X17879Y15337D02*
Y15372D01*
X18577Y15337D02*
Y15372D01*
X17949Y15337D02*
Y15372D01*
X18402Y15337D02*
Y15372D01*
X18367Y15337D02*
Y15372D01*
X17844Y15337D02*
Y15372D01*
X17600Y15337D02*
Y15372D01*
X17461Y15337D02*
Y15372D01*
X17252Y15651D02*
Y15686D01*
X17147Y15616D02*
Y15686D01*
X17356Y15616D02*
Y15651D01*
X17217Y15616D02*
Y15651D01*
X16833Y14465D02*
Y14500D01*
X16729Y14465D02*
Y14500D01*
X16624Y14430D02*
Y14500D01*
X16694Y14396D02*
Y14500D01*
X16659Y14396D02*
Y14430D01*
X16763Y14396D02*
Y14430D01*
X16798Y14326D02*
Y14465D01*
X16833Y14291D02*
Y14361D01*
X16763Y14151D02*
Y14256D01*
X16798Y14082D02*
Y14291D01*
X16729Y13942D02*
Y14361D01*
X16589Y13838D02*
Y14430D01*
X16659Y13942D02*
Y14291D01*
X16624Y14082D02*
Y14151D01*
X16833Y13977D02*
Y14151D01*
Y13907D02*
Y13942D01*
X16624Y13907D02*
Y13942D01*
X16694Y13872D02*
Y13942D01*
X16763Y13803D02*
Y13942D01*
X16659Y13768D02*
Y13872D01*
X16833Y13733D02*
Y13838D01*
X16589Y13768D02*
Y13803D01*
X16624Y13768D02*
Y13803D01*
X16729Y13698D02*
Y13803D01*
X16694Y13698D02*
Y13768D01*
X16659Y13663D02*
Y13698D01*
X16624Y13663D02*
Y13698D01*
X16798Y13663D02*
Y13698D01*
X16275Y17324D02*
Y17359D01*
X16310Y17255D02*
Y17289D01*
Y17080D02*
Y17150D01*
X16380Y17010D02*
Y17115D01*
X16345Y17010D02*
Y17080D01*
X16310Y17010D02*
Y17045D01*
X16415Y16976D02*
Y17010D01*
X16450Y16906D02*
Y16976D01*
X16345Y16906D02*
Y16976D01*
X16310Y16906D02*
Y16941D01*
X16415Y16871D02*
Y16941D01*
X16485Y16836D02*
Y16906D01*
X16450Y16801D02*
Y16871D01*
X16380Y16766D02*
Y16906D01*
X16310Y16801D02*
Y16836D01*
X16485Y16766D02*
Y16801D01*
X16415Y16766D02*
Y16801D01*
X16345Y16732D02*
Y16766D01*
X16520Y16732D02*
Y16766D01*
X16589Y16557D02*
Y16592D01*
X16275Y15267D02*
Y15302D01*
Y15093D02*
Y15128D01*
X16520Y15023D02*
Y15058D01*
X16415Y14988D02*
Y15058D01*
X16310Y14988D02*
Y15058D01*
X16450Y14988D02*
Y15023D01*
X16485Y14988D02*
Y15023D01*
X16554Y14988D02*
Y15023D01*
X16380Y14953D02*
Y15023D01*
X16520Y14953D02*
Y14988D01*
X16415Y14919D02*
Y14953D01*
X16310Y14919D02*
Y14953D01*
X16031Y17359D02*
Y17534D01*
X16240Y17394D02*
Y17464D01*
X16101Y17324D02*
Y17534D01*
X16066Y17394D02*
Y17429D01*
X16136Y17324D02*
Y17429D01*
X16206Y17324D02*
Y17394D01*
X16171Y17324D02*
Y17359D01*
X16031Y17289D02*
Y17324D01*
X16066Y17289D02*
Y17324D01*
X16240Y17289D02*
Y17324D01*
X15857Y15546D02*
Y15616D01*
X15927Y15546D02*
Y15616D01*
X15996Y15511D02*
Y15616D01*
X15857Y15476D02*
Y15511D01*
X15962Y15476D02*
Y15511D01*
X15892Y15441D02*
Y15476D01*
X15996Y15441D02*
Y15476D01*
X15927Y15407D02*
Y15441D01*
X15996Y15337D02*
Y15407D01*
X16066Y15302D02*
Y15337D01*
X16240Y15232D02*
Y15337D01*
X16171Y15267D02*
Y15302D01*
X16031Y15267D02*
Y15302D01*
X16136Y15232D02*
Y15267D01*
X16101Y15232D02*
Y15267D01*
X16275Y15197D02*
Y15232D01*
X16066Y15197D02*
Y15232D01*
X16206Y15163D02*
Y15232D01*
X16101Y15163D02*
Y15197D01*
X16171Y15128D02*
Y15197D01*
X16240Y15058D02*
Y15197D01*
X16275Y14953D02*
Y15058D01*
X16485Y14919D02*
Y14953D01*
X16345Y14884D02*
Y14953D01*
X16554Y14884D02*
Y14919D01*
X16520Y14884D02*
Y14919D01*
X16450Y14884D02*
Y14919D01*
X16485Y14849D02*
Y14884D01*
X16380Y14849D02*
Y14884D01*
X16520Y14814D02*
Y14849D01*
X16554Y14744D02*
Y14814D01*
X16485Y14709D02*
Y14814D01*
X16520Y14674D02*
Y14709D01*
X16554Y14674D02*
Y14709D01*
Y14605D02*
Y14640D01*
X16415Y13489D02*
Y14849D01*
X16554Y13768D02*
Y14535D01*
X16450Y13524D02*
Y14744D01*
X16520Y13663D02*
Y14605D01*
X16310Y13384D02*
Y14884D01*
X16380Y13419D02*
Y14814D01*
X16485Y13559D02*
Y14674D01*
X16345Y13384D02*
Y14849D01*
X16554Y13663D02*
Y13733D01*
X16520Y13594D02*
Y13628D01*
X16554Y13594D02*
Y13628D01*
Y13524D02*
Y13559D01*
X16520Y13454D02*
Y13559D01*
X16485Y13489D02*
Y13524D01*
X16450Y13419D02*
Y13489D01*
X16554Y13419D02*
Y13454D01*
X16485Y13419D02*
Y13454D01*
X16415Y13384D02*
Y13419D01*
X16275Y13175D02*
Y13245D01*
X15892Y13105D02*
Y15407D01*
X15857Y13036D02*
Y15441D01*
X15927Y13105D02*
Y15372D01*
X15996Y13105D02*
Y15302D01*
X15962Y13036D02*
Y15337D01*
X16031Y13140D02*
Y15232D01*
X16136Y13210D02*
Y15163D01*
X16206Y13245D02*
Y15093D01*
X16240Y13315D02*
Y14988D01*
X16101Y13175D02*
Y15128D01*
X16066Y13105D02*
Y15163D01*
X16171Y13175D02*
Y15058D01*
X16275Y13280D02*
Y14919D01*
X16240Y13245D02*
Y13280D01*
X16206Y13175D02*
Y13210D01*
X16240Y13105D02*
Y13175D01*
X16136Y13105D02*
Y13175D01*
X16275Y13105D02*
Y13140D01*
X16171Y13105D02*
Y13140D01*
X15927Y13036D02*
Y13071D01*
X15892Y13036D02*
Y13071D01*
X15962Y12966D02*
Y13001D01*
X15996Y12966D02*
Y13001D01*
X15857Y12966D02*
Y13001D01*
X15892Y12931D02*
Y13001D01*
X15927Y12931D02*
Y13001D01*
X15996Y12896D02*
Y12931D01*
X15962Y12896D02*
Y12931D01*
X15857Y12861D02*
Y12896D01*
X15892Y12826D02*
Y12896D01*
X15927Y12826D02*
Y12861D01*
X15962Y12826D02*
Y12861D01*
X14044Y27540D02*
Y27610D01*
X13974Y27540D02*
Y27610D01*
X13939Y27505D02*
Y27610D01*
X14009Y27436D02*
Y27540D01*
X14044Y27436D02*
Y27505D01*
X13939Y27401D02*
Y27436D01*
X13974Y27331D02*
Y27436D01*
X14044Y27331D02*
Y27366D01*
Y27261D02*
Y27296D01*
X14009Y27226D02*
Y27296D01*
X13939Y27226D02*
Y27296D01*
X13974Y27157D02*
Y27226D01*
X14044Y27157D02*
Y27191D01*
X13939Y27087D02*
Y27191D01*
X14009Y26982D02*
Y27157D01*
X13974Y26947D02*
Y27052D01*
X13939Y26878D02*
Y26982D01*
X14044Y26843D02*
Y26982D01*
X14009Y26773D02*
Y26878D01*
X14044Y26738D02*
Y26773D01*
X13974Y26599D02*
Y26808D01*
X14044Y26529D02*
Y26634D01*
X13974Y26494D02*
Y26529D01*
X14009Y26424D02*
Y26529D01*
X13939Y26459D02*
Y26494D01*
X13974Y26355D02*
Y26459D01*
X14044Y26355D02*
Y26424D01*
X13939Y26355D02*
Y26390D01*
X14009Y26285D02*
Y26355D01*
X13765Y27854D02*
Y27889D01*
X13695Y27854D02*
Y27889D01*
X13660Y27854D02*
Y27889D01*
X13730Y27819D02*
Y27854D01*
X13765Y27784D02*
Y27819D01*
X13695Y27749D02*
Y27819D01*
X13730Y27714D02*
Y27784D01*
X13660Y27714D02*
Y27749D01*
X13765Y27680D02*
Y27714D01*
X13695Y27645D02*
Y27714D01*
X13730Y27610D02*
Y27680D01*
X13870Y27575D02*
Y27610D01*
X13835Y27575D02*
Y27610D01*
X13765Y27575D02*
Y27610D01*
X13800Y27505D02*
Y27575D01*
X13905Y27470D02*
Y27540D01*
X13835Y27436D02*
Y27505D01*
X13905Y27296D02*
Y27436D01*
X13870Y27296D02*
Y27331D01*
X13730Y26250D02*
Y27575D01*
X13800Y26355D02*
Y27436D01*
X13905Y26634D02*
Y27157D01*
X13765Y26285D02*
Y27505D01*
X13870Y26529D02*
Y27261D01*
X13835Y26424D02*
Y27366D01*
X13695Y26145D02*
Y27610D01*
X13905Y26494D02*
Y26599D01*
Y26390D02*
Y26459D01*
X13870Y26390D02*
Y26424D01*
X13835Y26285D02*
Y26355D01*
X15787Y25622D02*
Y25657D01*
X15404Y25622D02*
Y25657D01*
X15334Y25622D02*
Y25657D01*
X15648Y25622D02*
Y25657D01*
X15578Y25622D02*
Y25657D01*
X15160Y25622D02*
Y25657D01*
X15683Y25622D02*
Y25657D01*
X15718Y25622D02*
Y25657D01*
X15543Y25622D02*
Y25657D01*
X15613Y25622D02*
Y25657D01*
X15369Y25622D02*
Y25657D01*
X15020Y25622D02*
Y25657D01*
X14916Y25622D02*
Y25657D01*
X15194Y25588D02*
Y25657D01*
X15090Y25588D02*
Y25622D01*
X15125Y25553D02*
Y25622D01*
X14951Y25553D02*
Y25622D01*
X14916Y25553D02*
Y25588D01*
X15020Y25518D02*
Y25588D01*
X14916Y25413D02*
Y25518D01*
X14741Y25344D02*
Y25378D01*
X14637Y25344D02*
Y25378D01*
X14706Y25309D02*
Y25344D01*
X14672Y25309D02*
Y25344D01*
X14637Y25239D02*
Y25309D01*
X14672Y25204D02*
Y25239D01*
X14427Y25030D02*
Y25100D01*
X14497Y25030D02*
Y25065D01*
X14358Y24995D02*
Y25065D01*
X14393Y24960D02*
Y25030D01*
X14358Y24890D02*
Y24960D01*
X14288Y24786D02*
Y24821D01*
X13870Y26285D02*
Y26320D01*
X13905Y26285D02*
Y26320D01*
X14044Y26250D02*
Y26285D01*
X13974Y26215D02*
Y26320D01*
X13800Y26215D02*
Y26320D01*
X13870Y26215D02*
Y26250D01*
X13905Y26215D02*
Y26250D01*
X14009Y26215D02*
Y26250D01*
X13765Y26180D02*
Y26215D01*
X13730Y26145D02*
Y26180D01*
X13765Y26111D02*
Y26145D01*
X13730Y26076D02*
Y26111D01*
X13695Y26041D02*
Y26076D01*
X13765Y26006D02*
Y26041D01*
X13730Y25971D02*
Y26006D01*
X13695Y25936D02*
Y25971D01*
X13765Y25936D02*
Y25971D01*
X14253Y24786D02*
Y24821D01*
X14149Y24786D02*
Y24821D01*
X14079Y24786D02*
Y24821D01*
X14218Y24751D02*
Y24786D01*
X14183Y24751D02*
Y24786D01*
X14114Y24716D02*
Y24751D01*
X14079Y24716D02*
Y24751D01*
X14149Y24681D02*
Y24751D01*
X14183Y24646D02*
Y24681D01*
X14079Y24646D02*
Y24681D01*
X14149Y24611D02*
Y24646D01*
X14114Y24577D02*
Y24681D01*
X14079Y24507D02*
Y24577D01*
X13939Y24507D02*
Y24542D01*
X14009Y24507D02*
Y24542D01*
X13451Y28133D02*
Y28168D01*
X13486Y28133D02*
Y28168D01*
X13207Y28098D02*
Y28133D01*
X13277Y28063D02*
Y28168D01*
X13312Y28063D02*
Y28133D01*
X13242Y28063D02*
Y28133D01*
X13347Y28063D02*
Y28098D01*
X13382Y27959D02*
Y28063D01*
X13207Y27959D02*
Y28028D01*
X13451Y27924D02*
Y28028D01*
X13486Y27959D02*
Y27993D01*
X13521Y27819D02*
Y27889D01*
X13556Y27819D02*
Y27854D01*
X13591Y27784D02*
Y27854D01*
X13625Y27749D02*
Y27819D01*
X13556Y27749D02*
Y27784D01*
X13591Y27714D02*
Y27749D01*
X13625Y27680D02*
Y27714D01*
X13416Y25901D02*
Y28063D01*
X13660Y26180D02*
Y27680D01*
X13486Y25936D02*
Y27889D01*
X13591Y26076D02*
Y27680D01*
X13556Y26006D02*
Y27714D01*
X13625Y26076D02*
Y27645D01*
X13521Y25971D02*
Y27749D01*
X13347Y25797D02*
Y27889D01*
X13277Y25727D02*
Y27959D01*
X13242Y25657D02*
Y27993D01*
X13451Y25867D02*
Y27784D01*
X13382Y25762D02*
Y27854D01*
X13312Y25657D02*
Y27924D01*
X13033Y28133D02*
Y28168D01*
X12998Y28133D02*
Y28168D01*
X12789Y28133D02*
Y28168D01*
X12649Y28133D02*
Y28168D01*
X12858Y28133D02*
Y28168D01*
X12824Y28133D02*
Y28168D01*
X12754Y28133D02*
Y28168D01*
X12719Y28133D02*
Y28168D01*
X13137Y28098D02*
Y28168D01*
X12684Y28098D02*
Y28168D01*
X13172Y28098D02*
Y28133D01*
X13103Y28098D02*
Y28133D01*
X12963Y28098D02*
Y28133D01*
X12928Y28028D02*
Y28098D01*
X13033Y28028D02*
Y28063D01*
X12998Y28028D02*
Y28063D01*
X12893Y28028D02*
Y28063D01*
X12789Y28028D02*
Y28063D01*
X12858Y28028D02*
Y28063D01*
X12824Y28028D02*
Y28063D01*
X12754Y28028D02*
Y28063D01*
X13172Y27993D02*
Y28063D01*
X13137Y27993D02*
Y28063D01*
X13207Y25622D02*
Y27924D01*
X13172Y25588D02*
Y27959D01*
X13068Y25448D02*
Y28028D01*
X13103Y25413D02*
Y28028D01*
X13137Y25483D02*
Y27959D01*
X13033Y25344D02*
Y27959D01*
X12998Y25309D02*
Y27959D01*
X13660Y26041D02*
Y26145D01*
X13591Y25971D02*
Y26006D01*
X13625Y25971D02*
Y26006D01*
X13556Y25936D02*
Y25971D01*
X13660Y25936D02*
Y25971D01*
X13486Y25867D02*
Y25901D01*
X13416Y25797D02*
Y25867D01*
X13486Y25797D02*
Y25832D01*
X13451Y25762D02*
Y25832D01*
X13416Y25727D02*
Y25762D01*
X13347Y25692D02*
Y25762D01*
X13382Y25692D02*
Y25727D01*
X13486Y25692D02*
Y25727D01*
X13277Y25657D02*
Y25692D01*
X13416Y25657D02*
Y25692D01*
X13207Y25553D02*
Y25588D01*
X13172Y25518D02*
Y25553D01*
Y25448D02*
Y25483D01*
X13207Y25378D02*
Y25448D01*
X13137Y25344D02*
Y25448D01*
X13172Y25378D02*
Y25413D01*
X13068Y25378D02*
Y25413D01*
X13103Y25309D02*
Y25378D01*
X13172Y25274D02*
Y25344D01*
X13137Y25239D02*
Y25274D01*
X13103Y25204D02*
Y25274D01*
X13207Y25204D02*
Y25239D01*
X13172Y25169D02*
Y25204D01*
X13137Y25134D02*
Y25204D01*
X13207Y25100D02*
Y25134D01*
X13103Y25100D02*
Y25134D01*
X13068Y25100D02*
Y25134D01*
X12963Y25274D02*
Y27993D01*
X12893Y25204D02*
Y27993D01*
X12928Y25169D02*
Y27993D01*
X12858Y25100D02*
Y27993D01*
X12789Y24995D02*
Y27993D01*
X12824Y24995D02*
Y27993D01*
X12719Y24925D02*
Y28063D01*
X12754Y24995D02*
Y27993D01*
X12684Y24855D02*
Y28063D01*
X13068Y25274D02*
Y25344D01*
X13033Y25274D02*
Y25309D01*
X12998Y25239D02*
Y25274D01*
X12963Y25204D02*
Y25239D01*
X13068Y25169D02*
Y25239D01*
X13033Y25169D02*
Y25204D01*
X12998Y25134D02*
Y25169D01*
X12963Y25134D02*
Y25169D01*
X12893Y25134D02*
Y25169D01*
X13033Y25100D02*
Y25134D01*
X12928Y25100D02*
Y25134D01*
X12893Y25030D02*
Y25100D01*
X12928Y25030D02*
Y25065D01*
X12893Y24960D02*
Y24995D01*
X12858Y24960D02*
Y24995D01*
X12928Y24925D02*
Y24960D01*
X12754Y24890D02*
Y24960D01*
X12858Y24890D02*
Y24925D01*
X12789Y24855D02*
Y24890D01*
X12893Y24821D02*
Y24890D01*
X12928Y24821D02*
Y24855D01*
X12824Y24821D02*
Y24855D01*
X12719Y24821D02*
Y24855D01*
X15822Y23042D02*
Y25622D01*
X15787Y23077D02*
Y25553D01*
X15752Y23008D02*
Y25622D01*
X15683Y22938D02*
Y25588D01*
X15718Y22938D02*
Y25588D01*
X15648Y22868D02*
Y25588D01*
X15613Y22833D02*
Y25588D01*
X15578Y22763D02*
Y25588D01*
X15543Y22729D02*
Y25588D01*
X15508Y22589D02*
Y25588D01*
X15473Y22589D02*
Y25588D01*
X15439Y22485D02*
Y25622D01*
X15822Y22938D02*
Y23008D01*
X15752Y22903D02*
Y22973D01*
X15787Y22868D02*
Y22938D01*
X15683Y22868D02*
Y22903D01*
X15718Y22833D02*
Y22903D01*
X15683Y22763D02*
Y22833D01*
X15718Y22763D02*
Y22798D01*
X15648Y22729D02*
Y22763D01*
X15613Y22729D02*
Y22763D01*
X15718Y22694D02*
Y22729D01*
X15683Y22659D02*
Y22694D01*
X15578Y22659D02*
Y22694D01*
X15648Y22624D02*
Y22659D01*
X15683Y22589D02*
Y22624D01*
X15718Y22589D02*
Y22624D01*
X15613Y22589D02*
Y22624D01*
X15439Y22380D02*
Y22415D01*
X15404Y22380D02*
Y22415D01*
X15439Y22241D02*
Y22275D01*
Y22101D02*
Y22171D01*
X15404Y22450D02*
Y25588D01*
X15369Y22415D02*
Y25588D01*
X15334Y22310D02*
Y25588D01*
X15264Y22241D02*
Y25622D01*
X15299Y22171D02*
Y25588D01*
X15229Y22136D02*
Y25622D01*
X15194Y22066D02*
Y25518D01*
X15160Y21996D02*
Y25553D01*
X15125Y21927D02*
Y25518D01*
X15090Y21857D02*
Y25553D01*
X15055Y21787D02*
Y25518D01*
X15020Y21683D02*
Y25483D01*
X14985Y21613D02*
Y25483D01*
X14951Y21543D02*
Y25413D01*
X14916Y21404D02*
Y25378D01*
X14881Y21264D02*
Y25378D01*
X14846Y21194D02*
Y25344D01*
X14811Y21125D02*
Y25309D01*
X14776Y21020D02*
Y25378D01*
X14741Y20776D02*
Y25274D01*
X14706Y20672D02*
Y25274D01*
X14672Y20637D02*
Y25169D01*
X14637Y20462D02*
Y25134D01*
X14602Y20253D02*
Y25100D01*
X15369Y22241D02*
Y22345D01*
X15404Y22136D02*
Y22241D01*
X15334Y22171D02*
Y22206D01*
X15264Y22136D02*
Y22171D01*
X15369Y22066D02*
Y22101D01*
X15334Y22066D02*
Y22101D01*
X15299Y22031D02*
Y22136D01*
X15229Y22031D02*
Y22101D01*
X15404Y22031D02*
Y22066D01*
X15160Y21892D02*
Y21927D01*
X15125Y21787D02*
Y21892D01*
X15090Y21752D02*
Y21787D01*
X15125Y21718D02*
Y21752D01*
X15160Y21613D02*
Y21787D01*
X15055Y21683D02*
Y21718D01*
X15090Y21543D02*
Y21718D01*
X15020Y21613D02*
Y21648D01*
X15160Y21508D02*
Y21578D01*
X15055Y21508D02*
Y21578D01*
X15125Y21508D02*
Y21543D01*
X15020Y21473D02*
Y21543D01*
X15090Y21473D02*
Y21508D01*
X15160Y21334D02*
Y21439D01*
X15055Y21229D02*
Y21473D01*
X15160Y21229D02*
Y21299D01*
X15125Y21229D02*
Y21299D01*
X15090Y21229D02*
Y21299D01*
X15787Y20288D02*
Y20358D01*
X15752Y20253D02*
Y20288D01*
X15822Y20183D02*
Y20288D01*
X15787Y20079D02*
Y20183D01*
X15752Y20009D02*
Y20079D01*
X15787Y19974D02*
Y20044D01*
X15822Y19800D02*
Y20009D01*
X15752Y19835D02*
Y19939D01*
X15787Y19730D02*
Y19835D01*
X15752Y19591D02*
Y19730D01*
X15822Y19556D02*
Y19695D01*
X15752Y19451D02*
Y19521D01*
X15822Y19346D02*
Y19451D01*
X14985Y21508D02*
Y21578D01*
X14951Y21404D02*
Y21508D01*
X14985Y21334D02*
Y21369D01*
X15020Y21299D02*
Y21404D01*
X14951Y21299D02*
Y21334D01*
X14916Y21264D02*
Y21334D01*
X15020Y21194D02*
Y21229D01*
X14985Y21194D02*
Y21229D01*
X14951Y21194D02*
Y21229D01*
X14881Y21125D02*
Y21194D01*
X14846Y21020D02*
Y21125D01*
X14881Y20950D02*
Y21020D01*
X14811Y20950D02*
Y21020D01*
X14776Y20881D02*
Y20985D01*
X14846Y20915D02*
Y20950D01*
X14811Y20776D02*
Y20915D01*
X14881Y20776D02*
Y20881D01*
X14776Y20706D02*
Y20811D01*
X14846Y20672D02*
Y20776D01*
X14881Y20637D02*
Y20672D01*
X14741Y20637D02*
Y20672D01*
X14846Y20532D02*
Y20637D01*
X14672Y20532D02*
Y20602D01*
X14776Y20462D02*
Y20637D01*
X14706Y20392D02*
Y20602D01*
X14881Y20462D02*
Y20532D01*
X14741Y20392D02*
Y20462D01*
X14811Y20358D02*
Y20462D01*
X14672Y20392D02*
Y20427D01*
X14637Y20358D02*
Y20392D01*
X14602Y20079D02*
Y20114D01*
Y19800D02*
Y19974D01*
X13800Y24472D02*
Y24542D01*
X13870Y24472D02*
Y24507D01*
X14044Y24437D02*
Y24507D01*
X13905Y24437D02*
Y24507D01*
X13835Y24437D02*
Y24472D01*
X13974Y24437D02*
Y24472D01*
X14009Y24402D02*
Y24437D01*
X13800Y24402D02*
Y24437D01*
X13939Y24367D02*
Y24437D01*
X13835Y24332D02*
Y24402D01*
X13974Y24332D02*
Y24367D01*
X13905Y24298D02*
Y24367D01*
X13939Y24298D02*
Y24332D01*
X13870Y24193D02*
Y24367D01*
X13800Y24228D02*
Y24332D01*
X13835Y24193D02*
Y24228D01*
X13800Y24123D02*
Y24158D01*
X13591Y23949D02*
Y23984D01*
X13521Y23949D02*
Y23984D01*
X13695Y23914D02*
Y23949D01*
X13660Y23914D02*
Y23949D01*
X13521Y23879D02*
Y23914D01*
X13556Y23844D02*
Y23879D01*
X13591Y23810D02*
Y23914D01*
X13521Y23810D02*
Y23844D01*
X13556Y23775D02*
Y23810D01*
X13521Y23670D02*
Y23775D01*
X13486Y23670D02*
Y23705D01*
X13451Y23635D02*
Y23670D01*
X13416Y23635D02*
Y23670D01*
X13486Y23600D02*
Y23635D01*
X13451Y23530D02*
Y23600D01*
X13382Y23670D02*
Y23705D01*
X13277Y23670D02*
Y23705D01*
X13242Y23670D02*
Y23705D01*
X13312Y23635D02*
Y23670D01*
X13382Y23565D02*
Y23635D01*
X13347Y23565D02*
Y23635D01*
X13277Y23565D02*
Y23635D01*
X13312Y23496D02*
Y23565D01*
X13382Y23461D02*
Y23530D01*
X13242Y23461D02*
Y23530D01*
X13347Y23426D02*
Y23461D01*
X13382Y23391D02*
Y23426D01*
X13277Y23321D02*
Y23461D01*
X13312Y23356D02*
Y23391D01*
X13242Y23356D02*
Y23391D01*
Y23252D02*
Y23321D01*
Y23182D02*
Y23217D01*
X13137Y23112D02*
Y23147D01*
X13172Y23112D02*
Y23147D01*
X12998Y23112D02*
Y23147D01*
X13068Y23112D02*
Y23147D01*
X13033Y23042D02*
Y23147D01*
X12963Y23077D02*
Y23112D01*
X13207Y23042D02*
Y23112D01*
X13103Y23042D02*
Y23077D01*
X13137Y23008D02*
Y23077D01*
X13172Y23008D02*
Y23042D01*
X12998Y23008D02*
Y23042D01*
X13137Y22938D02*
Y22973D01*
X13103Y22938D02*
Y22973D01*
X13033Y22903D02*
Y23008D01*
X12963Y22903D02*
Y22973D01*
X13068Y22868D02*
Y22903D01*
X12998Y22868D02*
Y22903D01*
X13033Y22833D02*
Y22868D01*
X13068Y22798D02*
Y22833D01*
X12998Y22763D02*
Y22833D01*
X13033Y22694D02*
Y22763D01*
X12963Y22659D02*
Y22763D01*
X12998Y22624D02*
Y22659D01*
X12963Y22554D02*
Y22624D01*
X14567Y20079D02*
Y25065D01*
X14532Y19800D02*
Y25100D01*
X14602Y20148D02*
Y20218D01*
X14532Y19660D02*
Y19730D01*
X14567Y19521D02*
Y19730D01*
X14532Y19416D02*
Y19521D01*
X14602Y19312D02*
Y19521D01*
X13591Y14919D02*
Y23775D01*
X13277Y15441D02*
Y23252D01*
X14427Y13733D02*
Y24960D01*
X13347Y15337D02*
Y23356D01*
X13137Y15790D02*
Y22903D01*
X14462Y13663D02*
Y25030D01*
X14253Y13907D02*
Y24751D01*
X13033Y15999D02*
Y22659D01*
X13312Y15372D02*
Y23286D01*
X13730Y14674D02*
Y23984D01*
X13242Y15546D02*
Y23112D01*
X14079Y14151D02*
Y24472D01*
X14358Y13768D02*
Y24855D01*
X14183Y14012D02*
Y24611D01*
X13800Y14570D02*
Y24054D01*
X13172Y15686D02*
Y22938D01*
X12928Y22554D02*
Y22589D01*
X12684Y22554D02*
Y22589D01*
X12858Y22554D02*
Y22589D01*
X12824Y22519D02*
Y22589D01*
X12963Y22485D02*
Y22519D01*
X12754Y22485D02*
Y22519D01*
X12719Y22415D02*
Y22554D01*
X12928Y22450D02*
Y22485D01*
X12893Y22415D02*
Y22485D01*
X12858Y22415D02*
Y22485D01*
X12824Y22345D02*
Y22450D01*
X12789Y22345D02*
Y22415D01*
X12893Y22310D02*
Y22345D01*
X12684Y22241D02*
Y22345D01*
X12824Y22275D02*
Y22310D01*
X12858Y22206D02*
Y22275D01*
X12754Y22171D02*
Y22310D01*
X12719Y22206D02*
Y22275D01*
X12824Y22136D02*
Y22206D01*
X12684Y22136D02*
Y22171D01*
X12719Y22066D02*
Y22171D01*
X12789Y22031D02*
Y22101D01*
X12684Y21996D02*
Y22066D01*
X12719Y21961D02*
Y22031D01*
X12754Y21927D02*
Y21996D01*
X12684Y21857D02*
Y21927D01*
X12719Y21787D02*
Y21892D01*
X12684Y21752D02*
Y21822D01*
Y21648D02*
Y21718D01*
X12928Y16278D02*
Y22380D01*
X12719Y16906D02*
Y21752D01*
X12789Y16662D02*
Y21996D01*
X12510Y28133D02*
Y28168D01*
X12475Y28133D02*
Y28168D01*
X12440Y28098D02*
Y28168D01*
X12405Y28098D02*
Y28133D01*
X12545Y28063D02*
Y28168D01*
X12580Y28063D02*
Y28133D01*
X12649Y28028D02*
Y28098D01*
X12614Y28028D02*
Y28098D01*
X12440Y28028D02*
Y28063D01*
X12475Y28028D02*
Y28063D01*
X12405Y28028D02*
Y28063D01*
Y27924D02*
Y27993D01*
X12231Y27854D02*
Y27889D01*
X12161Y27854D02*
Y27889D01*
X12022Y27854D02*
Y27889D01*
X12091Y27819D02*
Y27889D01*
X12196Y27819D02*
Y27854D01*
X11987Y27819D02*
Y27854D01*
X12126Y27784D02*
Y27854D01*
X11952Y27784D02*
Y27854D01*
X12161Y27784D02*
Y27819D01*
X12056Y27784D02*
Y27819D01*
X12022Y27784D02*
Y27819D01*
X11917Y27784D02*
Y27819D01*
X12091Y27749D02*
Y27784D01*
X11987Y27749D02*
Y27784D01*
X12056Y27714D02*
Y27749D01*
X11952Y27714D02*
Y27749D01*
X12022Y27680D02*
Y27714D01*
X11987Y27645D02*
Y27680D01*
X11952Y27610D02*
Y27645D01*
X11917Y27575D02*
Y27610D01*
Y27854D02*
Y27889D01*
X11847Y27854D02*
Y27889D01*
X11882Y27819D02*
Y27854D01*
X11847Y27749D02*
Y27819D01*
X11882Y27714D02*
Y27784D01*
X11917Y27645D02*
Y27749D01*
X11882Y27610D02*
Y27645D01*
X11847Y27540D02*
Y27714D01*
X11673Y27575D02*
Y27610D01*
X11638Y27540D02*
Y27610D01*
X11568Y27540D02*
Y27575D01*
X11603Y27540D02*
Y27575D01*
X11778Y27540D02*
Y27575D01*
X11743Y27505D02*
Y27575D01*
X11882Y27505D02*
Y27540D01*
X11708Y27470D02*
Y27540D01*
X11812Y27436D02*
Y27540D01*
X11638Y27470D02*
Y27505D01*
X11847Y27470D02*
Y27505D01*
X11568Y27436D02*
Y27505D01*
X11673Y27436D02*
Y27505D01*
X11778Y27401D02*
Y27470D01*
X11743Y27401D02*
Y27436D01*
X11638Y27366D02*
Y27401D01*
X11673Y27366D02*
Y27401D01*
X11603Y27331D02*
Y27401D01*
X11708Y27331D02*
Y27401D01*
X11673Y27296D02*
Y27331D01*
X11568Y27261D02*
Y27331D01*
X11638Y27261D02*
Y27331D01*
X11673Y27226D02*
Y27261D01*
X11603Y27191D02*
Y27226D01*
X12649Y24821D02*
Y27959D01*
X12614Y24751D02*
Y27993D01*
X12580Y24681D02*
Y27993D01*
X12545Y24646D02*
Y27959D01*
X12510Y24542D02*
Y28063D01*
X12440Y24472D02*
Y27924D01*
X12475Y24437D02*
Y27924D01*
X12405Y24402D02*
Y27889D01*
X12370Y24332D02*
Y27889D01*
X12649Y24611D02*
Y24751D01*
X12614Y24646D02*
Y24681D01*
X12580Y24611D02*
Y24646D01*
X12545Y24577D02*
Y24611D01*
X12614Y24472D02*
Y24577D01*
X12545Y24472D02*
Y24542D01*
X12580Y24472D02*
Y24507D01*
X12649Y24472D02*
Y24507D01*
X12580Y24402D02*
Y24437D01*
X12510Y24402D02*
Y24437D01*
X12614Y24402D02*
Y24437D01*
X12545Y24402D02*
Y24437D01*
X12649Y24367D02*
Y24437D01*
X12440Y24332D02*
Y24402D01*
X12510Y24332D02*
Y24367D01*
X12580Y24298D02*
Y24367D01*
X12649Y24298D02*
Y24332D01*
X12405Y24298D02*
Y24332D01*
X12614Y24263D02*
Y24332D01*
X12545Y24263D02*
Y24298D01*
X12475Y24263D02*
Y24298D01*
X12440Y24263D02*
Y24298D01*
X12370Y24123D02*
Y24158D01*
X11638Y27191D02*
Y27226D01*
X11568Y27157D02*
Y27191D01*
X11464Y26982D02*
Y27052D01*
X12336Y24298D02*
Y27889D01*
X12301Y24228D02*
Y27854D01*
X12266Y24123D02*
Y27819D01*
X12231Y24088D02*
Y27819D01*
X12196Y24019D02*
Y27784D01*
X12161Y23914D02*
Y27749D01*
X12126Y23879D02*
Y27714D01*
X12091Y23775D02*
Y27714D01*
X12056Y23740D02*
Y27645D01*
X12022Y23670D02*
Y27645D01*
X11987Y23600D02*
Y27610D01*
X11952Y23461D02*
Y27575D01*
X11917Y23461D02*
Y27540D01*
X11882Y23356D02*
Y27436D01*
X11847Y23286D02*
Y27401D01*
X11812Y23182D02*
Y27401D01*
X11778Y23042D02*
Y27366D01*
X11743Y23008D02*
Y27331D01*
X11708Y22938D02*
Y27261D01*
X11673Y22868D02*
Y27191D01*
X11638Y22694D02*
Y27157D01*
X11603Y22659D02*
Y27122D01*
X11568Y22589D02*
Y27122D01*
X11534Y22485D02*
Y27052D01*
X11499Y22380D02*
Y26982D01*
X11464Y22241D02*
Y26947D01*
X12370Y24228D02*
Y24298D01*
X12301Y24158D02*
Y24193D01*
X12336Y24088D02*
Y24228D01*
X11359Y27017D02*
Y27052D01*
X11429Y26947D02*
Y27052D01*
X11289Y26982D02*
Y27017D01*
X11359Y26947D02*
Y26982D01*
X11324Y26947D02*
Y26982D01*
X11289Y26913D02*
Y26947D01*
X11324Y26878D02*
Y26913D01*
X11289Y26843D02*
Y26878D01*
X11359Y26843D02*
Y26878D01*
X11324Y26808D02*
Y26843D01*
X11289Y26773D02*
Y26808D01*
X11150Y26738D02*
Y26773D01*
X11011Y26738D02*
Y26773D01*
X11220Y26703D02*
Y26773D01*
X11115Y26703D02*
Y26773D01*
X11185Y26703D02*
Y26738D01*
X11080Y26703D02*
Y26738D01*
X11045Y26669D02*
Y26703D01*
X11011Y26634D02*
Y26703D01*
X11220Y26634D02*
Y26669D01*
X11115Y26634D02*
Y26669D01*
X11185Y26599D02*
Y26669D01*
X11045Y26599D02*
Y26634D01*
X11150Y26529D02*
Y26634D01*
X11011Y26529D02*
Y26599D01*
X11080Y26494D02*
Y26599D01*
X11045Y26459D02*
Y26494D01*
X10941Y26424D02*
Y26494D01*
X11080Y26424D02*
Y26459D01*
X11011Y26390D02*
Y26494D01*
X10976Y26355D02*
Y26390D01*
X10941Y26320D02*
Y26355D01*
X10801Y26459D02*
Y26494D01*
X10906Y26390D02*
Y26459D01*
X10871Y26390D02*
Y26459D01*
X10836Y26390D02*
Y26459D01*
X10732Y26390D02*
Y26459D01*
X10801Y26320D02*
Y26355D01*
X10767Y26285D02*
Y26390D01*
X10906Y26285D02*
Y26355D01*
X10871Y26215D02*
Y26355D01*
X10767Y26215D02*
Y26250D01*
X10836Y26180D02*
Y26250D01*
X10732Y26180D02*
Y26250D01*
X10906Y26180D02*
Y26215D01*
X10801Y26180D02*
Y26215D01*
X10871Y26145D02*
Y26180D01*
X10767Y26145D02*
Y26180D01*
X10836Y26111D02*
Y26145D01*
X10732Y26111D02*
Y26145D01*
X10801Y26111D02*
Y26145D01*
X10767Y26076D02*
Y26111D01*
X10801Y26041D02*
Y26076D01*
X10732Y26006D02*
Y26041D01*
X10767Y25971D02*
Y26041D01*
X10732Y25936D02*
Y25971D01*
X10557Y25901D02*
Y25936D01*
X10592Y25901D02*
Y25936D01*
X10662Y25901D02*
Y25936D01*
X10453Y25901D02*
Y25936D01*
X10488Y25867D02*
Y25901D01*
X10627Y25832D02*
Y25901D01*
X10662Y25832D02*
Y25867D01*
X10522Y25797D02*
Y25901D01*
X10557Y25797D02*
Y25832D01*
X10453Y25762D02*
Y25867D01*
X10592Y25762D02*
Y25832D01*
X10627Y25762D02*
Y25797D01*
X10522Y25727D02*
Y25762D01*
X10557Y25657D02*
Y25762D01*
X10488Y25622D02*
Y25797D01*
X10453Y25692D02*
Y25727D01*
X10522Y25588D02*
Y25622D01*
X10453Y25553D02*
Y25588D01*
X10488Y25518D02*
Y25553D01*
X10453Y25483D02*
Y25518D01*
Y25413D02*
Y25448D01*
X10348Y25344D02*
Y25378D01*
X10244Y25344D02*
Y25378D01*
X10278Y25309D02*
Y25378D01*
X10383Y25309D02*
Y25344D01*
X10313Y25309D02*
Y25344D01*
X10244Y25274D02*
Y25309D01*
X10348Y25239D02*
Y25309D01*
X10313Y25204D02*
Y25274D01*
X10278Y25204D02*
Y25239D01*
X10209Y25169D02*
Y25204D01*
X10244Y25100D02*
Y25239D01*
X10209Y25030D02*
Y25100D01*
X10244Y25030D02*
Y25065D01*
X11429Y22136D02*
Y26878D01*
X11394Y22031D02*
Y26913D01*
X11359Y21892D02*
Y26808D01*
X11324Y21787D02*
Y26773D01*
X11289Y21648D02*
Y26738D01*
X10209Y25344D02*
Y25378D01*
Y25274D02*
Y25309D01*
X10174Y25169D02*
Y25344D01*
Y25065D02*
Y25134D01*
Y24960D02*
Y25030D01*
Y24890D02*
Y24925D01*
X10104Y24786D02*
Y24821D01*
X10034Y24751D02*
Y24786D01*
X9999Y24716D02*
Y24821D01*
X10069Y24716D02*
Y24786D01*
X9965Y24716D02*
Y24751D01*
X9930Y24611D02*
Y24821D01*
X10034Y24646D02*
Y24681D01*
X9999Y24646D02*
Y24681D01*
X9965Y24611D02*
Y24646D01*
X10034Y24577D02*
Y24611D01*
X9999Y24577D02*
Y24611D01*
X9895Y24507D02*
Y24646D01*
X9965Y24507D02*
Y24577D01*
X9930Y24507D02*
Y24542D01*
X9965Y24437D02*
Y24472D01*
X9930Y24437D02*
Y24472D01*
X9895Y24402D02*
Y24472D01*
Y24298D02*
Y24367D01*
X9616Y24228D02*
Y24263D01*
X9651Y24228D02*
Y24263D01*
X9860Y24228D02*
Y24263D01*
X9825Y24193D02*
Y24228D01*
X9720Y24158D02*
Y24228D01*
X9616Y24158D02*
Y24193D01*
X9651Y24123D02*
Y24193D01*
X9790Y24088D02*
Y24228D01*
X12301Y24054D02*
Y24088D01*
X12266Y24019D02*
Y24054D01*
X12370Y23984D02*
Y24054D01*
X12231Y23879D02*
Y24019D01*
X12301Y23810D02*
Y24019D01*
X12336Y23879D02*
Y23914D01*
X12196Y23810D02*
Y23914D01*
X12370Y23775D02*
Y23914D01*
X12266Y23740D02*
Y23844D01*
X12126Y23740D02*
Y23810D01*
X12161Y23705D02*
Y23810D01*
X12336Y23705D02*
Y23775D01*
X12091Y23705D02*
Y23740D01*
X12056Y23670D02*
Y23705D01*
X12091Y23600D02*
Y23635D01*
X12022Y23530D02*
Y23600D01*
X12091Y23496D02*
Y23530D01*
X12056Y23461D02*
Y23530D01*
X12091Y23426D02*
Y23461D01*
X12022Y23426D02*
Y23461D01*
X11987Y23391D02*
Y23461D01*
X12056Y23391D02*
Y23426D01*
X11952Y23391D02*
Y23426D01*
X11917Y23391D02*
Y23426D01*
X12091Y23321D02*
Y23391D01*
X12022Y23286D02*
Y23391D01*
X12056Y23252D02*
Y23321D01*
X11987Y23252D02*
Y23321D01*
X11952Y23217D02*
Y23356D01*
X12091Y23147D02*
Y23217D01*
X12022Y23147D02*
Y23217D01*
X11987Y23147D02*
Y23182D01*
X11255Y21508D02*
Y26703D01*
X11220Y21369D02*
Y26599D01*
X11882Y23217D02*
Y23321D01*
X11847Y23217D02*
Y23252D01*
X11917Y23147D02*
Y23252D01*
X11882Y23147D02*
Y23182D01*
X11812Y23112D02*
Y23147D01*
Y23008D02*
Y23077D01*
Y22903D02*
Y22973D01*
X11778Y22903D02*
Y22938D01*
X11743Y22868D02*
Y22938D01*
X11812Y22833D02*
Y22868D01*
X11778Y22833D02*
Y22868D01*
X11708Y22833D02*
Y22868D01*
X11673Y22798D02*
Y22833D01*
X11743Y22763D02*
Y22833D01*
X11812Y22763D02*
Y22798D01*
X11778Y22694D02*
Y22798D01*
X11708Y22659D02*
Y22763D01*
X11812Y22624D02*
Y22694D01*
X11638Y22589D02*
Y22659D01*
X11743Y22589D02*
Y22659D01*
X11708Y22589D02*
Y22624D01*
X11534Y22380D02*
Y22415D01*
Y22310D02*
Y22345D01*
X11499Y22275D02*
Y22310D01*
Y22206D02*
Y22241D01*
X11534Y22171D02*
Y22241D01*
X11464Y22136D02*
Y22171D01*
X11499Y22101D02*
Y22136D01*
X11534Y22101D02*
Y22136D01*
X11464Y21927D02*
Y22066D01*
X11534Y21927D02*
Y21996D01*
X11499Y21822D02*
Y21892D01*
Y21718D02*
Y21752D01*
X11534Y21578D02*
Y21683D01*
X11499Y21473D02*
Y21578D01*
X11534Y21473D02*
Y21508D01*
X12614Y21404D02*
Y21473D01*
X12440Y21369D02*
Y21473D01*
X12545Y21334D02*
Y21473D01*
X12405Y21369D02*
Y21439D01*
X12510Y21299D02*
Y21439D01*
X12475Y21299D02*
Y21334D01*
X12440Y21229D02*
Y21334D01*
X12580Y21229D02*
Y21334D01*
X12405Y21160D02*
Y21299D01*
X12475Y21194D02*
Y21229D01*
X12545Y21194D02*
Y21229D01*
Y21090D02*
Y21160D01*
X12510Y20985D02*
Y21229D01*
X12440Y21055D02*
Y21160D01*
X12405Y20985D02*
Y21055D01*
X12475Y20950D02*
Y21055D01*
X12440Y20811D02*
Y20950D01*
X12475Y20846D02*
Y20915D01*
X12405Y20811D02*
Y20846D01*
X12475Y20706D02*
Y20741D01*
X12405Y20637D02*
Y20672D01*
X12440Y20532D02*
Y20637D01*
X12405Y20358D02*
Y20462D01*
Y18545D02*
Y20288D01*
X12440Y18231D02*
Y20427D01*
X12545Y17603D02*
Y21020D01*
X11394Y21822D02*
Y21996D01*
X11464Y21857D02*
Y21892D01*
X11429Y21752D02*
Y21822D01*
X11359Y21752D02*
Y21787D01*
X11324Y21718D02*
Y21752D01*
X11394Y21683D02*
Y21752D01*
X11464Y21543D02*
Y21752D01*
X11359Y21578D02*
Y21683D01*
X11324Y21613D02*
Y21648D01*
X11289Y21543D02*
Y21613D01*
X11394Y21508D02*
Y21578D01*
X11429Y21473D02*
Y21578D01*
X11324Y21473D02*
Y21508D01*
X11255Y21299D02*
Y21369D01*
X11220Y21229D02*
Y21334D01*
X11255Y21090D02*
Y21229D01*
X11185Y21125D02*
Y21194D01*
X11220Y21055D02*
Y21125D01*
X11255Y21020D02*
Y21055D01*
X11185Y20950D02*
Y21020D01*
X11220Y20915D02*
Y20950D01*
X11255Y20776D02*
Y20915D01*
X11185Y20706D02*
Y20915D01*
X11220Y20637D02*
Y20741D01*
X11255Y20602D02*
Y20672D01*
X11185Y20602D02*
Y20637D01*
X11255Y20462D02*
Y20532D01*
X11220Y20427D02*
Y20567D01*
X11255Y20358D02*
Y20392D01*
Y20218D02*
Y20323D01*
X11220Y20148D02*
Y20323D01*
X11255Y20079D02*
Y20148D01*
X9686Y24054D02*
Y24123D01*
X9651Y24054D02*
Y24088D01*
X9755Y24019D02*
Y24123D01*
X9616Y24054D02*
Y24088D01*
Y23984D02*
Y24019D01*
X9755Y23949D02*
Y23984D01*
X9651Y23914D02*
Y23984D01*
X9616Y23914D02*
Y23949D01*
X9720Y23879D02*
Y23949D01*
X11185Y21229D02*
Y26564D01*
X9686Y23810D02*
Y23949D01*
X9616Y23810D02*
Y23879D01*
X11150Y21055D02*
Y26494D01*
X9651Y23740D02*
Y23810D01*
X9616Y23740D02*
Y23775D01*
X11115Y20915D02*
Y26494D01*
X9651Y23670D02*
Y23705D01*
X9616Y23600D02*
Y23705D01*
X11080Y20706D02*
Y26390D01*
X11045Y20497D02*
Y26390D01*
X9442Y23391D02*
Y23426D01*
X9407Y23391D02*
Y23426D01*
X9476Y23356D02*
Y23426D01*
X9511Y23356D02*
Y23391D01*
Y23286D02*
Y23321D01*
X9407Y23286D02*
Y23321D01*
X11011Y20253D02*
Y26320D01*
X9442Y23182D02*
Y23321D01*
X9476Y23182D02*
Y23217D01*
X9407Y23077D02*
Y23217D01*
X10976Y19939D02*
Y26285D01*
X10941Y19521D02*
Y26250D01*
X9337Y23391D02*
Y23426D01*
X9372Y23321D02*
Y23391D01*
X9337Y23217D02*
Y23286D01*
X9372Y23217D02*
Y23252D01*
X9337Y23147D02*
Y23182D01*
Y23077D02*
Y23112D01*
X9372Y22973D02*
Y23077D01*
X9337Y22938D02*
Y23008D01*
X9372Y22868D02*
Y22903D01*
X9337Y22833D02*
Y22868D01*
Y22729D02*
Y22763D01*
X9267Y22554D02*
Y22589D01*
X9198Y22554D02*
Y22589D01*
X9093Y22519D02*
Y22589D01*
X9163Y22485D02*
Y22554D01*
X9058Y22450D02*
Y22519D01*
X9232Y22415D02*
Y22519D01*
X9198Y22345D02*
Y22415D01*
X9128Y22275D02*
Y22450D01*
X9232Y22310D02*
Y22345D01*
X9058Y22275D02*
Y22345D01*
X9198Y22206D02*
Y22275D01*
X9093Y22206D02*
Y22241D01*
X9128Y22066D02*
Y22206D01*
X9058Y22066D02*
Y22171D01*
Y21996D02*
Y22031D01*
X9128Y21996D02*
Y22031D01*
X9093Y21857D02*
Y22066D01*
X9058Y21752D02*
Y21892D01*
X9093Y21752D02*
Y21787D01*
X9058Y21613D02*
Y21718D01*
X8779Y21439D02*
Y21473D01*
X11150Y20915D02*
Y20985D01*
X11115Y20776D02*
Y20881D01*
X11150Y20637D02*
Y20741D01*
X11115Y20532D02*
Y20706D01*
X11080Y20392D02*
Y20567D01*
X11150Y20358D02*
Y20567D01*
X11045Y20392D02*
Y20427D01*
X11185Y20358D02*
Y20392D01*
X11115Y20358D02*
Y20392D01*
X11045Y20288D02*
Y20358D01*
X11115Y20183D02*
Y20323D01*
X11080Y20148D02*
Y20253D01*
X11185Y20114D02*
Y20218D01*
X11045Y20114D02*
Y20183D01*
X11011Y20114D02*
Y20183D01*
X11150Y20079D02*
Y20148D01*
X10976Y19835D02*
Y19904D01*
Y19765D02*
Y19800D01*
Y19521D02*
Y19660D01*
X10697Y12826D02*
Y25867D01*
X10209Y13698D02*
Y24995D01*
X10313Y13489D02*
Y25169D01*
X9720Y14814D02*
Y23844D01*
X9686Y14884D02*
Y23775D01*
X9407Y15686D02*
Y22973D01*
X10069Y13977D02*
Y24681D01*
X9999Y14151D02*
Y24507D01*
X10801Y12652D02*
Y25971D01*
X10278Y13524D02*
Y25100D01*
X10348Y13419D02*
Y25204D01*
X10906Y12478D02*
Y26145D01*
X9581Y15197D02*
Y23426D01*
X9023Y21404D02*
Y21473D01*
X8919Y21404D02*
Y21473D01*
X8814Y21404D02*
Y21473D01*
X8884Y21369D02*
Y21473D01*
X8988Y21334D02*
Y21439D01*
X8953Y21264D02*
Y21404D01*
X8849Y21194D02*
Y21404D01*
X8779Y21194D02*
Y21369D01*
X8884Y21160D02*
Y21194D01*
X8814Y21125D02*
Y21194D01*
X8919Y21020D02*
Y21299D01*
X8849Y21020D02*
Y21125D01*
X8953Y20915D02*
Y21020D01*
X8814Y20915D02*
Y21020D01*
X8884Y20915D02*
Y20985D01*
X8849Y20288D02*
Y20915D01*
X8779Y20358D02*
Y20462D01*
X8814Y20218D02*
Y20253D01*
X8779Y20079D02*
Y20288D01*
X8849Y20079D02*
Y20148D01*
X8814Y20009D02*
Y20079D01*
X8779Y19870D02*
Y20009D01*
X8849Y19835D02*
Y20009D01*
X8814Y19800D02*
Y19835D01*
X8919Y18022D02*
Y20915D01*
X8779Y19242D02*
Y19625D01*
X8849Y18963D02*
Y19800D01*
X8988Y17464D02*
Y21229D01*
X9267Y16209D02*
Y22450D01*
X9198Y16488D02*
Y22171D01*
X9302Y16069D02*
Y22554D01*
X9232Y16348D02*
Y22275D01*
X15787Y19242D02*
Y19346D01*
X15822Y19137D02*
Y19242D01*
X15752Y19103D02*
Y19242D01*
X15787Y18579D02*
Y19137D01*
X15752Y18545D02*
Y18614D01*
X15822Y18475D02*
Y18579D01*
X15787Y18301D02*
Y18510D01*
X15752Y18370D02*
Y18405D01*
X15822Y18266D02*
Y18335D01*
X15752Y18196D02*
Y18266D01*
X15822Y18126D02*
Y18231D01*
X15787Y18126D02*
Y18196D01*
X15160Y17255D02*
Y17289D01*
X15125Y17185D02*
Y17255D01*
X15160Y17150D02*
Y17185D01*
X15125Y17045D02*
Y17115D01*
X15160Y16976D02*
Y17080D01*
Y16836D02*
Y16871D01*
X15125Y16766D02*
Y16836D01*
X15160Y16697D02*
Y16766D01*
X15369Y16697D02*
Y16732D01*
X15229Y16697D02*
Y16732D01*
X15194Y16697D02*
Y16732D01*
X15264Y16662D02*
Y16732D01*
X15299Y16592D02*
Y16697D01*
X15194Y16592D02*
Y16662D01*
X15404Y16557D02*
Y16662D01*
X15229Y16557D02*
Y16627D01*
X15334Y16557D02*
Y16592D01*
X15264Y16488D02*
Y16557D01*
X15369Y16418D02*
Y16592D01*
X15439Y16453D02*
Y16557D01*
X14811Y18370D02*
Y18405D01*
X14776Y18301D02*
Y18405D01*
X14741Y18301D02*
Y18405D01*
X14881Y18196D02*
Y18266D01*
X14811Y18091D02*
Y18126D01*
X14881Y18056D02*
Y18126D01*
X14776Y17917D02*
Y18022D01*
X14846Y17847D02*
Y18056D01*
X14881Y17812D02*
Y17847D01*
X14776Y17812D02*
Y17847D01*
X14811Y17812D02*
Y17847D01*
X14776Y17708D02*
Y17743D01*
X14811Y17708D02*
Y17743D01*
X14881Y17673D02*
Y17743D01*
X14846Y17603D02*
Y17708D01*
X14811Y17568D02*
Y17603D01*
X14881Y17568D02*
Y17603D01*
X14846Y17534D02*
Y17568D01*
X14881Y17464D02*
Y17534D01*
Y17359D02*
Y17429D01*
X15090Y17255D02*
Y17289D01*
X15055Y17255D02*
Y17289D01*
X14916Y17220D02*
Y17289D01*
X15020Y17185D02*
Y17255D01*
X14951Y17150D02*
Y17255D01*
X15055Y17080D02*
Y17185D01*
X14985Y17080D02*
Y17150D01*
X15020Y17080D02*
Y17115D01*
X15090Y16976D02*
Y17045D01*
X15055Y16941D02*
Y16976D01*
X15125Y16906D02*
Y16976D01*
X15090Y16871D02*
Y16906D01*
X15543Y16139D02*
Y16174D01*
X15683Y16139D02*
Y16174D01*
X15613Y16139D02*
Y16174D01*
X15508Y16139D02*
Y16174D01*
X15648Y16069D02*
Y16104D01*
X15718Y16034D02*
Y16139D01*
X15578Y16034D02*
Y16104D01*
X15508Y16034D02*
Y16104D01*
X15613Y15999D02*
Y16034D01*
X15683Y15999D02*
Y16034D01*
X15648Y15930D02*
Y16034D01*
X15543Y15965D02*
Y15999D01*
X15718Y15930D02*
Y15999D01*
X15613Y15895D02*
Y15965D01*
X15683Y15895D02*
Y15930D01*
X15718Y15860D02*
Y15895D01*
X15648Y15825D02*
Y15895D01*
X15683Y15790D02*
Y15860D01*
X15718Y15790D02*
Y15825D01*
Y15720D02*
Y15755D01*
X15683Y15720D02*
Y15755D01*
X15787Y15581D02*
Y15616D01*
X15822Y15511D02*
Y15581D01*
X15543Y13036D02*
Y15930D01*
X15578Y13036D02*
Y15895D01*
X15613Y13036D02*
Y15825D01*
X15648Y13001D02*
Y15790D01*
X15718Y13071D02*
Y15686D01*
X15752Y13036D02*
Y15616D01*
X15683Y12966D02*
Y15686D01*
X15787Y13071D02*
Y15546D01*
X15822Y13071D02*
Y15476D01*
X15299Y16348D02*
Y16557D01*
X15404Y16418D02*
Y16453D01*
X15439Y16383D02*
Y16418D01*
X15369Y16313D02*
Y16383D01*
X15439Y16313D02*
Y16348D01*
X15404Y16243D02*
Y16278D01*
X15439Y16209D02*
Y16243D01*
X15404Y16174D02*
Y16209D01*
X15439Y16139D02*
Y16174D01*
X15473Y16069D02*
Y16139D01*
X14776Y13315D02*
Y17638D01*
X14811Y13315D02*
Y17534D01*
X14846Y13280D02*
Y17429D01*
X14881Y13245D02*
Y17324D01*
X14916Y13245D02*
Y17185D01*
X14951Y13210D02*
Y17115D01*
X14985Y13175D02*
Y17045D01*
X15020Y13140D02*
Y16906D01*
X15055Y13140D02*
Y16836D01*
X15090Y13105D02*
Y16801D01*
X15125Y13105D02*
Y16697D01*
X15160Y13105D02*
Y16627D01*
X15194Y13105D02*
Y16557D01*
X15229Y13071D02*
Y16488D01*
X15264Y13071D02*
Y16383D01*
X15299Y13071D02*
Y16313D01*
X15334Y13071D02*
Y16278D01*
X15369Y13036D02*
Y16243D01*
X15404Y13036D02*
Y16139D01*
X15439Y13036D02*
Y16104D01*
X15473Y13036D02*
Y16034D01*
X15508Y13036D02*
Y15965D01*
X14393Y13733D02*
Y24890D01*
X14323Y13838D02*
Y24786D01*
X14218Y13942D02*
Y24681D01*
X14149Y14047D02*
Y24577D01*
X14114Y14117D02*
Y24507D01*
X14044Y14221D02*
Y24402D01*
X14009Y14256D02*
Y24367D01*
X13974Y14326D02*
Y24298D01*
X13939Y14361D02*
Y24263D01*
X14497Y13594D02*
Y24960D01*
X14532Y19242D02*
Y19277D01*
X14288Y13803D02*
Y24716D01*
X14567Y19103D02*
Y19312D01*
X14532Y19103D02*
Y19207D01*
X14602Y19033D02*
Y19103D01*
X14532Y18893D02*
Y19033D01*
X14602Y18893D02*
Y18963D01*
X14567Y18789D02*
Y18928D01*
X14602Y18684D02*
Y18789D01*
X14567Y18614D02*
Y18684D01*
X14602Y18405D02*
Y18579D01*
X14672Y18370D02*
Y18405D01*
X14706Y18335D02*
Y18405D01*
X14672Y18126D02*
Y18231D01*
X14706Y18056D02*
Y18231D01*
X14741Y18022D02*
Y18196D01*
X14706Y17882D02*
Y17952D01*
X14741Y17847D02*
Y17882D01*
Y17777D02*
Y17812D01*
X14532Y13628D02*
Y18823D01*
X14567Y13524D02*
Y18545D01*
X14602Y13489D02*
Y18370D01*
X13905Y14396D02*
Y24228D01*
X13765Y14640D02*
Y23984D01*
X13625Y14814D02*
Y23810D01*
X13382Y15267D02*
Y23356D01*
X13068Y15930D02*
Y22694D01*
X12998Y16104D02*
Y22519D01*
X12824Y16557D02*
Y22066D01*
X13416Y15163D02*
Y23461D01*
X13207Y15616D02*
Y23008D01*
X13486Y15058D02*
Y23565D01*
X13870Y14430D02*
Y24158D01*
X13695Y14709D02*
Y23879D01*
X13660Y14744D02*
Y23844D01*
X12858Y16418D02*
Y22171D01*
X13103Y15825D02*
Y22763D01*
X13835Y14465D02*
Y24123D01*
X13521Y14953D02*
Y23635D01*
X13451Y15093D02*
Y23496D01*
X12963Y16139D02*
Y22450D01*
X12893Y16348D02*
Y22241D01*
X13556Y14884D02*
Y23670D01*
X12789Y16453D02*
Y16557D01*
X12824Y16418D02*
Y16453D01*
X12789Y16313D02*
Y16418D01*
X12858Y16313D02*
Y16348D01*
X12893Y16209D02*
Y16278D01*
X12824Y16174D02*
Y16278D01*
X12789Y16209D02*
Y16243D01*
X12928Y16174D02*
Y16209D01*
X12963Y16069D02*
Y16104D01*
X12998Y15965D02*
Y16034D01*
X12963Y15965D02*
Y15999D01*
X14637Y13454D02*
Y18231D01*
X14672Y13454D02*
Y18022D01*
X14706Y13384D02*
Y17847D01*
X14741Y13350D02*
Y17743D01*
X13591Y14849D02*
Y14884D01*
X13556Y14814D02*
Y14849D01*
X13591Y14744D02*
Y14814D01*
X13625Y14674D02*
Y14744D01*
X13556Y14674D02*
Y14744D01*
X13695Y14640D02*
Y14674D01*
X13591Y14605D02*
Y14674D01*
X13660Y14605D02*
Y14640D01*
X13730Y14570D02*
Y14605D01*
X13556Y14535D02*
Y14605D01*
X13695Y14535D02*
Y14570D01*
X13660Y14535D02*
Y14570D01*
X13625Y14500D02*
Y14570D01*
X13591Y14500D02*
Y14535D01*
X13730Y14500D02*
Y14535D01*
X13521Y14500D02*
Y14535D01*
X13835Y14396D02*
Y14430D01*
X13800Y14361D02*
Y14396D01*
X13870Y14326D02*
Y14361D01*
X13905Y14291D02*
Y14361D01*
X13939Y14291D02*
Y14326D01*
X13800Y14256D02*
Y14326D01*
X13974Y14256D02*
Y14291D01*
X13870Y14221D02*
Y14291D01*
X13905Y14221D02*
Y14256D01*
X13835Y14221D02*
Y14256D01*
X13939Y14221D02*
Y14256D01*
X14079Y14082D02*
Y14117D01*
X12998Y15895D02*
Y15930D01*
X13033Y15860D02*
Y15930D01*
X12963Y15860D02*
Y15895D01*
X13068Y15860D02*
Y15895D01*
X12998Y15790D02*
Y15860D01*
X13033Y15790D02*
Y15825D01*
X13068Y15755D02*
Y15825D01*
X12963Y15720D02*
Y15790D01*
X13137Y15720D02*
Y15755D01*
X13103Y15720D02*
Y15755D01*
X13033Y15686D02*
Y15755D01*
X12998Y15686D02*
Y15720D01*
X13068Y15651D02*
Y15686D01*
X13172Y15616D02*
Y15651D01*
X12963Y15616D02*
Y15651D01*
X13137Y15616D02*
Y15651D01*
X13242Y15441D02*
Y15476D01*
X13277Y15372D02*
Y15407D01*
X13312Y15302D02*
Y15337D01*
X13277Y15267D02*
Y15302D01*
X13242Y15267D02*
Y15302D01*
X13347Y15232D02*
Y15302D01*
X13312Y15197D02*
Y15232D01*
X13277Y15163D02*
Y15232D01*
X13382Y15093D02*
Y15197D01*
X13347Y15128D02*
Y15163D01*
X13312Y15093D02*
Y15163D01*
X13242Y15093D02*
Y15128D01*
X13416Y15058D02*
Y15128D01*
X13277Y15058D02*
Y15093D01*
X13521Y14814D02*
Y14884D01*
Y14605D02*
Y14640D01*
X14427Y13628D02*
Y13663D01*
X14462Y13594D02*
Y13628D01*
X14532Y13559D02*
Y13594D01*
X14427Y13559D02*
Y13594D01*
X14462Y13524D02*
Y13559D01*
X14497Y13489D02*
Y13524D01*
X14567Y13419D02*
Y13489D01*
X14462Y13419D02*
Y13489D01*
X14497Y13419D02*
Y13454D01*
X14532Y13419D02*
Y13454D01*
X14637Y13384D02*
Y13419D01*
X14602Y13384D02*
Y13419D01*
X14672Y13315D02*
Y13384D01*
X14706Y13315D02*
Y13350D01*
X14741Y13280D02*
Y13315D01*
X14637Y13280D02*
Y13315D01*
X14672Y13245D02*
Y13280D01*
X14776Y13245D02*
Y13280D01*
X14706Y13210D02*
Y13245D01*
X14741Y13140D02*
Y13245D01*
X14811Y13175D02*
Y13210D01*
X14637Y13175D02*
Y13210D01*
X14846Y13175D02*
Y13210D01*
X14916Y13175D02*
Y13210D01*
X14881Y13140D02*
Y13175D01*
X14706Y13140D02*
Y13175D01*
X14672Y13140D02*
Y13175D01*
X14776Y13140D02*
Y13175D01*
X14951Y13105D02*
Y13175D01*
X14985Y13105D02*
Y13140D01*
X14811Y13105D02*
Y13140D01*
X14846Y13105D02*
Y13140D01*
X14114Y14047D02*
Y14082D01*
X14079Y13977D02*
Y14047D01*
X14114Y13942D02*
Y13977D01*
X14149Y13907D02*
Y13977D01*
X14079Y13872D02*
Y13942D01*
X14183Y13872D02*
Y13942D01*
X14218Y13838D02*
Y13907D01*
X14114Y13838D02*
Y13907D01*
X14253Y13838D02*
Y13872D01*
X14149Y13803D02*
Y13838D01*
X14183Y13803D02*
Y13838D01*
X14079Y13768D02*
Y13838D01*
X14323Y13768D02*
Y13803D01*
X14218Y13733D02*
Y13803D01*
X14253Y13733D02*
Y13768D01*
X14114Y13733D02*
Y13768D01*
X14149Y13698D02*
Y13768D01*
X14323Y13698D02*
Y13733D01*
X14288Y13663D02*
Y13733D01*
X14079Y13663D02*
Y13733D01*
X14393Y13663D02*
Y13698D01*
X14253Y13663D02*
Y13698D01*
X14183Y13663D02*
Y13698D01*
X14218Y13663D02*
Y13698D01*
X14358Y13628D02*
Y13663D01*
X14393Y13559D02*
Y13628D01*
X14358Y13524D02*
Y13559D01*
X14427Y13489D02*
Y13524D01*
X14393Y13454D02*
Y13489D01*
X14358Y13419D02*
Y13454D01*
X14427Y13384D02*
Y13419D01*
X14393Y13384D02*
Y13419D01*
X15194Y13001D02*
Y13071D01*
X15718Y12966D02*
Y13036D01*
X15822Y12966D02*
Y13036D01*
X15299Y12931D02*
Y13036D01*
X15404Y12966D02*
Y13001D01*
X15369Y12966D02*
Y13001D01*
X15752Y12966D02*
Y13001D01*
X15787Y12966D02*
Y13001D01*
X15334Y12931D02*
Y13001D01*
X15543Y12931D02*
Y12966D01*
X15613Y12931D02*
Y12966D01*
X15578Y12931D02*
Y12966D01*
X15264Y12931D02*
Y12966D01*
X15648Y12896D02*
Y12966D01*
X15439Y12861D02*
Y13001D01*
X15718Y12896D02*
Y12931D01*
X15508Y12896D02*
Y12931D01*
X15683Y12896D02*
Y12931D01*
X15473Y12896D02*
Y12931D01*
X15229Y12896D02*
Y12931D01*
X15334Y12861D02*
Y12896D01*
X15822Y12861D02*
Y12896D01*
X15404Y12861D02*
Y12896D01*
X15613Y12861D02*
Y12896D01*
X15578Y12861D02*
Y12896D01*
X15299Y12861D02*
Y12896D01*
X15264Y12861D02*
Y12896D01*
X15369Y12826D02*
Y12896D01*
X15718Y12826D02*
Y12861D01*
X15473Y12826D02*
Y12861D01*
X15752Y12826D02*
Y12861D01*
X15683Y12826D02*
Y12861D01*
X15194Y12896D02*
Y12931D01*
Y12826D02*
Y12861D01*
X14044Y12234D02*
Y12269D01*
X14009Y12234D02*
Y12269D01*
X13974Y12234D02*
Y12269D01*
X13939Y12234D02*
Y12269D01*
X13905Y12199D02*
Y12269D01*
X14009Y12129D02*
Y12199D01*
X13939Y12094D02*
Y12164D01*
X14044Y12059D02*
Y12094D01*
X13974Y12025D02*
Y12094D01*
X14009Y11885D02*
Y12025D01*
X13939Y11850D02*
Y11920D01*
X13974Y11815D02*
Y11920D01*
X14044Y11780D02*
Y11885D01*
X14009Y11711D02*
Y11780D01*
X13939Y11711D02*
Y11746D01*
X14044Y11641D02*
Y11711D01*
X13974Y11571D02*
Y11711D01*
X13939Y11432D02*
Y11606D01*
X14009Y11432D02*
Y11571D01*
X13974Y11397D02*
Y11467D01*
X13905Y11397D02*
Y11432D01*
X14044Y11362D02*
Y11397D01*
X13939Y11327D02*
Y11397D01*
X14009Y11292D02*
Y11362D01*
X13974Y11292D02*
Y11327D01*
X13905Y11223D02*
Y11327D01*
X14044Y11223D02*
Y11292D01*
X13939Y11223D02*
Y11292D01*
X14009Y11188D02*
Y11223D01*
X13974Y11153D02*
Y11188D01*
X13451Y13071D02*
Y13105D01*
X13347Y13071D02*
Y13105D01*
X13277Y13071D02*
Y13105D01*
X13416Y13036D02*
Y13071D01*
X13382Y13001D02*
Y13071D01*
X13312Y13001D02*
Y13071D01*
X13242Y13001D02*
Y13071D01*
X13486Y12966D02*
Y13071D01*
X13451Y12966D02*
Y13036D01*
X13416Y12966D02*
Y13001D01*
X13347Y12966D02*
Y13001D01*
X13277Y12931D02*
Y13001D01*
X13382Y12931D02*
Y12966D01*
X13416Y12896D02*
Y12931D01*
X13312Y12896D02*
Y12931D01*
X13451Y12861D02*
Y12931D01*
X13486Y12861D02*
Y12896D01*
X13416Y12826D02*
Y12861D01*
X13521Y12792D02*
Y12826D01*
X13451Y12792D02*
Y12826D01*
X13730Y12757D02*
Y12826D01*
X13625Y12757D02*
Y12792D01*
X13591Y12757D02*
Y12792D01*
X13486Y12757D02*
Y12792D01*
X13765Y12722D02*
Y12792D01*
X13660Y12722D02*
Y12792D01*
X13556Y12687D02*
Y12826D01*
X13521Y12687D02*
Y12722D01*
X13730Y12652D02*
Y12687D01*
X13695Y12617D02*
Y12722D01*
X13765Y12617D02*
Y12687D01*
X13591Y12617D02*
Y12687D01*
X12789Y13907D02*
Y13942D01*
X12754Y13907D02*
Y13942D01*
X12928Y13907D02*
Y13942D01*
X12824Y13907D02*
Y13942D01*
X12893Y13838D02*
Y13942D01*
X12928Y13838D02*
Y13872D01*
X12824Y13838D02*
Y13872D01*
X12789Y13838D02*
Y13872D01*
X12858Y13768D02*
Y13907D01*
X12928Y13733D02*
Y13803D01*
X12789Y13733D02*
Y13768D01*
X12858Y13663D02*
Y13733D01*
X12789Y13628D02*
Y13698D01*
X12928Y13628D02*
Y13698D01*
X12893Y13628D02*
Y13663D01*
X12824Y13628D02*
Y13663D01*
X12858Y13559D02*
Y13628D01*
X12928Y13524D02*
Y13594D01*
X12893Y13524D02*
Y13559D01*
X13207Y13315D02*
Y13384D01*
X12998Y13315D02*
Y13384D01*
X13103Y13315D02*
Y13350D01*
X13068Y13315D02*
Y13350D01*
X13172Y13210D02*
Y13384D01*
X13137Y13280D02*
Y13315D01*
X13068Y13245D02*
Y13280D01*
X13103Y13210D02*
Y13245D01*
X13207Y13175D02*
Y13280D01*
X13137Y13140D02*
Y13210D01*
X13172Y13140D02*
Y13175D01*
X13207Y13036D02*
Y13140D01*
X13172Y13071D02*
Y13105D01*
X13625Y12548D02*
Y12652D01*
X13695Y12548D02*
Y12582D01*
X13765Y12548D02*
Y12582D01*
X13730Y12513D02*
Y12548D01*
X13660Y12478D02*
Y12548D01*
X13765Y12443D02*
Y12513D01*
X13730Y12408D02*
Y12443D01*
X13765Y12373D02*
Y12408D01*
X13870Y12199D02*
Y12234D01*
X13905Y12129D02*
Y12164D01*
Y11467D02*
Y12059D01*
X13521Y10874D02*
Y12652D01*
X13556Y10874D02*
Y12617D01*
X13800Y11223D02*
Y12269D01*
X13660Y11013D02*
Y12443D01*
X13765Y11153D02*
Y12303D01*
X13591Y10909D02*
Y12548D01*
X13695Y10944D02*
Y12478D01*
X13870Y11292D02*
Y12129D01*
X13730Y11048D02*
Y12373D01*
X13625Y10944D02*
Y12478D01*
X13835Y11153D02*
Y12234D01*
X13870Y11188D02*
Y11223D01*
X13800Y11153D02*
Y11188D01*
X13905Y11153D02*
Y11188D01*
X13765Y11083D02*
Y11118D01*
Y10944D02*
Y11048D01*
X13730Y10909D02*
Y10979D01*
X13660Y10909D02*
Y10944D01*
X13765Y10874D02*
Y10909D01*
X13625Y10874D02*
Y10909D01*
X13486Y10700D02*
Y10734D01*
X12754Y10595D02*
Y13698D01*
X12789Y10630D02*
Y13594D01*
X12824Y10630D02*
Y13559D01*
X12893Y10630D02*
Y13489D01*
X12858Y10630D02*
Y13489D01*
X12963Y10630D02*
Y13384D01*
X12928Y10630D02*
Y13384D01*
X13033Y10665D02*
Y13245D01*
X12998Y10630D02*
Y13280D01*
X13068Y10630D02*
Y13175D01*
X13137Y10665D02*
Y13105D01*
X13103Y10630D02*
Y13140D01*
X13172Y10665D02*
Y13036D01*
X13207Y10665D02*
Y13001D01*
X13347Y10769D02*
Y12896D01*
X13242Y10665D02*
Y12966D01*
X13277Y10700D02*
Y12896D01*
X13382Y10769D02*
Y12792D01*
X13416Y10769D02*
Y12757D01*
X13486Y10839D02*
Y12687D01*
X13312Y10630D02*
Y12861D01*
X13451Y10700D02*
Y12687D01*
X13486Y10769D02*
Y10804D01*
X13382Y10665D02*
Y10734D01*
X13416Y10665D02*
Y10700D01*
X13277Y10630D02*
Y10665D01*
X13451Y10595D02*
Y10665D01*
X13137Y10595D02*
Y10630D01*
X13172Y10595D02*
Y10630D01*
X13033Y10595D02*
Y10630D01*
X13207Y10595D02*
Y10630D01*
X13347Y10595D02*
Y10630D01*
X12684Y17010D02*
Y21613D01*
X12580Y17394D02*
Y21194D01*
X12649Y17115D02*
Y21473D01*
X12754Y16766D02*
Y21822D01*
X12475Y17952D02*
Y20637D01*
X12510Y17708D02*
Y20846D01*
X12614Y17185D02*
Y21334D01*
X12405Y18475D02*
Y18510D01*
Y18196D02*
Y18335D01*
X12440Y18126D02*
Y18161D01*
X12405Y18022D02*
Y18091D01*
X12440Y17882D02*
Y17987D01*
X12475Y17812D02*
Y17847D01*
X12405Y17743D02*
Y17812D01*
X12440Y17603D02*
Y17847D01*
X12475Y17534D02*
Y17708D01*
X12510Y17324D02*
Y17603D01*
X12440Y17394D02*
Y17534D01*
Y17255D02*
Y17359D01*
X12545Y17220D02*
Y17359D01*
X12510Y17185D02*
Y17255D01*
X12475Y17115D02*
Y17289D01*
X12405Y17115D02*
Y17185D01*
X12580Y17010D02*
Y17220D01*
X12510Y17010D02*
Y17115D01*
X12440Y17010D02*
Y17115D01*
X12649Y17010D02*
Y17080D01*
X11534Y16906D02*
Y17010D01*
X12684Y16871D02*
Y16976D01*
X11499Y16906D02*
Y16941D01*
X12719Y16766D02*
Y16836D01*
X12684Y16697D02*
Y16766D01*
X11150Y18301D02*
Y18405D01*
X11080Y18231D02*
Y18405D01*
X11185Y18126D02*
Y18405D01*
X11045Y18231D02*
Y18266D01*
X11255Y18196D02*
Y18266D01*
X11115Y18126D02*
Y18231D01*
X11220Y18056D02*
Y18126D01*
X11080Y18056D02*
Y18126D01*
X11150Y17952D02*
Y18126D01*
X11255Y17952D02*
Y18022D01*
X11185Y17917D02*
Y18022D01*
X11115Y17847D02*
Y17882D01*
X11220Y17743D02*
Y17917D01*
X11150Y17743D02*
Y17882D01*
X11255Y17777D02*
Y17847D01*
X11220Y17603D02*
Y17708D01*
X11185Y17638D02*
Y17673D01*
X11150Y17568D02*
Y17638D01*
X11185Y17534D02*
Y17568D01*
X11255Y17534D02*
Y17568D01*
X11220Y17534D02*
Y17568D01*
Y17359D02*
Y17499D01*
X11255Y17255D02*
Y17324D01*
Y17150D02*
Y17220D01*
X11464Y16941D02*
Y17010D01*
X11394Y16941D02*
Y17010D01*
X11324Y16906D02*
Y17010D01*
X11429Y16906D02*
Y16941D01*
X11359Y16836D02*
Y16906D01*
X11464Y16766D02*
Y16871D01*
X11429Y16732D02*
Y16836D01*
X11359Y16732D02*
Y16766D01*
X12754Y16697D02*
Y16732D01*
X12719Y16627D02*
Y16697D01*
X12754Y16592D02*
Y16662D01*
X12684Y16522D02*
Y16592D01*
X12719Y16488D02*
Y16557D01*
X12684Y16453D02*
Y16488D01*
X12754Y16383D02*
Y16488D01*
X12684Y16383D02*
Y16418D01*
X12719Y16243D02*
Y16418D01*
X12684Y16278D02*
Y16313D01*
X12754Y16209D02*
Y16278D01*
X12719Y16174D02*
Y16209D01*
X12684Y16174D02*
Y16209D01*
X11812Y16139D02*
Y16174D01*
X11778Y16034D02*
Y16139D01*
X11812Y15999D02*
Y16069D01*
Y15930D02*
Y15965D01*
X11778Y15895D02*
Y15965D01*
X11812Y15860D02*
Y15895D01*
Y15651D02*
Y15686D01*
Y15511D02*
Y15581D01*
X11882Y15302D02*
Y15337D01*
X12022Y15302D02*
Y15337D01*
X11987Y15267D02*
Y15337D01*
X12091Y15163D02*
Y15337D01*
X11952Y15197D02*
Y15267D01*
X12022Y15128D02*
Y15267D01*
X11987Y15128D02*
Y15197D01*
X12056Y15093D02*
Y15163D01*
X12022Y15058D02*
Y15093D01*
X12091Y14988D02*
Y15093D01*
X12056Y15023D02*
Y15058D01*
X11394Y16662D02*
Y16732D01*
X11499Y16592D02*
Y16801D01*
X11534Y16627D02*
Y16697D01*
X11429Y16627D02*
Y16662D01*
X11464Y16557D02*
Y16662D01*
X11534Y16488D02*
Y16592D01*
X11499Y16453D02*
Y16488D01*
X11464Y16418D02*
Y16488D01*
X11534Y16383D02*
Y16418D01*
X11499Y16313D02*
Y16383D01*
X11534Y16243D02*
Y16278D01*
Y16174D02*
Y16209D01*
X11638Y16139D02*
Y16174D01*
X11603Y16139D02*
Y16174D01*
X11568Y16104D02*
Y16174D01*
X11708Y16104D02*
Y16174D01*
X11743Y16104D02*
Y16139D01*
X11673Y16069D02*
Y16139D01*
X11638Y15999D02*
Y16069D01*
X11743Y15930D02*
Y16069D01*
X11673Y15930D02*
Y16034D01*
X11638Y15895D02*
Y15930D01*
X11708Y15860D02*
Y15965D01*
X11673Y15790D02*
Y15895D01*
X11743Y15790D02*
Y15825D01*
X11778Y15686D02*
Y15860D01*
X11743Y15686D02*
Y15720D01*
X11778Y15616D02*
Y15651D01*
X11743Y15616D02*
Y15651D01*
X11045Y12269D02*
Y18126D01*
X11080Y12234D02*
Y17952D01*
X11115Y12129D02*
Y17777D01*
X10104Y13872D02*
Y24751D01*
X10732Y12757D02*
Y25867D01*
X10488Y13175D02*
Y25448D01*
X10383Y13350D02*
Y25274D01*
X10244Y13628D02*
Y24995D01*
X10453Y13245D02*
Y25378D01*
X10522Y13105D02*
Y25518D01*
X10662Y12861D02*
Y25762D01*
X10418Y13280D02*
Y25344D01*
X9965Y14221D02*
Y24402D01*
X9755Y14709D02*
Y23914D01*
X9651Y14988D02*
Y23635D01*
X9616Y15093D02*
Y23530D01*
X9511Y15372D02*
Y23252D01*
X10767Y12652D02*
Y25936D01*
X9860Y14430D02*
Y24158D01*
X10836Y12548D02*
Y26041D01*
X10034Y14047D02*
Y24542D01*
X10592Y12931D02*
Y25657D01*
X9895Y14326D02*
Y24263D01*
X10174Y13733D02*
Y24855D01*
X10139Y13803D02*
Y24786D01*
X10627Y12861D02*
Y25727D01*
X10557Y13001D02*
Y25588D01*
X9825Y14465D02*
Y24088D01*
X10871Y12408D02*
Y26111D01*
X9790Y14535D02*
Y23984D01*
X9546Y15128D02*
Y23391D01*
X9930Y14151D02*
Y24332D01*
X10976Y19172D02*
Y19242D01*
Y18963D02*
Y19033D01*
Y18789D02*
Y18928D01*
X9476Y15476D02*
Y23147D01*
X9337Y15930D02*
Y22694D01*
X9128Y16766D02*
Y21857D01*
X9093Y16941D02*
Y21683D01*
X9023Y17289D02*
Y21334D01*
X9058Y17080D02*
Y21543D01*
X8953Y17743D02*
Y20881D01*
X8884Y18335D02*
Y20288D01*
X9442Y15546D02*
Y23042D01*
X9163Y16592D02*
Y21996D01*
X9372Y15720D02*
Y22798D01*
X8779Y19068D02*
Y19172D01*
X8814Y18579D02*
Y19242D01*
X8849Y18405D02*
Y18545D01*
X8779Y18405D02*
Y18475D01*
X8814Y18335D02*
Y18405D01*
X8779Y18266D02*
Y18335D01*
X8849Y18196D02*
Y18301D01*
X8779Y18091D02*
Y18161D01*
X8884Y18056D02*
Y18196D01*
X8814Y17812D02*
Y18056D01*
X8919Y17847D02*
Y17917D01*
X8884Y17743D02*
Y17987D01*
X8919Y17603D02*
Y17777D01*
X8779Y17568D02*
Y17777D01*
X8849Y17603D02*
Y17743D01*
X8953Y17603D02*
Y17673D01*
X8884Y17568D02*
Y17603D01*
X8953Y17534D02*
Y17568D01*
X8814Y17499D02*
Y17568D01*
X8919Y17359D02*
Y17568D01*
X8779Y17359D02*
Y17534D01*
X9302Y15930D02*
Y15999D01*
X9337Y15860D02*
Y15895D01*
X10941Y12408D02*
Y19137D01*
X9337Y15651D02*
Y15720D01*
X9407Y15616D02*
Y15651D01*
X9372Y15581D02*
Y15651D01*
X9337Y15511D02*
Y15581D01*
X10976Y12338D02*
Y18684D01*
X9407Y15476D02*
Y15546D01*
X9372Y15441D02*
Y15511D01*
X9442Y15441D02*
Y15476D01*
X9407Y15372D02*
Y15441D01*
X9337Y15372D02*
Y15441D01*
X9372Y15337D02*
Y15372D01*
X11011Y12303D02*
Y18370D01*
X9442Y15302D02*
Y15372D01*
X9476Y15197D02*
Y15441D01*
X9511Y15302D02*
Y15337D01*
X9372Y15267D02*
Y15302D01*
X9407Y15197D02*
Y15337D01*
X9337Y15163D02*
Y15302D01*
X9511Y15197D02*
Y15232D01*
X9442Y15128D02*
Y15197D01*
X9372Y15093D02*
Y15197D01*
X9581Y15093D02*
Y15163D01*
X9476Y15093D02*
Y15163D01*
X9511Y15058D02*
Y15093D01*
X9546Y15058D02*
Y15093D01*
X9407Y15058D02*
Y15093D01*
X9337Y15058D02*
Y15093D01*
X9616Y15023D02*
Y15058D01*
Y14919D02*
Y14988D01*
X8849Y17359D02*
Y17499D01*
X8953Y17324D02*
Y17429D01*
X8884Y17289D02*
Y17394D01*
X8814Y17289D02*
Y17359D01*
X8988Y17289D02*
Y17324D01*
X9058Y16976D02*
Y17010D01*
Y16871D02*
Y16906D01*
X9093Y16801D02*
Y16871D01*
X9058Y16697D02*
Y16766D01*
X9128Y16697D02*
Y16732D01*
X9093Y16453D02*
Y16662D01*
X9163Y16453D02*
Y16557D01*
X9128Y16348D02*
Y16453D01*
X9058Y16348D02*
Y16453D01*
X9163Y16348D02*
Y16383D01*
X9198Y16243D02*
Y16453D01*
X9093Y16209D02*
Y16348D01*
X9232Y16174D02*
Y16243D01*
X9163Y16174D02*
Y16243D01*
X9267Y16139D02*
Y16174D01*
X9058Y16069D02*
Y16243D01*
X9198Y16104D02*
Y16174D01*
X9128Y16069D02*
Y16174D01*
X9267Y15999D02*
Y16104D01*
X9232Y16034D02*
Y16069D01*
X9163Y15999D02*
Y16069D01*
X9198Y15930D02*
Y16069D01*
X9093Y15930D02*
Y16069D01*
X9058Y15895D02*
Y15965D01*
X9267Y15895D02*
Y15930D01*
X9232Y15895D02*
Y15930D01*
X9128Y15895D02*
Y15930D01*
X12266Y14744D02*
Y14779D01*
X12336Y14709D02*
Y14744D01*
X12370Y14640D02*
Y14709D01*
X12301Y14605D02*
Y14709D01*
X12336Y14605D02*
Y14640D01*
X12370Y14535D02*
Y14605D01*
X12301Y14465D02*
Y14570D01*
X12370Y14430D02*
Y14465D01*
X12336Y14396D02*
Y14430D01*
X12370Y14326D02*
Y14361D01*
X12440Y14186D02*
Y14221D01*
X12614Y14186D02*
Y14221D01*
X12545Y14186D02*
Y14221D01*
X12475Y14186D02*
Y14221D01*
X12649Y14151D02*
Y14186D01*
X12580Y14151D02*
Y14186D01*
X12510Y14151D02*
Y14186D01*
X12545Y14117D02*
Y14151D01*
X12510Y14082D02*
Y14117D01*
X12614Y14012D02*
Y14117D01*
X12580Y14012D02*
Y14082D01*
X12649Y14012D02*
Y14082D01*
X12614Y13942D02*
Y13977D01*
X12684Y13872D02*
Y13907D01*
X12649Y13872D02*
Y13907D01*
X12719Y13803D02*
Y13907D01*
X12754Y13733D02*
Y13872D01*
X12301Y10734D02*
Y14430D01*
X12336Y10769D02*
Y14361D01*
X12370Y10700D02*
Y14291D01*
X12405Y10734D02*
Y14221D01*
X12440Y10700D02*
Y14151D01*
X12056Y14919D02*
Y14988D01*
X12196Y14744D02*
Y14779D01*
X12161Y14709D02*
Y14744D01*
X12231Y14674D02*
Y14744D01*
X12266Y14674D02*
Y14709D01*
X12196Y14640D02*
Y14709D01*
X12266Y14570D02*
Y14605D01*
X11429Y11711D02*
Y16522D01*
X11464Y11641D02*
Y16383D01*
X11499Y11606D02*
Y16243D01*
X11534Y11571D02*
Y16139D01*
X11568Y11571D02*
Y16069D01*
X11603Y11502D02*
Y15999D01*
X11638Y11432D02*
Y15860D01*
X11708Y11397D02*
Y15825D01*
X11673Y11397D02*
Y15755D01*
X11743Y11327D02*
Y15581D01*
X11778Y11292D02*
Y15511D01*
X11812Y11223D02*
Y15441D01*
X11847Y11223D02*
Y15337D01*
X11882Y11153D02*
Y15267D01*
X11917Y11118D02*
Y15163D01*
X11987Y11048D02*
Y15093D01*
X11952Y11013D02*
Y15128D01*
X12022Y11013D02*
Y14988D01*
X12056Y10979D02*
Y14884D01*
X12091Y10874D02*
Y14919D01*
X12126Y10839D02*
Y14779D01*
X12161Y10874D02*
Y14674D01*
X12231Y10839D02*
Y14640D01*
X12196Y10839D02*
Y14605D01*
X12266Y10804D02*
Y14465D01*
X12545Y10665D02*
Y14082D01*
X12475Y10630D02*
Y14082D01*
X12580Y10665D02*
Y13977D01*
X12510Y10630D02*
Y14012D01*
X12614Y10665D02*
Y13872D01*
X12649Y10665D02*
Y13838D01*
X12684Y10595D02*
Y13803D01*
X12719Y10595D02*
Y13733D01*
X11987Y10979D02*
Y11013D01*
X12022Y10909D02*
Y10979D01*
X12056Y10909D02*
Y10944D01*
X11952Y10909D02*
Y10944D01*
X11987Y10874D02*
Y10909D01*
X12161Y10804D02*
Y10839D01*
X12196Y10769D02*
Y10804D01*
X12126Y10769D02*
Y10804D01*
X12231Y10700D02*
Y10804D01*
X12336Y10700D02*
Y10734D01*
X12161Y10700D02*
Y10734D01*
X12196Y10665D02*
Y10700D01*
X12126Y10665D02*
Y10700D01*
X12266Y10630D02*
Y10700D01*
X12336Y10630D02*
Y10665D01*
X12440Y10630D02*
Y10665D01*
X12405Y10595D02*
Y10665D01*
X12231Y10595D02*
Y10665D01*
X12649Y10595D02*
Y10630D01*
X12614Y10595D02*
Y10630D01*
X12301Y10595D02*
Y10630D01*
X12161Y10595D02*
Y10630D01*
X12580Y10595D02*
Y10630D01*
X12370Y10595D02*
Y10630D01*
X11429Y11606D02*
Y11676D01*
X11464Y11536D02*
Y11606D01*
X11534Y11467D02*
Y11536D01*
X11429Y11467D02*
Y11536D01*
X11568Y11432D02*
Y11536D01*
X11499Y11432D02*
Y11536D01*
X11464Y11432D02*
Y11467D01*
X11603Y11397D02*
Y11432D01*
X11568Y11362D02*
Y11397D01*
X11638Y11362D02*
Y11397D01*
X11708Y11292D02*
Y11362D01*
X11673Y11292D02*
Y11362D01*
X11743Y11258D02*
Y11292D01*
X11603Y11223D02*
Y11327D01*
X11568Y11258D02*
Y11292D01*
X11778Y11223D02*
Y11258D01*
X11638Y11223D02*
Y11258D01*
X11708Y11188D02*
Y11258D01*
X11673Y11188D02*
Y11223D01*
X11568Y11188D02*
Y11223D01*
X11778Y11153D02*
Y11188D01*
X11743Y11153D02*
Y11188D01*
X11603Y11153D02*
Y11188D01*
X11847Y11083D02*
Y11153D01*
X11882Y11083D02*
Y11118D01*
X11917Y11048D02*
Y11083D01*
X11882Y11013D02*
Y11048D01*
X11847Y10979D02*
Y11013D01*
X11917Y10944D02*
Y10979D01*
X11882Y10909D02*
Y10944D01*
X11847Y10874D02*
Y10944D01*
X11917Y10874D02*
Y10909D01*
X11185Y12059D02*
Y17394D01*
X11220Y12025D02*
Y17289D01*
X11150Y11711D02*
Y17534D01*
X11289Y11920D02*
Y16976D01*
X11255Y11711D02*
Y17115D01*
X11324Y11885D02*
Y16836D01*
X11359Y11815D02*
Y16697D01*
X11394Y11780D02*
Y16592D01*
X9965Y14082D02*
Y14151D01*
X9999Y14012D02*
Y14082D01*
X10034Y13977D02*
Y14012D01*
X9965Y13977D02*
Y14012D01*
X9999Y13942D02*
Y13977D01*
X9930Y13907D02*
Y13942D01*
X10034Y13803D02*
Y13942D01*
X9965Y13733D02*
Y13942D01*
X10069Y13733D02*
Y13838D01*
X10104Y13698D02*
Y13768D01*
X9999Y13663D02*
Y13768D01*
X10034Y13663D02*
Y13698D01*
X10174Y13594D02*
Y13698D01*
X10209Y13594D02*
Y13628D01*
X10244Y13559D02*
Y13594D01*
X10174Y13419D02*
Y13559D01*
X10244Y13454D02*
Y13489D01*
X10278Y13384D02*
Y13419D01*
X10209Y13384D02*
Y13419D01*
X10313Y13280D02*
Y13454D01*
X10174Y13350D02*
Y13384D01*
X10244Y13280D02*
Y13384D01*
X10278Y13280D02*
Y13315D01*
X10348Y13245D02*
Y13280D01*
X9651Y14849D02*
Y14919D01*
X9616Y14814D02*
Y14884D01*
X9651Y14779D02*
Y14814D01*
X9686Y14674D02*
Y14849D01*
X9616Y14709D02*
Y14744D01*
X9651Y14640D02*
Y14709D01*
X9755Y14640D02*
Y14674D01*
X9616Y14605D02*
Y14640D01*
X9720Y14570D02*
Y14640D01*
X9686Y14500D02*
Y14605D01*
X9651Y14535D02*
Y14570D01*
X9755Y14500D02*
Y14535D01*
X9616Y14500D02*
Y14535D01*
X9720Y14430D02*
Y14465D01*
X9651Y14326D02*
Y14500D01*
X9755Y14361D02*
Y14465D01*
X9616Y14361D02*
Y14396D01*
X9790Y14326D02*
Y14396D01*
X9860Y14326D02*
Y14361D01*
X9825Y14326D02*
Y14361D01*
X9686Y14256D02*
Y14430D01*
X9720Y14221D02*
Y14326D01*
X9895Y14256D02*
Y14291D01*
X9755Y14221D02*
Y14291D01*
X9860Y14221D02*
Y14256D01*
X9825Y14221D02*
Y14256D01*
X9790Y14221D02*
Y14256D01*
X9616Y14221D02*
Y14256D01*
X9895Y14082D02*
Y14117D01*
X9930Y14012D02*
Y14082D01*
X9895Y13698D02*
Y13872D01*
X9930Y13663D02*
Y13733D01*
X10836Y12373D02*
Y12443D01*
X10906Y12338D02*
Y12408D01*
X10941Y12303D02*
Y12373D01*
X10871Y12269D02*
Y12338D01*
X10976Y12269D02*
Y12303D01*
X11011Y12234D02*
Y12269D01*
X11045Y12199D02*
Y12234D01*
X11080Y12164D02*
Y12199D01*
X11011Y12129D02*
Y12199D01*
X11080Y12094D02*
Y12129D01*
X11115Y12059D02*
Y12094D01*
X11045Y12059D02*
Y12094D01*
X11011Y12059D02*
Y12094D01*
X11080Y11711D02*
Y12059D01*
X11289Y11850D02*
Y11885D01*
X11045Y11711D02*
Y12025D01*
X11220Y11711D02*
Y11990D01*
X11115Y11711D02*
Y11990D01*
X11185Y11711D02*
Y11990D01*
X11011Y11711D02*
Y11990D01*
X11324Y11815D02*
Y11850D01*
Y11746D02*
Y11780D01*
X11359Y11711D02*
Y11780D01*
X11289Y11676D02*
Y11780D01*
X11324Y11676D02*
Y11711D01*
X11394Y11641D02*
Y11711D01*
X11359Y11536D02*
Y11641D01*
X11289Y11536D02*
Y11606D01*
X11324Y11467D02*
Y11536D01*
X11394Y11432D02*
Y11502D01*
X11359Y11432D02*
Y11467D01*
X11289Y11432D02*
Y11467D01*
X10174Y13210D02*
Y13280D01*
X10383Y13210D02*
Y13280D01*
X10209Y13175D02*
Y13280D01*
X10313Y13175D02*
Y13245D01*
X10278Y13140D02*
Y13210D01*
X10418Y13140D02*
Y13210D01*
X10453Y13140D02*
Y13175D01*
X10244Y13105D02*
Y13175D01*
X10348Y13105D02*
Y13140D01*
X10174Y13105D02*
Y13140D01*
X10383Y13105D02*
Y13140D01*
X10453Y13071D02*
Y13105D01*
X10488Y13071D02*
Y13105D01*
X10522Y13036D02*
Y13071D01*
X10453Y13001D02*
Y13036D01*
X10488Y12966D02*
Y13001D01*
X10557Y12896D02*
Y12966D01*
X10488Y12896D02*
Y12931D01*
X10522Y12826D02*
Y12931D01*
X10592Y12861D02*
Y12896D01*
X10453Y12826D02*
Y12861D01*
X10557Y12826D02*
Y12861D01*
X10732Y12652D02*
Y12722D01*
X10801Y12582D02*
Y12617D01*
X10767Y12548D02*
Y12582D01*
X10732Y12513D02*
Y12548D01*
X10801Y12443D02*
Y12513D01*
X10732Y12408D02*
Y12443D01*
X10767Y12303D02*
Y12443D01*
X10801Y12303D02*
Y12373D01*
X10836Y12269D02*
Y12303D01*
X10732Y12269D02*
Y12303D01*
D59*
X63583Y185236D02*
D03*
D60*
X28346Y162402D02*
D03*
Y213189D02*
D03*
D61*
X175787Y56496D02*
D03*
D62*
X198622Y21260D02*
D03*
X147835D02*
D03*
D63*
X31102Y187795D02*
D03*
X192126Y36614D02*
D03*
D64*
X13386Y187795D02*
D03*
X173228Y6299D02*
D03*
D65*
X43701Y168898D02*
D03*
X173228Y24016D02*
D03*
D66*
X55905Y192126D02*
D03*
D67*
X183858Y122047D02*
D03*
Y141732D02*
D03*
X97638Y253543D02*
D03*
X137008D02*
D03*
X156693Y332283D02*
D03*
X77953D02*
D03*
X56960Y124536D02*
D03*
X43040Y138456D02*
D03*
X34627Y311024D02*
D03*
X14942D02*
D03*
X168504Y376929D02*
D03*
X50394D02*
D03*
X14961Y267735D02*
D03*
X34646D02*
D03*
D68*
X199055Y290394D02*
D03*
Y330394D02*
D03*
Y360394D02*
D03*
X229055Y350394D02*
D03*
Y290394D02*
D03*
X250354Y289803D02*
D03*
Y329803D02*
D03*
Y359803D02*
D03*
X280354Y349803D02*
D03*
Y289803D02*
D03*
D69*
X168898Y48819D02*
D03*
D70*
X301969Y97382D02*
D03*
Y103287D02*
D03*
Y109193D02*
D03*
Y115098D02*
D03*
Y121004D02*
D03*
Y126909D02*
D03*
X327953Y76378D02*
D03*
Y82284D02*
D03*
Y88189D02*
D03*
Y94095D02*
D03*
Y100000D02*
D03*
Y105905D02*
D03*
D71*
X270236Y375984D02*
D03*
X250236D02*
D03*
X219055D02*
D03*
X199055D02*
D03*
X22441Y376929D02*
D03*
Y356929D02*
D03*
D72*
X412586Y114149D02*
D03*
Y100007D02*
D03*
X398427Y114133D02*
D03*
D73*
X100000Y8661D02*
D03*
X111811D02*
D03*
M02*
