G04*
G04 #@! TF.GenerationSoftware,Altium Limited,Altium Designer,23.3.1 (30)*
G04*
G04 Layer_Color=32896*
%FSLAX25Y25*%
%MOIN*%
G70*
G04*
G04 #@! TF.SameCoordinates,F1967EA3-8312-49A4-A2FB-0AE49F0FF499*
G04*
G04*
G04 #@! TF.FilePolarity,Positive*
G04*
G01*
G75*
%ADD11C,0.00787*%
%ADD13C,0.00394*%
%ADD17C,0.00591*%
%ADD119C,0.01000*%
D11*
X375197Y50433D02*
G03*
X381496Y50433I3150J0D01*
G01*
X385827Y18150D02*
Y50433D01*
X370866Y18150D02*
X385827D01*
X381496Y50433D02*
X385827D01*
X370866Y18150D02*
Y50433D01*
X375197D01*
X343307Y27558D02*
Y30708D01*
X334646Y23228D02*
X340158D01*
X334646Y35039D02*
X340158D01*
X364961Y129658D02*
X367060D01*
X366010D01*
Y126509D01*
X368109D02*
Y129658D01*
X369684D01*
X370208Y129133D01*
Y128083D01*
X369684Y127559D01*
X368109D01*
X371258Y125984D02*
X373357D01*
X376505Y129133D02*
X375981Y129658D01*
X374931D01*
X374406Y129133D01*
Y127034D01*
X374931Y126509D01*
X375981D01*
X376505Y127034D01*
Y128083D01*
X375456D01*
X377555Y126509D02*
Y129658D01*
X379654Y126509D01*
Y129658D01*
X380704D02*
Y126509D01*
X382278D01*
X382803Y127034D01*
Y129133D01*
X382278Y129658D01*
X380704D01*
D13*
X376930Y120866D02*
G03*
X376930Y120866I-4489J0D01*
G01*
X340158Y6299D02*
Y10236D01*
X351181D01*
Y6299D02*
Y10236D01*
X340158Y6299D02*
X351181D01*
X353937Y55118D02*
Y56102D01*
Y58071D02*
Y59055D01*
Y56102D02*
Y58071D01*
X350787Y55118D02*
Y59055D01*
X338583Y44488D02*
Y48425D01*
X349606D01*
Y44488D02*
Y48425D01*
X338583Y44488D02*
X349606D01*
X354724Y30709D02*
X358661D01*
X354724D02*
Y41732D01*
X358661D01*
Y30709D02*
Y41732D01*
X396850Y50938D02*
X400787D01*
X396850D02*
Y61961D01*
X400787D01*
Y50938D02*
Y61961D01*
X407874Y51181D02*
Y62205D01*
X403937D02*
X407874D01*
X403937Y51181D02*
Y62205D01*
Y51181D02*
X407874D01*
X410630Y62205D02*
X414567D01*
Y51181D02*
Y62205D01*
X410630Y51181D02*
X414567D01*
X410630D02*
Y62205D01*
X419685Y57284D02*
X425197D01*
X419685Y50985D02*
X425197D01*
X367717Y92913D02*
Y93898D01*
Y95866D02*
Y96850D01*
Y93898D02*
Y95866D01*
X364567Y92913D02*
Y96850D01*
X341339Y103091D02*
X345276D01*
X342323Y106240D02*
X344291D01*
X341339D02*
X342323D01*
X344291D02*
X345276D01*
X350787Y103091D02*
X354724D01*
X351772Y106240D02*
X353740D01*
X350787D02*
X351772D01*
X353740D02*
X354724D01*
X360236Y103091D02*
X364173D01*
X361221Y106240D02*
X363189D01*
X360236D02*
X361221D01*
X363189D02*
X364173D01*
X310236Y8858D02*
Y9843D01*
Y5906D02*
Y6890D01*
Y8858D01*
X313386Y5906D02*
Y9843D01*
X316580Y21654D02*
X317564D01*
X313627D02*
X314612D01*
X316580D01*
X313627Y18504D02*
X317564D01*
X299213Y14370D02*
Y18307D01*
X310236D01*
Y14370D02*
Y18307D01*
X299213Y14370D02*
X310236D01*
X322047Y14960D02*
X325984D01*
X322047D02*
Y25984D01*
X325984D01*
Y14960D02*
Y25984D01*
X299213Y21654D02*
Y25591D01*
X310236D01*
Y21654D02*
Y25591D01*
X299213Y21654D02*
X310236D01*
X370472Y72244D02*
Y73228D01*
Y69291D02*
Y70276D01*
Y72244D01*
X373622Y69291D02*
Y73228D01*
X370472Y60827D02*
Y61811D01*
Y57874D02*
Y58858D01*
Y60827D01*
X373622Y57874D02*
Y61811D01*
X393701Y12598D02*
Y16535D01*
X404724D01*
Y12598D02*
Y16535D01*
X393701Y12598D02*
X404724D01*
X417323Y3937D02*
Y9449D01*
X411024Y3937D02*
Y9449D01*
X414173Y31889D02*
X418110D01*
X414173D02*
Y42913D01*
X418110D01*
Y31889D02*
Y42913D01*
X424016Y31889D02*
Y42913D01*
X420079D02*
X424016D01*
X420079Y31889D02*
Y42913D01*
Y31889D02*
X424016D01*
X420276Y24409D02*
X421260D01*
X417323D02*
X418307D01*
X420276D01*
X417323Y21260D02*
X421260D01*
X409842Y16929D02*
X413779D01*
X409842D02*
Y27953D01*
X413779D01*
Y16929D02*
Y27953D01*
X376772Y10236D02*
Y14173D01*
X365748Y10236D02*
X376772D01*
X365748D02*
Y14173D01*
X376772D01*
X358268Y17323D02*
Y22835D01*
X352756Y17323D02*
Y22835D01*
X325984Y27559D02*
Y38583D01*
X322047D02*
X325984D01*
X322047Y27559D02*
Y38583D01*
Y27559D02*
X325984D01*
X332087Y53937D02*
X338779D01*
X332087Y60236D02*
X338779D01*
X333858Y15748D02*
Y19685D01*
X344882D01*
Y15748D02*
Y19685D01*
X333858Y15748D02*
X344882D01*
D17*
X390419Y55511D02*
Y52887D01*
X389894Y52363D01*
X388845D01*
X388320Y52887D01*
Y55511D01*
X387270Y54987D02*
X386746Y55511D01*
X385696D01*
X385172Y54987D01*
Y54462D01*
X385696Y53937D01*
X385172Y53412D01*
Y52887D01*
X385696Y52363D01*
X386746D01*
X387270Y52887D01*
Y53412D01*
X386746Y53937D01*
X387270Y54462D01*
Y54987D01*
X386746Y53937D02*
X385696D01*
X340025Y40551D02*
Y37927D01*
X339501Y37402D01*
X338451D01*
X337926Y37927D01*
Y40551D01*
X336877D02*
X334778D01*
Y40026D01*
X336877Y37927D01*
Y37402D01*
X337138Y61812D02*
Y64960D01*
X335564D01*
X335039Y64435D01*
Y63386D01*
X335564Y62861D01*
X337138D01*
X336088D02*
X335039Y61812D01*
X333989Y64960D02*
X331890D01*
X332940D01*
Y61812D01*
X330841D02*
X329791D01*
X330316D01*
Y64960D01*
X330841Y64435D01*
X353411Y38583D02*
Y41732D01*
X351836D01*
X351312Y41207D01*
Y40157D01*
X351836Y39633D01*
X353411D01*
X352361D02*
X351312Y38583D01*
X350262Y41207D02*
X349737Y41732D01*
X348688D01*
X348163Y41207D01*
Y40682D01*
X348688Y40157D01*
X349213D01*
X348688D01*
X348163Y39633D01*
Y39108D01*
X348688Y38583D01*
X349737D01*
X350262Y39108D01*
X345539Y38583D02*
Y41732D01*
X347113Y40157D01*
X345015D01*
X375064Y5512D02*
Y8661D01*
X373490D01*
X372965Y8136D01*
Y7087D01*
X373490Y6562D01*
X375064D01*
X374015D02*
X372965Y5512D01*
X371916Y8136D02*
X371391Y8661D01*
X370341D01*
X369817Y8136D01*
Y7611D01*
X370341Y7087D01*
X370866D01*
X370341D01*
X369817Y6562D01*
Y6037D01*
X370341Y5512D01*
X371391D01*
X371916Y6037D01*
X368767Y8136D02*
X368242Y8661D01*
X367193D01*
X366668Y8136D01*
Y7611D01*
X367193Y7087D01*
X367718D01*
X367193D01*
X366668Y6562D01*
Y6037D01*
X367193Y5512D01*
X368242D01*
X368767Y6037D01*
X348293Y50001D02*
Y53149D01*
X346718D01*
X346194Y52624D01*
Y51575D01*
X346718Y51050D01*
X348293D01*
X347243D02*
X346194Y50001D01*
X345144Y52624D02*
X344619Y53149D01*
X343570D01*
X343045Y52624D01*
Y52100D01*
X343570Y51575D01*
X344094D01*
X343570D01*
X343045Y51050D01*
Y50525D01*
X343570Y50001D01*
X344619D01*
X345144Y50525D01*
X339896Y50001D02*
X341995D01*
X339896Y52100D01*
Y52624D01*
X340421Y53149D01*
X341471D01*
X341995Y52624D01*
X297768Y14961D02*
Y18110D01*
X296194D01*
X295669Y17585D01*
Y16535D01*
X296194Y16011D01*
X297768D01*
X296718D02*
X295669Y14961D01*
X294619Y17585D02*
X294094Y18110D01*
X293045D01*
X292520Y17585D01*
Y17060D01*
X293045Y16535D01*
X293570D01*
X293045D01*
X292520Y16011D01*
Y15486D01*
X293045Y14961D01*
X294094D01*
X294619Y15486D01*
X291471Y14961D02*
X290421D01*
X290946D01*
Y18110D01*
X291471Y17585D01*
X297899Y22442D02*
Y25590D01*
X296325D01*
X295800Y25065D01*
Y24016D01*
X296325Y23491D01*
X297899D01*
X296849D02*
X295800Y22442D01*
X294750Y25065D02*
X294226Y25590D01*
X293176D01*
X292651Y25065D01*
Y24541D01*
X293176Y24016D01*
X293701D01*
X293176D01*
X292651Y23491D01*
Y22966D01*
X293176Y22442D01*
X294226D01*
X294750Y22966D01*
X291602Y25065D02*
X291077Y25590D01*
X290027D01*
X289503Y25065D01*
Y22966D01*
X290027Y22442D01*
X291077D01*
X291602Y22966D01*
Y25065D01*
X351442Y1575D02*
Y4724D01*
X349868D01*
X349343Y4199D01*
Y3150D01*
X349868Y2625D01*
X351442D01*
X350393D02*
X349343Y1575D01*
X346195D02*
X348294D01*
X346195Y3674D01*
Y4199D01*
X346719Y4724D01*
X347769D01*
X348294Y4199D01*
X345145Y2100D02*
X344620Y1575D01*
X343571D01*
X343046Y2100D01*
Y4199D01*
X343571Y4724D01*
X344620D01*
X345145Y4199D01*
Y3674D01*
X344620Y3150D01*
X343046D01*
X331757Y10237D02*
Y13385D01*
X330183D01*
X329658Y12861D01*
Y11811D01*
X330183Y11286D01*
X331757D01*
X330708D02*
X329658Y10237D01*
X326509D02*
X328609D01*
X326509Y12336D01*
Y12861D01*
X327034Y13385D01*
X328084D01*
X328609Y12861D01*
X325460D02*
X324935Y13385D01*
X323886D01*
X323361Y12861D01*
Y12336D01*
X323886Y11811D01*
X323361Y11286D01*
Y10762D01*
X323886Y10237D01*
X324935D01*
X325460Y10762D01*
Y11286D01*
X324935Y11811D01*
X325460Y12336D01*
Y12861D01*
X324935Y11811D02*
X323886D01*
X415615Y11812D02*
Y14960D01*
X414041D01*
X413516Y14435D01*
Y13386D01*
X414041Y12861D01*
X415615D01*
X414566D02*
X413516Y11812D01*
X410368D02*
X412467D01*
X410368Y13911D01*
Y14435D01*
X410893Y14960D01*
X411942D01*
X412467Y14435D01*
X409318Y14960D02*
X407219D01*
Y14435D01*
X409318Y12336D01*
Y11812D01*
X399999Y72308D02*
X396851D01*
Y70734D01*
X397376Y70209D01*
X398425D01*
X398950Y70734D01*
Y72308D01*
Y71259D02*
X399999Y70209D01*
Y67061D02*
Y69160D01*
X397900Y67061D01*
X397376D01*
X396851Y67585D01*
Y68635D01*
X397376Y69160D01*
X396851Y63912D02*
X397376Y64962D01*
X398425Y66011D01*
X399475D01*
X399999Y65486D01*
Y64437D01*
X399475Y63912D01*
X398950D01*
X398425Y64437D01*
Y66011D01*
X414173Y72702D02*
X411024D01*
Y71128D01*
X411549Y70603D01*
X412598D01*
X413123Y71128D01*
Y72702D01*
Y71653D02*
X414173Y70603D01*
Y67454D02*
Y69554D01*
X412074Y67454D01*
X411549D01*
X411024Y67979D01*
Y69029D01*
X411549Y69554D01*
X411024Y64306D02*
Y66405D01*
X412598D01*
X412074Y65355D01*
Y64831D01*
X412598Y64306D01*
X413648D01*
X414173Y64831D01*
Y65880D01*
X413648Y66405D01*
X318111Y39503D02*
X321259D01*
Y41077D01*
X320735Y41602D01*
X319685D01*
X319160Y41077D01*
Y39503D01*
Y40552D02*
X318111Y41602D01*
Y44750D02*
Y42651D01*
X320210Y44750D01*
X320735D01*
X321259Y44226D01*
Y43176D01*
X320735Y42651D01*
X318111Y47374D02*
X321259D01*
X319685Y45800D01*
Y47899D01*
X403411Y7875D02*
Y11023D01*
X401836D01*
X401312Y10498D01*
Y9449D01*
X401836Y8924D01*
X403411D01*
X402361D02*
X401312Y7875D01*
X398163D02*
X400262D01*
X398163Y9974D01*
Y10498D01*
X398688Y11023D01*
X399737D01*
X400262Y10498D01*
X397113D02*
X396589Y11023D01*
X395539D01*
X395015Y10498D01*
Y9974D01*
X395539Y9449D01*
X396064D01*
X395539D01*
X395015Y8924D01*
Y8399D01*
X395539Y7875D01*
X396589D01*
X397113Y8399D01*
X412204Y41993D02*
X409056D01*
Y40419D01*
X409580Y39894D01*
X410630D01*
X411155Y40419D01*
Y41993D01*
Y40944D02*
X412204Y39894D01*
Y36746D02*
Y38845D01*
X410105Y36746D01*
X409580D01*
X409056Y37271D01*
Y38320D01*
X409580Y38845D01*
X412204Y33597D02*
Y35696D01*
X410105Y33597D01*
X409580D01*
X409056Y34122D01*
Y35171D01*
X409580Y35696D01*
X351443Y26771D02*
Y23623D01*
X349868D01*
X349344Y24147D01*
Y26246D01*
X349868Y26771D01*
X351443D01*
X348294D02*
X346195D01*
Y26246D01*
X348294Y24147D01*
Y23623D01*
X344225Y116404D02*
X344750Y116929D01*
X345799D01*
X346324Y116404D01*
Y114305D01*
X345799Y113780D01*
X344750D01*
X344225Y114305D01*
X341601Y113780D02*
Y116929D01*
X343176Y115354D01*
X341076D01*
X337928Y116929D02*
X338977Y116404D01*
X340027Y115354D01*
Y114305D01*
X339502Y113780D01*
X338453D01*
X337928Y114305D01*
Y114830D01*
X338453Y115354D01*
X340027D01*
X354855Y116010D02*
X355380Y116535D01*
X356429D01*
X356954Y116010D01*
Y113911D01*
X356429Y113386D01*
X355380D01*
X354855Y113911D01*
X352231Y113386D02*
Y116535D01*
X353805Y114961D01*
X351706D01*
X348558Y116535D02*
X350657D01*
Y114961D01*
X349607Y115485D01*
X349082D01*
X348558Y114961D01*
Y113911D01*
X349082Y113386D01*
X350132D01*
X350657Y113911D01*
X366272Y116010D02*
X366797Y116535D01*
X367847D01*
X368371Y116010D01*
Y113911D01*
X367847Y113386D01*
X366797D01*
X366272Y113911D01*
X363649Y113386D02*
Y116535D01*
X365223Y114961D01*
X363124D01*
X360500Y113386D02*
Y116535D01*
X362074Y114961D01*
X359975D01*
X381758Y71129D02*
X382283Y70604D01*
Y69555D01*
X381758Y69030D01*
X379659D01*
X379134Y69555D01*
Y70604D01*
X379659Y71129D01*
X379134Y73753D02*
X382283D01*
X380709Y72179D01*
Y74278D01*
X381758Y75327D02*
X382283Y75852D01*
Y76902D01*
X381758Y77426D01*
X381233D01*
X380709Y76902D01*
Y76377D01*
Y76902D01*
X380184Y77426D01*
X379659D01*
X379134Y76902D01*
Y75852D01*
X379659Y75327D01*
X380971Y58137D02*
X381496Y57612D01*
Y56563D01*
X380971Y56038D01*
X378872D01*
X378347Y56563D01*
Y57612D01*
X378872Y58137D01*
X378347Y60761D02*
X381496D01*
X379921Y59187D01*
Y61286D01*
X378347Y64434D02*
Y62335D01*
X380446Y64434D01*
X380971D01*
X381496Y63910D01*
Y62860D01*
X380971Y62335D01*
X354724Y64042D02*
X355249Y64566D01*
X356298D01*
X356823Y64042D01*
Y61943D01*
X356298Y61418D01*
X355249D01*
X354724Y61943D01*
X352100Y61418D02*
Y64566D01*
X353674Y62992D01*
X351575D01*
X350526Y61418D02*
X349476D01*
X350001D01*
Y64566D01*
X350526Y64042D01*
X302887Y8924D02*
X303411Y9448D01*
X304461D01*
X304985Y8924D01*
Y6825D01*
X304461Y6300D01*
X303411D01*
X302887Y6825D01*
X300263Y6300D02*
Y9448D01*
X301837Y7874D01*
X299738D01*
X298688Y8924D02*
X298164Y9448D01*
X297114D01*
X296589Y8924D01*
Y6825D01*
X297114Y6300D01*
X298164D01*
X298688Y6825D01*
Y8924D01*
X316404Y29397D02*
X316929Y28872D01*
Y27823D01*
X316404Y27298D01*
X314305D01*
X313780Y27823D01*
Y28872D01*
X314305Y29397D01*
X316404Y30446D02*
X316929Y30971D01*
Y32021D01*
X316404Y32546D01*
X315879D01*
X315354Y32021D01*
Y31496D01*
Y32021D01*
X314830Y32546D01*
X314305D01*
X313780Y32021D01*
Y30971D01*
X314305Y30446D01*
Y33595D02*
X313780Y34120D01*
Y35169D01*
X314305Y35694D01*
X316404D01*
X316929Y35169D01*
Y34120D01*
X316404Y33595D01*
X315879D01*
X315354Y34120D01*
Y35694D01*
X427034Y21523D02*
X427559Y20998D01*
Y19949D01*
X427034Y19424D01*
X424935D01*
X424410Y19949D01*
Y20998D01*
X424935Y21523D01*
X427034Y22572D02*
X427559Y23097D01*
Y24147D01*
X427034Y24672D01*
X426509D01*
X425984Y24147D01*
Y23622D01*
Y24147D01*
X425459Y24672D01*
X424935D01*
X424410Y24147D01*
Y23097D01*
X424935Y22572D01*
X427034Y25721D02*
X427559Y26246D01*
Y27295D01*
X427034Y27820D01*
X426509D01*
X425984Y27295D01*
X425459Y27820D01*
X424935D01*
X424410Y27295D01*
Y26246D01*
X424935Y25721D01*
X425459D01*
X425984Y26246D01*
X426509Y25721D01*
X427034D01*
X425984Y26246D02*
Y27295D01*
X341863Y13648D02*
X342388Y14173D01*
X343437D01*
X343962Y13648D01*
Y11549D01*
X343437Y11024D01*
X342388D01*
X341863Y11549D01*
X340813Y13648D02*
X340288Y14173D01*
X339239D01*
X338714Y13648D01*
Y13123D01*
X339239Y12598D01*
X339764D01*
X339239D01*
X338714Y12074D01*
Y11549D01*
X339239Y11024D01*
X340288D01*
X340813Y11549D01*
X337665Y14173D02*
X335566D01*
Y13648D01*
X337665Y11549D01*
Y11024D01*
X404856Y70209D02*
X404331Y70734D01*
Y71784D01*
X404856Y72308D01*
X406955D01*
X407480Y71784D01*
Y70734D01*
X406955Y70209D01*
X404856Y69160D02*
X404331Y68635D01*
Y67585D01*
X404856Y67061D01*
X405381D01*
X405905Y67585D01*
Y68110D01*
Y67585D01*
X406430Y67061D01*
X406955D01*
X407480Y67585D01*
Y68635D01*
X406955Y69160D01*
X404331Y63912D02*
X404856Y64962D01*
X405905Y66011D01*
X406955D01*
X407480Y65486D01*
Y64437D01*
X406955Y63912D01*
X406430D01*
X405905Y64437D01*
Y66011D01*
X357611Y95931D02*
X358136Y96456D01*
X359185D01*
X359710Y95931D01*
Y93832D01*
X359185Y93308D01*
X358136D01*
X357611Y93832D01*
X356561Y95931D02*
X356037Y96456D01*
X354987D01*
X354462Y95931D01*
Y95407D01*
X354987Y94882D01*
X355512D01*
X354987D01*
X354462Y94357D01*
Y93832D01*
X354987Y93308D01*
X356037D01*
X356561Y93832D01*
X351314Y96456D02*
X353413D01*
Y94882D01*
X352363Y95407D01*
X351838D01*
X351314Y94882D01*
Y93832D01*
X351838Y93308D01*
X352888D01*
X353413Y93832D01*
X427821Y36090D02*
X428346Y35565D01*
Y34516D01*
X427821Y33991D01*
X425722D01*
X425197Y34516D01*
Y35565D01*
X425722Y36090D01*
X427821Y37139D02*
X428346Y37664D01*
Y38714D01*
X427821Y39239D01*
X427296D01*
X426772Y38714D01*
Y38189D01*
Y38714D01*
X426247Y39239D01*
X425722D01*
X425197Y38714D01*
Y37664D01*
X425722Y37139D01*
X425197Y41862D02*
X428346D01*
X426772Y40288D01*
Y42387D01*
X425721Y66010D02*
X426246Y66535D01*
X427295D01*
X427820Y66010D01*
Y63911D01*
X427295Y63386D01*
X426246D01*
X425721Y63911D01*
X424672Y66010D02*
X424147Y66535D01*
X423097D01*
X422573Y66010D01*
Y65485D01*
X423097Y64961D01*
X423622D01*
X423097D01*
X422573Y64436D01*
Y63911D01*
X423097Y63386D01*
X424147D01*
X424672Y63911D01*
X421523Y66010D02*
X420998Y66535D01*
X419949D01*
X419424Y66010D01*
Y65485D01*
X419949Y64961D01*
X420473D01*
X419949D01*
X419424Y64436D01*
Y63911D01*
X419949Y63386D01*
X420998D01*
X421523Y63911D01*
X427034Y5775D02*
X427559Y5250D01*
Y4201D01*
X427034Y3676D01*
X424935D01*
X424410Y4201D01*
Y5250D01*
X424935Y5775D01*
X427034Y6825D02*
X427559Y7349D01*
Y8399D01*
X427034Y8924D01*
X426509D01*
X425984Y8399D01*
Y7874D01*
Y8399D01*
X425459Y8924D01*
X424935D01*
X424410Y8399D01*
Y7349D01*
X424935Y6825D01*
X424410Y12072D02*
Y9973D01*
X426509Y12072D01*
X427034D01*
X427559Y11547D01*
Y10498D01*
X427034Y9973D01*
D119*
X384646Y48819D02*
G03*
X384646Y48819I-394J0D01*
G01*
X328740Y24802D02*
G03*
X328740Y24802I-394J0D01*
G01*
M02*
