G04*
G04 #@! TF.GenerationSoftware,Altium Limited,Altium Designer,23.3.1 (30)*
G04*
G04 Layer_Color=10964583*
%FSLAX25Y25*%
%MOIN*%
G70*
G04*
G04 #@! TF.SameCoordinates,F1967EA3-8312-49A4-A2FB-0AE49F0FF499*
G04*
G04*
G04 #@! TF.FilePolarity,Positive*
G04*
G01*
G75*
%ADD21R,0.03494X0.04194*%
%ADD23R,0.04194X0.03494*%
%ADD28R,0.05512X0.03150*%
%ADD40R,0.03150X0.05512*%
%ADD42R,0.05118X0.05118*%
%ADD169R,0.06693X0.03937*%
%ADD170R,0.05118X0.02756*%
%ADD171R,0.03937X0.06693*%
%ADD172R,0.04724X0.02756*%
D21*
X356693Y33070D02*
D03*
Y39371D02*
D03*
X398819Y53300D02*
D03*
Y59600D02*
D03*
X405905Y59843D02*
D03*
Y53543D02*
D03*
X412598Y59843D02*
D03*
Y53543D02*
D03*
X324016Y17322D02*
D03*
Y23622D02*
D03*
X416142Y34251D02*
D03*
Y40551D02*
D03*
X422047D02*
D03*
Y34251D02*
D03*
X411811Y19291D02*
D03*
Y25591D02*
D03*
X324016Y36221D02*
D03*
Y29921D02*
D03*
D23*
X342519Y8268D02*
D03*
X348819D02*
D03*
X340945Y46457D02*
D03*
X347245D02*
D03*
X301574Y16339D02*
D03*
X307874D02*
D03*
X301574Y23622D02*
D03*
X307874D02*
D03*
X396063Y14567D02*
D03*
X402363D02*
D03*
X374410Y12205D02*
D03*
X368110D02*
D03*
X336220Y17717D02*
D03*
X342520D02*
D03*
D28*
X343307Y108405D02*
D03*
Y100925D02*
D03*
X352756Y108405D02*
D03*
Y100925D02*
D03*
X362205Y108405D02*
D03*
Y100925D02*
D03*
X315596Y16339D02*
D03*
Y23819D02*
D03*
X419291Y19094D02*
D03*
Y26575D02*
D03*
D40*
X348622Y57087D02*
D03*
X356102D02*
D03*
X362402Y94882D02*
D03*
X369882D02*
D03*
X315551Y7874D02*
D03*
X308071D02*
D03*
X375787Y71260D02*
D03*
X368307D02*
D03*
X375787Y59842D02*
D03*
X368307D02*
D03*
D42*
X355512Y24213D02*
D03*
Y15945D02*
D03*
D169*
X422441Y59843D02*
D03*
Y48426D02*
D03*
D170*
X367913Y19252D02*
D03*
Y24252D02*
D03*
Y29252D02*
D03*
Y34252D02*
D03*
Y39252D02*
D03*
Y44252D02*
D03*
Y49252D02*
D03*
X388779Y19252D02*
D03*
Y24252D02*
D03*
Y29252D02*
D03*
Y34252D02*
D03*
Y39252D02*
D03*
Y44252D02*
D03*
Y49252D02*
D03*
D171*
X419882Y6693D02*
D03*
X408465D02*
D03*
X329724Y57087D02*
D03*
X341142D02*
D03*
D172*
X342520Y32873D02*
D03*
X332283D02*
D03*
Y29133D02*
D03*
X342520Y25393D02*
D03*
X332283D02*
D03*
M02*
