G04*
G04 #@! TF.GenerationSoftware,Altium Limited,Altium Designer,23.3.1 (30)*
G04*
G04 Layer_Color=16711935*
%FSLAX25Y25*%
%MOIN*%
G70*
G04*
G04 #@! TF.SameCoordinates,F1967EA3-8312-49A4-A2FB-0AE49F0FF499*
G04*
G04*
G04 #@! TF.FilePolarity,Negative*
G04*
G01*
G75*
%ADD21R,0.03494X0.04194*%
%ADD23R,0.04194X0.03494*%
%ADD28R,0.05512X0.03150*%
%ADD40R,0.03150X0.05512*%
%ADD42R,0.05118X0.05118*%
%ADD63O,0.08674X0.16548*%
%ADD64C,0.09068*%
%ADD65O,0.16548X0.08674*%
%ADD66O,0.07887X0.14973*%
%ADD67C,0.08268*%
%ADD68C,0.08661*%
%ADD69O,0.14973X0.07887*%
%ADD70C,0.05118*%
%ADD71C,0.12205*%
%ADD72C,0.04331*%
%ADD73C,0.00394*%
%ADD169R,0.06693X0.03937*%
%ADD170R,0.05118X0.02756*%
%ADD171R,0.03937X0.06693*%
%ADD172R,0.04724X0.02756*%
%ADD173C,0.02769*%
%ADD174C,0.03162*%
G36*
X325276Y76378D02*
Y75197D01*
X327953Y72677D01*
X330394Y75197D01*
X330512Y75512D01*
Y76378D01*
X325276D01*
D02*
G37*
G36*
X372441Y124803D02*
X368504Y120866D01*
X372441Y116929D01*
X376378Y120866D01*
X372441Y124803D01*
D02*
G37*
D21*
X356693Y33070D02*
D03*
Y39371D02*
D03*
X398819Y53300D02*
D03*
Y59600D02*
D03*
X405905Y59843D02*
D03*
Y53543D02*
D03*
X412598Y59843D02*
D03*
Y53543D02*
D03*
X324016Y17322D02*
D03*
Y23622D02*
D03*
X416142Y34251D02*
D03*
Y40551D02*
D03*
X422047D02*
D03*
Y34251D02*
D03*
X411811Y19291D02*
D03*
Y25591D02*
D03*
X324016Y36221D02*
D03*
Y29921D02*
D03*
D23*
X342519Y8268D02*
D03*
X348819D02*
D03*
X340945Y46457D02*
D03*
X347245D02*
D03*
X301574Y16339D02*
D03*
X307874D02*
D03*
X301574Y23622D02*
D03*
X307874D02*
D03*
X396063Y14567D02*
D03*
X402363D02*
D03*
X374410Y12205D02*
D03*
X368110D02*
D03*
X336220Y17717D02*
D03*
X342520D02*
D03*
D28*
X343307Y108405D02*
D03*
Y100925D02*
D03*
X352756Y108405D02*
D03*
Y100925D02*
D03*
X362205Y108405D02*
D03*
Y100925D02*
D03*
X315596Y16339D02*
D03*
Y23819D02*
D03*
X419291Y19094D02*
D03*
Y26575D02*
D03*
D40*
X348622Y57087D02*
D03*
X356102D02*
D03*
X362402Y94882D02*
D03*
X369882D02*
D03*
X315551Y7874D02*
D03*
X308071D02*
D03*
X375787Y71260D02*
D03*
X368307D02*
D03*
X375787Y59842D02*
D03*
X368307D02*
D03*
D42*
X355512Y24213D02*
D03*
Y15945D02*
D03*
D63*
X31102Y187795D02*
D03*
X192126Y36614D02*
D03*
D64*
X13386Y187795D02*
D03*
X173228Y6299D02*
D03*
D65*
X43701Y168898D02*
D03*
X173228Y24016D02*
D03*
D66*
X55905Y192126D02*
D03*
D67*
X183858Y122047D02*
D03*
Y141732D02*
D03*
X97638Y253543D02*
D03*
X137008D02*
D03*
X156693Y332283D02*
D03*
X77953D02*
D03*
X56960Y124536D02*
D03*
X43040Y138456D02*
D03*
X34627Y311024D02*
D03*
X14942D02*
D03*
X168504Y376929D02*
D03*
X50394D02*
D03*
X14961Y267735D02*
D03*
X34646D02*
D03*
D68*
X199055Y290394D02*
D03*
Y330394D02*
D03*
Y360394D02*
D03*
X229055Y350394D02*
D03*
Y290394D02*
D03*
X250354Y289803D02*
D03*
Y329803D02*
D03*
Y359803D02*
D03*
X280354Y349803D02*
D03*
Y289803D02*
D03*
D69*
X168898Y48819D02*
D03*
D70*
X301969Y97382D02*
D03*
Y103287D02*
D03*
Y109193D02*
D03*
Y115098D02*
D03*
Y121004D02*
D03*
Y126909D02*
D03*
X327953Y76378D02*
D03*
Y82284D02*
D03*
Y88189D02*
D03*
Y94095D02*
D03*
Y100000D02*
D03*
Y105905D02*
D03*
D71*
X270236Y375984D02*
D03*
X250236D02*
D03*
X219055D02*
D03*
X199055D02*
D03*
X22441Y376929D02*
D03*
Y356929D02*
D03*
D72*
X412586Y114149D02*
D03*
Y100007D02*
D03*
X398427Y114133D02*
D03*
D73*
X100000Y8661D02*
D03*
X111811D02*
D03*
D169*
X422441Y59843D02*
D03*
Y48426D02*
D03*
D170*
X367913Y19252D02*
D03*
Y24252D02*
D03*
Y29252D02*
D03*
Y34252D02*
D03*
Y39252D02*
D03*
Y44252D02*
D03*
Y49252D02*
D03*
X388779Y19252D02*
D03*
Y24252D02*
D03*
Y29252D02*
D03*
Y34252D02*
D03*
Y39252D02*
D03*
Y44252D02*
D03*
Y49252D02*
D03*
D171*
X419882Y6693D02*
D03*
X408465D02*
D03*
X329724Y57087D02*
D03*
X341142D02*
D03*
D172*
X342520Y32873D02*
D03*
X332283D02*
D03*
Y29133D02*
D03*
X342520Y25393D02*
D03*
X332283D02*
D03*
D173*
X217717Y77902D02*
D03*
Y80870D02*
D03*
X327953Y41339D02*
D03*
X316929Y31102D02*
D03*
X283465Y143701D02*
D03*
X270472Y175787D02*
D03*
X253150Y261024D02*
D03*
X250000Y160236D02*
D03*
X212205Y145669D02*
D03*
X205512Y46063D02*
D03*
X113189Y125984D02*
D03*
X233071Y48172D02*
D03*
X306458Y145905D02*
D03*
X303937Y185827D02*
D03*
X355906Y49213D02*
D03*
X361417Y28740D02*
D03*
X375590Y34252D02*
D03*
X331496Y46457D02*
D03*
X347638Y17717D02*
D03*
X338189Y118110D02*
D03*
X350787Y72441D02*
D03*
X382677Y114173D02*
D03*
X371654Y82677D02*
D03*
X395276Y24409D02*
D03*
X340551Y66142D02*
D03*
X370472Y4724D02*
D03*
X350000Y33071D02*
D03*
X357874Y4331D02*
D03*
X312992Y38976D02*
D03*
X254724Y181102D02*
D03*
X237795Y144826D02*
D03*
X260630Y144488D02*
D03*
X273622Y223622D02*
D03*
X270079Y225984D02*
D03*
X216727Y190198D02*
D03*
X220079Y193307D02*
D03*
X202756Y184646D02*
D03*
X209842Y189764D02*
D03*
X215619Y186350D02*
D03*
X223640Y179134D02*
D03*
X218504Y182677D02*
D03*
X312205Y116929D02*
D03*
X285827Y270866D02*
D03*
X294488Y183071D02*
D03*
X206299Y215748D02*
D03*
X224803Y244882D02*
D03*
X286221Y204724D02*
D03*
X263779Y171653D02*
D03*
X288189Y110630D02*
D03*
X233071Y29134D02*
D03*
Y37795D02*
D03*
X73622Y12205D02*
D03*
X270079Y186614D02*
D03*
X309267Y138371D02*
D03*
X251575Y195669D02*
D03*
X249213Y153150D02*
D03*
X241732Y98425D02*
D03*
X238189Y187402D02*
D03*
X239370Y177953D02*
D03*
X276378Y170079D02*
D03*
X297244Y138583D02*
D03*
X209449Y107874D02*
D03*
X178347Y89370D02*
D03*
Y93307D02*
D03*
X227953Y171653D02*
D03*
X300591Y192929D02*
D03*
Y189961D02*
D03*
D174*
X247047Y218504D02*
D03*
X248031Y225197D02*
D03*
X250137Y216279D02*
D03*
X342913Y94488D02*
D03*
X347638D02*
D03*
X353937D02*
D03*
X363779Y65748D02*
D03*
X368504D02*
D03*
X318898Y12598D02*
D03*
X273228Y158661D02*
D03*
X266732Y122047D02*
D03*
X263779Y116929D02*
D03*
X251969Y164173D02*
D03*
X237598Y138386D02*
D03*
Y134252D02*
D03*
X220472Y196063D02*
D03*
X204331Y178740D02*
D03*
X212992Y170472D02*
D03*
X170866Y135039D02*
D03*
Y131102D02*
D03*
Y123228D02*
D03*
Y119291D02*
D03*
Y111417D02*
D03*
Y107087D02*
D03*
X191732Y202362D02*
D03*
X199606D02*
D03*
Y206299D02*
D03*
X191732D02*
D03*
X283071Y83858D02*
D03*
X279134Y80315D02*
D03*
X275197Y77165D02*
D03*
X272047Y74410D02*
D03*
X268898Y71653D02*
D03*
X264961Y68504D02*
D03*
X98425Y157874D02*
D03*
X92520D02*
D03*
X98425Y153512D02*
D03*
X92520D02*
D03*
X98425Y149150D02*
D03*
X120866Y190945D02*
D03*
Y198819D02*
D03*
Y206693D02*
D03*
X8268Y238976D02*
D03*
Y246457D02*
D03*
X17717Y246063D02*
D03*
Y238976D02*
D03*
Y231890D02*
D03*
X7874D02*
D03*
X37402Y119685D02*
D03*
X31890Y126772D02*
D03*
X25984Y132283D02*
D03*
X19291Y140157D02*
D03*
X67716Y149213D02*
D03*
Y156693D02*
D03*
X92520Y149150D02*
D03*
X166535Y154331D02*
D03*
X176378Y166142D02*
D03*
X140945Y73228D02*
D03*
X148819D02*
D03*
X156693D02*
D03*
Y81102D02*
D03*
X148819D02*
D03*
X141339D02*
D03*
X207874Y66142D02*
D03*
Y74410D02*
D03*
X239370Y293307D02*
D03*
X212205Y205512D02*
D03*
X206693Y199606D02*
D03*
X201575Y194882D02*
D03*
X196850Y190157D02*
D03*
X33858Y37402D02*
D03*
X77165Y21457D02*
D03*
X33858Y29528D02*
D03*
X34252Y22047D02*
D03*
Y13780D02*
D03*
X217717Y85039D02*
D03*
X48031Y9449D02*
D03*
X268503Y213779D02*
D03*
X289961Y132480D02*
D03*
X286299Y260709D02*
D03*
X282677Y132480D02*
D03*
X274803D02*
D03*
X238779Y57677D02*
D03*
X153543Y107874D02*
D03*
Y118898D02*
D03*
Y113779D02*
D03*
X65354Y207480D02*
D03*
X70866Y177165D02*
D03*
X66929D02*
D03*
X62992D02*
D03*
X61417Y207480D02*
D03*
X57480D02*
D03*
M02*
