G04*
G04 #@! TF.GenerationSoftware,Altium Limited,Altium Designer,23.3.1 (30)*
G04*
G04 Layer_Color=13010237*
%FSLAX25Y25*%
%MOIN*%
G70*
G04*
G04 #@! TF.SameCoordinates,F1967EA3-8312-49A4-A2FB-0AE49F0FF499*
G04*
G04*
G04 #@! TF.FilePolarity,Positive*
G04*
G01*
G75*
%ADD19R,0.17717X0.13386*%
%ADD20R,0.24803X0.15748*%
%ADD21R,0.03494X0.04194*%
%ADD22R,0.04724X0.03543*%
%ADD23R,0.04194X0.03494*%
%ADD24R,0.03937X0.06299*%
%ADD25R,0.06299X0.03937*%
%ADD26R,0.03937X0.03937*%
%ADD27R,0.03937X0.03937*%
%ADD28R,0.05512X0.03150*%
%ADD29R,0.06299X0.02362*%
G04:AMPARAMS|DCode=30|XSize=66.93mil|YSize=53.15mil|CornerRadius=0mil|HoleSize=0mil|Usage=FLASHONLY|Rotation=225.000|XOffset=0mil|YOffset=0mil|HoleType=Round|Shape=Rectangle|*
%AMROTATEDRECTD30*
4,1,4,0.00487,0.04245,0.04245,0.00487,-0.00487,-0.04245,-0.04245,-0.00487,0.00487,0.04245,0.0*
%
%ADD30ROTATEDRECTD30*%

G04:AMPARAMS|DCode=31|XSize=34.94mil|YSize=41.94mil|CornerRadius=0mil|HoleSize=0mil|Usage=FLASHONLY|Rotation=45.000|XOffset=0mil|YOffset=0mil|HoleType=Round|Shape=Rectangle|*
%AMROTATEDRECTD31*
4,1,4,0.00248,-0.02718,-0.02718,0.00248,-0.00248,0.02718,0.02718,-0.00248,0.00248,-0.02718,0.0*
%
%ADD31ROTATEDRECTD31*%

%ADD32R,0.02756X0.05118*%
%ADD33R,0.01575X0.05118*%
%ADD34R,0.05118X0.01575*%
G04:AMPARAMS|DCode=35|XSize=34.94mil|YSize=41.94mil|CornerRadius=0mil|HoleSize=0mil|Usage=FLASHONLY|Rotation=315.000|XOffset=0mil|YOffset=0mil|HoleType=Round|Shape=Rectangle|*
%AMROTATEDRECTD35*
4,1,4,-0.02718,-0.00248,0.00248,0.02718,0.02718,0.00248,-0.00248,-0.02718,-0.02718,-0.00248,0.0*
%
%ADD35ROTATEDRECTD35*%

%ADD36R,0.08268X0.04724*%
%ADD37R,0.13386X0.17717*%
%ADD38R,0.15748X0.24803*%
%ADD39R,0.02559X0.04528*%
%ADD40R,0.03150X0.05512*%
%ADD41R,0.11811X0.05118*%
%ADD42R,0.05118X0.05118*%
%ADD43R,0.04528X0.02559*%
%ADD44R,0.07480X0.07874*%
%ADD45R,0.01968X0.05709*%
%ADD46R,0.08661X0.06693*%
%ADD47R,0.03150X0.06299*%
%ADD48R,0.04331X0.03543*%
%ADD49R,0.09252X0.08740*%
%ADD50R,0.06693X0.06693*%
%ADD51R,0.06496X0.05118*%
%ADD52R,0.05118X0.06693*%
%ADD53R,0.13386X0.06693*%
%ADD54R,0.12205X0.06299*%
%ADD55R,0.05512X0.13780*%
%ADD56R,0.04331X0.02362*%
D19*
X63583Y185236D02*
D03*
D20*
X28346Y162402D02*
D03*
Y213189D02*
D03*
D21*
X81102Y20276D02*
D03*
Y13976D02*
D03*
X241732Y220709D02*
D03*
Y227009D02*
D03*
X258268Y122047D02*
D03*
Y128347D02*
D03*
X281299Y183071D02*
D03*
Y176771D02*
D03*
X242323Y159449D02*
D03*
Y153149D02*
D03*
X314415Y76181D02*
D03*
Y82481D02*
D03*
X233858Y280118D02*
D03*
Y273818D02*
D03*
X305906Y157874D02*
D03*
Y164174D02*
D03*
X237205Y159449D02*
D03*
Y153149D02*
D03*
X227165Y159055D02*
D03*
Y152755D02*
D03*
X232087Y159055D02*
D03*
Y152755D02*
D03*
X258268Y110629D02*
D03*
Y116929D02*
D03*
X241339Y280118D02*
D03*
Y273818D02*
D03*
X129134Y22047D02*
D03*
Y28347D02*
D03*
X91732Y108071D02*
D03*
Y114371D02*
D03*
D22*
X64764Y13976D02*
D03*
Y21457D02*
D03*
X57087Y17717D02*
D03*
X296063Y77559D02*
D03*
X303740Y81299D02*
D03*
Y73819D02*
D03*
X226181Y272638D02*
D03*
Y280118D02*
D03*
X218504Y276378D02*
D03*
X249016Y280118D02*
D03*
Y272638D02*
D03*
X256693Y276378D02*
D03*
X74803Y111811D02*
D03*
X82480Y115551D02*
D03*
Y108071D02*
D03*
D23*
X57086Y7480D02*
D03*
X63386D02*
D03*
X287008Y189173D02*
D03*
X280708D02*
D03*
X287007Y194095D02*
D03*
X280708D02*
D03*
X292520Y55118D02*
D03*
X286221D02*
D03*
X242913Y266929D02*
D03*
X249213D02*
D03*
X219685Y264961D02*
D03*
X225985D02*
D03*
X274803Y203150D02*
D03*
X268503D02*
D03*
X274803Y209547D02*
D03*
X268503D02*
D03*
X273229Y144095D02*
D03*
X266929D02*
D03*
X303937Y175197D02*
D03*
X297637D02*
D03*
X301969Y149449D02*
D03*
X295669D02*
D03*
X221456Y164644D02*
D03*
X215156D02*
D03*
X215157Y159133D02*
D03*
X221457D02*
D03*
X73622Y7480D02*
D03*
X79922D02*
D03*
X41338Y5906D02*
D03*
X47638D02*
D03*
X136417Y126693D02*
D03*
X142717D02*
D03*
D24*
X43388Y30543D02*
D03*
X48388D02*
D03*
X53388D02*
D03*
X58388D02*
D03*
X63388D02*
D03*
X68388D02*
D03*
X73388D02*
D03*
X78388D02*
D03*
X83388D02*
D03*
X88388D02*
D03*
X93388D02*
D03*
X98388D02*
D03*
X103388D02*
D03*
X108388D02*
D03*
X43384Y99378D02*
D03*
X48384D02*
D03*
X53384D02*
D03*
X58384D02*
D03*
X63384D02*
D03*
X68384D02*
D03*
X73384D02*
D03*
X78384D02*
D03*
X83384D02*
D03*
X88384D02*
D03*
X93384D02*
D03*
X98384D02*
D03*
X103384D02*
D03*
X108384D02*
D03*
D25*
X113309Y42472D02*
D03*
D03*
Y47472D02*
D03*
Y52472D02*
D03*
Y57472D02*
D03*
Y62472D02*
D03*
Y67472D02*
D03*
Y72472D02*
D03*
Y77472D02*
D03*
Y82472D02*
D03*
Y87472D02*
D03*
D26*
X77165Y66929D02*
D03*
X66142D02*
D03*
Y61417D02*
D03*
Y55905D02*
D03*
X71653Y66929D02*
D03*
D27*
Y55905D02*
D03*
X77163Y61417D02*
D03*
X77165Y55905D02*
D03*
X71653Y61417D02*
D03*
D28*
X111811Y139941D02*
D03*
Y147421D02*
D03*
X289961Y126909D02*
D03*
Y119429D02*
D03*
X282480Y126909D02*
D03*
Y119429D02*
D03*
X274803Y126909D02*
D03*
Y119429D02*
D03*
X255118Y55709D02*
D03*
Y48228D02*
D03*
X234055Y213228D02*
D03*
Y220709D02*
D03*
X226181Y220709D02*
D03*
Y213228D02*
D03*
X297638Y156969D02*
D03*
Y164449D02*
D03*
X243110Y145866D02*
D03*
Y138386D02*
D03*
X249410Y138386D02*
D03*
Y145866D02*
D03*
X187795Y171457D02*
D03*
Y178937D02*
D03*
Y191929D02*
D03*
Y184449D02*
D03*
D29*
X221457Y131909D02*
D03*
Y126909D02*
D03*
Y121909D02*
D03*
Y116909D02*
D03*
X243110D02*
D03*
Y121909D02*
D03*
Y126909D02*
D03*
Y131909D02*
D03*
X265354Y164449D02*
D03*
Y159449D02*
D03*
Y154449D02*
D03*
Y149449D02*
D03*
X287007D02*
D03*
Y154449D02*
D03*
Y159449D02*
D03*
Y164449D02*
D03*
X128740Y134941D02*
D03*
Y139941D02*
D03*
Y144941D02*
D03*
Y149941D02*
D03*
X150394D02*
D03*
Y144941D02*
D03*
Y139941D02*
D03*
Y134941D02*
D03*
D30*
X199071Y173503D02*
D03*
X209371Y183803D02*
D03*
X205196Y167378D02*
D03*
X215496Y177679D02*
D03*
D31*
X195535Y158009D02*
D03*
X191080Y162464D02*
D03*
D32*
X236811Y33268D02*
D03*
X233071D02*
D03*
X229331D02*
D03*
Y42323D02*
D03*
X233071D02*
D03*
X236811D02*
D03*
D33*
X233858Y204921D02*
D03*
X235827D02*
D03*
X237795D02*
D03*
X239764D02*
D03*
X241732D02*
D03*
X243701D02*
D03*
X245669D02*
D03*
X247638D02*
D03*
X249606D02*
D03*
X251575D02*
D03*
X253543D02*
D03*
X255512D02*
D03*
Y171457D02*
D03*
X253543D02*
D03*
X251575D02*
D03*
X249606D02*
D03*
X247638D02*
D03*
X245669D02*
D03*
X243701D02*
D03*
X241732D02*
D03*
X239764D02*
D03*
X237795D02*
D03*
X235827D02*
D03*
X233858D02*
D03*
D34*
X261723Y198917D02*
D03*
Y196949D02*
D03*
Y194980D02*
D03*
Y193012D02*
D03*
Y191043D02*
D03*
Y189075D02*
D03*
Y187106D02*
D03*
Y185137D02*
D03*
Y183169D02*
D03*
Y181201D02*
D03*
Y179232D02*
D03*
Y177263D02*
D03*
X228259D02*
D03*
Y179232D02*
D03*
Y181201D02*
D03*
Y183169D02*
D03*
Y185137D02*
D03*
Y187106D02*
D03*
Y189075D02*
D03*
Y191043D02*
D03*
Y193012D02*
D03*
Y194980D02*
D03*
Y196949D02*
D03*
Y198917D02*
D03*
D03*
D35*
X214432Y200259D02*
D03*
X209977Y195804D02*
D03*
D36*
X268503Y220709D02*
D03*
Y230709D02*
D03*
Y240709D02*
D03*
Y250709D02*
D03*
Y260709D02*
D03*
D37*
X175787Y56496D02*
D03*
D38*
X198622Y21260D02*
D03*
X147835D02*
D03*
D39*
X244094Y42323D02*
D03*
Y31299D02*
D03*
X78347Y211811D02*
D03*
Y222835D02*
D03*
D40*
X160433Y162992D02*
D03*
X167913D02*
D03*
X145473Y189764D02*
D03*
X152953D02*
D03*
X167717Y170079D02*
D03*
X160236D02*
D03*
X40632Y21654D02*
D03*
X48112D02*
D03*
Y13780D02*
D03*
X40632D02*
D03*
D41*
X105905Y185827D02*
D03*
X82284D02*
D03*
D42*
X286221Y72638D02*
D03*
Y64370D02*
D03*
D43*
X200236Y280118D02*
D03*
X211260D02*
D03*
X194882Y103740D02*
D03*
X183858D02*
D03*
X274803Y280315D02*
D03*
X263779D02*
D03*
D44*
X246654Y7480D02*
D03*
X216732D02*
D03*
D45*
X231693Y18701D02*
D03*
X226575D02*
D03*
X229134D02*
D03*
X234252D02*
D03*
X236811D02*
D03*
D46*
X219488Y18189D02*
D03*
X243898Y18189D02*
D03*
D47*
X97047Y15551D02*
D03*
X108858D02*
D03*
X114764D02*
D03*
D48*
X120276Y12598D02*
D03*
X91535D02*
D03*
Y4724D02*
D03*
X120276D02*
D03*
D49*
X105905Y114882D02*
D03*
X123110D02*
D03*
D50*
X92520Y231122D02*
D03*
X78347D02*
D03*
D51*
X105118Y210610D02*
D03*
Y231122D02*
D03*
X139764Y210610D02*
D03*
X139764Y231122D02*
D03*
D52*
X160236Y178740D02*
D03*
X169291D02*
D03*
X178347D02*
D03*
D53*
X169291Y203937D02*
D03*
D54*
X125787Y170787D02*
D03*
X145473D02*
D03*
D55*
X143701Y114882D02*
D03*
X135433D02*
D03*
D56*
X210236Y127579D02*
D03*
Y131909D02*
D03*
M02*
