G04*
G04 #@! TF.GenerationSoftware,Altium Limited,Altium Designer,23.3.1 (30)*
G04*
G04 Layer_Physical_Order=1*
G04 Layer_Color=255*
%FSLAX25Y25*%
%MOIN*%
G70*
G04*
G04 #@! TF.SameCoordinates,F1967EA3-8312-49A4-A2FB-0AE49F0FF499*
G04*
G04*
G04 #@! TF.FilePolarity,Positive*
G04*
G01*
G75*
%ADD67C,0.08268*%
%ADD74R,0.17323X0.12992*%
%ADD75R,0.24410X0.15354*%
%ADD76R,0.03100X0.03800*%
%ADD77R,0.04331X0.03150*%
%ADD78R,0.03800X0.03100*%
%ADD79R,0.03543X0.05906*%
%ADD80R,0.05906X0.03543*%
%ADD81R,0.03543X0.03543*%
%ADD82R,0.03543X0.03543*%
%ADD83R,0.05118X0.02756*%
%ADD84R,0.05906X0.01968*%
G04:AMPARAMS|DCode=85|XSize=62.99mil|YSize=49.21mil|CornerRadius=0mil|HoleSize=0mil|Usage=FLASHONLY|Rotation=225.000|XOffset=0mil|YOffset=0mil|HoleType=Round|Shape=Rectangle|*
%AMROTATEDRECTD85*
4,1,4,0.00487,0.03967,0.03967,0.00487,-0.00487,-0.03967,-0.03967,-0.00487,0.00487,0.03967,0.0*
%
%ADD85ROTATEDRECTD85*%

G04:AMPARAMS|DCode=86|XSize=31mil|YSize=38mil|CornerRadius=0mil|HoleSize=0mil|Usage=FLASHONLY|Rotation=45.000|XOffset=0mil|YOffset=0mil|HoleType=Round|Shape=Rectangle|*
%AMROTATEDRECTD86*
4,1,4,0.00248,-0.02439,-0.02439,0.00248,-0.00248,0.02439,0.02439,-0.00248,0.00248,-0.02439,0.0*
%
%ADD86ROTATEDRECTD86*%

%ADD87R,0.02362X0.04724*%
%ADD88R,0.01181X0.04724*%
%ADD89R,0.04724X0.01181*%
G04:AMPARAMS|DCode=90|XSize=31mil|YSize=38mil|CornerRadius=0mil|HoleSize=0mil|Usage=FLASHONLY|Rotation=315.000|XOffset=0mil|YOffset=0mil|HoleType=Round|Shape=Rectangle|*
%AMROTATEDRECTD90*
4,1,4,-0.02439,-0.00248,0.00248,0.02439,0.02439,0.00248,-0.00248,-0.02439,-0.02439,-0.00248,0.0*
%
%ADD90ROTATEDRECTD90*%

%ADD91R,0.07874X0.04331*%
%ADD92R,0.12992X0.17323*%
%ADD93R,0.15354X0.24410*%
%ADD94R,0.02165X0.04134*%
%ADD95R,0.02756X0.05118*%
%ADD96R,0.11417X0.04724*%
%ADD97R,0.04724X0.04724*%
%ADD98R,0.04134X0.02165*%
%ADD99R,0.07087X0.07480*%
%ADD100R,0.01575X0.05315*%
%ADD101R,0.08268X0.06299*%
%ADD102R,0.02756X0.05906*%
%ADD103R,0.03937X0.03150*%
%ADD104R,0.08858X0.08346*%
%ADD105R,0.06299X0.06299*%
%ADD106R,0.06102X0.04724*%
%ADD107R,0.04724X0.06299*%
%ADD108R,0.12992X0.06299*%
%ADD109R,0.11811X0.05906*%
%ADD110R,0.05118X0.13386*%
%ADD111R,0.03937X0.01968*%
%ADD112C,0.01200*%
%ADD113C,0.01100*%
%ADD114C,0.00800*%
%ADD115C,0.01500*%
%ADD116C,0.02000*%
%ADD117C,0.01473*%
%ADD118C,0.02500*%
%ADD119C,0.01000*%
%ADD120C,0.03000*%
%ADD121C,0.06000*%
%ADD122O,0.07874X0.15748*%
%ADD123O,0.15748X0.07874*%
%ADD124O,0.07087X0.14173*%
%ADD125C,0.07874*%
%ADD126O,0.14173X0.07087*%
%ADD127C,0.04724*%
%ADD128C,0.11811*%
%ADD129C,0.03937*%
%ADD130C,0.01968*%
%ADD131C,0.02362*%
G36*
X204331Y294291D02*
Y280118D01*
X202756Y278543D01*
X195401D01*
X194095Y279262D01*
X194095Y291142D01*
Y293622D01*
X195560Y296260D01*
X202362D01*
X204331Y294291D01*
D02*
G37*
G36*
X287795Y291732D02*
Y279528D01*
X284646Y276378D01*
X274803Y276378D01*
X272047Y279134D01*
Y281496D01*
Y291732D01*
X275590Y295276D01*
X284252D01*
X287795Y291732D01*
D02*
G37*
G36*
X234252Y294291D02*
X235039Y293504D01*
Y286221D01*
X232283Y283465D01*
X224410D01*
X221457Y280512D01*
Y275197D01*
X220472Y274213D01*
X211417D01*
X208465Y277165D01*
Y282283D01*
X209646Y283465D01*
X216535D01*
X220472Y287402D01*
X222441Y289370D01*
Y292323D01*
X226378Y296260D01*
X232283D01*
X234252Y294291D01*
D02*
G37*
G36*
X252169Y295276D02*
X266142Y287402D01*
Y277559D01*
X263779Y273622D01*
X255118D01*
X253937Y274803D01*
Y282283D01*
X251969Y284252D01*
X247244D01*
X244882Y286614D01*
Y294094D01*
X246063Y295276D01*
X252169Y295276D01*
D02*
G37*
G36*
X252756Y281102D02*
Y278346D01*
X251969Y277559D01*
X247638D01*
X245669Y275590D01*
Y265748D01*
X244488Y264567D01*
X241339D01*
X240158Y265748D01*
Y270472D01*
X239370Y271260D01*
Y275590D01*
X240158Y276378D01*
X244488D01*
X246063Y277953D01*
Y281496D01*
X246850Y282283D01*
X251575D01*
X252756Y281102D01*
D02*
G37*
G36*
X237008Y275394D02*
Y271850D01*
Y271457D01*
X236221Y270669D01*
X235236D01*
X230315Y265748D01*
Y263779D01*
X228346Y261811D01*
X225000D01*
X224016Y262795D01*
Y275590D01*
X224606Y276181D01*
X236221D01*
X237008Y275394D01*
D02*
G37*
G36*
X111460Y259842D02*
X135809Y236221D01*
X142913D01*
X145669Y234252D01*
Y228346D01*
X143701Y226378D01*
X133661D01*
X108976Y248031D01*
X92520D01*
X90551Y250000D01*
Y257874D01*
X92520Y259842D01*
X111460Y259842D01*
D02*
G37*
G36*
X110236Y234252D02*
Y228346D01*
X108268Y226378D01*
X88583D01*
X86614Y228346D01*
Y234252D01*
X88583Y236221D01*
X108268D01*
X110236Y234252D01*
D02*
G37*
G36*
X41339Y317717D02*
X41339Y246063D01*
X74803Y236221D01*
X82284D01*
X83858Y234646D01*
X83858Y220079D01*
X82284Y218504D01*
X77559Y218504D01*
X76591D01*
X40637Y229390D01*
X29772Y233390D01*
X27559Y236562D01*
X27559Y317717D01*
X28740Y318898D01*
X40157D01*
X41339Y317717D01*
D02*
G37*
G36*
X251089Y228344D02*
Y218587D01*
X250673Y218309D01*
X250551Y218360D01*
X249723D01*
X249544Y218286D01*
X249128Y218564D01*
Y218918D01*
X248812Y219683D01*
X248226Y220268D01*
X247461Y220585D01*
X246633D01*
X245868Y220268D01*
X245283Y219683D01*
X244966Y218918D01*
Y218514D01*
X244427Y217974D01*
X243982Y218237D01*
Y223309D01*
X240112D01*
Y224109D01*
X240982D01*
Y227009D01*
Y229909D01*
X239182D01*
Y229382D01*
X238720Y229190D01*
X237691Y230220D01*
X237882Y230682D01*
X248715Y230717D01*
X251089Y228344D01*
D02*
G37*
G36*
X21260Y322441D02*
X23622Y320079D01*
Y227953D01*
X26772Y224803D01*
X50787D01*
X55118Y220472D01*
X67627D01*
X76384Y217821D01*
X76489Y217811D01*
X76591Y217790D01*
X82284Y217790D01*
X82557Y217845D01*
X82788Y217999D01*
X84363Y219574D01*
X84518Y219806D01*
X84572Y220079D01*
Y220472D01*
X146906D01*
X147142Y220032D01*
X145287Y217249D01*
X135827D01*
X135802Y217244D01*
X135776Y217247D01*
X135666Y217217D01*
X135554Y217195D01*
X135532Y217181D01*
X135508Y217174D01*
X131571Y215205D01*
X131480Y215135D01*
X131385Y215072D01*
X131371Y215050D01*
X131351Y215035D01*
X131294Y214935D01*
X131230Y214840D01*
X131225Y214815D01*
X131213Y214793D01*
X131198Y214679D01*
X131176Y214567D01*
Y209449D01*
X131230Y209176D01*
X131385Y208944D01*
X134535Y205795D01*
X134766Y205640D01*
X135039Y205586D01*
X151772D01*
X152045Y205640D01*
X152276Y205795D01*
X155623Y209141D01*
X155778Y209372D01*
X155832Y209646D01*
Y220472D01*
X172047D01*
X187795Y236221D01*
Y257087D01*
X192520Y261811D01*
X198365D01*
X206333Y253943D01*
X206567Y235507D01*
X211558Y230595D01*
X232920Y230665D01*
X237053Y226532D01*
Y223087D01*
X234555D01*
Y220709D01*
Y218331D01*
X237053D01*
Y217022D01*
X237170Y216437D01*
X237501Y215940D01*
X238234Y215207D01*
Y211249D01*
X236714Y209729D01*
X236382Y209233D01*
X236266Y208647D01*
Y208283D01*
X234769D01*
X234769Y211150D01*
X237314D01*
Y215306D01*
X234769D01*
Y215970D01*
X234764Y215996D01*
X234767Y216021D01*
X234737Y216131D01*
X234715Y216243D01*
X234700Y216265D01*
X234694Y216289D01*
X234623Y216380D01*
X234560Y216475D01*
X234539Y216489D01*
X234523Y216510D01*
X234423Y216566D01*
X234328Y216630D01*
X234303Y216635D01*
X234281Y216647D01*
X232586Y217213D01*
X232472Y217227D01*
X232360Y217249D01*
X218504D01*
X218231Y217195D01*
X217999Y217040D01*
X216125Y215166D01*
X209621D01*
X207669Y217118D01*
X207443Y217269D01*
X207367Y217345D01*
X207266Y217387D01*
X207041Y217538D01*
X206774Y217591D01*
X206674Y217632D01*
X206565D01*
X206299Y217685D01*
X206033Y217632D01*
X205924D01*
X205824Y217591D01*
X205558Y217538D01*
X205332Y217387D01*
X205232Y217345D01*
X205155Y217269D01*
X204929Y217118D01*
X204779Y216892D01*
X204702Y216815D01*
X204660Y216715D01*
X204509Y216489D01*
X204456Y216223D01*
X204415Y216123D01*
Y216014D01*
X204362Y215748D01*
X204415Y215482D01*
Y215373D01*
X204456Y215273D01*
X204509Y215007D01*
X204660Y214781D01*
X204702Y214681D01*
X204779Y214604D01*
X204929Y214378D01*
X207449Y211859D01*
X208078Y211439D01*
X208819Y211291D01*
X211597D01*
X211788Y210829D01*
X201933Y200974D01*
X201509Y201257D01*
X201656Y201612D01*
X200356D01*
Y200312D01*
X200711Y200459D01*
X200994Y200035D01*
X191816Y190857D01*
X191354Y191049D01*
Y191429D01*
X188295D01*
Y189551D01*
X189857D01*
X190048Y189089D01*
X189271Y188312D01*
X176772Y188312D01*
X176498Y188258D01*
X176267Y188103D01*
X173708Y185544D01*
X173553Y185312D01*
X173499Y185039D01*
X173499Y174606D01*
X173553Y174333D01*
X173708Y174102D01*
X173708Y174102D01*
X174495Y173314D01*
X174727Y173160D01*
X175000Y173105D01*
X184236Y173105D01*
Y171957D01*
X187795D01*
X191354D01*
Y173105D01*
X191535D01*
X191809Y173160D01*
X192040Y173314D01*
X197355Y178629D01*
X197510Y178861D01*
X197564Y179134D01*
Y185717D01*
X203151Y191307D01*
X203612Y191061D01*
X203589Y190945D01*
Y188056D01*
X203705Y187471D01*
X204037Y186975D01*
X206055Y184957D01*
X205202Y184104D01*
X205016Y184163D01*
X204740Y184349D01*
Y185040D01*
X204438Y185770D01*
X203880Y186328D01*
X203506Y186483D01*
Y184646D01*
Y182809D01*
X203880Y182964D01*
X204008Y183091D01*
X204414Y183316D01*
X204677Y183053D01*
X208884Y178846D01*
X208741Y178405D01*
X207974Y177637D01*
X207642Y177141D01*
X207526Y176556D01*
Y171871D01*
X206836Y171182D01*
X205683Y172335D01*
X200239Y166891D01*
X201392Y165737D01*
X200493Y164839D01*
X200162Y164343D01*
X200045Y163757D01*
Y163626D01*
X198115Y161695D01*
X197691D01*
X197106Y161579D01*
X196610Y161247D01*
X196044Y160681D01*
X195287Y161438D01*
X192105Y158256D01*
X195782Y154579D01*
X198964Y157761D01*
X198589Y158136D01*
X198713Y158526D01*
X198788Y158644D01*
X199333Y158753D01*
X199830Y159084D01*
X202656Y161911D01*
X202988Y162407D01*
X203104Y162992D01*
Y163124D01*
X203555Y163575D01*
X204708Y162421D01*
X210153Y167865D01*
X208999Y169019D01*
X210137Y170156D01*
X210311Y170417D01*
X210811Y170266D01*
Y170039D01*
X211143Y169237D01*
X211757Y168623D01*
X212242Y168422D01*
Y170472D01*
Y172523D01*
X211757Y172321D01*
X211143Y171708D01*
X211085Y171566D01*
X210584Y171666D01*
Y175923D01*
X210984Y176322D01*
X212031Y175275D01*
X214966Y178209D01*
X215496Y177679D01*
X216026Y178209D01*
X218473Y175762D01*
X219567Y176855D01*
X220029Y176664D01*
Y166894D01*
X218856D01*
Y162394D01*
X220029D01*
Y161382D01*
X218857D01*
Y156883D01*
X224057D01*
Y161382D01*
X222884D01*
Y162394D01*
X224056D01*
Y166894D01*
X222884D01*
Y173929D01*
X223384Y174132D01*
X226068Y171447D01*
Y171279D01*
X226355Y170586D01*
X226885Y170056D01*
X227578Y169769D01*
X228328D01*
X229020Y170056D01*
X229550Y170586D01*
X229837Y171279D01*
Y172028D01*
X229550Y172721D01*
X229020Y173251D01*
X228328Y173538D01*
X228159D01*
X226374Y175323D01*
X226565Y175785D01*
X228259D01*
X228824Y175898D01*
X228937Y175973D01*
X231321D01*
Y177942D01*
Y181691D01*
X232121D01*
X232686Y181803D01*
X233166Y182124D01*
X234904Y183861D01*
X235224Y184341D01*
X235337Y184906D01*
Y201559D01*
X237417D01*
Y201859D01*
X254961D01*
X255140Y201359D01*
X254886Y200979D01*
X254770Y200394D01*
Y196542D01*
X254886Y195957D01*
X255218Y195460D01*
X256780Y193899D01*
X257276Y193567D01*
X257861Y193451D01*
X258661D01*
Y189752D01*
Y185816D01*
Y181878D01*
Y177330D01*
X258161Y177016D01*
X257792Y177089D01*
X256881D01*
X256315Y176977D01*
X255836Y176656D01*
X254466Y175287D01*
X254153Y174819D01*
X254043D01*
Y174293D01*
X254033Y174242D01*
X254033Y174242D01*
Y171457D01*
X253053D01*
X253043Y171508D01*
Y174819D01*
X251953D01*
Y174819D01*
X251907Y174822D01*
X251714Y175336D01*
X252620Y176242D01*
X252941Y176722D01*
X253053Y177287D01*
Y179314D01*
X253515Y179506D01*
X253600Y179420D01*
X253974Y179265D01*
Y181102D01*
Y182939D01*
X253600Y182784D01*
X253515Y182699D01*
X253053Y182891D01*
Y194483D01*
X253172Y194602D01*
X253459Y195294D01*
Y196044D01*
X253172Y196737D01*
X252642Y197267D01*
X251950Y197554D01*
X251200D01*
X250507Y197267D01*
X249977Y196737D01*
X249691Y196044D01*
Y195294D01*
X249977Y194602D01*
X250096Y194483D01*
Y188081D01*
X249635Y187889D01*
X249077Y188447D01*
X248597Y188767D01*
X248031Y188880D01*
X239375D01*
X239256Y188999D01*
X238564Y189286D01*
X237814D01*
X237122Y188999D01*
X236592Y188469D01*
X236305Y187776D01*
Y187027D01*
X236592Y186334D01*
X237122Y185804D01*
X237814Y185517D01*
X238564D01*
X239256Y185804D01*
X239375Y185923D01*
X247419D01*
X247734Y185608D01*
Y179475D01*
X244624Y176364D01*
X244303Y175885D01*
X244191Y175319D01*
Y174519D01*
X235856D01*
X235649Y175019D01*
X237105Y176474D01*
X238184D01*
X238303Y176355D01*
X238995Y176068D01*
X239745D01*
X240437Y176355D01*
X240967Y176885D01*
X241254Y177578D01*
Y178328D01*
X240967Y179020D01*
X240437Y179550D01*
X239745Y179837D01*
X238995D01*
X238303Y179550D01*
X238184Y179431D01*
X236492D01*
X235926Y179319D01*
X235447Y178998D01*
X232813Y176364D01*
X232492Y175885D01*
X232380Y175319D01*
Y171457D01*
X232492Y170891D01*
X232568Y170778D01*
Y168801D01*
X228740D01*
X228174Y168689D01*
X227695Y168368D01*
X226120Y166793D01*
X225799Y166314D01*
X225687Y165748D01*
Y161655D01*
X224915D01*
Y156455D01*
X229415D01*
Y156455D01*
X229837D01*
Y156455D01*
X234337D01*
Y161655D01*
X233565D01*
Y163758D01*
X233683Y163876D01*
X235416D01*
X235465Y163848D01*
X235788Y163376D01*
X235726Y163067D01*
Y162049D01*
X234955D01*
Y156849D01*
X237811D01*
X238002Y156387D01*
X237364Y155749D01*
X234955D01*
Y150549D01*
X239455D01*
Y153338D01*
X239573Y153418D01*
X240073Y153154D01*
Y150549D01*
X240073D01*
X240073Y150049D01*
X240022Y149972D01*
X238258D01*
X237692Y149860D01*
X237212Y149539D01*
X234821Y147148D01*
X213391D01*
X213272Y147267D01*
X212579Y147554D01*
X211830D01*
X211137Y147267D01*
X210607Y146737D01*
X210320Y146044D01*
Y145294D01*
X210607Y144602D01*
X211137Y144072D01*
X211830Y143785D01*
X212579D01*
X213272Y144072D01*
X213391Y144191D01*
X223794D01*
X223946Y143691D01*
X223758Y143565D01*
X219298Y139105D01*
X209352D01*
Y142520D01*
X209240Y143085D01*
X208919Y143565D01*
X206990Y145494D01*
Y148127D01*
X229233D01*
X229799Y148239D01*
X230278Y148560D01*
X230360Y148641D01*
X230521Y148749D01*
X231927Y150155D01*
X234337D01*
Y155355D01*
X229915D01*
X229837Y155355D01*
Y155355D01*
X229415D01*
Y155355D01*
X224915D01*
Y154234D01*
X203007D01*
X202441Y154121D01*
X201961Y153800D01*
X201317Y153156D01*
X200996Y152676D01*
X200884Y152111D01*
Y144882D01*
X200996Y144316D01*
X201317Y143836D01*
X204427Y140726D01*
Y136471D01*
X204540Y135905D01*
X204860Y135426D01*
X205504Y134781D01*
X205984Y134461D01*
X206550Y134348D01*
X226354D01*
X237073Y123630D01*
X237552Y123309D01*
X238118Y123197D01*
X239458D01*
Y120225D01*
X246763D01*
Y120431D01*
X255080D01*
X255518Y120518D01*
X256018Y120236D01*
Y118408D01*
X255218D01*
X255117Y118388D01*
X246763D01*
Y118594D01*
X239458D01*
Y115225D01*
X246763D01*
Y115431D01*
X255198D01*
X255299Y115451D01*
X256018D01*
Y114330D01*
X260518D01*
Y115451D01*
X262314D01*
X262600Y115165D01*
X263365Y114848D01*
X264065D01*
Y112567D01*
X260518D01*
Y113230D01*
X256018D01*
Y112567D01*
X195526D01*
X194785Y112419D01*
X194156Y111999D01*
X193512Y111355D01*
X193092Y110726D01*
X192945Y109985D01*
Y105523D01*
X192115D01*
Y101957D01*
X194130D01*
X194141Y101950D01*
X194882Y101803D01*
X195623Y101950D01*
X195634Y101957D01*
X197649D01*
Y105523D01*
X196819D01*
Y108692D01*
X207298D01*
X207576Y108277D01*
X207565Y108249D01*
Y108080D01*
X184821Y85337D01*
X177953D01*
X177387Y85224D01*
X176907Y84904D01*
X134714Y42710D01*
X134252Y42902D01*
Y87892D01*
X177160D01*
X177279Y87773D01*
X177972Y87486D01*
X178721D01*
X179414Y87773D01*
X179944Y88303D01*
X180231Y88995D01*
Y89745D01*
X179944Y90437D01*
X179414Y90968D01*
X179171Y91068D01*
Y91609D01*
X179414Y91710D01*
X179944Y92240D01*
X180231Y92932D01*
Y93682D01*
X179944Y94374D01*
X179414Y94905D01*
X178721Y95191D01*
X177972D01*
X177279Y94905D01*
X177160Y94785D01*
X129624D01*
X120079Y104331D01*
X42520D01*
X14567Y132283D01*
X3937D01*
Y316929D01*
X9843Y322835D01*
X20854D01*
X21260Y322441D01*
D02*
G37*
G36*
X155118Y250787D02*
Y209646D01*
X151772Y206299D01*
X135039D01*
X131890Y209449D01*
Y214567D01*
X135827Y216535D01*
X145669D01*
X149606Y222441D01*
Y246063D01*
X133858D01*
X129921Y250000D01*
Y257874D01*
X133858Y261811D01*
X149606D01*
X155118Y250787D01*
D02*
G37*
G36*
X263866Y227843D02*
X268566D01*
X268773Y227343D01*
X268481Y227052D01*
X268195Y226359D01*
Y225609D01*
X268481Y224917D01*
X269011Y224387D01*
X269042Y224374D01*
X268943Y223874D01*
X263566D01*
Y221459D01*
X268503D01*
X273440D01*
Y221638D01*
X274017D01*
X274746Y221940D01*
X275304Y222498D01*
X275459Y222872D01*
X273622D01*
Y224372D01*
X275764D01*
X275854Y224506D01*
X294829D01*
X309055Y212831D01*
Y167017D01*
X308593Y166826D01*
X307591Y167827D01*
X307360Y167982D01*
X307087Y168036D01*
X284449D01*
X284176Y167982D01*
X283944Y167827D01*
X281976Y165859D01*
X281821Y165628D01*
X281767Y165354D01*
Y164277D01*
X276796Y159307D01*
X276321Y158596D01*
X276154Y157757D01*
Y147134D01*
X276129Y146644D01*
X273011D01*
X272819Y147106D01*
X273880Y148167D01*
X274201Y148647D01*
X274313Y149213D01*
Y153805D01*
X274201Y154371D01*
X273880Y154850D01*
X273236Y155495D01*
X272756Y155815D01*
X272190Y155928D01*
X269007D01*
Y156133D01*
X261701D01*
Y152765D01*
X269007D01*
Y152971D01*
X271356D01*
Y149825D01*
X269943Y148412D01*
X269307D01*
Y148949D01*
X261401D01*
Y147465D01*
X261401Y147465D01*
X261401D01*
X261136Y147085D01*
X260423Y146372D01*
X260255D01*
X259563Y146086D01*
X259033Y145555D01*
X258896Y145227D01*
X258397Y145327D01*
Y156868D01*
X259499Y157971D01*
X261701D01*
Y157765D01*
X269007D01*
Y161133D01*
X261701D01*
Y160928D01*
X258887D01*
X258321Y160815D01*
X257842Y160495D01*
X257059Y159711D01*
X256596Y159903D01*
Y161592D01*
X257975Y162971D01*
X261701D01*
Y162765D01*
X269007D01*
Y165451D01*
X270079D01*
X270644Y165563D01*
X271124Y165884D01*
X273841Y168600D01*
X275192D01*
X275311Y168481D01*
X276003Y168194D01*
X276753D01*
X277445Y168481D01*
X277975Y169011D01*
X278262Y169704D01*
Y170454D01*
X277975Y171146D01*
X277445Y171676D01*
X276753Y171963D01*
X276003D01*
X275311Y171676D01*
X275192Y171557D01*
X273228D01*
X272663Y171445D01*
X272183Y171124D01*
X269466Y168407D01*
X256802D01*
Y170778D01*
X256878Y170891D01*
X256990Y171457D01*
Y173615D01*
X257354Y173959D01*
X260704Y170608D01*
X261184Y170288D01*
X261750Y170175D01*
X262593D01*
X262712Y170056D01*
X263405Y169769D01*
X264154D01*
X264847Y170056D01*
X265377Y170586D01*
X265664Y171279D01*
Y172028D01*
X265377Y172721D01*
X264847Y173251D01*
X264154Y173538D01*
X263405D01*
X262712Y173251D01*
X262593Y173132D01*
X262362D01*
X259983Y175511D01*
X260174Y175973D01*
X264785D01*
Y177942D01*
Y181742D01*
X277758D01*
X278249Y181644D01*
X278249Y181644D01*
X279049D01*
Y180471D01*
X283549D01*
Y184742D01*
X290654D01*
X292037Y183359D01*
X289969Y181291D01*
X289549Y180663D01*
X289401Y179921D01*
Y177165D01*
X289549Y176424D01*
X289969Y175795D01*
X291937Y173827D01*
X292566Y173407D01*
X293307Y173260D01*
X295037D01*
Y172947D01*
X300237D01*
Y177447D01*
X295037D01*
Y177134D01*
X294110D01*
X293276Y177968D01*
Y179119D01*
X295858Y181701D01*
X296009Y181927D01*
X296086Y182003D01*
X296127Y182104D01*
X296278Y182329D01*
X296331Y182596D01*
X296372Y182696D01*
Y182805D01*
X296425Y183071D01*
X296372Y183337D01*
Y183446D01*
X296331Y183546D01*
X296278Y183812D01*
X296127Y184038D01*
X296086Y184138D01*
X296009Y184215D01*
X295858Y184441D01*
X295632Y184591D01*
X295555Y184668D01*
X295455Y184710D01*
X295230Y184861D01*
X294963Y184914D01*
X294863Y184955D01*
X294767D01*
X292385Y187337D01*
X292319Y187420D01*
X292359Y187921D01*
X292467Y187994D01*
X293014Y188540D01*
X299346D01*
X299523Y188363D01*
X300216Y188076D01*
X300965D01*
X301658Y188363D01*
X302188Y188893D01*
X302475Y189586D01*
Y190335D01*
X302188Y191028D01*
X301771Y191445D01*
X302188Y191862D01*
X302475Y192554D01*
Y193304D01*
X302188Y193997D01*
X301658Y194527D01*
X300965Y194813D01*
X300216D01*
X299523Y194527D01*
X299346Y194350D01*
X293014D01*
X292089Y195274D01*
X291548Y195636D01*
X290910Y195763D01*
X289608D01*
Y196344D01*
X284407D01*
Y191844D01*
X284407D01*
X284408Y191423D01*
X284408D01*
Y187801D01*
X283308D01*
Y191423D01*
X283308D01*
X283308Y191844D01*
X283308D01*
Y196344D01*
X278108D01*
Y195624D01*
X272463D01*
X271878Y195508D01*
X271381Y195176D01*
X270746Y194541D01*
X264785D01*
Y195358D01*
X265085D01*
Y197439D01*
X267859D01*
X268425Y197551D01*
X268905Y197872D01*
X269549Y198516D01*
X269869Y198996D01*
X269982Y199561D01*
Y200900D01*
X271104D01*
Y205400D01*
X269982D01*
Y206497D01*
X269982Y206499D01*
Y207297D01*
X271103D01*
Y211441D01*
X271603Y211690D01*
X271903Y211487D01*
Y210297D01*
X274803D01*
Y209547D01*
X275553D01*
Y206997D01*
X277703D01*
Y209849D01*
X278165Y210040D01*
X284851Y203355D01*
X285076Y203204D01*
X285153Y203127D01*
X285253Y203085D01*
X285479Y202935D01*
X285745Y202882D01*
X285846Y202840D01*
X285954D01*
X286221Y202787D01*
X286487Y202840D01*
X286595D01*
X286696Y202882D01*
X286962Y202935D01*
X287188Y203085D01*
X287288Y203127D01*
X287365Y203204D01*
X287590Y203355D01*
X287741Y203580D01*
X287818Y203657D01*
X287859Y203757D01*
X288010Y203983D01*
X288063Y204249D01*
X288105Y204350D01*
Y204458D01*
X288158Y204724D01*
X288105Y204991D01*
Y205099D01*
X288063Y205200D01*
X288010Y205466D01*
X287859Y205692D01*
X287818Y205792D01*
X287741Y205869D01*
X287590Y206094D01*
X278536Y215149D01*
X277907Y215568D01*
X277166Y215716D01*
X269265D01*
X268917Y215860D01*
X268089D01*
X267324Y215543D01*
X266739Y214958D01*
X266422Y214193D01*
Y213365D01*
X266566Y213018D01*
Y211797D01*
X265903D01*
Y207297D01*
X267025D01*
Y206497D01*
X267025Y206495D01*
Y205400D01*
X265903D01*
Y200900D01*
X267025D01*
Y200395D01*
X261723D01*
X261157Y200283D01*
X261045Y200208D01*
X258983D01*
X258776Y200708D01*
X261506Y203437D01*
X261837Y203934D01*
X261954Y204519D01*
Y228894D01*
X262239Y229179D01*
X263866D01*
Y227843D01*
D02*
G37*
G36*
X234055Y215970D02*
X234055Y202519D01*
X233702Y202165D01*
X233071Y202165D01*
Y207087D01*
X217913D01*
X208929Y198097D01*
X208542Y198371D01*
X208743Y198856D01*
X207443D01*
Y197556D01*
X207928Y197757D01*
X208203Y197371D01*
X196850Y186013D01*
Y179134D01*
X191535Y173819D01*
X175000Y173819D01*
X174213Y174606D01*
X174213Y185039D01*
X176772Y187598D01*
X189567Y187598D01*
X214567Y212598D01*
X218504Y216535D01*
X232360D01*
X234055Y215970D01*
D02*
G37*
G36*
X232357Y202165D02*
X232380Y202051D01*
Y185578D01*
X232094Y185348D01*
X231621Y185556D01*
Y186728D01*
X231321D01*
Y191721D01*
Y195658D01*
Y200208D01*
X225196D01*
Y197626D01*
Y192572D01*
X222290D01*
X222063Y192912D01*
Y193702D01*
X221809Y194315D01*
X222322Y194827D01*
X222523Y195313D01*
X218422D01*
X218623Y194827D01*
X218708Y194743D01*
X218397Y194431D01*
X218181Y193910D01*
X217673Y194011D01*
X213933D01*
X212650Y195295D01*
X213407Y196052D01*
X210741Y198718D01*
X210992Y199059D01*
X211506Y199084D01*
X211851Y198739D01*
X213902Y200789D01*
X215952Y202840D01*
X215315Y203477D01*
X218209Y206373D01*
X232357D01*
Y202165D01*
D02*
G37*
G36*
X309055Y165354D02*
X309055D01*
Y163386D01*
X307087Y161417D01*
X284449D01*
X282480Y163386D01*
Y165354D01*
X284449Y167323D01*
X307087D01*
X309055Y165354D01*
D02*
G37*
G36*
X309055Y161723D02*
Y140255D01*
X308892D01*
X308200Y139968D01*
X308187Y139955D01*
X298536D01*
X298311Y140180D01*
X297619Y140467D01*
X296869D01*
X296177Y140180D01*
X295647Y139650D01*
X295360Y138958D01*
Y138208D01*
X295647Y137515D01*
X296177Y136985D01*
X296869Y136698D01*
X297619D01*
X298311Y136985D01*
X298324Y136998D01*
X307975D01*
X308200Y136773D01*
X308892Y136486D01*
X309055D01*
Y122738D01*
X304734D01*
X304579Y123007D01*
X304391Y123196D01*
X304598Y123696D01*
X305512D01*
X305785Y123750D01*
X306016Y123905D01*
X307591Y125480D01*
X307746Y125711D01*
X307800Y125984D01*
Y130107D01*
X307773Y130241D01*
X307748Y130376D01*
X307746Y130378D01*
X307746Y130380D01*
X307670Y130494D01*
X307594Y130608D01*
X305811Y132412D01*
X305698Y132489D01*
X305584Y132566D01*
X305582Y132567D01*
X305581Y132568D01*
X305446Y132596D01*
X305312Y132624D01*
X296426Y132726D01*
X295355Y133809D01*
Y136024D01*
X295300Y136297D01*
X295146Y136528D01*
X294914Y136683D01*
X294641Y136737D01*
X279184D01*
X278992Y137199D01*
X279896Y138103D01*
X280372Y138815D01*
X280539Y139653D01*
Y156849D01*
X282893Y159203D01*
X283355Y159011D01*
Y157765D01*
X290660D01*
Y160704D01*
X303356D01*
Y158624D01*
X305906D01*
X308455D01*
Y160774D01*
X308159D01*
X307952Y161274D01*
X308593Y161915D01*
X309055Y161723D01*
D02*
G37*
G36*
X246159Y163386D02*
X246159Y163386D01*
Y162598D01*
X246272Y162033D01*
X246592Y161553D01*
X248116Y160030D01*
Y159861D01*
X248403Y159169D01*
X248933Y158639D01*
X249625Y158352D01*
X250375D01*
X251067Y158639D01*
X251597Y159169D01*
X251884Y159861D01*
Y160611D01*
X251597Y161304D01*
X251371Y161530D01*
X251456Y161770D01*
X251616Y161992D01*
X252402D01*
X253149Y162302D01*
X253271Y162278D01*
X253302Y162263D01*
X253640Y162053D01*
Y144070D01*
X252969D01*
Y145366D01*
X249410D01*
Y145866D01*
X248909D01*
Y148244D01*
X246669D01*
Y148244D01*
X243559D01*
X243452Y148500D01*
X243395Y148744D01*
X243689Y149183D01*
X243801Y149749D01*
Y150549D01*
X244573D01*
Y154820D01*
X245451D01*
X247328Y152943D01*
Y152775D01*
X247615Y152082D01*
X248145Y151552D01*
X248838Y151265D01*
X249587D01*
X250280Y151552D01*
X250810Y152082D01*
X251097Y152775D01*
Y153524D01*
X250810Y154217D01*
X250280Y154747D01*
X249587Y155034D01*
X249419D01*
X247109Y157344D01*
X246629Y157665D01*
X246063Y157777D01*
X244573D01*
Y162049D01*
X243801D01*
Y164545D01*
X244746Y165490D01*
X245067Y165970D01*
X245179Y166535D01*
Y168394D01*
X246159D01*
Y163386D01*
D02*
G37*
G36*
X253740Y138976D02*
Y132874D01*
X250787Y129921D01*
X237992D01*
X235827Y132087D01*
X235827Y139961D01*
X237008Y141142D01*
X251575D01*
X253740Y138976D01*
D02*
G37*
G36*
X294641Y133516D02*
X296124Y132015D01*
X305304Y131910D01*
X307087Y130107D01*
Y125984D01*
X305512Y124409D01*
X270276D01*
X269685Y125000D01*
Y135236D01*
X270472Y136024D01*
X294641D01*
Y133516D01*
D02*
G37*
G36*
X299547Y123196D02*
X299359Y123007D01*
X298929Y122263D01*
X298707Y121433D01*
Y120574D01*
X298929Y119745D01*
X299359Y119001D01*
X299966Y118394D01*
X300126Y118301D01*
Y117801D01*
X299966Y117709D01*
X299359Y117102D01*
X298929Y116358D01*
X298926Y116346D01*
X298726D01*
X298160Y116233D01*
X297680Y115913D01*
X281671Y99904D01*
X242919D01*
X242800Y100023D01*
X242107Y100310D01*
X241357D01*
X240665Y100023D01*
X240135Y99493D01*
X239848Y98800D01*
Y98050D01*
X240135Y97358D01*
X240665Y96828D01*
X241357Y96541D01*
X242107D01*
X242800Y96828D01*
X242919Y96947D01*
X282283D01*
X282849Y97059D01*
X283329Y97380D01*
X299081Y113132D01*
X299359Y113095D01*
X299966Y112488D01*
X300126Y112396D01*
Y111896D01*
X299966Y111803D01*
X299359Y111196D01*
X298929Y110452D01*
X298707Y109622D01*
Y108763D01*
X298929Y107934D01*
X299359Y107190D01*
X299966Y106582D01*
X300126Y106490D01*
Y105990D01*
X299966Y105898D01*
X299359Y105290D01*
X298929Y104547D01*
X298707Y103717D01*
Y102858D01*
X298929Y102028D01*
X299359Y101284D01*
X299966Y100677D01*
X300026Y100642D01*
Y100142D01*
X299904Y100072D01*
X299278Y99446D01*
X298836Y98680D01*
X298689Y98132D01*
X301969D01*
X305249D01*
X305102Y98680D01*
X304659Y99446D01*
X304033Y100072D01*
X303912Y100142D01*
Y100642D01*
X303972Y100677D01*
X304579Y101284D01*
X305009Y102028D01*
X305231Y102858D01*
Y103717D01*
X305009Y104547D01*
X304579Y105290D01*
X303972Y105898D01*
X303812Y105990D01*
Y106490D01*
X303972Y106582D01*
X304579Y107190D01*
X304882Y107714D01*
X309055D01*
Y103937D01*
Y98425D01*
X307110Y91942D01*
X305241Y90551D01*
X296850D01*
X262992Y56693D01*
Y11811D01*
X254331Y3150D01*
X250897D01*
Y11920D01*
X242410D01*
Y3150D01*
X220976D01*
Y11920D01*
X212489D01*
Y3150D01*
X177800D01*
X177511Y3650D01*
X177919Y4356D01*
X178262Y5636D01*
Y6962D01*
X177919Y8242D01*
X177256Y9390D01*
X176319Y10327D01*
X175171Y10990D01*
X173891Y11333D01*
X172566D01*
X171285Y10990D01*
X170138Y10327D01*
X169200Y9390D01*
X168537Y8242D01*
X168194Y6962D01*
Y5636D01*
X168537Y4356D01*
X168946Y3650D01*
X168657Y3150D01*
X138583D01*
X134252Y7480D01*
Y31724D01*
X168091Y65564D01*
X168591Y65356D01*
Y53300D01*
X165354D01*
X164194Y53148D01*
X163113Y52700D01*
X162185Y51988D01*
X161473Y51060D01*
X161025Y49979D01*
X160873Y48819D01*
X161025Y47659D01*
X161473Y46578D01*
X162185Y45650D01*
X163113Y44938D01*
X164194Y44490D01*
X165354Y44337D01*
X172441D01*
X173601Y44490D01*
X174682Y44938D01*
X175610Y45650D01*
X176322Y46578D01*
X176553Y47135D01*
X182984D01*
Y65857D01*
X169092D01*
X168885Y66357D01*
X178215Y75687D01*
X195276D01*
X195841Y75800D01*
X196321Y76120D01*
X203762Y83561D01*
X216252D01*
X216538Y83275D01*
X216915Y83119D01*
Y82578D01*
X216649Y82468D01*
X216119Y81938D01*
X215832Y81245D01*
Y80496D01*
X216119Y79803D01*
X216536Y79386D01*
X216119Y78969D01*
X215832Y78277D01*
Y77527D01*
X216119Y76834D01*
X216649Y76304D01*
X217342Y76017D01*
X218091D01*
X218784Y76304D01*
X218961Y76481D01*
X227994D01*
X230166Y74309D01*
Y51423D01*
X228151Y49408D01*
X227789Y48867D01*
X227662Y48228D01*
Y45385D01*
X227450D01*
Y39261D01*
X227662D01*
Y36330D01*
X227450D01*
Y30206D01*
X227662D01*
Y29254D01*
X227789Y28615D01*
X228151Y28074D01*
X230068Y26157D01*
Y22058D01*
X228362D01*
Y22358D01*
X227325D01*
Y18701D01*
Y15043D01*
X228362D01*
Y15343D01*
X238298D01*
Y22058D01*
X238513Y22469D01*
X239762Y23718D01*
X243110D01*
X243676Y23831D01*
X244156Y24151D01*
X245140Y25136D01*
X245460Y25615D01*
X245573Y26181D01*
Y28532D01*
X245877D01*
Y34066D01*
X242312D01*
Y28532D01*
X242616D01*
Y26794D01*
X242498Y26675D01*
X239150D01*
X238584Y26563D01*
X238104Y26242D01*
X236339Y24477D01*
X235877Y24669D01*
Y26157D01*
X237946Y28226D01*
X238307Y28767D01*
X238434Y29406D01*
Y30206D01*
X238692D01*
Y36330D01*
X238479D01*
Y39261D01*
X238692D01*
Y45385D01*
X238479D01*
Y48228D01*
X238352Y48867D01*
X237991Y49408D01*
X235976Y51423D01*
Y76024D01*
X235849Y76663D01*
X235487Y77204D01*
X230889Y81802D01*
X230348Y82164D01*
X229709Y82291D01*
X218961D01*
X218784Y82468D01*
X218518Y82578D01*
Y83119D01*
X218895Y83275D01*
X219481Y83860D01*
X219798Y84625D01*
Y85453D01*
X219481Y86218D01*
X218895Y86804D01*
X218130Y87120D01*
X217303D01*
X216538Y86804D01*
X216252Y86518D01*
X203150D01*
X202584Y86405D01*
X202104Y86085D01*
X194663Y78644D01*
X177602D01*
X177037Y78531D01*
X176557Y78211D01*
X134714Y36368D01*
X134252Y36559D01*
Y38067D01*
X178565Y82380D01*
X185433D01*
X185999Y82492D01*
X186478Y82813D01*
X209655Y105990D01*
X209824D01*
X210516Y106277D01*
X211046Y106807D01*
X211333Y107499D01*
Y108249D01*
X211322Y108277D01*
X211599Y108692D01*
X256018D01*
Y108029D01*
X260518D01*
Y108692D01*
X265748D01*
X265749Y108693D01*
X288189D01*
X288456Y108746D01*
X288564D01*
X288663Y108787D01*
X288930Y108840D01*
X289156Y108991D01*
X289256Y109032D01*
X289333Y109109D01*
X289559Y109260D01*
X289559Y109260D01*
X289710Y109486D01*
X289786Y109563D01*
X289828Y109663D01*
X289979Y109889D01*
X290032Y110155D01*
X290073Y110255D01*
Y110364D01*
X290126Y110630D01*
X290073Y110896D01*
Y111005D01*
X290032Y111105D01*
X289979Y111371D01*
X289828Y111597D01*
X289786Y111697D01*
X289710Y111774D01*
X289559Y112000D01*
X289333Y112151D01*
X289256Y112227D01*
X289156Y112269D01*
X288930Y112420D01*
X288664Y112473D01*
X288564Y112514D01*
X288455D01*
X288189Y112567D01*
X288188Y112567D01*
X267430D01*
Y114480D01*
X270553Y117603D01*
X270744Y117889D01*
X271244Y117738D01*
Y117051D01*
X274303D01*
Y119429D01*
Y121807D01*
X271546D01*
X271244Y121807D01*
X271046Y122225D01*
Y123137D01*
X271011Y123309D01*
X271329Y123696D01*
X299340D01*
X299547Y123196D01*
D02*
G37*
G36*
X423228Y127953D02*
X426378Y124803D01*
X425984Y124409D01*
Y4331D01*
X424016Y2362D01*
X371261D01*
X371162Y2862D01*
X371596Y3042D01*
X372155Y3600D01*
X372309Y3974D01*
X370472D01*
Y4724D01*
X369722D01*
Y6662D01*
X367732D01*
X351937Y22456D01*
Y32321D01*
X348063D01*
Y21654D01*
X348210Y20912D01*
X348630Y20284D01*
X365559Y3355D01*
X366188Y2935D01*
X366552Y2862D01*
X366503Y2362D01*
X359253D01*
X359070Y2862D01*
X359471Y3263D01*
X359758Y3956D01*
Y4705D01*
X359471Y5398D01*
X358941Y5928D01*
X358249Y6215D01*
X357499D01*
X356807Y5928D01*
X356688Y5809D01*
X324340D01*
X319933Y10216D01*
X320030Y10707D01*
X320133Y10749D01*
X320747Y11363D01*
X320948Y11848D01*
X318898D01*
Y13348D01*
X320948D01*
X320747Y13834D01*
X320580Y14001D01*
Y23622D01*
X320452Y24266D01*
X320087Y24812D01*
X320087Y24812D01*
X318612Y26287D01*
Y29979D01*
X318766Y30352D01*
X316929D01*
Y31852D01*
X318766D01*
X318612Y32226D01*
Y36311D01*
X321957Y39656D01*
X326829D01*
X327203Y39502D01*
Y41339D01*
Y43176D01*
X326829Y43021D01*
X321260D01*
X321260Y43021D01*
X320616Y42893D01*
X320070Y42528D01*
X315739Y38197D01*
X315375Y37652D01*
X315247Y37008D01*
Y32226D01*
X314945Y31497D01*
X314471Y31559D01*
Y37790D01*
X314590Y37909D01*
X314876Y38602D01*
Y39351D01*
X314590Y40044D01*
X314059Y40574D01*
X313367Y40861D01*
X312617D01*
X311925Y40574D01*
X311395Y40044D01*
X311108Y39351D01*
Y38602D01*
X311395Y37909D01*
X311514Y37790D01*
Y15066D01*
X311626Y14500D01*
X311947Y14020D01*
X322682Y3285D01*
X323162Y2965D01*
X323677Y2862D01*
X323628Y2362D01*
X292913D01*
X289370Y5906D01*
Y55489D01*
X289421Y55523D01*
X289920Y55256D01*
Y52868D01*
X295121D01*
Y53436D01*
X320079D01*
X320723Y53564D01*
X321268Y53929D01*
X328650Y61310D01*
X337402D01*
X338045Y61438D01*
X338591Y61803D01*
X341131Y64342D01*
X341618Y64544D01*
X342149Y65074D01*
X342435Y65767D01*
Y66517D01*
X342149Y67209D01*
X341618Y67739D01*
X340926Y68026D01*
X340176D01*
X339484Y67739D01*
X338954Y67209D01*
X338752Y66722D01*
X336705Y64675D01*
X327953D01*
X327953Y64675D01*
X327309Y64546D01*
X326763Y64182D01*
X326763Y64182D01*
X319382Y56800D01*
X295121D01*
Y57368D01*
X291486D01*
X291295Y57830D01*
X305009Y71544D01*
X306606D01*
Y72341D01*
X308858D01*
X309424Y72453D01*
X309904Y72773D01*
X311665Y74534D01*
X312165Y74327D01*
Y73581D01*
X316665D01*
Y78781D01*
X312598D01*
Y79881D01*
X316665D01*
Y85081D01*
X315893D01*
Y96086D01*
X318329Y98522D01*
X325039D01*
X325342Y97997D01*
X325950Y97390D01*
X326110Y97297D01*
Y96797D01*
X325950Y96705D01*
X325342Y96097D01*
X324913Y95354D01*
X324691Y94524D01*
Y93665D01*
X324913Y92835D01*
X325342Y92092D01*
X325950Y91484D01*
X326110Y91392D01*
Y90892D01*
X325950Y90799D01*
X325342Y90192D01*
X324913Y89448D01*
X324691Y88618D01*
Y87760D01*
X324913Y86930D01*
X325342Y86186D01*
X325950Y85579D01*
X326110Y85486D01*
Y84986D01*
X325950Y84894D01*
X325342Y84286D01*
X324913Y83543D01*
X324691Y82713D01*
Y81854D01*
X324913Y81024D01*
X325342Y80280D01*
X325950Y79673D01*
X326010Y79638D01*
Y79138D01*
X325888Y79068D01*
X325262Y78442D01*
X324820Y77676D01*
X324673Y77128D01*
X327953D01*
X331233D01*
X331086Y77676D01*
X330643Y78442D01*
X330017Y79068D01*
X329896Y79138D01*
Y79638D01*
X329956Y79673D01*
X330563Y80280D01*
X330993Y81024D01*
X331215Y81854D01*
Y82713D01*
X330993Y83543D01*
X330563Y84286D01*
X329956Y84894D01*
X329796Y84986D01*
Y85486D01*
X329956Y85579D01*
X330563Y86186D01*
X330993Y86930D01*
X331215Y87760D01*
Y88618D01*
X330993Y89448D01*
X330563Y90192D01*
X329956Y90799D01*
X329796Y90892D01*
Y91392D01*
X329956Y91484D01*
X330563Y92092D01*
X330993Y92835D01*
X331215Y93665D01*
Y94524D01*
X330993Y95354D01*
X330563Y96097D01*
X329956Y96705D01*
X329796Y96797D01*
Y97297D01*
X329956Y97390D01*
X330563Y97997D01*
X330993Y98741D01*
X331215Y99571D01*
Y100429D01*
X330993Y101259D01*
X330563Y102003D01*
X329956Y102610D01*
X329796Y102703D01*
Y103203D01*
X329956Y103295D01*
X330563Y103902D01*
X330993Y104646D01*
X331215Y105476D01*
Y106335D01*
X330993Y107165D01*
X330563Y107909D01*
X329956Y108516D01*
X329212Y108945D01*
X328382Y109168D01*
X327523D01*
X326694Y108945D01*
X325950Y108516D01*
X325342Y107909D01*
X324913Y107165D01*
X324691Y106335D01*
Y105476D01*
X324913Y104646D01*
X325342Y103902D01*
X325950Y103295D01*
X326110Y103203D01*
Y102703D01*
X325950Y102610D01*
X325342Y102003D01*
X325039Y101478D01*
X317717D01*
X317151Y101366D01*
X316671Y101045D01*
X313369Y97743D01*
X313098Y97338D01*
X312783Y97357D01*
X312598Y97421D01*
Y105118D01*
X313779Y106299D01*
Y115839D01*
X313802Y115862D01*
X314089Y116554D01*
Y117304D01*
X313802Y117997D01*
X313779Y118019D01*
Y126772D01*
X314961Y127953D01*
X423228D01*
Y127953D01*
D02*
G37*
G36*
X82677Y68898D02*
Y51575D01*
X80709Y49606D01*
X64961D01*
X61024Y53543D01*
X45669Y38189D01*
Y34496D01*
X43888D01*
Y30543D01*
Y26341D01*
X44094Y26090D01*
X44094Y8456D01*
X42088D01*
Y5906D01*
Y3356D01*
X42860D01*
X43051Y2894D01*
X42520Y2362D01*
X38189Y2362D01*
X32677Y7874D01*
Y11607D01*
X33177Y11874D01*
X33401Y11725D01*
X33502Y11705D01*
Y13780D01*
Y15854D01*
X33401Y15834D01*
X33177Y15685D01*
X32677Y15952D01*
Y19875D01*
X33177Y20142D01*
X33401Y19993D01*
X33502Y19973D01*
Y22047D01*
Y24122D01*
X33401Y24102D01*
X33177Y23952D01*
X32677Y24219D01*
Y27138D01*
X33108Y27398D01*
Y29528D01*
Y31657D01*
X32677Y31917D01*
Y35012D01*
X33108Y35272D01*
Y37402D01*
Y39531D01*
X32677Y39791D01*
Y61024D01*
X43701Y72047D01*
X59842D01*
X62008Y69882D01*
X64961Y72835D01*
X78740D01*
X82677Y68898D01*
D02*
G37*
G36*
X76378Y9055D02*
Y5512D01*
X75590Y4724D01*
X62205D01*
X61024Y5906D01*
Y9055D01*
X61811Y9843D01*
X75590D01*
X76378Y9055D01*
D02*
G37*
G36*
X55512Y33465D02*
Y27165D01*
X59842Y22835D01*
Y5512D01*
X59055Y4724D01*
X55118D01*
X54331Y5512D01*
Y21654D01*
X51181Y24803D01*
Y33465D01*
X51968Y34252D01*
X54724D01*
X55512Y33465D01*
D02*
G37*
G36*
X50394Y33858D02*
Y4331D01*
X49606Y3543D01*
X45669D01*
X45276Y3937D01*
Y7874D01*
X46063Y9775D01*
Y33858D01*
X46457Y34252D01*
X50000D01*
X50394Y33858D01*
D02*
G37*
%LPC*%
G36*
X98388Y258453D02*
Y254293D01*
X102548D01*
X102238Y255449D01*
X101588Y256575D01*
X100669Y257494D01*
X99543Y258144D01*
X98388Y258453D01*
D02*
G37*
G36*
X96888Y258453D02*
X95732Y258144D01*
X94606Y257494D01*
X93687Y256575D01*
X93037Y255449D01*
X92728Y254293D01*
X96888D01*
Y258453D01*
D02*
G37*
G36*
X102548Y252793D02*
X98388D01*
Y248633D01*
X99543Y248943D01*
X100669Y249593D01*
X101588Y250512D01*
X102238Y251638D01*
X102548Y252793D01*
D02*
G37*
G36*
X96888D02*
X92728D01*
X93037Y251638D01*
X93687Y250512D01*
X94606Y249593D01*
X95732Y248943D01*
X96888Y248633D01*
Y252793D01*
D02*
G37*
G36*
X143815Y234484D02*
X140514D01*
Y231872D01*
X143815D01*
Y234484D01*
D02*
G37*
G36*
X139014D02*
X135713D01*
Y231872D01*
X139014D01*
Y234484D01*
D02*
G37*
G36*
X143815Y230372D02*
X140514D01*
Y227760D01*
X143815D01*
Y230372D01*
D02*
G37*
G36*
X139014D02*
X135713D01*
Y227760D01*
X139014D01*
Y230372D01*
D02*
G37*
G36*
X35277Y315961D02*
X35127D01*
Y311524D01*
X39564D01*
Y311674D01*
X39227Y312929D01*
X38577Y314055D01*
X37658Y314974D01*
X36532Y315624D01*
X35277Y315961D01*
D02*
G37*
G36*
X34127D02*
X33977D01*
X32721Y315624D01*
X31595Y314974D01*
X30676Y314055D01*
X30026Y312929D01*
X29690Y311674D01*
Y311524D01*
X34127D01*
Y315961D01*
D02*
G37*
G36*
X39564Y310524D02*
X35127D01*
Y306087D01*
X35277D01*
X36532Y306423D01*
X37658Y307073D01*
X38577Y307992D01*
X39227Y309118D01*
X39564Y310374D01*
Y310524D01*
D02*
G37*
G36*
X34127D02*
X29690D01*
Y310374D01*
X30026Y309118D01*
X30676Y307992D01*
X31595Y307073D01*
X32721Y306423D01*
X33977Y306087D01*
X34127D01*
Y310524D01*
D02*
G37*
G36*
X35296Y272672D02*
X35146D01*
Y268235D01*
X39583D01*
Y268385D01*
X39246Y269641D01*
X38596Y270767D01*
X37677Y271686D01*
X36551Y272336D01*
X35296Y272672D01*
D02*
G37*
G36*
X34146D02*
X33996D01*
X32740Y272336D01*
X31614Y271686D01*
X30695Y270767D01*
X30045Y269641D01*
X29709Y268385D01*
Y268235D01*
X34146D01*
Y272672D01*
D02*
G37*
G36*
X39583Y267235D02*
X35146D01*
Y262798D01*
X35296D01*
X36551Y263135D01*
X37677Y263785D01*
X38596Y264704D01*
X39246Y265830D01*
X39583Y267085D01*
Y267235D01*
D02*
G37*
G36*
X34146D02*
X29709D01*
Y267085D01*
X30045Y265830D01*
X30695Y264704D01*
X31614Y263785D01*
X32740Y263135D01*
X33996Y262798D01*
X34146D01*
Y267235D01*
D02*
G37*
G36*
X244282Y229909D02*
X242482D01*
Y227759D01*
X244282D01*
Y229909D01*
D02*
G37*
G36*
X248781Y227247D02*
Y225947D01*
X250082D01*
X249881Y226432D01*
X249267Y227046D01*
X248781Y227247D01*
D02*
G37*
G36*
X247282D02*
X246796Y227046D01*
X246182Y226432D01*
X245981Y225947D01*
X247282D01*
Y227247D01*
D02*
G37*
G36*
X244282Y226259D02*
X242482D01*
Y224109D01*
X244282D01*
Y226259D01*
D02*
G37*
G36*
X250082Y224447D02*
X248781D01*
Y223147D01*
X249267Y223348D01*
X249881Y223961D01*
X250082Y224447D01*
D02*
G37*
G36*
X247282D02*
X245981D01*
X246182Y223961D01*
X246796Y223348D01*
X247282Y223147D01*
Y224447D01*
D02*
G37*
G36*
X15592Y315961D02*
X15442D01*
Y311524D01*
X19879D01*
Y311674D01*
X19542Y312929D01*
X18892Y314055D01*
X17973Y314974D01*
X16847Y315624D01*
X15592Y315961D01*
D02*
G37*
G36*
X14442D02*
X14292D01*
X13036Y315624D01*
X11910Y314974D01*
X10991Y314055D01*
X10341Y312929D01*
X10005Y311674D01*
Y311524D01*
X14442D01*
Y315961D01*
D02*
G37*
G36*
X19879Y310524D02*
X15442D01*
Y306087D01*
X15592D01*
X16847Y306423D01*
X17973Y307073D01*
X18892Y307992D01*
X19542Y309118D01*
X19879Y310374D01*
Y310524D01*
D02*
G37*
G36*
X14442D02*
X10005D01*
Y310374D01*
X10341Y309118D01*
X10991Y307992D01*
X11910Y307073D01*
X13036Y306423D01*
X14292Y306087D01*
X14442D01*
Y310524D01*
D02*
G37*
G36*
X15611Y272672D02*
X15461D01*
Y268235D01*
X19898D01*
Y268385D01*
X19561Y269641D01*
X18911Y270767D01*
X17992Y271686D01*
X16866Y272336D01*
X15611Y272672D01*
D02*
G37*
G36*
X14461D02*
X14311D01*
X13055Y272336D01*
X11929Y271686D01*
X11010Y270767D01*
X10360Y269641D01*
X10024Y268385D01*
Y268235D01*
X14461D01*
Y272672D01*
D02*
G37*
G36*
X19898Y267235D02*
X15461D01*
Y262798D01*
X15611D01*
X16866Y263135D01*
X17992Y263785D01*
X18911Y264704D01*
X19561Y265830D01*
X19898Y267085D01*
Y267235D01*
D02*
G37*
G36*
X14461D02*
X10024D01*
Y267085D01*
X10360Y265830D01*
X11010Y264704D01*
X11929Y263785D01*
X13055Y263135D01*
X14311Y262798D01*
X14461D01*
Y267235D01*
D02*
G37*
G36*
X9018Y248507D02*
Y247207D01*
X10318D01*
X10117Y247692D01*
X9503Y248306D01*
X9018Y248507D01*
D02*
G37*
G36*
X7518D02*
X7032Y248306D01*
X6419Y247692D01*
X6218Y247207D01*
X7518D01*
Y248507D01*
D02*
G37*
G36*
X18466Y248113D02*
Y246813D01*
X19767D01*
X19566Y247299D01*
X18952Y247912D01*
X18466Y248113D01*
D02*
G37*
G36*
X16966D02*
X16481Y247912D01*
X15868Y247299D01*
X15666Y246813D01*
X16966D01*
Y248113D01*
D02*
G37*
G36*
X10318Y245707D02*
X9018D01*
Y244407D01*
X9503Y244608D01*
X10117Y245221D01*
X10318Y245707D01*
D02*
G37*
G36*
X7518D02*
X6218D01*
X6419Y245221D01*
X7032Y244608D01*
X7518Y244407D01*
Y245707D01*
D02*
G37*
G36*
X19767Y245313D02*
X18466D01*
Y244013D01*
X18952Y244214D01*
X19566Y244828D01*
X19767Y245313D01*
D02*
G37*
G36*
X16966D02*
X15666D01*
X15868Y244828D01*
X16481Y244214D01*
X16966Y244013D01*
Y245313D01*
D02*
G37*
G36*
X18466Y241026D02*
Y239726D01*
X19767D01*
X19566Y240212D01*
X18952Y240825D01*
X18466Y241026D01*
D02*
G37*
G36*
X16966D02*
X16481Y240825D01*
X15868Y240212D01*
X15666Y239726D01*
X16966D01*
Y241026D01*
D02*
G37*
G36*
X9018D02*
Y239726D01*
X10318D01*
X10117Y240212D01*
X9503Y240825D01*
X9018Y241026D01*
D02*
G37*
G36*
X7518D02*
X7032Y240825D01*
X6419Y240212D01*
X6218Y239726D01*
X7518D01*
Y241026D01*
D02*
G37*
G36*
X19767Y238226D02*
X18466D01*
Y236926D01*
X18952Y237127D01*
X19566Y237741D01*
X19767Y238226D01*
D02*
G37*
G36*
X16966D02*
X15666D01*
X15868Y237741D01*
X16481Y237127D01*
X16966Y236926D01*
Y238226D01*
D02*
G37*
G36*
X10318D02*
X9018D01*
Y236926D01*
X9503Y237127D01*
X10117Y237741D01*
X10318Y238226D01*
D02*
G37*
G36*
X7518D02*
X6218D01*
X6419Y237741D01*
X7032Y237127D01*
X7518Y236926D01*
Y238226D01*
D02*
G37*
G36*
X18466Y233940D02*
Y232640D01*
X19767D01*
X19566Y233125D01*
X18952Y233739D01*
X18466Y233940D01*
D02*
G37*
G36*
X16966D02*
X16481Y233739D01*
X15868Y233125D01*
X15666Y232640D01*
X16966D01*
Y233940D01*
D02*
G37*
G36*
X8624D02*
Y232640D01*
X9924D01*
X9723Y233125D01*
X9110Y233739D01*
X8624Y233940D01*
D02*
G37*
G36*
X7124D02*
X6639Y233739D01*
X6025Y233125D01*
X5824Y232640D01*
X7124D01*
Y233940D01*
D02*
G37*
G36*
X19767Y231140D02*
X18466D01*
Y229840D01*
X18952Y230041D01*
X19566Y230654D01*
X19767Y231140D01*
D02*
G37*
G36*
X16966D02*
X15666D01*
X15868Y230654D01*
X16481Y230041D01*
X16966Y229840D01*
Y231140D01*
D02*
G37*
G36*
X9924D02*
X8624D01*
Y229840D01*
X9110Y230041D01*
X9723Y230654D01*
X9924Y231140D01*
D02*
G37*
G36*
X7124D02*
X5824D01*
X6025Y230654D01*
X6639Y230041D01*
X7124Y229840D01*
Y231140D01*
D02*
G37*
G36*
X229740Y223087D02*
X226681D01*
Y221209D01*
X229740D01*
Y223087D01*
D02*
G37*
G36*
X225681D02*
X222622D01*
Y221209D01*
X225681D01*
Y223087D01*
D02*
G37*
G36*
X233555Y223087D02*
X230496D01*
Y221209D01*
X233555D01*
Y223087D01*
D02*
G37*
G36*
X229740Y220209D02*
X226681D01*
Y218331D01*
X229740D01*
Y220209D01*
D02*
G37*
G36*
X225681D02*
X222622D01*
Y218331D01*
X225681D01*
Y220209D01*
D02*
G37*
G36*
X233555Y220209D02*
X230496D01*
Y218331D01*
X233555D01*
Y220209D01*
D02*
G37*
G36*
X86614Y215281D02*
X53150D01*
X53081Y215267D01*
X53011Y215267D01*
X52946Y215240D01*
X52877Y215226D01*
X52818Y215188D01*
X52754Y215161D01*
X46848Y211224D01*
X46798Y211174D01*
X46739Y211135D01*
X46701Y211076D01*
X46651Y211027D01*
X46624Y210962D01*
X46585Y210903D01*
X46571Y210835D01*
X46544Y210770D01*
X46544Y210699D01*
X46530Y210630D01*
Y179134D01*
X46585Y178861D01*
X46739Y178629D01*
X52645Y172724D01*
X52877Y172569D01*
X53150Y172515D01*
X80091D01*
Y145669D01*
X80258Y144830D01*
X80733Y144119D01*
X94119Y130733D01*
X94830Y130258D01*
X95669Y130091D01*
X106695D01*
X107928Y128858D01*
X107737Y128396D01*
X94291D01*
X94291Y128396D01*
X93745Y128287D01*
X93282Y127978D01*
X93282Y127978D01*
X90723Y125419D01*
X90413Y124956D01*
X90305Y124409D01*
X90305Y124409D01*
Y116971D01*
X89482D01*
Y111771D01*
X93982D01*
Y116971D01*
X93160D01*
Y123818D01*
X94883Y125541D01*
X111333D01*
X111592Y124917D01*
X112122Y124387D01*
X112814Y124100D01*
X113564D01*
X114256Y124387D01*
X114786Y124917D01*
X115073Y125609D01*
Y126359D01*
X114786Y127052D01*
X114312Y127526D01*
X114352Y127786D01*
X114465Y128026D01*
X120866D01*
X121139Y128081D01*
X121371Y128235D01*
X122840Y129705D01*
X123302Y129513D01*
Y126280D01*
X117606Y120583D01*
X117451Y120352D01*
X117396Y120079D01*
Y109449D01*
X117451Y109176D01*
X117606Y108944D01*
X120165Y106385D01*
X120396Y106230D01*
X120669Y106176D01*
X136614D01*
X136887Y106230D01*
X137119Y106385D01*
X138223Y107489D01*
X138692D01*
X139050Y107146D01*
Y106299D01*
X139104Y106026D01*
X139259Y105795D01*
X141228Y103826D01*
X141459Y103671D01*
X141732Y103617D01*
X157874D01*
X158147Y103671D01*
X158379Y103826D01*
X161922Y107369D01*
X162077Y107601D01*
X162131Y107874D01*
Y155216D01*
X164678Y157763D01*
X164833Y157995D01*
X164887Y158268D01*
Y165934D01*
X165387Y166194D01*
X165530Y166094D01*
X165535Y166081D01*
Y163492D01*
X170291D01*
Y166551D01*
X170095D01*
Y169579D01*
X167717D01*
Y170079D01*
X167217D01*
Y173638D01*
X165387D01*
X164887Y173755D01*
Y183465D01*
X164833Y183738D01*
X164678Y183969D01*
X163103Y185544D01*
X162872Y185699D01*
X162598Y185753D01*
X155447D01*
X155331Y186205D01*
X155331Y186253D01*
Y189264D01*
X150575D01*
Y186253D01*
X150575Y186205D01*
X150458Y185753D01*
X149902D01*
X149533Y186122D01*
Y193701D01*
X149478Y193974D01*
X149324Y194205D01*
X149323Y194205D01*
X148143Y195387D01*
X147911Y195541D01*
X147638Y195596D01*
X139764D01*
X139491Y195541D01*
X139259Y195387D01*
X135322Y191449D01*
X135167Y191218D01*
X135113Y190945D01*
Y165354D01*
X135167Y165081D01*
X135322Y164850D01*
X139259Y160913D01*
X139491Y160758D01*
X139764Y160704D01*
X153248Y160704D01*
X154798Y159153D01*
Y154257D01*
X145669D01*
X145396Y154203D01*
X145165Y154048D01*
X145010Y153816D01*
X144956Y153543D01*
Y147638D01*
X145010Y147365D01*
X145165Y147133D01*
X145952Y146346D01*
X146184Y146191D01*
X146457Y146137D01*
X146741D01*
Y143257D01*
X154046D01*
Y146137D01*
X155586D01*
Y137072D01*
X155086Y136869D01*
X154442Y137513D01*
X154210Y137667D01*
X153937Y137722D01*
X147047Y137722D01*
X146921Y137697D01*
X146794Y137675D01*
X146785Y137669D01*
X146774Y137667D01*
X146667Y137596D01*
X146558Y137528D01*
X140190Y131534D01*
X139717Y131703D01*
X139690Y131726D01*
Y134646D01*
X139636Y134919D01*
X139481Y135150D01*
X137513Y137119D01*
X137281Y137274D01*
X137008Y137328D01*
X135054D01*
X134862Y137790D01*
X135150Y138078D01*
X135305Y138310D01*
X135359Y138583D01*
Y140945D01*
X135305Y141218D01*
X135150Y141449D01*
X134363Y142237D01*
X134131Y142392D01*
X133858Y142446D01*
X108268D01*
X107995Y142392D01*
X107763Y142237D01*
X106582Y141056D01*
X106427Y140824D01*
X106373Y140551D01*
Y134476D01*
X96577D01*
X84476Y146577D01*
Y172515D01*
X84646D01*
X84919Y172569D01*
X85150Y172724D01*
X91056Y178629D01*
X91211Y178861D01*
X91265Y179134D01*
Y210630D01*
X91211Y210903D01*
X91056Y211135D01*
X87119Y215072D01*
X86887Y215226D01*
X86614Y215281D01*
D02*
G37*
G36*
X41551Y221866D02*
X29096D01*
Y213939D01*
X41551D01*
Y221866D01*
D02*
G37*
G36*
X27596D02*
X15142D01*
Y213939D01*
X27596D01*
Y221866D01*
D02*
G37*
G36*
X109169Y213972D02*
X105618D01*
Y211110D01*
X109169D01*
Y213972D01*
D02*
G37*
G36*
X104618D02*
X101067D01*
Y211110D01*
X104618D01*
Y213972D01*
D02*
G37*
G36*
X121616Y208743D02*
Y207443D01*
X122916D01*
X122715Y207928D01*
X122102Y208542D01*
X121616Y208743D01*
D02*
G37*
G36*
X120116D02*
X119631Y208542D01*
X119017Y207928D01*
X118816Y207443D01*
X120116D01*
Y208743D01*
D02*
G37*
G36*
X109169Y210110D02*
X105618D01*
Y207248D01*
X109169D01*
Y210110D01*
D02*
G37*
G36*
X104618D02*
X101067D01*
Y207248D01*
X104618D01*
Y210110D01*
D02*
G37*
G36*
X200356Y208349D02*
Y207049D01*
X201656D01*
X201455Y207535D01*
X200842Y208148D01*
X200356Y208349D01*
D02*
G37*
G36*
X198856D02*
X198371Y208148D01*
X197757Y207535D01*
X197556Y207049D01*
X198856D01*
Y208349D01*
D02*
G37*
G36*
X192482D02*
Y207049D01*
X193782D01*
X193581Y207535D01*
X192968Y208148D01*
X192482Y208349D01*
D02*
G37*
G36*
X190982D02*
X190497Y208148D01*
X189883Y207535D01*
X189682Y207049D01*
X190982D01*
Y208349D01*
D02*
G37*
G36*
X122916Y205943D02*
X121616D01*
Y204643D01*
X122102Y204844D01*
X122715Y205457D01*
X122916Y205943D01*
D02*
G37*
G36*
X120116D02*
X118816D01*
X119017Y205457D01*
X119631Y204844D01*
X120116Y204643D01*
Y205943D01*
D02*
G37*
G36*
X41551Y212439D02*
X29096D01*
Y204512D01*
X41551D01*
Y212439D01*
D02*
G37*
G36*
X27596D02*
X15142D01*
Y204512D01*
X27596D01*
Y212439D01*
D02*
G37*
G36*
X176787Y208087D02*
X169791D01*
Y204437D01*
X176787D01*
Y208087D01*
D02*
G37*
G36*
X168791D02*
X161795D01*
Y204437D01*
X168791D01*
Y208087D01*
D02*
G37*
G36*
X201656Y205549D02*
X197556D01*
X197757Y205064D01*
X198164Y204657D01*
X198315Y204331D01*
X198164Y204004D01*
X197757Y203598D01*
X197556Y203112D01*
X201656D01*
X201455Y203598D01*
X201049Y204004D01*
X200897Y204331D01*
X201049Y204657D01*
X201455Y205064D01*
X201656Y205549D01*
D02*
G37*
G36*
X193782D02*
X189682D01*
X189883Y205064D01*
X190290Y204657D01*
X190441Y204331D01*
X190290Y204004D01*
X189883Y203598D01*
X189682Y203112D01*
X193782D01*
X193581Y203598D01*
X193175Y204004D01*
X193023Y204331D01*
X193175Y204657D01*
X193581Y205064D01*
X193782Y205549D01*
D02*
G37*
G36*
X198856Y201612D02*
X197556D01*
X197757Y201127D01*
X198371Y200513D01*
X198856Y200312D01*
Y201612D01*
D02*
G37*
G36*
X193782D02*
X192482D01*
Y200312D01*
X192968Y200513D01*
X193581Y201127D01*
X193782Y201612D01*
D02*
G37*
G36*
X190982D02*
X189682D01*
X189883Y201127D01*
X190497Y200513D01*
X190982Y200312D01*
Y201612D01*
D02*
G37*
G36*
X176787Y203437D02*
X169791D01*
Y199787D01*
X176787D01*
Y203437D01*
D02*
G37*
G36*
X168791D02*
X161795D01*
Y199787D01*
X168791D01*
Y203437D01*
D02*
G37*
G36*
X121616Y200869D02*
Y199569D01*
X122916D01*
X122715Y200054D01*
X122102Y200668D01*
X121616Y200869D01*
D02*
G37*
G36*
X120116D02*
X119631Y200668D01*
X119017Y200054D01*
X118816Y199569D01*
X120116D01*
Y200869D01*
D02*
G37*
G36*
X122916Y198069D02*
X121616D01*
Y196769D01*
X122102Y196970D01*
X122715Y197583D01*
X122916Y198069D01*
D02*
G37*
G36*
X120116D02*
X118816D01*
X119017Y197583D01*
X119631Y196970D01*
X120116Y196769D01*
Y198069D01*
D02*
G37*
G36*
X191354Y194307D02*
X188295D01*
Y192429D01*
X191354D01*
Y194307D01*
D02*
G37*
G36*
X187295D02*
X184236D01*
Y192429D01*
X187295D01*
Y194307D01*
D02*
G37*
G36*
X121616Y192995D02*
Y191695D01*
X122916D01*
X122715Y192180D01*
X122102Y192794D01*
X121616Y192995D01*
D02*
G37*
G36*
X120116D02*
X119631Y192794D01*
X119017Y192180D01*
X118816Y191695D01*
X120116D01*
Y192995D01*
D02*
G37*
G36*
X155331Y193323D02*
X153453D01*
Y190264D01*
X155331D01*
Y193323D01*
D02*
G37*
G36*
X152453D02*
X150575D01*
Y190264D01*
X152453D01*
Y193323D01*
D02*
G37*
G36*
X187295Y191429D02*
X184236D01*
Y189551D01*
X187295D01*
Y191429D01*
D02*
G37*
G36*
X122916Y190195D02*
X121616D01*
Y188895D01*
X122102Y189096D01*
X122715Y189709D01*
X122916Y190195D01*
D02*
G37*
G36*
X120116D02*
X118816D01*
X119017Y189709D01*
X119631Y189096D01*
X120116Y188895D01*
Y190195D01*
D02*
G37*
G36*
X31852Y196613D02*
Y188545D01*
X36082D01*
Y191732D01*
X35912Y193021D01*
X35415Y194222D01*
X34624Y195253D01*
X33592Y196045D01*
X32391Y196542D01*
X31852Y196613D01*
D02*
G37*
G36*
X30352D02*
X29814Y196542D01*
X28613Y196045D01*
X27581Y195253D01*
X26790Y194222D01*
X26292Y193021D01*
X26123Y191732D01*
Y188545D01*
X30352D01*
Y196613D01*
D02*
G37*
G36*
X112614Y189189D02*
X106656D01*
Y186577D01*
X112614D01*
Y189189D01*
D02*
G37*
G36*
X105156D02*
X99197D01*
Y186577D01*
X105156D01*
Y189189D01*
D02*
G37*
G36*
X202006Y186483D02*
X201632Y186328D01*
X201074Y185770D01*
X200919Y185396D01*
X202006D01*
Y186483D01*
D02*
G37*
G36*
Y183896D02*
X200919D01*
X201074Y183522D01*
X201632Y182964D01*
X202006Y182809D01*
Y183896D01*
D02*
G37*
G36*
X14049Y192829D02*
X12723D01*
X11443Y192486D01*
X10295Y191823D01*
X9358Y190886D01*
X8695Y189738D01*
X8352Y188458D01*
Y187133D01*
X8695Y185852D01*
X9358Y184704D01*
X10295Y183767D01*
X11443Y183105D01*
X12723Y182761D01*
X14049D01*
X15329Y183105D01*
X16477Y183767D01*
X17414Y184704D01*
X18077Y185852D01*
X18420Y187133D01*
Y188458D01*
X18077Y189738D01*
X17414Y190886D01*
X16477Y191823D01*
X15329Y192486D01*
X14049Y192829D01*
D02*
G37*
G36*
X112614Y185077D02*
X106656D01*
Y182465D01*
X112614D01*
Y185077D01*
D02*
G37*
G36*
X105156D02*
X99197D01*
Y182465D01*
X105156D01*
Y185077D01*
D02*
G37*
G36*
X255474Y182939D02*
Y181852D01*
X256561D01*
X256407Y182226D01*
X255848Y182784D01*
X255474Y182939D01*
D02*
G37*
G36*
X205081Y180790D02*
Y179490D01*
X206381D01*
X206180Y179976D01*
X205566Y180589D01*
X205081Y180790D01*
D02*
G37*
G36*
X203581D02*
X203095Y180589D01*
X202482Y179976D01*
X202281Y179490D01*
X203581D01*
Y180790D01*
D02*
G37*
G36*
X256561Y180352D02*
X255474D01*
Y179265D01*
X255848Y179420D01*
X256407Y179978D01*
X256561Y180352D01*
D02*
G37*
G36*
X172653Y182890D02*
X169791D01*
Y179240D01*
X172653D01*
Y182890D01*
D02*
G37*
G36*
X168791D02*
X165929D01*
Y179240D01*
X168791D01*
Y182890D01*
D02*
G37*
G36*
X36082Y187045D02*
X31852D01*
Y178977D01*
X32391Y179048D01*
X33592Y179546D01*
X34624Y180337D01*
X35415Y181369D01*
X35912Y182570D01*
X36082Y183858D01*
Y187045D01*
D02*
G37*
G36*
X30352D02*
X26123D01*
Y183858D01*
X26292Y182570D01*
X26790Y181369D01*
X27581Y180337D01*
X28613Y179546D01*
X29814Y179048D01*
X30352Y178977D01*
Y187045D01*
D02*
G37*
G36*
X206381Y177990D02*
X205081D01*
Y176690D01*
X205566Y176891D01*
X206180Y177505D01*
X206381Y177990D01*
D02*
G37*
G36*
X203581D02*
X202281D01*
X202482Y177505D01*
X203095Y176891D01*
X203581Y176690D01*
Y177990D01*
D02*
G37*
G36*
X172653Y178240D02*
X169791D01*
Y174591D01*
X172653D01*
Y178240D01*
D02*
G37*
G36*
X168791D02*
X165929D01*
Y174591D01*
X168791D01*
Y178240D01*
D02*
G37*
G36*
X199558Y178884D02*
X197154Y176480D01*
X199071Y174563D01*
X201475Y176967D01*
X199558Y178884D01*
D02*
G37*
G36*
X215496Y176618D02*
X213092Y174214D01*
X215009Y172297D01*
X217413Y174701D01*
X215496Y176618D01*
D02*
G37*
G36*
X202536Y175907D02*
X200132Y173503D01*
X202048Y171586D01*
X204452Y173990D01*
X202536Y175907D01*
D02*
G37*
G36*
X132693Y174740D02*
X126537D01*
Y171537D01*
X132693D01*
Y174740D01*
D02*
G37*
G36*
X125037D02*
X118882D01*
Y171537D01*
X125037D01*
Y174740D01*
D02*
G37*
G36*
X213742Y172523D02*
Y171222D01*
X215042D01*
X214841Y171708D01*
X214228Y172321D01*
X213742Y172523D01*
D02*
G37*
G36*
X196094Y175419D02*
X193690Y173015D01*
X195606Y171099D01*
X198010Y173503D01*
X196094Y175419D01*
D02*
G37*
G36*
X170095Y173638D02*
X168217D01*
Y170579D01*
X170095D01*
Y173638D01*
D02*
G37*
G36*
X47638Y173877D02*
X44451D01*
Y169648D01*
X52519D01*
X52448Y170186D01*
X51950Y171387D01*
X51159Y172419D01*
X50128Y173210D01*
X48927Y173708D01*
X47638Y173877D01*
D02*
G37*
G36*
X191354Y170957D02*
X188295D01*
Y169079D01*
X191354D01*
Y170957D01*
D02*
G37*
G36*
X187295D02*
X184236D01*
Y169079D01*
X187295D01*
Y170957D01*
D02*
G37*
G36*
X215042Y169722D02*
X213742D01*
Y168422D01*
X214228Y168623D01*
X214841Y169237D01*
X215042Y169722D01*
D02*
G37*
G36*
X199071Y172442D02*
X196667Y170038D01*
X198584Y168121D01*
X200988Y170525D01*
X199071Y172442D01*
D02*
G37*
G36*
X177128Y168192D02*
Y166892D01*
X178428D01*
X178227Y167377D01*
X177613Y167991D01*
X177128Y168192D01*
D02*
G37*
G36*
X175628D02*
X175143Y167991D01*
X174529Y167377D01*
X174328Y166892D01*
X175628D01*
Y168192D01*
D02*
G37*
G36*
X132693Y170037D02*
X126537D01*
Y166835D01*
X132693D01*
Y170037D01*
D02*
G37*
G36*
X125037D02*
X118882D01*
Y166835D01*
X125037D01*
Y170037D01*
D02*
G37*
G36*
X218056Y167194D02*
X215906D01*
Y165394D01*
X218056D01*
Y167194D01*
D02*
G37*
G36*
X214406D02*
X212256D01*
Y165394D01*
X214406D01*
Y167194D01*
D02*
G37*
G36*
X178428Y165392D02*
X177128D01*
Y164092D01*
X177613Y164293D01*
X178227Y164906D01*
X178428Y165392D01*
D02*
G37*
G36*
X175628D02*
X174328D01*
X174529Y164906D01*
X175143Y164293D01*
X175628Y164092D01*
Y165392D01*
D02*
G37*
G36*
X52519Y168148D02*
X44451D01*
Y163918D01*
X47638D01*
X48927Y164088D01*
X50128Y164585D01*
X51159Y165376D01*
X51950Y166408D01*
X52448Y167609D01*
X52519Y168148D01*
D02*
G37*
G36*
X190832Y166317D02*
X189559Y165045D01*
X191080Y163524D01*
X192352Y164797D01*
X190832Y166317D01*
D02*
G37*
G36*
X42951Y173877D02*
X39764D01*
X38475Y173708D01*
X37274Y173210D01*
X36243Y172419D01*
X35451Y171387D01*
X35323Y171079D01*
X29096D01*
Y163152D01*
X41551D01*
Y163918D01*
X42951D01*
Y168898D01*
Y173877D01*
D02*
G37*
G36*
X27596Y171079D02*
X15142D01*
Y163152D01*
X27596D01*
Y171079D01*
D02*
G37*
G36*
X188499Y163984D02*
X187226Y162711D01*
X188746Y161191D01*
X190019Y162464D01*
X188499Y163984D01*
D02*
G37*
G36*
X193413Y163736D02*
X192140Y162464D01*
X193661Y160943D01*
X194933Y162216D01*
X193413Y163736D01*
D02*
G37*
G36*
X218056Y163894D02*
X215156D01*
X212256D01*
Y162182D01*
X212256Y162094D01*
X212257Y161597D01*
Y159883D01*
X215157D01*
X218057D01*
Y161594D01*
X218057Y161682D01*
X218056Y162183D01*
Y163894D01*
D02*
G37*
G36*
X170291Y162492D02*
X168413D01*
Y159433D01*
X170291D01*
Y162492D01*
D02*
G37*
G36*
X167413D02*
X165535D01*
Y159433D01*
X167413D01*
Y162492D01*
D02*
G37*
G36*
X99175Y159924D02*
Y158624D01*
X100475D01*
X100274Y159109D01*
X99661Y159723D01*
X99175Y159924D01*
D02*
G37*
G36*
X97675D02*
X97190Y159723D01*
X96576Y159109D01*
X96375Y158624D01*
X97675D01*
Y159924D01*
D02*
G37*
G36*
X93270D02*
Y158624D01*
X94570D01*
X94369Y159109D01*
X93755Y159723D01*
X93270Y159924D01*
D02*
G37*
G36*
X91770D02*
X91284Y159723D01*
X90671Y159109D01*
X90469Y158624D01*
X91770D01*
Y159924D01*
D02*
G37*
G36*
X191080Y161403D02*
X189807Y160130D01*
X191327Y158610D01*
X192600Y159883D01*
X191080Y161403D01*
D02*
G37*
G36*
X68467Y158743D02*
Y157443D01*
X69767D01*
X69566Y157928D01*
X68952Y158542D01*
X68467Y158743D01*
D02*
G37*
G36*
X66966D02*
X66481Y158542D01*
X65868Y157928D01*
X65666Y157443D01*
X66966D01*
Y158743D01*
D02*
G37*
G36*
X218057Y158383D02*
X215907D01*
Y156582D01*
X218057D01*
Y158383D01*
D02*
G37*
G36*
X214407D02*
X212257D01*
Y156582D01*
X214407D01*
Y158383D01*
D02*
G37*
G36*
X167285Y156381D02*
Y155081D01*
X168586D01*
X168385Y155566D01*
X167771Y156180D01*
X167285Y156381D01*
D02*
G37*
G36*
X165785D02*
X165300Y156180D01*
X164686Y155566D01*
X164485Y155081D01*
X165785D01*
Y156381D01*
D02*
G37*
G36*
X69767Y155943D02*
X68467D01*
Y154643D01*
X68952Y154844D01*
X69566Y155457D01*
X69767Y155943D01*
D02*
G37*
G36*
X66966D02*
X65666D01*
X65868Y155457D01*
X66481Y154844D01*
X66966Y154643D01*
Y155943D01*
D02*
G37*
G36*
X100475Y157124D02*
X96375D01*
X96576Y156639D01*
X97190Y156025D01*
X97388Y155943D01*
Y155443D01*
X97190Y155361D01*
X96576Y154747D01*
X96375Y154262D01*
X100475D01*
X100274Y154747D01*
X99661Y155361D01*
X99463Y155443D01*
Y155943D01*
X99661Y156025D01*
X100274Y156639D01*
X100475Y157124D01*
D02*
G37*
G36*
X94570D02*
X90469D01*
X90671Y156639D01*
X91284Y156025D01*
X91482Y155943D01*
Y155443D01*
X91284Y155361D01*
X90671Y154747D01*
X90469Y154262D01*
X94570D01*
X94369Y154747D01*
X93755Y155361D01*
X93557Y155443D01*
Y155943D01*
X93755Y156025D01*
X94369Y156639D01*
X94570Y157124D01*
D02*
G37*
G36*
X41551Y161652D02*
X29096D01*
Y153724D01*
X41551D01*
Y161652D01*
D02*
G37*
G36*
X27596D02*
X15142D01*
Y153724D01*
X27596D01*
Y161652D01*
D02*
G37*
G36*
X168586Y153581D02*
X167285D01*
Y152281D01*
X167771Y152482D01*
X168385Y153095D01*
X168586Y153581D01*
D02*
G37*
G36*
X165785D02*
X164485D01*
X164686Y153095D01*
X165300Y152482D01*
X165785Y152281D01*
Y153581D01*
D02*
G37*
G36*
X68467Y151263D02*
Y149963D01*
X69767D01*
X69566Y150448D01*
X68952Y151062D01*
X68467Y151263D01*
D02*
G37*
G36*
X66966D02*
X66481Y151062D01*
X65868Y150448D01*
X65666Y149963D01*
X66966D01*
Y151263D01*
D02*
G37*
G36*
X100475Y152762D02*
X96375D01*
X96576Y152276D01*
X97190Y151663D01*
X97388Y151581D01*
Y151081D01*
X97190Y150999D01*
X96576Y150385D01*
X96375Y149900D01*
X100475D01*
X100274Y150385D01*
X99661Y150999D01*
X99463Y151081D01*
Y151581D01*
X99661Y151663D01*
X100274Y152276D01*
X100475Y152762D01*
D02*
G37*
G36*
X94570D02*
X90469D01*
X90671Y152276D01*
X91284Y151663D01*
X91482Y151581D01*
Y151081D01*
X91284Y150999D01*
X90671Y150385D01*
X90469Y149900D01*
X94570D01*
X94369Y150385D01*
X93755Y150999D01*
X93557Y151081D01*
Y151581D01*
X93755Y151663D01*
X94369Y152276D01*
X94570Y152762D01*
D02*
G37*
G36*
X132393Y151625D02*
X125087D01*
Y148257D01*
X132393D01*
Y151625D01*
D02*
G37*
G36*
X115370Y149799D02*
X112311D01*
Y147921D01*
X115370D01*
Y149799D01*
D02*
G37*
G36*
X111311D02*
X108252D01*
Y147921D01*
X111311D01*
Y149799D01*
D02*
G37*
G36*
X69767Y148463D02*
X68467D01*
Y147162D01*
X68952Y147364D01*
X69566Y147977D01*
X69767Y148463D01*
D02*
G37*
G36*
X66966D02*
X65666D01*
X65868Y147977D01*
X66481Y147364D01*
X66966Y147162D01*
Y148463D01*
D02*
G37*
G36*
X100475Y148400D02*
X99175D01*
Y147099D01*
X99661Y147301D01*
X100274Y147914D01*
X100475Y148400D01*
D02*
G37*
G36*
X97675D02*
X96375D01*
X96576Y147914D01*
X97190Y147301D01*
X97675Y147099D01*
Y148400D01*
D02*
G37*
G36*
X94570D02*
X93270D01*
Y147099D01*
X93755Y147301D01*
X94369Y147914D01*
X94570Y148400D01*
D02*
G37*
G36*
X91770D02*
X90469D01*
X90671Y147914D01*
X91284Y147301D01*
X91770Y147099D01*
Y148400D01*
D02*
G37*
G36*
X132693Y146925D02*
X129240D01*
Y145441D01*
X132693D01*
Y146925D01*
D02*
G37*
G36*
X128240D02*
X124787D01*
Y145441D01*
X128240D01*
Y146925D01*
D02*
G37*
G36*
X115370Y146921D02*
X112311D01*
Y145043D01*
X115370D01*
Y146921D01*
D02*
G37*
G36*
X111311D02*
X108252D01*
Y145043D01*
X111311D01*
Y146921D01*
D02*
G37*
G36*
X132693Y144441D02*
X129240D01*
Y142957D01*
X132693D01*
Y144441D01*
D02*
G37*
G36*
X128240D02*
X124787D01*
Y142957D01*
X128240D01*
Y144441D01*
D02*
G37*
G36*
X184508Y146669D02*
X184358D01*
Y142232D01*
X188795D01*
Y142382D01*
X188459Y143638D01*
X187809Y144763D01*
X186890Y145683D01*
X185764Y146332D01*
X184508Y146669D01*
D02*
G37*
G36*
X183358D02*
X183208D01*
X181953Y146332D01*
X180827Y145683D01*
X179908Y144763D01*
X179258Y143638D01*
X178921Y142382D01*
Y142232D01*
X183358D01*
Y146669D01*
D02*
G37*
G36*
X20041Y142208D02*
Y140908D01*
X21341D01*
X21140Y141393D01*
X20527Y142007D01*
X20041Y142208D01*
D02*
G37*
G36*
X18541D02*
X18056Y142007D01*
X17442Y141393D01*
X17241Y140908D01*
X18541D01*
Y142208D01*
D02*
G37*
G36*
X154046Y141625D02*
X146741D01*
Y138257D01*
X154046D01*
Y141625D01*
D02*
G37*
G36*
X21341Y139408D02*
X20041D01*
Y138107D01*
X20527Y138308D01*
X21140Y138922D01*
X21341Y139408D01*
D02*
G37*
G36*
X18541D02*
X17241D01*
X17442Y138922D01*
X18056Y138308D01*
X18541Y138107D01*
Y139408D01*
D02*
G37*
G36*
X188795Y141232D02*
X184358D01*
Y136795D01*
X184508D01*
X185764Y137131D01*
X186890Y137781D01*
X187809Y138700D01*
X188459Y139826D01*
X188795Y141082D01*
Y141232D01*
D02*
G37*
G36*
X183358D02*
X178921D01*
Y141082D01*
X179258Y139826D01*
X179908Y138700D01*
X180827Y137781D01*
X181953Y137131D01*
X183208Y136795D01*
X183358D01*
Y141232D01*
D02*
G37*
G36*
X171616Y137090D02*
Y135789D01*
X172916D01*
X172715Y136275D01*
X172102Y136888D01*
X171616Y137090D01*
D02*
G37*
G36*
X170116D02*
X169631Y136888D01*
X169017Y136275D01*
X168816Y135789D01*
X170116D01*
Y137090D01*
D02*
G37*
G36*
X43677Y143293D02*
X42404D01*
X41173Y142963D01*
X40070Y142326D01*
X39170Y141426D01*
X38533Y140323D01*
X38203Y139093D01*
Y137819D01*
X38533Y136589D01*
X39170Y135486D01*
X40070Y134585D01*
X41173Y133948D01*
X42404Y133619D01*
X43677D01*
X44907Y133948D01*
X46010Y134585D01*
X46911Y135486D01*
X47548Y136589D01*
X47774Y137433D01*
X76378D01*
X76644Y137486D01*
X76753D01*
X76853Y137527D01*
X77119Y137580D01*
X77345Y137731D01*
X77445Y137773D01*
X77522Y137849D01*
X77748Y138000D01*
X77899Y138226D01*
X77975Y138303D01*
X78017Y138403D01*
X78168Y138629D01*
X78221Y138895D01*
X78262Y138995D01*
Y139104D01*
X78315Y139370D01*
X78262Y139636D01*
Y139745D01*
X78221Y139845D01*
X78168Y140111D01*
X78017Y140337D01*
X77975Y140437D01*
X77899Y140514D01*
X77748Y140740D01*
X77522Y140891D01*
X77445Y140968D01*
X77345Y141009D01*
X77119Y141160D01*
X76853Y141213D01*
X76753Y141254D01*
X76644D01*
X76378Y141307D01*
X46979D01*
X46911Y141426D01*
X46010Y142326D01*
X44907Y142963D01*
X43677Y143293D01*
D02*
G37*
G36*
X225110Y133594D02*
X217804D01*
Y133388D01*
X217004D01*
X217004Y133388D01*
X212905D01*
Y133594D01*
X207568D01*
Y130225D01*
X212905D01*
Y130431D01*
X217004D01*
X217004Y130431D01*
X217804D01*
Y130225D01*
X225110D01*
Y133594D01*
D02*
G37*
G36*
X26734Y134334D02*
Y133034D01*
X28034D01*
X27833Y133519D01*
X27220Y134133D01*
X26734Y134334D01*
D02*
G37*
G36*
X25234D02*
X24749Y134133D01*
X24135Y133519D01*
X23934Y133034D01*
X25234D01*
Y134334D01*
D02*
G37*
G36*
X172916Y134289D02*
X168816D01*
X169017Y133804D01*
X169423Y133397D01*
X169575Y133071D01*
X169423Y132744D01*
X169017Y132338D01*
X168816Y131852D01*
X172916D01*
X172715Y132338D01*
X172309Y132744D01*
X172157Y133071D01*
X172309Y133397D01*
X172715Y133804D01*
X172916Y134289D01*
D02*
G37*
G36*
X28034Y131534D02*
X26734D01*
Y130233D01*
X27220Y130434D01*
X27833Y131048D01*
X28034Y131534D01*
D02*
G37*
G36*
X25234D02*
X23934D01*
X24135Y131048D01*
X24749Y130434D01*
X25234Y130233D01*
Y131534D01*
D02*
G37*
G36*
X172916Y130352D02*
X171616D01*
Y129052D01*
X172102Y129253D01*
X172715Y129867D01*
X172916Y130352D01*
D02*
G37*
G36*
X170116D02*
X168816D01*
X169017Y129867D01*
X169631Y129253D01*
X170116Y129052D01*
Y130352D01*
D02*
G37*
G36*
X32640Y128822D02*
Y127522D01*
X33940D01*
X33739Y128007D01*
X33125Y128621D01*
X32640Y128822D01*
D02*
G37*
G36*
X31140D02*
X30654Y128621D01*
X30041Y128007D01*
X29840Y127522D01*
X31140D01*
Y128822D01*
D02*
G37*
G36*
X212905Y129263D02*
X207568D01*
Y125894D01*
X212905D01*
X212905Y125894D01*
X213378Y125831D01*
X213808Y125544D01*
X214374Y125431D01*
X217804D01*
Y125225D01*
X225110D01*
Y128594D01*
X217804D01*
Y128388D01*
X214986D01*
X214750Y128624D01*
X214270Y128945D01*
X213705Y129057D01*
X212905D01*
Y129263D01*
D02*
G37*
G36*
X33940Y126022D02*
X32640D01*
Y124722D01*
X33125Y124923D01*
X33739Y125536D01*
X33940Y126022D01*
D02*
G37*
G36*
X31140D02*
X29840D01*
X30041Y125536D01*
X30654Y124923D01*
X31140Y124722D01*
Y126022D01*
D02*
G37*
G36*
X171616Y125278D02*
Y123978D01*
X172916D01*
X172715Y124464D01*
X172102Y125077D01*
X171616Y125278D01*
D02*
G37*
G36*
X170116D02*
X169631Y125077D01*
X169017Y124464D01*
X168816Y123978D01*
X170116D01*
Y125278D01*
D02*
G37*
G36*
X38152Y121735D02*
Y120435D01*
X39452D01*
X39251Y120921D01*
X38637Y121534D01*
X38152Y121735D01*
D02*
G37*
G36*
X36652D02*
X36166Y121534D01*
X35552Y120921D01*
X35351Y120435D01*
X36652D01*
Y121735D01*
D02*
G37*
G36*
X184495Y126884D02*
X183221D01*
X181991Y126554D01*
X180888Y125917D01*
X179988Y125017D01*
X179351Y123914D01*
X179021Y122684D01*
Y121410D01*
X179351Y120180D01*
X179988Y119077D01*
X180888Y118176D01*
X181991Y117540D01*
X182380Y117435D01*
Y106323D01*
X182380Y106323D01*
Y105523D01*
X181091D01*
Y101957D01*
X186625D01*
Y105523D01*
X185337D01*
Y106323D01*
X185337Y106323D01*
Y117435D01*
X185725Y117540D01*
X186828Y118176D01*
X187729Y119077D01*
X188366Y120180D01*
X188433Y120431D01*
X217804D01*
Y120225D01*
X225110D01*
Y123594D01*
X217804D01*
Y123388D01*
X188507D01*
X188366Y123914D01*
X187729Y125017D01*
X186828Y125917D01*
X185725Y126554D01*
X184495Y126884D01*
D02*
G37*
G36*
X172916Y122478D02*
X168816D01*
X169017Y121993D01*
X169423Y121587D01*
X169575Y121260D01*
X169423Y120933D01*
X169017Y120527D01*
X168816Y120041D01*
X172916D01*
X172715Y120527D01*
X172309Y120933D01*
X172157Y121260D01*
X172309Y121587D01*
X172715Y121993D01*
X172916Y122478D01*
D02*
G37*
G36*
X39452Y118935D02*
X38152D01*
Y117635D01*
X38637Y117836D01*
X39251Y118449D01*
X39452Y118935D01*
D02*
G37*
G36*
X36652D02*
X35351D01*
X35552Y118449D01*
X36166Y117836D01*
X36652Y117635D01*
Y118935D01*
D02*
G37*
G36*
X225410Y118894D02*
X221957D01*
Y117409D01*
X225410D01*
Y118894D01*
D02*
G37*
G36*
X220957D02*
X217504D01*
Y117409D01*
X220957D01*
Y118894D01*
D02*
G37*
G36*
X172916Y118541D02*
X171616D01*
Y117241D01*
X172102Y117442D01*
X172715Y118056D01*
X172916Y118541D01*
D02*
G37*
G36*
X170116D02*
X168816D01*
X169017Y118056D01*
X169631Y117442D01*
X170116Y117241D01*
Y118541D01*
D02*
G37*
G36*
X85646Y118126D02*
X82980D01*
Y116051D01*
X85646D01*
Y118126D01*
D02*
G37*
G36*
X81980D02*
X79315D01*
Y116051D01*
X81980D01*
Y118126D01*
D02*
G37*
G36*
X111335Y120055D02*
X106656D01*
Y115632D01*
X111335D01*
Y120055D01*
D02*
G37*
G36*
X105156D02*
X100476D01*
Y115632D01*
X105156D01*
Y120055D01*
D02*
G37*
G36*
X225410Y116409D02*
X221957D01*
Y114925D01*
X225410D01*
Y116409D01*
D02*
G37*
G36*
X220957D02*
X217504D01*
Y114925D01*
X220957D01*
Y116409D01*
D02*
G37*
G36*
X85646Y115051D02*
X82980D01*
Y112976D01*
X85646D01*
Y115051D01*
D02*
G37*
G36*
X81980D02*
X79315D01*
Y112976D01*
X81980D01*
Y115051D01*
D02*
G37*
G36*
X171616Y113468D02*
Y112167D01*
X172916D01*
X172715Y112653D01*
X172102Y113266D01*
X171616Y113468D01*
D02*
G37*
G36*
X170116D02*
X169631Y113266D01*
X169017Y112653D01*
X168816Y112167D01*
X170116D01*
Y113468D01*
D02*
G37*
G36*
X93982Y110671D02*
X89482D01*
Y110008D01*
X88682D01*
X88682Y110008D01*
X85346D01*
Y110346D01*
X79615D01*
Y105796D01*
X85346D01*
Y106134D01*
X88682D01*
X88682Y106134D01*
X89482D01*
Y105471D01*
X93982D01*
Y110671D01*
D02*
G37*
G36*
X111335Y114132D02*
X106656D01*
Y109709D01*
X111335D01*
Y114132D01*
D02*
G37*
G36*
X105156D02*
X100476D01*
Y109709D01*
X105156D01*
Y114132D01*
D02*
G37*
G36*
X57596Y129373D02*
X56323D01*
X55093Y129044D01*
X53990Y128407D01*
X53089Y127506D01*
X52452Y126403D01*
X52123Y125173D01*
Y123899D01*
X52452Y122669D01*
X53089Y121566D01*
X53990Y120666D01*
X55023Y120070D01*
Y116269D01*
X55170Y115527D01*
X55590Y114899D01*
X60048Y110441D01*
X60676Y110021D01*
X61417Y109874D01*
X71938D01*
Y109536D01*
X77668D01*
Y114086D01*
X71938D01*
Y113748D01*
X62220D01*
X58897Y117071D01*
Y120070D01*
X59930Y120666D01*
X60830Y121566D01*
X61467Y122669D01*
X61797Y123899D01*
Y125173D01*
X61467Y126403D01*
X60830Y127506D01*
X59930Y128407D01*
X58827Y129044D01*
X57596Y129373D01*
D02*
G37*
G36*
X172916Y110667D02*
X168816D01*
X169017Y110182D01*
X169631Y109568D01*
X169791Y109502D01*
Y109002D01*
X169631Y108936D01*
X169017Y108322D01*
X168816Y107837D01*
X172916D01*
X172715Y108322D01*
X172102Y108936D01*
X171942Y109002D01*
Y109502D01*
X172102Y109568D01*
X172715Y110182D01*
X172916Y110667D01*
D02*
G37*
G36*
Y106337D02*
X171616D01*
Y105036D01*
X172102Y105238D01*
X172715Y105851D01*
X172916Y106337D01*
D02*
G37*
G36*
X170116D02*
X168816D01*
X169017Y105851D01*
X169631Y105238D01*
X170116Y105036D01*
Y106337D01*
D02*
G37*
G36*
X157443Y83153D02*
Y81852D01*
X158743D01*
X158542Y82338D01*
X157928Y82951D01*
X157443Y83153D01*
D02*
G37*
G36*
X155943D02*
X155457Y82951D01*
X154844Y82338D01*
X154643Y81852D01*
X155943D01*
Y83153D01*
D02*
G37*
G36*
X149569D02*
Y81852D01*
X150869D01*
X150668Y82338D01*
X150054Y82951D01*
X149569Y83153D01*
D02*
G37*
G36*
X148069D02*
X147583Y82951D01*
X146970Y82338D01*
X146769Y81852D01*
X148069D01*
Y83153D01*
D02*
G37*
G36*
X142089D02*
Y81852D01*
X143389D01*
X143188Y82338D01*
X142574Y82951D01*
X142089Y83153D01*
D02*
G37*
G36*
X140589D02*
X140103Y82951D01*
X139489Y82338D01*
X139288Y81852D01*
X140589D01*
Y83153D01*
D02*
G37*
G36*
X158743Y80352D02*
X157443D01*
Y79052D01*
X157928Y79253D01*
X158542Y79867D01*
X158743Y80352D01*
D02*
G37*
G36*
X155943D02*
X154643D01*
X154844Y79867D01*
X155457Y79253D01*
X155943Y79052D01*
Y80352D01*
D02*
G37*
G36*
X150869D02*
X149569D01*
Y79052D01*
X150054Y79253D01*
X150668Y79867D01*
X150869Y80352D01*
D02*
G37*
G36*
X148069D02*
X146769D01*
X146970Y79867D01*
X147583Y79253D01*
X148069Y79052D01*
Y80352D01*
D02*
G37*
G36*
X143389D02*
X142089D01*
Y79052D01*
X142574Y79253D01*
X143188Y79867D01*
X143389Y80352D01*
D02*
G37*
G36*
X140589D02*
X139288D01*
X139489Y79867D01*
X140103Y79253D01*
X140589Y79052D01*
Y80352D01*
D02*
G37*
G36*
X157443Y75279D02*
Y73978D01*
X158743D01*
X158542Y74464D01*
X157928Y75077D01*
X157443Y75279D01*
D02*
G37*
G36*
X155943D02*
X155457Y75077D01*
X154844Y74464D01*
X154643Y73978D01*
X155943D01*
Y75279D01*
D02*
G37*
G36*
X149569D02*
Y73978D01*
X150869D01*
X150668Y74464D01*
X150054Y75077D01*
X149569Y75279D01*
D02*
G37*
G36*
X148069D02*
X147583Y75077D01*
X146970Y74464D01*
X146769Y73978D01*
X148069D01*
Y75279D01*
D02*
G37*
G36*
X141695D02*
Y73978D01*
X142995D01*
X142794Y74464D01*
X142180Y75077D01*
X141695Y75279D01*
D02*
G37*
G36*
X140195D02*
X139709Y75077D01*
X139096Y74464D01*
X138895Y73978D01*
X140195D01*
Y75279D01*
D02*
G37*
G36*
X158743Y72478D02*
X157443D01*
Y71178D01*
X157928Y71379D01*
X158542Y71993D01*
X158743Y72478D01*
D02*
G37*
G36*
X155943D02*
X154643D01*
X154844Y71993D01*
X155457Y71379D01*
X155943Y71178D01*
Y72478D01*
D02*
G37*
G36*
X150869D02*
X149569D01*
Y71178D01*
X150054Y71379D01*
X150668Y71993D01*
X150869Y72478D01*
D02*
G37*
G36*
X148069D02*
X146769D01*
X146970Y71993D01*
X147583Y71379D01*
X148069Y71178D01*
Y72478D01*
D02*
G37*
G36*
X142995D02*
X141695D01*
Y71178D01*
X142180Y71379D01*
X142794Y71993D01*
X142995Y72478D01*
D02*
G37*
G36*
X140195D02*
X138895D01*
X139096Y71993D01*
X139709Y71379D01*
X140195Y71178D01*
Y72478D01*
D02*
G37*
%LPD*%
G36*
X90551Y210630D02*
Y179134D01*
X84646Y173228D01*
X53150D01*
X47244Y179134D01*
Y210630D01*
X53150Y214567D01*
X86614D01*
X90551Y210630D01*
D02*
G37*
G36*
X134646Y140945D02*
Y138583D01*
X133858Y137795D01*
X122835D01*
Y130709D01*
X120866Y128740D01*
X109055D01*
X107087Y130709D01*
Y140551D01*
X108268Y141732D01*
X133858D01*
X134646Y140945D01*
D02*
G37*
G36*
X154724Y136221D02*
Y133465D01*
X153937Y132677D01*
X149213D01*
X145669Y129134D01*
Y124803D01*
X145276Y124409D01*
X140945D01*
X140551Y124803D01*
X140551Y130894D01*
X147047Y137008D01*
X153937Y137008D01*
X154724Y136221D01*
D02*
G37*
G36*
X138976Y134646D02*
X138976Y124409D01*
X138583Y124016D01*
Y108858D01*
X136614Y106890D01*
X120669D01*
X118110Y109449D01*
Y120079D01*
X124016Y125984D01*
Y135827D01*
X124803Y136614D01*
X137008D01*
X138976Y134646D01*
D02*
G37*
G36*
X148819Y193701D02*
Y185827D01*
X149606Y185039D01*
X162598D01*
X164173Y183465D01*
X164173Y158268D01*
X161417Y155512D01*
Y107874D01*
X157874Y104331D01*
X141732D01*
X139764Y106299D01*
Y122244D01*
X140354Y122835D01*
X152362D01*
X156299Y126772D01*
Y146850D01*
X146457Y146850D01*
X145669Y147638D01*
Y153543D01*
X155512D01*
Y159449D01*
X153543Y161417D01*
X139764Y161417D01*
X135827Y165354D01*
Y190945D01*
X139764Y194882D01*
X147638D01*
X148819Y193701D01*
D02*
G37*
%LPC*%
G36*
X163598Y182890D02*
X160986D01*
Y179490D01*
X163598D01*
Y182890D01*
D02*
G37*
G36*
X159486D02*
X156874D01*
Y179490D01*
X159486D01*
Y182890D01*
D02*
G37*
G36*
X163598Y177990D02*
X160986D01*
Y174591D01*
X163598D01*
Y177990D01*
D02*
G37*
G36*
X159486D02*
X156874D01*
Y174591D01*
X159486D01*
Y177990D01*
D02*
G37*
G36*
X152378Y174740D02*
X146472D01*
Y171787D01*
X152378D01*
Y174740D01*
D02*
G37*
G36*
X144472D02*
X138567D01*
Y171787D01*
X144472D01*
Y174740D01*
D02*
G37*
G36*
X152378Y169787D02*
X146472D01*
Y166835D01*
X152378D01*
Y169787D01*
D02*
G37*
G36*
X144472D02*
X138567D01*
Y166835D01*
X144472D01*
Y169787D01*
D02*
G37*
G36*
X154347Y151925D02*
X151144D01*
Y150691D01*
X154347D01*
Y151925D01*
D02*
G37*
G36*
X149644D02*
X146441D01*
Y150691D01*
X149644D01*
Y151925D01*
D02*
G37*
G36*
X154347Y149191D02*
X151144D01*
Y147957D01*
X154347D01*
Y149191D01*
D02*
G37*
G36*
X149644D02*
X146441D01*
Y147957D01*
X149644D01*
Y149191D01*
D02*
G37*
G36*
X154293Y120948D02*
Y119648D01*
X155594D01*
X155392Y120133D01*
X154779Y120747D01*
X154293Y120948D01*
D02*
G37*
G36*
X152793D02*
X152308Y120747D01*
X151694Y120133D01*
X151493Y119648D01*
X152793D01*
Y120948D01*
D02*
G37*
G36*
X155594Y118148D02*
X154293D01*
Y116848D01*
X154779Y117049D01*
X155392Y117662D01*
X155594Y118148D01*
D02*
G37*
G36*
X152793D02*
X151493D01*
X151694Y117662D01*
X152308Y117049D01*
X152793Y116848D01*
Y118148D01*
D02*
G37*
G36*
X154293Y115830D02*
Y114530D01*
X155594D01*
X155392Y115015D01*
X154779Y115629D01*
X154293Y115830D01*
D02*
G37*
G36*
X152793D02*
X152308Y115629D01*
X151694Y115015D01*
X151493Y114530D01*
X152793D01*
Y115830D01*
D02*
G37*
G36*
X155594Y113030D02*
X154293D01*
Y111729D01*
X154779Y111931D01*
X155392Y112544D01*
X155594Y113030D01*
D02*
G37*
G36*
X152793D02*
X151493D01*
X151694Y112544D01*
X152308Y111931D01*
X152793Y111729D01*
Y113030D01*
D02*
G37*
G36*
X154293Y109924D02*
Y108624D01*
X155594D01*
X155392Y109109D01*
X154779Y109723D01*
X154293Y109924D01*
D02*
G37*
G36*
X152793D02*
X152308Y109723D01*
X151694Y109109D01*
X151493Y108624D01*
X152793D01*
Y109924D01*
D02*
G37*
G36*
X155594Y107124D02*
X154293D01*
Y105824D01*
X154779Y106025D01*
X155392Y106639D01*
X155594Y107124D01*
D02*
G37*
G36*
X152793D02*
X151493D01*
X151694Y106639D01*
X152308Y106025D01*
X152793Y105824D01*
Y107124D01*
D02*
G37*
G36*
X137758Y258453D02*
Y254293D01*
X141918D01*
X141608Y255449D01*
X140958Y256575D01*
X140039Y257494D01*
X138914Y258144D01*
X137758Y258453D01*
D02*
G37*
G36*
X136258Y258453D02*
X135102Y258144D01*
X133976Y257494D01*
X133057Y256575D01*
X132407Y255449D01*
X132098Y254293D01*
X136258D01*
Y258453D01*
D02*
G37*
G36*
X141918Y252793D02*
X137758D01*
Y248633D01*
X138914Y248943D01*
X140039Y249593D01*
X140958Y250512D01*
X141608Y251638D01*
X141918Y252793D01*
D02*
G37*
G36*
X136258D02*
X132098D01*
X132407Y251638D01*
X133057Y250512D01*
X133976Y249593D01*
X135102Y248943D01*
X136258Y248633D01*
Y252793D01*
D02*
G37*
G36*
X143815Y213972D02*
X140514D01*
Y211360D01*
X143815D01*
Y213972D01*
D02*
G37*
G36*
X139014D02*
X135713D01*
Y211360D01*
X139014D01*
Y213972D01*
D02*
G37*
G36*
X143815Y209860D02*
X140514D01*
Y207248D01*
X143815D01*
Y209860D01*
D02*
G37*
G36*
X139014D02*
X135713D01*
Y207248D01*
X139014D01*
Y209860D01*
D02*
G37*
G36*
X273440Y219959D02*
X269253D01*
Y217543D01*
X273440D01*
Y219959D01*
D02*
G37*
G36*
X267753D02*
X263566D01*
Y217543D01*
X267753D01*
Y219959D01*
D02*
G37*
G36*
X274053Y208797D02*
X271903D01*
Y206997D01*
X274053D01*
Y208797D01*
D02*
G37*
G36*
X277703Y205700D02*
X275553D01*
Y203900D01*
X277703D01*
Y205700D01*
D02*
G37*
G36*
X274054D02*
X271903D01*
Y203900D01*
X274054D01*
Y205700D01*
D02*
G37*
G36*
X277703Y202400D02*
X275553D01*
Y200600D01*
X277703D01*
Y202400D01*
D02*
G37*
G36*
X274054D02*
X271903D01*
Y200600D01*
X274054D01*
Y202400D01*
D02*
G37*
G36*
X304687Y187664D02*
Y186577D01*
X305774D01*
X305619Y186951D01*
X305061Y187509D01*
X304687Y187664D01*
D02*
G37*
G36*
X303187D02*
X302813Y187509D01*
X302255Y186951D01*
X302100Y186577D01*
X303187D01*
Y187664D01*
D02*
G37*
G36*
X305774Y185077D02*
X304687D01*
Y183990D01*
X305061Y184145D01*
X305619Y184703D01*
X305774Y185077D01*
D02*
G37*
G36*
X303187D02*
X302100D01*
X302255Y184703D01*
X302813Y184145D01*
X303187Y183990D01*
Y185077D01*
D02*
G37*
G36*
X283549Y179371D02*
X279049D01*
Y178199D01*
X278249D01*
X278249Y178199D01*
X277703Y178090D01*
X277240Y177781D01*
X277240Y177781D01*
X276674Y177215D01*
X271710D01*
X271540Y177385D01*
X270847Y177672D01*
X270098D01*
X269405Y177385D01*
X268875Y176855D01*
X268588Y176162D01*
Y175413D01*
X268875Y174720D01*
X269405Y174190D01*
X270098Y173903D01*
X270847D01*
X271540Y174190D01*
X271710Y174360D01*
X277265D01*
X277265Y174360D01*
X277812Y174469D01*
X278275Y174778D01*
X278549Y175053D01*
X279049Y174846D01*
Y174171D01*
X283549D01*
Y179371D01*
D02*
G37*
G36*
X306837Y177747D02*
X304687D01*
Y175947D01*
X306837D01*
Y177747D01*
D02*
G37*
G36*
X303187D02*
X301037D01*
Y175947D01*
X303187D01*
Y177747D01*
D02*
G37*
G36*
X306837Y174447D02*
X304687D01*
Y172647D01*
X306837D01*
Y174447D01*
D02*
G37*
G36*
X303187D02*
X301037D01*
Y172647D01*
X303187D01*
Y174447D01*
D02*
G37*
G36*
X273978Y160712D02*
Y159411D01*
X275278D01*
X275077Y159897D01*
X274464Y160511D01*
X273978Y160712D01*
D02*
G37*
G36*
X272478D02*
X271993Y160511D01*
X271379Y159897D01*
X271178Y159411D01*
X272478D01*
Y160712D01*
D02*
G37*
G36*
X275278Y157911D02*
X273978D01*
Y156611D01*
X274464Y156812D01*
X275077Y157426D01*
X275278Y157911D01*
D02*
G37*
G36*
X272478D02*
X271178D01*
X271379Y157426D01*
X271993Y156812D01*
X272478Y156611D01*
Y157911D01*
D02*
G37*
G36*
X269307Y151433D02*
X265854D01*
Y149949D01*
X269307D01*
Y151433D01*
D02*
G37*
G36*
X264854D02*
X261401D01*
Y149949D01*
X264854D01*
Y151433D01*
D02*
G37*
G36*
X212955Y207562D02*
Y206262D01*
X214255D01*
X214054Y206747D01*
X213440Y207361D01*
X212955Y207562D01*
D02*
G37*
G36*
X211455D02*
X210969Y207361D01*
X210356Y206747D01*
X210155Y206262D01*
X211455D01*
Y207562D01*
D02*
G37*
G36*
X214255Y204762D02*
X212955D01*
Y203462D01*
X213440Y203663D01*
X214054Y204276D01*
X214255Y204762D01*
D02*
G37*
G36*
X211455D02*
X210155D01*
X210356Y204276D01*
X210969Y203663D01*
X211455Y203462D01*
Y204762D01*
D02*
G37*
G36*
X207443Y201656D02*
Y200356D01*
X208743D01*
X208542Y200842D01*
X207928Y201455D01*
X207443Y201656D01*
D02*
G37*
G36*
X205943D02*
X205457Y201455D01*
X204844Y200842D01*
X204643Y200356D01*
X205943D01*
Y201656D01*
D02*
G37*
G36*
Y198856D02*
X204643D01*
X204844Y198371D01*
X205457Y197757D01*
X205943Y197556D01*
Y198856D01*
D02*
G37*
G36*
X202325Y196932D02*
Y195632D01*
X203625D01*
X203424Y196117D01*
X202810Y196731D01*
X202325Y196932D01*
D02*
G37*
G36*
X200825D02*
X200339Y196731D01*
X199726Y196117D01*
X199525Y195632D01*
X200825D01*
Y196932D01*
D02*
G37*
G36*
X203625Y194132D02*
X202325D01*
Y192832D01*
X202810Y193033D01*
X203424Y193646D01*
X203625Y194132D01*
D02*
G37*
G36*
X200825D02*
X199525D01*
X199726Y193646D01*
X200339Y193033D01*
X200825Y192832D01*
Y194132D01*
D02*
G37*
G36*
X197600Y192208D02*
Y190908D01*
X198900D01*
X198699Y191393D01*
X198086Y192007D01*
X197600Y192208D01*
D02*
G37*
G36*
X196100D02*
X195615Y192007D01*
X195001Y191393D01*
X194800Y190908D01*
X196100D01*
Y192208D01*
D02*
G37*
G36*
X198900Y189408D02*
X197600D01*
Y188107D01*
X198086Y188308D01*
X198699Y188922D01*
X198900Y189408D01*
D02*
G37*
G36*
X196100D02*
X194800D01*
X195001Y188922D01*
X195615Y188308D01*
X196100Y188107D01*
Y189408D01*
D02*
G37*
G36*
X191354Y186827D02*
X188295D01*
Y184949D01*
X191354D01*
Y186827D01*
D02*
G37*
G36*
X187295D02*
X184236D01*
Y184949D01*
X187295D01*
Y186827D01*
D02*
G37*
G36*
X191354Y183949D02*
X188295D01*
Y182071D01*
X191354D01*
Y183949D01*
D02*
G37*
G36*
X187295D02*
X184236D01*
Y182071D01*
X187295D01*
Y183949D01*
D02*
G37*
G36*
X191354Y181315D02*
X188295D01*
Y179437D01*
X191354D01*
Y181315D01*
D02*
G37*
G36*
X187295D02*
X184236D01*
Y179437D01*
X187295D01*
Y181315D01*
D02*
G37*
G36*
X181709Y182890D02*
X178847D01*
Y179240D01*
X181709D01*
Y182890D01*
D02*
G37*
G36*
X177847D02*
X174984D01*
Y179240D01*
X177847D01*
Y182890D01*
D02*
G37*
G36*
X191354Y178437D02*
X188295D01*
Y176559D01*
X191354D01*
Y178437D01*
D02*
G37*
G36*
X187295D02*
X184236D01*
Y176559D01*
X187295D01*
Y178437D01*
D02*
G37*
G36*
X181709Y178240D02*
X178847D01*
Y174591D01*
X181709D01*
Y178240D01*
D02*
G37*
G36*
X177847D02*
X174984D01*
Y174591D01*
X177847D01*
Y178240D01*
D02*
G37*
G36*
X217013Y201779D02*
X215493Y200259D01*
X216766Y198986D01*
X218286Y200506D01*
X217013Y201779D01*
D02*
G37*
G36*
X221222Y198113D02*
Y196813D01*
X222523D01*
X222322Y197299D01*
X221708Y197912D01*
X221222Y198113D01*
D02*
G37*
G36*
X219722D02*
X219237Y197912D01*
X218623Y197299D01*
X218422Y196813D01*
X219722D01*
Y198113D01*
D02*
G37*
G36*
X214432Y199198D02*
X212912Y197678D01*
X214185Y196405D01*
X215705Y197925D01*
X214432Y199198D01*
D02*
G37*
G36*
X301197Y159347D02*
X298138D01*
Y157469D01*
X301197D01*
Y159347D01*
D02*
G37*
G36*
X297138D02*
X294079D01*
Y157469D01*
X297138D01*
Y159347D01*
D02*
G37*
G36*
X308455Y157124D02*
X306656D01*
Y154974D01*
X308455D01*
Y157124D01*
D02*
G37*
G36*
X305155D02*
X303356D01*
Y154974D01*
X305155D01*
Y157124D01*
D02*
G37*
G36*
X301197Y156469D02*
X298138D01*
Y154591D01*
X301197D01*
Y156469D01*
D02*
G37*
G36*
X297138D02*
X294079D01*
Y154591D01*
X297138D01*
Y156469D01*
D02*
G37*
G36*
X290660Y156133D02*
X283355D01*
Y152765D01*
X290660D01*
Y156133D01*
D02*
G37*
G36*
X298269Y151699D02*
X293069D01*
Y150928D01*
X291460D01*
X291460Y150928D01*
X290660D01*
Y151133D01*
X283355D01*
Y147765D01*
X290660D01*
Y147971D01*
X291460D01*
X291460Y147971D01*
X293069D01*
Y147199D01*
X298269D01*
Y151699D01*
D02*
G37*
G36*
X307208Y147742D02*
Y146655D01*
X308295D01*
X308140Y147029D01*
X307582Y147587D01*
X307208Y147742D01*
D02*
G37*
G36*
X304569Y151699D02*
X299369D01*
Y147199D01*
X300440D01*
Y145230D01*
X284600D01*
X284532Y145298D01*
X283839Y145585D01*
X283090D01*
X282397Y145298D01*
X281867Y144768D01*
X281580Y144076D01*
Y143326D01*
X281867Y142633D01*
X282397Y142103D01*
X283090Y141816D01*
X283839D01*
X284532Y142103D01*
X284600Y142171D01*
X301181D01*
X301766Y142288D01*
X302262Y142619D01*
X303050Y143407D01*
X303382Y143903D01*
X303498Y144489D01*
Y146846D01*
X303852Y147199D01*
X304305Y147199D01*
X304416Y147051D01*
X304654Y146734D01*
X304621Y146655D01*
X305708D01*
Y147742D01*
X305334Y147587D01*
X305069Y147322D01*
X304569Y147529D01*
X304569Y147580D01*
X304569Y147580D01*
X304569Y147590D01*
Y151699D01*
D02*
G37*
G36*
X308295Y145155D02*
X307208D01*
Y144068D01*
X307582Y144222D01*
X308140Y144781D01*
X308295Y145155D01*
D02*
G37*
G36*
X305708D02*
X304621D01*
X304776Y144781D01*
X305334Y144222D01*
X305708Y144068D01*
Y145155D01*
D02*
G37*
G36*
X252969Y148244D02*
X249909D01*
Y146366D01*
X252969D01*
Y148244D01*
D02*
G37*
G36*
X275303Y121807D02*
Y119929D01*
X278362D01*
Y121807D01*
X275303D01*
D02*
G37*
G36*
X281980D02*
X278921D01*
Y119929D01*
X281980D01*
Y121807D01*
D02*
G37*
G36*
X290461Y121807D02*
Y119929D01*
X293520D01*
Y121807D01*
X290461D01*
D02*
G37*
G36*
X278362Y118929D02*
X275303D01*
Y117051D01*
X278362D01*
Y118929D01*
D02*
G37*
G36*
X281980D02*
X278921D01*
Y117051D01*
X281980D01*
Y118929D01*
D02*
G37*
G36*
X293520Y118929D02*
X290461D01*
Y117051D01*
X293520D01*
Y118929D01*
D02*
G37*
G36*
X286039Y121807D02*
X285902Y121807D01*
X282980D01*
Y119429D01*
Y117051D01*
X285902D01*
X286402Y117051D01*
X286539Y117051D01*
X289461D01*
Y119429D01*
Y121807D01*
X286539D01*
X286221Y121807D01*
X286039Y121807D01*
D02*
G37*
G36*
X305249Y96632D02*
X302719D01*
Y94102D01*
X303267Y94249D01*
X304033Y94691D01*
X304659Y95317D01*
X305102Y96084D01*
X305249Y96632D01*
D02*
G37*
G36*
X301219D02*
X298689D01*
X298836Y96084D01*
X299278Y95317D01*
X299904Y94691D01*
X300671Y94249D01*
X301219Y94102D01*
Y96632D01*
D02*
G37*
G36*
X283821Y85908D02*
Y84608D01*
X285121D01*
X284920Y85094D01*
X284306Y85707D01*
X283821Y85908D01*
D02*
G37*
G36*
X282321D02*
X281835Y85707D01*
X281222Y85094D01*
X281021Y84608D01*
X282321D01*
Y85908D01*
D02*
G37*
G36*
X285121Y83108D02*
X283821D01*
Y81808D01*
X284306Y82009D01*
X284920Y82623D01*
X285121Y83108D01*
D02*
G37*
G36*
X282321D02*
X281021D01*
X281222Y82623D01*
X281835Y82009D01*
X282321Y81808D01*
Y83108D01*
D02*
G37*
G36*
X279884Y82365D02*
Y81065D01*
X281184D01*
X280983Y81551D01*
X280369Y82164D01*
X279884Y82365D01*
D02*
G37*
G36*
X278384D02*
X277898Y82164D01*
X277285Y81551D01*
X277084Y81065D01*
X278384D01*
Y82365D01*
D02*
G37*
G36*
X281184Y79565D02*
X279884D01*
Y78265D01*
X280369Y78466D01*
X280983Y79080D01*
X281184Y79565D01*
D02*
G37*
G36*
X278384D02*
X277084D01*
X277285Y79080D01*
X277898Y78466D01*
X278384Y78265D01*
Y79565D01*
D02*
G37*
G36*
X275947Y79216D02*
Y77915D01*
X277247D01*
X277046Y78401D01*
X276432Y79014D01*
X275947Y79216D01*
D02*
G37*
G36*
X208624Y76460D02*
Y75160D01*
X209924D01*
X209723Y75645D01*
X209109Y76258D01*
X208624Y76460D01*
D02*
G37*
G36*
X207124D02*
X206639Y76258D01*
X206025Y75645D01*
X205824Y75160D01*
X207124D01*
Y76460D01*
D02*
G37*
G36*
X277247Y76415D02*
X275947D01*
Y75115D01*
X276432Y75316D01*
X277046Y75930D01*
X277247Y76415D01*
D02*
G37*
G36*
X268148Y73704D02*
X267662Y73503D01*
X267049Y72889D01*
X266847Y72404D01*
X268148D01*
Y73704D01*
D02*
G37*
G36*
X274447Y79216D02*
X273961Y79014D01*
X273348Y78401D01*
X273016Y77599D01*
Y76910D01*
X272797Y76721D01*
Y74410D01*
Y72359D01*
X273283Y72560D01*
X273896Y73174D01*
X274228Y73976D01*
Y74664D01*
X274447Y74854D01*
Y77165D01*
Y79216D01*
D02*
G37*
G36*
X209924Y73659D02*
X208624D01*
Y72359D01*
X209109Y72560D01*
X209723Y73174D01*
X209924Y73659D01*
D02*
G37*
G36*
X207124D02*
X205824D01*
X206025Y73174D01*
X206639Y72560D01*
X207124Y72359D01*
Y73659D01*
D02*
G37*
G36*
X271297Y76460D02*
X270812Y76258D01*
X270198Y75645D01*
X269866Y74843D01*
Y74154D01*
X269648Y73965D01*
Y71653D01*
Y69603D01*
X270133Y69805D01*
X270747Y70418D01*
X271079Y71220D01*
Y71909D01*
X271297Y72098D01*
Y74410D01*
Y76460D01*
D02*
G37*
G36*
X268148Y70903D02*
X266847D01*
X267049Y70418D01*
X267662Y69805D01*
X268148Y69603D01*
Y70903D01*
D02*
G37*
G36*
X265711Y70554D02*
Y69254D01*
X267011D01*
X266810Y69739D01*
X266196Y70353D01*
X265711Y70554D01*
D02*
G37*
G36*
X264211D02*
X263725Y70353D01*
X263112Y69739D01*
X262911Y69254D01*
X264211D01*
Y70554D01*
D02*
G37*
G36*
X208624Y68192D02*
Y66892D01*
X209924D01*
X209723Y67377D01*
X209109Y67991D01*
X208624Y68192D01*
D02*
G37*
G36*
X207124D02*
X206639Y67991D01*
X206025Y67377D01*
X205824Y66892D01*
X207124D01*
Y68192D01*
D02*
G37*
G36*
X267011Y67754D02*
X265711D01*
Y66454D01*
X266196Y66655D01*
X266810Y67268D01*
X267011Y67754D01*
D02*
G37*
G36*
X264211D02*
X262911D01*
X263112Y67268D01*
X263725Y66655D01*
X264211Y66454D01*
Y67754D01*
D02*
G37*
G36*
X209924Y65392D02*
X208624D01*
Y64092D01*
X209109Y64293D01*
X209723Y64906D01*
X209924Y65392D01*
D02*
G37*
G36*
X207124D02*
X205824D01*
X206025Y64906D01*
X206639Y64293D01*
X207124Y64092D01*
Y65392D01*
D02*
G37*
G36*
X258677Y58087D02*
X255618D01*
Y56209D01*
X258677D01*
Y58087D01*
D02*
G37*
G36*
X254618D02*
X251559D01*
Y56209D01*
X254618D01*
Y58087D01*
D02*
G37*
G36*
X258677Y55209D02*
X255618D01*
Y53331D01*
X258677D01*
Y55209D01*
D02*
G37*
G36*
X254618D02*
X251559D01*
Y53331D01*
X254618D01*
Y55209D01*
D02*
G37*
G36*
X206262Y47900D02*
Y46813D01*
X207349D01*
X207194Y47187D01*
X206636Y47745D01*
X206262Y47900D01*
D02*
G37*
G36*
X204762D02*
X204388Y47745D01*
X203830Y47187D01*
X203675Y46813D01*
X204762D01*
Y47900D01*
D02*
G37*
G36*
X239194Y59758D02*
X238366D01*
X237601Y59441D01*
X237015Y58856D01*
X236698Y58091D01*
Y57263D01*
X237015Y56498D01*
X237601Y55913D01*
X238366Y55596D01*
X239194D01*
X239541Y55740D01*
X244679D01*
X244716Y55703D01*
Y50000D01*
X244864Y49259D01*
X245284Y48630D01*
X247055Y46859D01*
X247684Y46439D01*
X248425Y46291D01*
X251859D01*
Y46150D01*
X253181D01*
Y44503D01*
X252938Y44260D01*
X245877D01*
Y45090D01*
X242312D01*
Y43075D01*
X242305Y43064D01*
X242157Y42323D01*
X242305Y41581D01*
X242312Y41571D01*
Y39556D01*
X245877D01*
Y40386D01*
X253740D01*
X254482Y40533D01*
X255110Y40953D01*
X256488Y42331D01*
X256908Y42959D01*
X257055Y43701D01*
Y46150D01*
X258377D01*
Y50306D01*
X251859D01*
Y50166D01*
X249228D01*
X248591Y50802D01*
Y56506D01*
X248443Y57247D01*
X248023Y57875D01*
X246852Y59047D01*
X246223Y59467D01*
X245482Y59614D01*
X239541D01*
X239194Y59758D01*
D02*
G37*
G36*
X207349Y45313D02*
X206262D01*
Y44226D01*
X206636Y44381D01*
X207194Y44939D01*
X207349Y45313D01*
D02*
G37*
G36*
X204762D02*
X203675D01*
X203830Y44939D01*
X204388Y44381D01*
X204762Y44226D01*
Y45313D01*
D02*
G37*
G36*
X192876Y45432D02*
Y37364D01*
X197106D01*
Y40551D01*
X196936Y41840D01*
X196439Y43041D01*
X195647Y44072D01*
X194616Y44864D01*
X193415Y45361D01*
X192876Y45432D01*
D02*
G37*
G36*
X191376D02*
X190837Y45361D01*
X189636Y44864D01*
X188605Y44072D01*
X187813Y43041D01*
X187316Y41840D01*
X187146Y40551D01*
Y37364D01*
X191376D01*
Y45432D01*
D02*
G37*
G36*
X177165Y28995D02*
X173978D01*
Y24766D01*
X182046D01*
X181975Y25305D01*
X181478Y26506D01*
X180686Y27537D01*
X179655Y28328D01*
X178454Y28826D01*
X177165Y28995D01*
D02*
G37*
G36*
X172478D02*
X169291D01*
X168002Y28826D01*
X166802Y28328D01*
X165770Y27537D01*
X164979Y26506D01*
X164481Y25305D01*
X164410Y24766D01*
X172478D01*
Y28995D01*
D02*
G37*
G36*
X207299Y34465D02*
X199372D01*
Y22010D01*
X207299D01*
Y34465D01*
D02*
G37*
G36*
X197106Y35864D02*
X192126D01*
X187146D01*
Y32677D01*
X187316Y31388D01*
X187813Y30187D01*
X188605Y29156D01*
X189636Y28365D01*
X189945Y28237D01*
Y22010D01*
X197872D01*
Y34465D01*
X197106D01*
Y35864D01*
D02*
G37*
G36*
X156512Y34465D02*
X148585D01*
Y22010D01*
X156512D01*
Y34465D01*
D02*
G37*
G36*
X147085D02*
X139157D01*
Y22010D01*
X147085D01*
Y34465D01*
D02*
G37*
G36*
X182046Y23266D02*
X173978D01*
Y19036D01*
X177165D01*
X178454Y19206D01*
X179655Y19703D01*
X180686Y20495D01*
X181478Y21526D01*
X181975Y22727D01*
X182046Y23266D01*
D02*
G37*
G36*
X172478D02*
X164410D01*
X164481Y22727D01*
X164979Y21526D01*
X165770Y20495D01*
X166802Y19703D01*
X168002Y19206D01*
X169291Y19036D01*
X172478D01*
Y23266D01*
D02*
G37*
G36*
X248731Y22039D02*
X239064D01*
Y14339D01*
X248731D01*
Y22039D01*
D02*
G37*
G36*
X225825Y22358D02*
X224787D01*
Y22122D01*
X224322Y22039D01*
X224287Y22039D01*
X214654D01*
Y14339D01*
X224322D01*
Y14960D01*
X224787Y15043D01*
X224822Y15043D01*
X225825D01*
Y18701D01*
Y22358D01*
D02*
G37*
G36*
X207299Y20510D02*
X199372D01*
Y8055D01*
X207299D01*
Y20510D01*
D02*
G37*
G36*
X197872D02*
X189945D01*
Y8055D01*
X197872D01*
Y20510D01*
D02*
G37*
G36*
X156512Y20510D02*
X148585D01*
Y8055D01*
X156512D01*
Y20510D01*
D02*
G37*
G36*
X147085D02*
X139157D01*
Y8055D01*
X147085D01*
Y20510D01*
D02*
G37*
G36*
X383427Y116010D02*
Y114923D01*
X384514D01*
X384359Y115297D01*
X383801Y115855D01*
X383427Y116010D01*
D02*
G37*
G36*
X398927Y117072D02*
Y114633D01*
X401366D01*
X401193Y115279D01*
X400803Y115956D01*
X400250Y116508D01*
X399573Y116899D01*
X398927Y117072D01*
D02*
G37*
G36*
X397927D02*
X397281Y116899D01*
X396604Y116508D01*
X396052Y115956D01*
X395661Y115279D01*
X395488Y114633D01*
X397927D01*
Y117072D01*
D02*
G37*
G36*
X384514Y113423D02*
X383427D01*
Y112336D01*
X383801Y112491D01*
X384359Y113049D01*
X384514Y113423D01*
D02*
G37*
G36*
X381927Y116010D02*
X381554Y115856D01*
X362598D01*
X361955Y115727D01*
X361409Y115363D01*
X342715Y96669D01*
X342479D01*
X341678Y96337D01*
X341064Y95724D01*
X340863Y95238D01*
X342913D01*
Y94488D01*
X343663D01*
Y92438D01*
X344149Y92639D01*
X344762Y93253D01*
X345005Y93838D01*
X345546D01*
X345789Y93253D01*
X346402Y92639D01*
X346888Y92438D01*
Y94488D01*
X347638D01*
Y95238D01*
X349688D01*
X349487Y95724D01*
X348873Y96337D01*
X348149Y96637D01*
X347936Y97131D01*
X363295Y112491D01*
X381554D01*
X381927Y112336D01*
Y114173D01*
Y116010D01*
D02*
G37*
G36*
X412963Y117018D02*
X412208D01*
X411479Y116822D01*
X410824Y116445D01*
X410290Y115911D01*
X409913Y115257D01*
X409717Y114527D01*
Y113772D01*
X409913Y113042D01*
X410290Y112388D01*
X410824Y111854D01*
X411479Y111476D01*
X412208Y111281D01*
X412963D01*
X413693Y111476D01*
X414347Y111854D01*
X414881Y112388D01*
X415259Y113042D01*
X415454Y113772D01*
Y114527D01*
X415259Y115257D01*
X414881Y115911D01*
X414347Y116445D01*
X413693Y116822D01*
X412963Y117018D01*
D02*
G37*
G36*
X401366Y113633D02*
X398927D01*
Y111194D01*
X399573Y111367D01*
X400250Y111758D01*
X400803Y112310D01*
X401193Y112987D01*
X401366Y113633D01*
D02*
G37*
G36*
X397927D02*
X395488D01*
X395661Y112987D01*
X396052Y112310D01*
X396604Y111758D01*
X397281Y111367D01*
X397927Y111194D01*
Y113633D01*
D02*
G37*
G36*
X412963Y102876D02*
X412208D01*
X411479Y102680D01*
X410824Y102303D01*
X410290Y101769D01*
X409913Y101114D01*
X409717Y100385D01*
Y99630D01*
X409913Y98900D01*
X410290Y98246D01*
X410824Y97712D01*
X411479Y97334D01*
X412208Y97139D01*
X412963D01*
X413693Y97334D01*
X414347Y97712D01*
X414881Y98246D01*
X415259Y98900D01*
X415454Y99630D01*
Y100385D01*
X415259Y101114D01*
X414881Y101769D01*
X414347Y102303D01*
X413693Y102680D01*
X412963Y102876D01*
D02*
G37*
G36*
X354687Y96538D02*
Y95238D01*
X355987D01*
X355786Y95724D01*
X355172Y96337D01*
X354687Y96538D01*
D02*
G37*
G36*
X353187D02*
X352701Y96337D01*
X352088Y95724D01*
X351887Y95238D01*
X353187D01*
Y96538D01*
D02*
G37*
G36*
X355987Y93738D02*
X354687D01*
Y92438D01*
X355172Y92639D01*
X355786Y93253D01*
X355987Y93738D01*
D02*
G37*
G36*
X353187D02*
X351887D01*
X352088Y93253D01*
X352701Y92639D01*
X353187Y92438D01*
Y93738D01*
D02*
G37*
G36*
X349688D02*
X348388D01*
Y92438D01*
X348873Y92639D01*
X349487Y93253D01*
X349688Y93738D01*
D02*
G37*
G36*
X342163D02*
X340863D01*
X341064Y93253D01*
X341678Y92639D01*
X342163Y92438D01*
Y93738D01*
D02*
G37*
G36*
X331233Y75628D02*
X328703D01*
Y73098D01*
X329251Y73245D01*
X330017Y73687D01*
X330643Y74313D01*
X331086Y75080D01*
X331233Y75628D01*
D02*
G37*
G36*
X327203D02*
X324673D01*
X324820Y75080D01*
X325262Y74313D01*
X325888Y73687D01*
X326655Y73245D01*
X327203Y73098D01*
Y75628D01*
D02*
G37*
G36*
X338564Y119994D02*
X337814D01*
X337122Y119708D01*
X336592Y119178D01*
X336305Y118485D01*
Y117735D01*
X336507Y117248D01*
Y85039D01*
X336635Y84396D01*
X336999Y83850D01*
X348988Y71861D01*
X349190Y71374D01*
X349720Y70844D01*
X350413Y70557D01*
X351162D01*
X351855Y70844D01*
X352385Y71374D01*
X352672Y72066D01*
Y72816D01*
X352385Y73508D01*
X351855Y74038D01*
X351367Y74240D01*
X339871Y85736D01*
Y117248D01*
X340073Y117735D01*
Y118485D01*
X339786Y119178D01*
X339256Y119708D01*
X338564Y119994D01*
D02*
G37*
G36*
X368918Y67829D02*
X368090D01*
X367325Y67512D01*
X366740Y66927D01*
X366423Y66162D01*
Y65334D01*
X366740Y64569D01*
X367325Y63984D01*
X368090Y63667D01*
X368918D01*
X369683Y63984D01*
X370268Y64569D01*
X370585Y65334D01*
Y66162D01*
X370268Y66927D01*
X369683Y67512D01*
X368918Y67829D01*
D02*
G37*
G36*
X364194D02*
X363366D01*
X362601Y67512D01*
X362015Y66927D01*
X361698Y66162D01*
Y65334D01*
X362015Y64569D01*
X362601Y63984D01*
X363366Y63667D01*
X364194D01*
X364958Y63984D01*
X365544Y64569D01*
X365861Y65334D01*
Y66162D01*
X365544Y66927D01*
X364958Y67512D01*
X364194Y67829D01*
D02*
G37*
G36*
X356656Y51050D02*
Y49963D01*
X357743D01*
X357588Y50337D01*
X357030Y50895D01*
X356656Y51050D01*
D02*
G37*
G36*
X355155D02*
X354782Y50895D01*
X354223Y50337D01*
X354068Y49963D01*
X355155D01*
Y51050D01*
D02*
G37*
G36*
X331871Y48341D02*
X331121D01*
X330429Y48054D01*
X329899Y47524D01*
X329612Y46832D01*
Y46082D01*
X329814Y45594D01*
Y42991D01*
X329314Y42784D01*
X329077Y43021D01*
X328703Y43176D01*
Y41339D01*
Y39502D01*
X329077Y39656D01*
X329314Y39893D01*
X329814Y39686D01*
Y33858D01*
X329942Y33215D01*
X330307Y32669D01*
X345838Y17137D01*
X346040Y16649D01*
X346570Y16119D01*
X347263Y15832D01*
X348013D01*
X348705Y16119D01*
X349235Y16649D01*
X349522Y17342D01*
Y18091D01*
X349235Y18784D01*
X348705Y19314D01*
X348218Y19516D01*
X333178Y34555D01*
Y45594D01*
X333380Y46082D01*
Y46832D01*
X333093Y47524D01*
X332563Y48054D01*
X331871Y48341D01*
D02*
G37*
G36*
X376341Y36089D02*
Y35002D01*
X377428D01*
X377273Y35376D01*
X376714Y35934D01*
X376341Y36089D01*
D02*
G37*
G36*
X357843Y48463D02*
X353968D01*
Y46078D01*
X348630Y40740D01*
X348210Y40111D01*
X348063Y39370D01*
Y33821D01*
X351937D01*
Y38568D01*
X357275Y43906D01*
X357695Y44534D01*
X357843Y45276D01*
Y48463D01*
D02*
G37*
G36*
X360667Y30577D02*
X360293Y30422D01*
X359735Y29864D01*
X359580Y29490D01*
X360667D01*
Y30577D01*
D02*
G37*
G36*
Y27990D02*
X359580D01*
X359735Y27616D01*
X360293Y27058D01*
X360667Y26903D01*
Y27990D01*
D02*
G37*
G36*
X374840Y36089D02*
X374467Y35934D01*
X373908Y35376D01*
X373861Y35262D01*
X369276Y30677D01*
X362167D01*
Y28740D01*
Y26803D01*
X370079D01*
X370820Y26950D01*
X371449Y27370D01*
X376601Y32523D01*
X376714Y32570D01*
X377273Y33128D01*
X377428Y33502D01*
X375590D01*
Y34252D01*
X374840D01*
Y36089D01*
D02*
G37*
G36*
X372028Y84561D02*
X371279D01*
X370586Y84275D01*
X370056Y83745D01*
X369769Y83052D01*
Y82302D01*
X370056Y81610D01*
X370586Y81080D01*
X371279Y80793D01*
X372028D01*
X372721Y81080D01*
X372840Y81199D01*
X385214D01*
X393797Y72616D01*
Y25596D01*
X393678Y25477D01*
X393391Y24784D01*
Y24035D01*
X393678Y23342D01*
X394208Y22812D01*
X394901Y22525D01*
X395650D01*
X396343Y22812D01*
X396873Y23342D01*
X397160Y24035D01*
Y24784D01*
X396873Y25477D01*
X396754Y25596D01*
Y73228D01*
X396641Y73794D01*
X396321Y74274D01*
X386872Y83723D01*
X386392Y84043D01*
X385827Y84156D01*
X372840D01*
X372721Y84275D01*
X372028Y84561D01*
D02*
G37*
G36*
X371222Y6561D02*
Y5474D01*
X372309D01*
X372155Y5848D01*
X371596Y6407D01*
X371222Y6561D01*
D02*
G37*
G36*
X79937Y69701D02*
X77665D01*
Y67429D01*
X79937D01*
Y69701D01*
D02*
G37*
G36*
X65642D02*
X63370D01*
Y67429D01*
X65642D01*
Y69701D01*
D02*
G37*
G36*
X76665D02*
X72154D01*
Y66929D01*
X71153D01*
Y69701D01*
X66642D01*
Y66929D01*
X66142D01*
Y66429D01*
X63370D01*
Y64157D01*
Y61917D01*
X66142D01*
Y60917D01*
X63370D01*
Y58646D01*
Y56406D01*
X66142D01*
Y55905D01*
X66642D01*
Y53134D01*
X71153D01*
Y55905D01*
X72154D01*
Y53134D01*
X76665D01*
Y55905D01*
X77165D01*
Y56406D01*
X79937D01*
Y58677D01*
X79935D01*
Y60917D01*
X77163D01*
Y61917D01*
X79935D01*
Y64157D01*
X79937D01*
Y66429D01*
X77165D01*
Y66929D01*
X76665D01*
Y69701D01*
D02*
G37*
G36*
X79937Y55405D02*
X77665D01*
Y53134D01*
X79937D01*
Y55405D01*
D02*
G37*
G36*
X65642D02*
X63370D01*
Y53134D01*
X65642D01*
Y55405D01*
D02*
G37*
G36*
X34608Y39476D02*
Y38152D01*
X35933D01*
X35913Y38253D01*
X35431Y38974D01*
X34709Y39456D01*
X34608Y39476D01*
D02*
G37*
G36*
X35933Y36652D02*
X34608D01*
Y35327D01*
X34709Y35347D01*
X35431Y35829D01*
X35913Y36551D01*
X35933Y36652D01*
D02*
G37*
G36*
X42888Y34496D02*
X40616D01*
Y31043D01*
X42888D01*
Y34496D01*
D02*
G37*
G36*
X34608Y31602D02*
Y30278D01*
X35933D01*
X35913Y30379D01*
X35431Y31100D01*
X34709Y31582D01*
X34608Y31602D01*
D02*
G37*
G36*
X35933Y28778D02*
X34608D01*
Y27453D01*
X34709Y27473D01*
X35431Y27955D01*
X35913Y28677D01*
X35933Y28778D01*
D02*
G37*
G36*
X42888Y30043D02*
X40616D01*
Y26591D01*
X42888D01*
Y30043D01*
D02*
G37*
G36*
X35002Y24122D02*
Y22797D01*
X36327D01*
X36307Y22898D01*
X35824Y23620D01*
X35103Y24102D01*
X35002Y24122D01*
D02*
G37*
G36*
X43010Y25213D02*
X41132D01*
Y22153D01*
X43010D01*
Y25213D01*
D02*
G37*
G36*
X40132D02*
X38254D01*
Y22153D01*
X40132D01*
Y25213D01*
D02*
G37*
G36*
X36327Y21297D02*
X35002D01*
Y19973D01*
X35103Y19993D01*
X35824Y20475D01*
X36307Y21196D01*
X36327Y21297D01*
D02*
G37*
G36*
X43010Y21154D02*
X41132D01*
Y18094D01*
X43010D01*
Y21154D01*
D02*
G37*
G36*
X40132D02*
X38254D01*
Y18094D01*
X40132D01*
Y21154D01*
D02*
G37*
G36*
X35002Y15854D02*
Y14529D01*
X36327D01*
X36307Y14630D01*
X35824Y15352D01*
X35103Y15834D01*
X35002Y15854D01*
D02*
G37*
G36*
X43010Y17339D02*
X41132D01*
Y14279D01*
X43010D01*
Y17339D01*
D02*
G37*
G36*
X40132D02*
X38254D01*
Y14279D01*
X40132D01*
Y17339D01*
D02*
G37*
G36*
X36327Y13029D02*
X35002D01*
Y11705D01*
X35103Y11725D01*
X35824Y12207D01*
X36307Y12928D01*
X36327Y13029D01*
D02*
G37*
G36*
X43010Y13280D02*
X41132D01*
Y10221D01*
X43010D01*
Y13280D01*
D02*
G37*
G36*
X40132D02*
X38254D01*
Y10221D01*
X40132D01*
Y13280D01*
D02*
G37*
G36*
X40588Y8456D02*
X38438D01*
Y6656D01*
X40588D01*
Y8456D01*
D02*
G37*
G36*
Y5156D02*
X38438D01*
Y3356D01*
X40588D01*
Y5156D01*
D02*
G37*
%LPD*%
D67*
X13386Y187795D02*
D03*
X199055Y290394D02*
D03*
Y330394D02*
D03*
Y360394D02*
D03*
X229055Y350394D02*
D03*
Y290394D02*
D03*
X173228Y6299D02*
D03*
X250354Y289803D02*
D03*
Y329803D02*
D03*
Y359803D02*
D03*
X280354Y349803D02*
D03*
Y289803D02*
D03*
D74*
X63583Y185236D02*
D03*
D75*
X28346Y162402D02*
D03*
Y213189D02*
D03*
D76*
X81102Y20276D02*
D03*
Y13976D02*
D03*
X241732Y220709D02*
D03*
Y227009D02*
D03*
X258268Y122047D02*
D03*
Y128347D02*
D03*
X281299Y183071D02*
D03*
Y176771D02*
D03*
X242323Y159449D02*
D03*
Y153149D02*
D03*
X314415Y76181D02*
D03*
Y82481D02*
D03*
X233858Y280118D02*
D03*
Y273818D02*
D03*
X305906Y157874D02*
D03*
Y164174D02*
D03*
X237205Y159449D02*
D03*
Y153149D02*
D03*
X227165Y159055D02*
D03*
Y152755D02*
D03*
X232087Y159055D02*
D03*
Y152755D02*
D03*
X258268Y110629D02*
D03*
Y116929D02*
D03*
X241339Y280118D02*
D03*
Y273818D02*
D03*
X129134Y22047D02*
D03*
Y28347D02*
D03*
X91732Y108071D02*
D03*
Y114371D02*
D03*
D77*
X64764Y13976D02*
D03*
Y21457D02*
D03*
X57087Y17717D02*
D03*
X296063Y77559D02*
D03*
X303740Y81299D02*
D03*
Y73819D02*
D03*
X226181Y272638D02*
D03*
Y280118D02*
D03*
X218504Y276378D02*
D03*
X249016Y280118D02*
D03*
Y272638D02*
D03*
X256693Y276378D02*
D03*
X74803Y111811D02*
D03*
X82480Y115551D02*
D03*
Y108071D02*
D03*
D78*
X57086Y7480D02*
D03*
X63386D02*
D03*
X287008Y189173D02*
D03*
X280708D02*
D03*
X287007Y194095D02*
D03*
X280708D02*
D03*
X292520Y55118D02*
D03*
X286221D02*
D03*
X242913Y266929D02*
D03*
X249213D02*
D03*
X219685Y264961D02*
D03*
X225985D02*
D03*
X274803Y203150D02*
D03*
X268503D02*
D03*
X274803Y209547D02*
D03*
X268503D02*
D03*
X273229Y144095D02*
D03*
X266929D02*
D03*
X303937Y175197D02*
D03*
X297637D02*
D03*
X301969Y149449D02*
D03*
X295669D02*
D03*
X221456Y164644D02*
D03*
X215156D02*
D03*
X215157Y159133D02*
D03*
X221457D02*
D03*
X73622Y7480D02*
D03*
X79922D02*
D03*
X41338Y5906D02*
D03*
X47638D02*
D03*
X136417Y126693D02*
D03*
X142717D02*
D03*
D79*
X43388Y30543D02*
D03*
X48388D02*
D03*
X53388D02*
D03*
X58388D02*
D03*
X63388D02*
D03*
X68388D02*
D03*
X73388D02*
D03*
X78388D02*
D03*
X83388D02*
D03*
X88388D02*
D03*
X93388D02*
D03*
X98388D02*
D03*
X103388D02*
D03*
X108388D02*
D03*
X43384Y99378D02*
D03*
X48384D02*
D03*
X53384D02*
D03*
X58384D02*
D03*
X63384D02*
D03*
X68384D02*
D03*
X73384D02*
D03*
X78384D02*
D03*
X83384D02*
D03*
X88384D02*
D03*
X93384D02*
D03*
X98384D02*
D03*
X103384D02*
D03*
X108384D02*
D03*
D80*
X113309Y42472D02*
D03*
D03*
Y47472D02*
D03*
Y52472D02*
D03*
Y57472D02*
D03*
Y62472D02*
D03*
Y67472D02*
D03*
Y72472D02*
D03*
Y77472D02*
D03*
Y82472D02*
D03*
Y87472D02*
D03*
D81*
X77165Y66929D02*
D03*
X66142D02*
D03*
Y61417D02*
D03*
Y55905D02*
D03*
X71653Y66929D02*
D03*
D82*
Y55905D02*
D03*
X77163Y61417D02*
D03*
X77165Y55905D02*
D03*
X71653Y61417D02*
D03*
D83*
X111811Y139941D02*
D03*
Y147421D02*
D03*
X289961Y126909D02*
D03*
Y119429D02*
D03*
X282480Y126909D02*
D03*
Y119429D02*
D03*
X274803Y126909D02*
D03*
Y119429D02*
D03*
X255118Y55709D02*
D03*
Y48228D02*
D03*
X234055Y213228D02*
D03*
Y220709D02*
D03*
X226181Y220709D02*
D03*
Y213228D02*
D03*
X297638Y156969D02*
D03*
Y164449D02*
D03*
X243110Y145866D02*
D03*
Y138386D02*
D03*
X249410Y138386D02*
D03*
Y145866D02*
D03*
X187795Y171457D02*
D03*
Y178937D02*
D03*
Y191929D02*
D03*
Y184449D02*
D03*
D84*
X221457Y131909D02*
D03*
Y126909D02*
D03*
Y121909D02*
D03*
Y116909D02*
D03*
X243110D02*
D03*
Y121909D02*
D03*
Y126909D02*
D03*
Y131909D02*
D03*
X265354Y164449D02*
D03*
Y159449D02*
D03*
Y154449D02*
D03*
Y149449D02*
D03*
X287007D02*
D03*
Y154449D02*
D03*
Y159449D02*
D03*
Y164449D02*
D03*
X128740Y134941D02*
D03*
Y139941D02*
D03*
Y144941D02*
D03*
Y149941D02*
D03*
X150394D02*
D03*
Y144941D02*
D03*
Y139941D02*
D03*
Y134941D02*
D03*
D85*
X199071Y173503D02*
D03*
X209371Y183803D02*
D03*
X205196Y167378D02*
D03*
X215496Y177679D02*
D03*
D86*
X195535Y158009D02*
D03*
X191080Y162464D02*
D03*
D87*
X236811Y33268D02*
D03*
X233071D02*
D03*
X229331D02*
D03*
Y42323D02*
D03*
X233071D02*
D03*
X236811D02*
D03*
D88*
X233858Y204921D02*
D03*
X235827D02*
D03*
X237795D02*
D03*
X239764D02*
D03*
X241732D02*
D03*
X243701D02*
D03*
X245669D02*
D03*
X247638D02*
D03*
X249606D02*
D03*
X251575D02*
D03*
X253543D02*
D03*
X255512D02*
D03*
Y171457D02*
D03*
X253543D02*
D03*
X251575D02*
D03*
X249606D02*
D03*
X247638D02*
D03*
X245669D02*
D03*
X243701D02*
D03*
X241732D02*
D03*
X239764D02*
D03*
X237795D02*
D03*
X235827D02*
D03*
X233858D02*
D03*
D89*
X261723Y198917D02*
D03*
Y196949D02*
D03*
Y194980D02*
D03*
Y193012D02*
D03*
Y191043D02*
D03*
Y189075D02*
D03*
Y187106D02*
D03*
Y185137D02*
D03*
Y183169D02*
D03*
Y181201D02*
D03*
Y179232D02*
D03*
Y177263D02*
D03*
X228259D02*
D03*
Y179232D02*
D03*
Y181201D02*
D03*
Y183169D02*
D03*
Y185137D02*
D03*
Y187106D02*
D03*
Y189075D02*
D03*
Y191043D02*
D03*
Y193012D02*
D03*
Y194980D02*
D03*
Y196949D02*
D03*
Y198917D02*
D03*
D03*
D90*
X214432Y200259D02*
D03*
X209977Y195804D02*
D03*
D91*
X268503Y220709D02*
D03*
Y230709D02*
D03*
Y240709D02*
D03*
Y250709D02*
D03*
Y260709D02*
D03*
D92*
X175787Y56496D02*
D03*
D93*
X198622Y21260D02*
D03*
X147835D02*
D03*
D94*
X244094Y42323D02*
D03*
Y31299D02*
D03*
X78347Y211811D02*
D03*
Y222835D02*
D03*
D95*
X160433Y162992D02*
D03*
X167913D02*
D03*
X145473Y189764D02*
D03*
X152953D02*
D03*
X167717Y170079D02*
D03*
X160236D02*
D03*
X40632Y21654D02*
D03*
X48112D02*
D03*
Y13780D02*
D03*
X40632D02*
D03*
D96*
X105905Y185827D02*
D03*
X82284D02*
D03*
D97*
X286221Y72638D02*
D03*
Y64370D02*
D03*
D98*
X200236Y280118D02*
D03*
X211260D02*
D03*
X194882Y103740D02*
D03*
X183858D02*
D03*
X274803Y280315D02*
D03*
X263779D02*
D03*
D99*
X246654Y7480D02*
D03*
X216732D02*
D03*
D100*
X231693Y18701D02*
D03*
X226575D02*
D03*
X229134D02*
D03*
X234252D02*
D03*
X236811D02*
D03*
D101*
X219488Y18189D02*
D03*
X243898Y18189D02*
D03*
D102*
X97047Y15551D02*
D03*
X108858D02*
D03*
X114764D02*
D03*
D103*
X120276Y12598D02*
D03*
X91535D02*
D03*
Y4724D02*
D03*
X120276D02*
D03*
D104*
X105905Y114882D02*
D03*
X123110D02*
D03*
D105*
X92520Y231122D02*
D03*
X78347D02*
D03*
D106*
X105118Y210610D02*
D03*
Y231122D02*
D03*
X139764Y210610D02*
D03*
X139764Y231122D02*
D03*
D107*
X160236Y178740D02*
D03*
X169291D02*
D03*
X178347D02*
D03*
D108*
X169291Y203937D02*
D03*
D109*
X125787Y170787D02*
D03*
X145473D02*
D03*
D110*
X143701Y114882D02*
D03*
X135433D02*
D03*
D111*
X210236Y127579D02*
D03*
Y131909D02*
D03*
D112*
X239764Y210616D02*
Y215841D01*
X238583Y217022D02*
X239764Y215841D01*
X238583Y217022D02*
Y227165D01*
X237795Y204921D02*
Y208647D01*
X239764Y210616D01*
X224803Y240945D02*
X238583Y227165D01*
X252618Y215217D02*
Y228977D01*
X247638Y204921D02*
Y210236D01*
X252618Y215217D01*
X253543Y210699D02*
X256624Y213780D01*
X249606Y209449D02*
X254724Y214567D01*
X253543Y204921D02*
Y210699D01*
X254724Y214567D02*
Y229921D01*
X256624Y213780D02*
Y230709D01*
X249606Y204921D02*
Y209449D01*
X260424Y204519D02*
Y229528D01*
X261606Y230709D01*
X268503D01*
X217673Y192482D02*
X219133Y191023D01*
X213299Y192482D02*
X217673D01*
X209977Y195804D02*
X209977D01*
X219133Y191023D02*
X221025D01*
X209977Y195804D02*
X213299Y192482D01*
X221025Y191023D02*
X221045Y191043D01*
X228259D01*
X209055Y176556D02*
X221574Y189075D01*
X209055Y171238D02*
Y176556D01*
X221574Y189075D02*
X228259D01*
X205196Y167378D02*
X209055Y171238D01*
X64764Y21457D02*
X77165D01*
X270226Y186467D02*
X270769D01*
X270079Y186614D02*
X270226Y186467D01*
X270965Y186271D02*
X291288D01*
X270769Y186467D02*
X270965Y186271D01*
X291288D02*
X294488Y183071D01*
X261723Y191043D02*
X270512D01*
X261723Y193012D02*
X271380D01*
X272381Y189173D02*
X280708D01*
X271380Y193012D02*
X272463Y194095D01*
X280708D01*
X270512Y191043D02*
X272381Y189173D01*
X224803Y240945D02*
Y244882D01*
X283465Y143701D02*
X301181D01*
X256299Y196542D02*
X257861Y194980D01*
X256299Y196542D02*
Y200394D01*
X257861Y194980D02*
X261723D01*
X256299Y200394D02*
X260424Y204519D01*
X301969Y144489D02*
Y149449D01*
X301181Y143701D02*
X301969Y144489D01*
X198748Y160166D02*
X201575Y162992D01*
X197691Y160166D02*
X198748D01*
X195535Y158009D02*
X197691Y160166D01*
X201575Y162992D02*
Y163757D01*
X205196Y167378D01*
X205118Y188056D02*
X209371Y183803D01*
X205118Y188056D02*
Y190945D01*
X209977Y195804D01*
X219685Y261911D02*
X252618Y228977D01*
X253937Y236083D02*
Y239370D01*
X255276Y240709D02*
X268503D01*
X253937Y239370D02*
X255276Y240709D01*
X253937Y236083D02*
X258524Y231496D01*
X249213Y235433D02*
X254724Y229921D01*
X251113Y236221D02*
X256624Y230709D01*
X258524Y211796D02*
Y231496D01*
X255512Y208783D02*
X258524Y211796D01*
X219685Y261911D02*
Y264961D01*
X251113Y236221D02*
Y247879D01*
X249213Y235433D02*
Y266929D01*
X251113Y247879D02*
X253943Y250709D01*
X255512Y204921D02*
Y208783D01*
X253943Y250709D02*
X268503D01*
D113*
X234055Y218933D02*
X237864Y215124D01*
X234055Y218933D02*
Y220709D01*
X237864Y211333D02*
Y215124D01*
X235827Y209295D02*
X237864Y211333D01*
X235827Y204921D02*
Y209295D01*
X245669Y211811D02*
X250137Y216279D01*
X243701Y215158D02*
X247047Y218504D01*
X243701Y204921D02*
Y215158D01*
X305906Y151969D02*
X306458Y151416D01*
Y145905D02*
Y151416D01*
X305906Y151969D02*
Y157874D01*
X303937Y179237D02*
Y185827D01*
Y179237D02*
X303937Y179236D01*
Y175197D02*
Y179236D01*
X312992Y15066D02*
X323727Y4331D01*
X312992Y15066D02*
Y38976D01*
X323727Y4331D02*
X357874D01*
X371654Y82677D02*
X385827D01*
X395276Y24409D02*
Y73228D01*
X385827Y82677D02*
X395276Y73228D01*
X273228Y155957D02*
X275009Y154176D01*
Y148425D02*
Y154176D01*
X273228Y155957D02*
Y158661D01*
X273229Y146644D02*
X275009Y148425D01*
X270555Y146933D02*
X272835Y149213D01*
Y153805D01*
X263075Y146933D02*
X270555D01*
X273229Y144095D02*
Y146644D01*
X265354Y154449D02*
X272190D01*
X272835Y153805D01*
X258268Y122047D02*
X266732D01*
X263779Y116929D02*
X263779Y116929D01*
X255218Y116929D02*
X258268D01*
X263779D01*
X253543Y171457D02*
Y177324D01*
X254724Y178505D01*
Y181102D01*
X255512Y174242D02*
X256881Y175611D01*
X255512Y171457D02*
Y174242D01*
X257792Y175611D02*
X261750Y171653D01*
X256881Y175611D02*
X257792D01*
X251575Y177287D02*
Y195669D01*
X249606Y171457D02*
Y175319D01*
X251575Y177287D01*
X245669Y175319D02*
X249213Y178862D01*
X245669Y171457D02*
Y175319D01*
X249213Y178862D02*
Y186221D01*
X252240Y166929D02*
X270079D01*
X251575Y167595D02*
X252240Y166929D01*
X251575Y167595D02*
Y171457D01*
X224803Y142520D02*
X236335D01*
X236407Y142592D01*
X255118Y143236D02*
Y162205D01*
X236407Y142592D02*
X254474D01*
X219910Y137627D02*
X224803Y142520D01*
X254474Y142592D02*
X255118Y143236D01*
X226967Y135827D02*
X238118Y124675D01*
X206550Y135827D02*
X226967D01*
X238118Y124675D02*
X247592D01*
X237795Y144826D02*
X238030D01*
X239071Y145866D01*
X243110D01*
X241068Y148494D02*
X242323Y149749D01*
Y153149D01*
X238258Y148494D02*
X241068D01*
X260630Y144488D02*
X263075Y146933D01*
X256918Y134001D02*
Y157480D01*
X247592Y124675D02*
X256918Y134001D01*
X212205Y145669D02*
X235433D01*
X238258Y148494D01*
X256918Y157480D02*
X258887Y159449D01*
X255118Y162205D02*
X257363Y164449D01*
X268503Y220709D02*
X273440D01*
X273622Y223387D02*
X274085Y222924D01*
X273622Y223387D02*
Y223622D01*
X273440Y220709D02*
X274085Y221353D01*
Y222924D01*
X270148Y225984D02*
X298031D01*
X311502Y212514D01*
Y121988D02*
Y212514D01*
X301969Y121004D02*
X302225Y121260D01*
X310773D01*
X311502Y121988D01*
X257363Y164449D02*
X265354D01*
X270079Y166929D02*
X273228Y170079D01*
X261750Y171653D02*
X263779D01*
X243110Y145866D02*
X246669D01*
X246850Y146047D01*
Y146063D01*
X215619Y186350D02*
Y186585D01*
X216727Y187694D02*
Y190198D01*
X215619Y186585D02*
X216727Y187694D01*
X220079Y193307D02*
Y193542D01*
X220472Y193936D01*
Y196063D01*
X202756Y180315D02*
Y184646D01*
Y180315D02*
X204331Y178740D01*
X212205Y189764D02*
X215619Y186350D01*
X209842Y189764D02*
X212205D01*
X223228Y181833D02*
Y183858D01*
X223640Y179134D02*
Y181421D01*
X223228Y183858D02*
X224508Y185137D01*
X223228Y181833D02*
X223640Y181421D01*
X224508Y185137D02*
X228259D01*
X224286Y175321D02*
X227953Y171653D01*
X224930Y177263D02*
X228259D01*
X224286Y175321D02*
Y176619D01*
X224930Y177263D01*
X218430Y182603D02*
X218504Y182677D01*
X218430Y180613D02*
Y182603D01*
X215496Y177679D02*
X218430Y180613D01*
X232121Y183169D02*
X233858Y184906D01*
X228259Y183169D02*
X232121D01*
X233858Y184906D02*
Y204921D01*
X317717Y100000D02*
X327953D01*
X314415Y96698D02*
X317717Y100000D01*
X314415Y82481D02*
Y96698D01*
X308858Y73819D02*
X311221Y76181D01*
X314415D01*
X303740Y73819D02*
X308858D01*
X287008Y77559D02*
X296063D01*
X286221Y76772D02*
X287008Y77559D01*
X286221Y72638D02*
Y76772D01*
Y55118D02*
Y64370D01*
X310374Y109193D02*
X312205Y111024D01*
Y116929D01*
X261723Y196949D02*
X274159D01*
X274803Y197593D02*
Y203150D01*
X274159Y196949D02*
X274803Y197593D01*
X261723Y198917D02*
X267859D01*
X268503Y203150D02*
Y206497D01*
X267859Y198917D02*
X268503Y199561D01*
Y203150D01*
X273228Y170079D02*
X276378D01*
X258268Y122047D02*
X258268Y122047D01*
X233071Y29134D02*
X233071Y29134D01*
X233071Y29134D02*
Y33268D01*
X236811Y22858D02*
X239150Y25197D01*
X243110D01*
X236811Y18701D02*
Y22858D01*
X233071Y33268D02*
Y37795D01*
X233071Y37795D01*
X73622Y12204D02*
X73622Y12205D01*
X71004Y14439D02*
X75322D01*
X75785Y13976D01*
X81102D01*
X64764D02*
X70542D01*
X71004Y14439D01*
X73622Y7480D02*
Y12204D01*
X62598Y2756D02*
X63386Y3544D01*
X51138Y2756D02*
X62598D01*
X63386Y3544D02*
Y7480D01*
X47988Y5906D02*
X51138Y2756D01*
X47638Y5906D02*
X47988D01*
X297244Y138583D02*
X297350Y138477D01*
X309161D02*
X309267Y138371D01*
X297350Y138477D02*
X309161D01*
X301969Y109193D02*
X310374D01*
X282283Y98425D02*
X298726Y114867D01*
X241732Y98425D02*
X282283D01*
X298726Y114867D02*
X301738D01*
X301969Y115098D01*
X246063Y156299D02*
X249213Y153150D01*
X240005Y156299D02*
X246063D01*
X237205Y153499D02*
X240005Y156299D01*
X237205Y153149D02*
Y153499D01*
X238189Y187402D02*
X248031D01*
X249213Y186221D01*
X236492Y177953D02*
X239370D01*
X242323Y165157D02*
X243701Y166535D01*
Y171457D01*
X237205Y163067D02*
X241732Y167595D01*
Y171457D01*
X258887Y159449D02*
X265354D01*
X208687Y137627D02*
X219910D01*
X207874Y138440D02*
X208687Y137627D01*
X207874Y138440D02*
Y142520D01*
X205512Y144882D02*
X207874Y142520D01*
X202362Y144882D02*
X205906Y141339D01*
Y136471D02*
X206550Y135827D01*
X205906Y136471D02*
Y141339D01*
X202362Y144882D02*
Y152111D01*
X206156Y149605D02*
X229233D01*
X205512Y148961D02*
X206156Y149605D01*
X205512Y144882D02*
Y148961D01*
X229422Y149794D02*
X229476D01*
X229233Y149605D02*
X229422Y149794D01*
X229476D02*
X232087Y152405D01*
Y152755D01*
X202362Y152111D02*
X203007Y152755D01*
X227165D01*
X291460Y149449D02*
X295669D01*
X291460Y149449D02*
X291460Y149449D01*
X287007Y149449D02*
X291460D01*
X247638Y162598D02*
X250000Y160236D01*
X247638Y162598D02*
Y163386D01*
X247638Y163386D02*
Y171457D01*
X247638Y163386D02*
X247638Y163386D01*
X108858Y21063D02*
X109842Y22047D01*
X129134D01*
X108858Y15551D02*
Y21063D01*
X95669Y22047D02*
X97047Y20669D01*
Y15551D02*
Y20669D01*
X89370Y22047D02*
X95669D01*
X85827Y18504D02*
X89370Y22047D01*
X85827Y8268D02*
Y18504D01*
X85039Y7480D02*
X85827Y8268D01*
X79922Y7480D02*
X85039D01*
X195276Y77165D02*
X203150Y85039D01*
X217717D01*
X185433Y83858D02*
X209449Y107874D01*
X129134Y28697D02*
X177602Y77165D01*
X195276D01*
X118504Y24409D02*
X177953Y83858D01*
X185433D01*
X88285Y24409D02*
X118504D01*
X129134Y28347D02*
Y28697D01*
X242323Y159449D02*
Y165157D01*
X237205Y159449D02*
Y163067D01*
X236947Y165354D02*
X237795Y166203D01*
X233071Y165354D02*
X236947D01*
X237795Y166203D02*
Y167595D01*
X232087Y159055D02*
Y164370D01*
X227165Y159055D02*
Y165748D01*
X237795Y167595D02*
Y171457D01*
X237795Y167595D02*
X237795Y167595D01*
X235555Y167323D02*
X235827Y167595D01*
X228740Y167323D02*
X235555D01*
X235827Y167595D02*
Y171457D01*
X232087Y164370D02*
X233071Y165354D01*
X227165Y165748D02*
X228740Y167323D01*
X84152Y20276D02*
X88285Y24409D01*
X81102Y20276D02*
X84152D01*
X63384Y94925D02*
X64058Y94251D01*
X116512Y93307D02*
X178347D01*
X115568Y94251D02*
X116512Y93307D01*
X64058Y94251D02*
X115568D01*
X63384Y94925D02*
Y99378D01*
X115043Y92231D02*
X117904Y89370D01*
X58384Y94925D02*
X61078Y92231D01*
X115043D01*
X117904Y89370D02*
X178347D01*
X58384Y94925D02*
Y99378D01*
X233858Y175319D02*
X236492Y177953D01*
X233858Y171457D02*
Y175319D01*
X183858Y122047D02*
X183996Y121909D01*
X221457D01*
X183858Y106323D02*
Y122047D01*
Y106323D02*
X183858Y106323D01*
Y103740D02*
Y106323D01*
X213705Y127579D02*
X214374Y126909D01*
X221457D01*
X210236Y127579D02*
X213705D01*
X210236Y131909D02*
X217004D01*
X217004Y131909D01*
X221457D01*
X243110Y25197D02*
X244094Y26181D01*
Y31299D01*
X245669Y204921D02*
Y211811D01*
X243110Y121909D02*
X255080D01*
X255218Y122047D01*
X258268D01*
X243110Y116909D02*
X255198D01*
X255218Y116929D01*
X268503Y206497D02*
X268503Y206497D01*
X268503Y206497D02*
Y209547D01*
D114*
X241732Y204921D02*
Y217309D01*
X241732D01*
Y220709D01*
D115*
X316929Y25591D02*
Y37008D01*
X331496Y33858D02*
X347638Y17717D01*
X331496Y33858D02*
Y46457D01*
X338189Y85039D02*
Y118110D01*
Y85039D02*
X350787Y72441D01*
X342913Y94488D02*
X362598Y114173D01*
X382677D01*
X316929Y25591D02*
X318898Y23622D01*
Y12598D02*
Y23622D01*
X316929Y37008D02*
X321260Y41339D01*
X327953D01*
Y62992D02*
X337402D01*
X340551Y66142D01*
X320079Y55118D02*
X327953Y62992D01*
X292520Y55118D02*
X320079D01*
X265877Y126623D02*
Y128217D01*
X265748Y128347D02*
X265877Y128217D01*
Y126623D02*
X269363Y123137D01*
Y118793D02*
Y123137D01*
X265748Y115177D02*
X269363Y118793D01*
X265748Y110629D02*
Y115177D01*
D116*
X253150Y261024D02*
X253465Y260709D01*
X233071Y48172D02*
X233071Y48172D01*
X233071Y42323D02*
Y48172D01*
X350000Y39370D02*
X355906Y45276D01*
X350000Y33071D02*
Y39370D01*
X355906Y45276D02*
Y49213D01*
X361417Y28740D02*
X370079D01*
X375590Y34252D01*
X366929Y4724D02*
X370472D01*
X350000Y21654D02*
Y33071D01*
Y21654D02*
X366929Y4724D01*
X260236Y137017D02*
X261408Y138189D01*
X260236Y133858D02*
Y137017D01*
X261408Y138189D02*
X269685D01*
X260236Y133858D02*
X265748Y128347D01*
X253415Y272638D02*
X256721Y269332D01*
X275590D01*
X249016Y272638D02*
X253415D01*
X301969Y85645D02*
Y97382D01*
Y85645D02*
X303740Y83874D01*
Y81299D02*
Y83874D01*
X275590Y269332D02*
X277124Y270866D01*
X285827D01*
X291339Y177165D02*
Y179921D01*
X294488Y183071D01*
X291339Y177165D02*
X293307Y175197D01*
X297637D01*
X206299Y215748D02*
X208819Y213228D01*
X226181D01*
X253465Y260709D02*
X268503D01*
X277166Y213779D02*
X286221Y204724D01*
X268503Y213779D02*
X277166D01*
X265748Y128347D02*
X265748Y128347D01*
X288189Y110630D02*
X288189Y110630D01*
X265748Y110630D02*
X288189D01*
X265748Y110629D02*
X265748Y110630D01*
X195526Y110629D02*
X258268D01*
X194882Y109985D02*
X195526Y110629D01*
X194882Y103740D02*
Y109985D01*
X82480Y108071D02*
X88682D01*
X88682Y108071D01*
X91732D01*
X268503Y209547D02*
Y213779D01*
X258268Y110629D02*
X265748D01*
X245482Y57677D02*
X246654Y56506D01*
Y50000D02*
Y56506D01*
X238779Y57677D02*
X245482D01*
X246654Y50000D02*
X248425Y48228D01*
X255118D01*
X253740Y42323D02*
X255118Y43701D01*
Y48228D01*
X244094Y42323D02*
X253740D01*
X268503Y260709D02*
X286299D01*
X61417Y111811D02*
X74803D01*
X56960Y116269D02*
X61417Y111811D01*
X56960Y116269D02*
Y124536D01*
X43955Y139370D02*
X76378D01*
X43040Y138456D02*
X43955Y139370D01*
D117*
X236811Y33268D02*
Y42323D01*
X229331D02*
Y48228D01*
Y29254D02*
Y42323D01*
X231835Y50732D02*
Y75000D01*
X236811Y42323D02*
Y48228D01*
X229331D02*
X231835Y50732D01*
X234307Y50732D02*
X236811Y48228D01*
X234307Y50732D02*
Y76024D01*
X218110Y78150D02*
X228685D01*
X229709Y80622D02*
X234307Y76024D01*
X228685Y78150D02*
X231835Y75000D01*
X217964Y80622D02*
X229709D01*
X236766Y33222D02*
X236811Y33268D01*
X234209Y26849D02*
X236766Y29406D01*
X231736Y18744D02*
Y26849D01*
X229331Y29254D02*
X231736Y26849D01*
X234209Y18744D02*
Y26849D01*
X236766Y29406D02*
Y33222D01*
X231693Y18701D02*
X231736Y18744D01*
X234209D02*
X234252Y18701D01*
X217717Y77902D02*
X217862D01*
X218110Y78150D01*
X300209Y192681D02*
X300456Y192929D01*
X300591D01*
X292323Y192681D02*
X300209D01*
X287007Y194095D02*
X290910D01*
X292323Y192681D01*
X300209Y190208D02*
X300456Y189961D01*
X291288Y189173D02*
X292323Y190208D01*
X300209D01*
X287008Y189173D02*
X291288D01*
X300456Y189961D02*
X300591D01*
X217717Y80870D02*
X217964Y80622D01*
D118*
X278346Y139653D02*
Y157757D01*
X285039Y164449D01*
X276882Y138189D02*
X278346Y139653D01*
X266929Y140945D02*
Y144095D01*
Y140945D02*
X269685Y138189D01*
X276882D01*
X285039Y164449D02*
X287007D01*
X270669Y128347D02*
X274803Y132480D01*
X265748Y128347D02*
X270669D01*
X95669Y132283D02*
X111024D01*
X82284Y145669D02*
X95669Y132283D01*
X82284Y145669D02*
Y185827D01*
X258268Y128347D02*
X265748D01*
D119*
X221456Y184561D02*
X224001Y187106D01*
X221456Y164644D02*
Y184561D01*
X224001Y187106D02*
X228259D01*
X71653Y55905D02*
X77165D01*
X66142D02*
X71653D01*
Y61417D02*
X77163D01*
X66142D02*
X71653D01*
Y66929D02*
X77165D01*
X66142D02*
X71653D01*
X261723Y183169D02*
X278151D01*
X278249Y183071D01*
X281299D01*
X270472Y175787D02*
X277265D01*
X278249Y176771D01*
X91732Y124409D02*
X94291Y126969D01*
X112205D01*
X113189Y125984D01*
X91732Y114371D02*
Y124409D01*
X278249Y176771D02*
X281299D01*
X221456Y164644D02*
X221457Y164644D01*
Y159133D02*
Y164644D01*
D120*
X239370Y293307D02*
X241339Y291339D01*
Y280118D02*
Y291339D01*
X238289Y280118D02*
X241339D01*
X233858Y280118D02*
X238288D01*
X238289Y280118D01*
X229846Y280118D02*
X229847Y280118D01*
X233858D01*
X226181Y280118D02*
X229846D01*
X77165Y55905D02*
X90551Y42520D01*
X101575D01*
X101622Y42472D01*
X113309D01*
X43384Y71970D02*
X46850Y68504D01*
X43384Y71970D02*
Y99378D01*
D121*
X250236Y330394D02*
X264961Y345118D01*
Y359871D01*
X270236Y365147D02*
Y375984D01*
X264961Y359871D02*
X270236Y365147D01*
X213779Y359871D02*
X219055Y365147D01*
Y375984D01*
X213779Y345118D02*
Y359871D01*
X199055Y330394D02*
X213779Y345118D01*
X156693Y332283D02*
Y365118D01*
X168504Y376929D01*
X47087Y332283D02*
X77953D01*
X22441Y356929D02*
X47087Y332283D01*
X22441Y376929D02*
X50394D01*
D122*
X31102Y187795D02*
D03*
X192126Y36614D02*
D03*
D123*
X43701Y168898D02*
D03*
X173228Y24016D02*
D03*
D124*
X55905Y192126D02*
D03*
D125*
X183858Y122047D02*
D03*
Y141732D02*
D03*
X97638Y253543D02*
D03*
X137008D02*
D03*
X156693Y332283D02*
D03*
X77953D02*
D03*
X56960Y124536D02*
D03*
X43040Y138456D02*
D03*
X34627Y311024D02*
D03*
X14942D02*
D03*
X168504Y376929D02*
D03*
X50394D02*
D03*
X14961Y267735D02*
D03*
X34646D02*
D03*
D126*
X168898Y48819D02*
D03*
D127*
X301969Y97382D02*
D03*
Y103287D02*
D03*
Y109193D02*
D03*
Y115098D02*
D03*
Y121004D02*
D03*
Y126909D02*
D03*
X327953Y76378D02*
D03*
Y82284D02*
D03*
Y88189D02*
D03*
Y94095D02*
D03*
Y100000D02*
D03*
Y105905D02*
D03*
D128*
X270236Y375984D02*
D03*
X250236D02*
D03*
X219055D02*
D03*
X199055D02*
D03*
X22441Y376929D02*
D03*
Y356929D02*
D03*
D129*
X412586Y114149D02*
D03*
Y100007D02*
D03*
X398427Y114133D02*
D03*
D130*
X217717Y77902D02*
D03*
Y80870D02*
D03*
X327953Y41339D02*
D03*
X316929Y31102D02*
D03*
X283465Y143701D02*
D03*
X270472Y175787D02*
D03*
X253150Y261024D02*
D03*
X250000Y160236D02*
D03*
X212205Y145669D02*
D03*
X205512Y46063D02*
D03*
X113189Y125984D02*
D03*
X233071Y48172D02*
D03*
X306458Y145905D02*
D03*
X303937Y185827D02*
D03*
X355906Y49213D02*
D03*
X361417Y28740D02*
D03*
X375590Y34252D02*
D03*
X331496Y46457D02*
D03*
X347638Y17717D02*
D03*
X338189Y118110D02*
D03*
X350787Y72441D02*
D03*
X382677Y114173D02*
D03*
X371654Y82677D02*
D03*
X395276Y24409D02*
D03*
X340551Y66142D02*
D03*
X370472Y4724D02*
D03*
X350000Y33071D02*
D03*
X357874Y4331D02*
D03*
X312992Y38976D02*
D03*
X254724Y181102D02*
D03*
X237795Y144826D02*
D03*
X260630Y144488D02*
D03*
X273622Y223622D02*
D03*
X270079Y225984D02*
D03*
X216727Y190198D02*
D03*
X220079Y193307D02*
D03*
X202756Y184646D02*
D03*
X209842Y189764D02*
D03*
X215619Y186350D02*
D03*
X223640Y179134D02*
D03*
X218504Y182677D02*
D03*
X312205Y116929D02*
D03*
X285827Y270866D02*
D03*
X294488Y183071D02*
D03*
X206299Y215748D02*
D03*
X224803Y244882D02*
D03*
X286221Y204724D02*
D03*
X263779Y171653D02*
D03*
X288189Y110630D02*
D03*
X233071Y29134D02*
D03*
Y37795D02*
D03*
X73622Y12205D02*
D03*
X270079Y186614D02*
D03*
X309267Y138371D02*
D03*
X251575Y195669D02*
D03*
X249213Y153150D02*
D03*
X241732Y98425D02*
D03*
X238189Y187402D02*
D03*
X239370Y177953D02*
D03*
X276378Y170079D02*
D03*
X297244Y138583D02*
D03*
X209449Y107874D02*
D03*
X178347Y89370D02*
D03*
Y93307D02*
D03*
X227953Y171653D02*
D03*
X300591Y192929D02*
D03*
Y189961D02*
D03*
X76378Y139370D02*
D03*
D131*
X247047Y218504D02*
D03*
X248031Y225197D02*
D03*
X250137Y216279D02*
D03*
X342913Y94488D02*
D03*
X347638D02*
D03*
X353937D02*
D03*
X363779Y65748D02*
D03*
X368504D02*
D03*
X318898Y12598D02*
D03*
X273228Y158661D02*
D03*
X266732Y122047D02*
D03*
X263779Y116929D02*
D03*
X251969Y164173D02*
D03*
X237598Y138386D02*
D03*
Y134252D02*
D03*
X220472Y196063D02*
D03*
X204331Y178740D02*
D03*
X212992Y170472D02*
D03*
X170866Y135039D02*
D03*
Y131102D02*
D03*
Y123228D02*
D03*
Y119291D02*
D03*
Y111417D02*
D03*
Y107087D02*
D03*
X191732Y202362D02*
D03*
X199606D02*
D03*
Y206299D02*
D03*
X191732D02*
D03*
X283071Y83858D02*
D03*
X279134Y80315D02*
D03*
X275197Y77165D02*
D03*
X272047Y74410D02*
D03*
X268898Y71653D02*
D03*
X264961Y68504D02*
D03*
X98425Y157874D02*
D03*
X92520D02*
D03*
X98425Y153512D02*
D03*
X92520D02*
D03*
X98425Y149150D02*
D03*
X120866Y190945D02*
D03*
Y198819D02*
D03*
Y206693D02*
D03*
X8268Y238976D02*
D03*
Y246457D02*
D03*
X17717Y246063D02*
D03*
Y238976D02*
D03*
Y231890D02*
D03*
X7874D02*
D03*
X37402Y119685D02*
D03*
X31890Y126772D02*
D03*
X25984Y132283D02*
D03*
X19291Y140157D02*
D03*
X67716Y149213D02*
D03*
Y156693D02*
D03*
X92520Y149150D02*
D03*
X166535Y154331D02*
D03*
X176378Y166142D02*
D03*
X140945Y73228D02*
D03*
X148819D02*
D03*
X156693D02*
D03*
Y81102D02*
D03*
X148819D02*
D03*
X141339D02*
D03*
X207874Y66142D02*
D03*
Y74410D02*
D03*
X239370Y293307D02*
D03*
X212205Y205512D02*
D03*
X206693Y199606D02*
D03*
X201575Y194882D02*
D03*
X196850Y190157D02*
D03*
X33858Y37402D02*
D03*
X77165Y21457D02*
D03*
X33858Y29528D02*
D03*
X34252Y22047D02*
D03*
Y13780D02*
D03*
X217717Y85039D02*
D03*
X48031Y9449D02*
D03*
X268503Y213779D02*
D03*
X289961Y132480D02*
D03*
X286299Y260709D02*
D03*
X282677Y132480D02*
D03*
X274803D02*
D03*
X238779Y57677D02*
D03*
X153543Y107874D02*
D03*
Y118898D02*
D03*
Y113779D02*
D03*
X65354Y207480D02*
D03*
X70866Y177165D02*
D03*
X66929D02*
D03*
X62992D02*
D03*
X61417Y207480D02*
D03*
X57480D02*
D03*
M02*
