G04*
G04 #@! TF.GenerationSoftware,Altium Limited,Altium Designer,23.3.1 (30)*
G04*
G04 Layer_Physical_Order=2*
G04 Layer_Color=32768*
%FSLAX25Y25*%
%MOIN*%
G70*
G04*
G04 #@! TF.SameCoordinates,F1967EA3-8312-49A4-A2FB-0AE49F0FF499*
G04*
G04*
G04 #@! TF.FilePolarity,Negative*
G04*
G01*
G75*
%ADD132C,0.04000*%
%ADD133R,0.29134X0.99606*%
%AMTHOVALD134*
21,1,0.07874,0.08937,0,0,90.0*
1,1,0.08937,0.00000,-0.03937*
1,1,0.08937,0.00000,0.03937*
21,0,0.07874,0.06937,0,0,90.0*
1,0,0.06937,0.00000,-0.03937*
1,0,0.06937,0.00000,0.03937*
4,0,4,0.00530,-0.03407,0.03690,-0.06566,0.02629,-0.07627,-0.00530,-0.04467,0.00530,-0.03407,0.0*
4,0,4,0.00530,0.04467,-0.02629,0.07627,-0.03690,0.06566,-0.00530,0.03407,0.00530,0.04467,0.0*
4,0,4,0.00530,-0.04467,-0.02629,-0.07627,-0.03690,-0.06566,-0.00530,-0.03407,0.00530,-0.04467,0.0*
4,0,4,0.00530,0.03407,0.03690,0.06566,0.02629,0.07627,-0.00530,0.04467,0.00530,0.03407,0.0*
%
%ADD134THOVALD134*%

%ADD135C,0.14268*%
%AMTHOVALD136*
21,1,0.07087,0.09724,0,0,180.0*
1,1,0.09724,0.03543,0.00000*
1,1,0.09724,-0.03543,0.00000*
21,0,0.07087,0.07724,0,0,180.0*
1,0,0.07724,0.03543,0.00000*
1,0,0.07724,-0.03543,0.00000*
4,0,4,0.03013,0.00530,0.06451,0.03968,0.07512,0.02908,0.04074,-0.00530,0.03013,0.00530,0.0*
4,0,4,-0.04074,0.00530,-0.07512,-0.02908,-0.06451,-0.03968,-0.03013,-0.00530,-0.04074,0.00530,0.0*
4,0,4,0.04074,0.00530,0.07512,-0.02908,0.06451,-0.03968,0.03013,-0.00530,0.04074,0.00530,0.0*
4,0,4,-0.03013,0.00530,-0.06451,0.03968,-0.07512,0.02908,-0.04074,-0.00530,-0.03013,0.00530,0.0*
%
%ADD136THOVALD136*%

%ADD137O,0.10724X0.11906*%
%ADD138C,0.09937*%
G04:AMPARAMS|DCode=139|XSize=89.37mil|YSize=89.37mil|CornerRadius=0mil|HoleSize=0mil|Usage=FLASHONLY|Rotation=0.000|XOffset=0mil|YOffset=0mil|HoleType=Round|Shape=Relief|Width=15mil|Gap=10mil|Entries=4|*
%AMTHD139*
7,0,0,0.08937,0.06937,0.01500,45*
%
%ADD139THD139*%
%ADD140C,0.11118*%
%AMTHOVALD141*
21,1,0.07874,0.08937,0,0,180.0*
1,1,0.08937,0.03937,0.00000*
1,1,0.08937,-0.03937,0.00000*
21,0,0.07874,0.06937,0,0,180.0*
1,0,0.06937,0.03937,0.00000*
1,0,0.06937,-0.03937,0.00000*
4,0,4,0.03407,0.00530,0.06566,0.03690,0.07627,0.02629,0.04467,-0.00530,0.03407,0.00530,0.0*
4,0,4,-0.04467,0.00530,-0.07627,-0.02629,-0.06566,-0.03690,-0.03407,-0.00530,-0.04467,0.00530,0.0*
4,0,4,0.04467,0.00530,0.07627,-0.02629,0.06566,-0.03690,0.03407,-0.00530,0.04467,0.00530,0.0*
4,0,4,-0.03407,0.00530,-0.06566,0.03690,-0.07627,0.02629,-0.04467,-0.00530,-0.03407,0.00530,0.0*
%
%ADD141THOVALD141*%

%AMTHOVALD142*
21,1,0.07087,0.09724,0,0,270.0*
1,1,0.09724,0.00000,0.03543*
1,1,0.09724,0.00000,-0.03543*
21,0,0.07087,0.07724,0,0,270.0*
1,0,0.07724,0.00000,0.03543*
1,0,0.07724,0.00000,-0.03543*
4,0,4,-0.00530,0.03013,-0.03968,0.06451,-0.02908,0.07512,0.00530,0.04074,-0.00530,0.03013,0.0*
4,0,4,-0.00530,-0.04074,0.02908,-0.07512,0.03968,-0.06451,0.00530,-0.03013,-0.00530,-0.04074,0.0*
4,0,4,-0.00530,0.04074,0.02908,0.07512,0.03968,0.06451,0.00530,0.03013,-0.00530,0.04074,0.0*
4,0,4,-0.00530,-0.03013,-0.03968,-0.06451,-0.02908,-0.07512,0.00530,-0.04074,-0.00530,-0.03013,0.0*
%
%ADD142THOVALD142*%

%ADD143O,0.11906X0.10724*%
G04:AMPARAMS|DCode=144|XSize=84.252mil|YSize=84.252mil|CornerRadius=0mil|HoleSize=0mil|Usage=FLASHONLY|Rotation=0.000|XOffset=0mil|YOffset=0mil|HoleType=Round|Shape=Relief|Width=15mil|Gap=10mil|Entries=4|*
%AMTHD144*
7,0,0,0.08425,0.06425,0.01500,45*
%
%ADD144THD144*%
%ADD145C,0.09425*%
%ADD146C,0.12890*%
%ADD147C,0.07969*%
G04:AMPARAMS|DCode=148|XSize=69.685mil|YSize=69.685mil|CornerRadius=0mil|HoleSize=0mil|Usage=FLASHONLY|Rotation=0.000|XOffset=0mil|YOffset=0mil|HoleType=Round|Shape=Relief|Width=15mil|Gap=10mil|Entries=4|*
%AMTHD148*
7,0,0,0.06969,0.04969,0.01500,45*
%
%ADD148THD148*%
%ADD149C,0.09150*%
%ADD150C,0.09543*%
%ADD151C,0.10331*%
%ADD152C,0.07181*%
G04:AMPARAMS|DCode=153|XSize=61.811mil|YSize=61.811mil|CornerRadius=0mil|HoleSize=0mil|Usage=FLASHONLY|Rotation=0.000|XOffset=0mil|YOffset=0mil|HoleType=Round|Shape=Relief|Width=15mil|Gap=10mil|Entries=4|*
%AMTHD153*
7,0,0,0.06181,0.04181,0.01500,45*
%
%ADD153THD153*%
%ADD154C,0.07378*%
G04:AMPARAMS|DCode=155|XSize=63.779mil|YSize=63.779mil|CornerRadius=0mil|HoleSize=0mil|Usage=FLASHONLY|Rotation=0.000|XOffset=0mil|YOffset=0mil|HoleType=Round|Shape=Relief|Width=15mil|Gap=10mil|Entries=4|*
%AMTHD155*
7,0,0,0.06378,0.04378,0.01500,45*
%
%ADD155THD155*%
D132*
X287402Y-394D02*
Y55905D01*
X318504Y87008D01*
Y122441D01*
X315354Y125591D02*
X318504Y122441D01*
X315354Y125591D02*
Y132283D01*
X0Y0D02*
X429134D01*
Y131890D01*
X314961D02*
X429134D01*
X314961D02*
Y399606D01*
X0D02*
X314961D01*
X0Y0D02*
Y399606D01*
D133*
X14567Y55709D02*
D03*
D03*
D134*
X31102Y187795D02*
D03*
D135*
X13386D02*
D03*
X173228Y6299D02*
D03*
D136*
X43701Y168898D02*
D03*
D137*
X55905Y192126D02*
D03*
D138*
X183858Y122047D02*
D03*
X97638Y253543D02*
D03*
X137008D02*
D03*
X156693Y332283D02*
D03*
X77953D02*
D03*
X34627Y311024D02*
D03*
X34646Y267735D02*
D03*
D139*
X183858Y141732D02*
D03*
X14942Y311024D02*
D03*
X14961Y267735D02*
D03*
D140*
X199055Y290394D02*
D03*
Y330394D02*
D03*
Y360394D02*
D03*
X229055Y350394D02*
D03*
Y290394D02*
D03*
X250354Y289803D02*
D03*
Y329803D02*
D03*
Y359803D02*
D03*
X280354Y349803D02*
D03*
Y289803D02*
D03*
D141*
X173228Y24016D02*
D03*
D142*
X192126Y36614D02*
D03*
D143*
X168898Y48819D02*
D03*
D144*
X301969Y97382D02*
D03*
X327953Y76378D02*
D03*
D145*
X301969Y103287D02*
D03*
Y109193D02*
D03*
Y115098D02*
D03*
Y121004D02*
D03*
Y126909D02*
D03*
X327953Y82284D02*
D03*
Y88189D02*
D03*
Y94095D02*
D03*
Y100000D02*
D03*
Y105905D02*
D03*
D146*
X270236Y375984D02*
D03*
X250236D02*
D03*
X219055D02*
D03*
X199055D02*
D03*
X22441Y376929D02*
D03*
Y356929D02*
D03*
D147*
X412586Y114149D02*
D03*
Y100007D02*
D03*
D148*
X398427Y114133D02*
D03*
D149*
X56960Y124536D02*
D03*
X43040Y138456D02*
D03*
D150*
X100000Y8661D02*
D03*
X111811D02*
D03*
D151*
X168504Y376929D02*
D03*
X50394D02*
D03*
D152*
X217717Y77902D02*
D03*
Y80870D02*
D03*
X283465Y143701D02*
D03*
X270472Y175787D02*
D03*
X253150Y261024D02*
D03*
X250000Y160236D02*
D03*
X212205Y145669D02*
D03*
X113189Y125984D02*
D03*
X331496Y46457D02*
D03*
X347638Y17717D02*
D03*
X338189Y118110D02*
D03*
X350787Y72441D02*
D03*
X371654Y82677D02*
D03*
X395276Y24409D02*
D03*
X340551Y66142D02*
D03*
X357874Y4331D02*
D03*
X312992Y38976D02*
D03*
X260630Y144488D02*
D03*
X270079Y225984D02*
D03*
X312205Y116929D02*
D03*
X294488Y183071D02*
D03*
X206299Y215748D02*
D03*
X224803Y244882D02*
D03*
X286221Y204724D02*
D03*
X263779Y171653D02*
D03*
X288189Y110630D02*
D03*
X233071Y29134D02*
D03*
Y37795D02*
D03*
X73622Y12205D02*
D03*
X270079Y186614D02*
D03*
X309267Y138371D02*
D03*
X251575Y195669D02*
D03*
X249213Y153150D02*
D03*
X241732Y98425D02*
D03*
X238189Y187402D02*
D03*
X239370Y177953D02*
D03*
X276378Y170079D02*
D03*
X297244Y138583D02*
D03*
X209449Y107874D02*
D03*
X178347Y89370D02*
D03*
Y93307D02*
D03*
X227953Y171653D02*
D03*
X300591Y192929D02*
D03*
Y189961D02*
D03*
X76378Y139370D02*
D03*
D153*
X327953Y41339D02*
D03*
X316929Y31102D02*
D03*
X205512Y46063D02*
D03*
X233071Y48172D02*
D03*
X306458Y145905D02*
D03*
X303937Y185827D02*
D03*
X355906Y49213D02*
D03*
X361417Y28740D02*
D03*
X375590Y34252D02*
D03*
X382677Y114173D02*
D03*
X370472Y4724D02*
D03*
X350000Y33071D02*
D03*
X254724Y181102D02*
D03*
X237795Y144826D02*
D03*
X273622Y223622D02*
D03*
X216727Y190198D02*
D03*
X220079Y193307D02*
D03*
X202756Y184646D02*
D03*
X209842Y189764D02*
D03*
X215619Y186350D02*
D03*
X223640Y179134D02*
D03*
X218504Y182677D02*
D03*
X285827Y270866D02*
D03*
D154*
X247047Y218504D02*
D03*
X250137Y216279D02*
D03*
X363779Y65748D02*
D03*
X368504D02*
D03*
X266732Y122047D02*
D03*
X263779Y116929D02*
D03*
X237598Y138386D02*
D03*
Y134252D02*
D03*
X212205Y205512D02*
D03*
X206693Y199606D02*
D03*
X201575Y194882D02*
D03*
X196850Y190157D02*
D03*
X217717Y85039D02*
D03*
X48031Y9449D02*
D03*
X268503Y213779D02*
D03*
X289961Y132480D02*
D03*
X286299Y260709D02*
D03*
X282677Y132480D02*
D03*
X274803D02*
D03*
X238779Y57677D02*
D03*
X153543Y107874D02*
D03*
Y118898D02*
D03*
Y113779D02*
D03*
X65354Y207480D02*
D03*
X70866Y177165D02*
D03*
X66929D02*
D03*
X62992D02*
D03*
X61417Y207480D02*
D03*
X57480D02*
D03*
D155*
X248031Y225197D02*
D03*
X342913Y94488D02*
D03*
X347638D02*
D03*
X353937D02*
D03*
X318898Y12598D02*
D03*
X273228Y158661D02*
D03*
X251969Y164173D02*
D03*
X220472Y196063D02*
D03*
X204331Y178740D02*
D03*
X212992Y170472D02*
D03*
X170866Y135039D02*
D03*
Y131102D02*
D03*
Y123228D02*
D03*
Y119291D02*
D03*
Y111417D02*
D03*
Y107087D02*
D03*
X191732Y202362D02*
D03*
X199606D02*
D03*
Y206299D02*
D03*
X191732D02*
D03*
X283071Y83858D02*
D03*
X279134Y80315D02*
D03*
X275197Y77165D02*
D03*
X272047Y74410D02*
D03*
X268898Y71653D02*
D03*
X264961Y68504D02*
D03*
X98425Y157874D02*
D03*
X92520D02*
D03*
X98425Y153512D02*
D03*
X92520D02*
D03*
X98425Y149150D02*
D03*
X120866Y190945D02*
D03*
Y198819D02*
D03*
Y206693D02*
D03*
X8268Y238976D02*
D03*
Y246457D02*
D03*
X17717Y246063D02*
D03*
Y238976D02*
D03*
Y231890D02*
D03*
X7874D02*
D03*
X37402Y119685D02*
D03*
X31890Y126772D02*
D03*
X25984Y132283D02*
D03*
X19291Y140157D02*
D03*
X67716Y149213D02*
D03*
Y156693D02*
D03*
X92520Y149150D02*
D03*
X166535Y154331D02*
D03*
X176378Y166142D02*
D03*
X140945Y73228D02*
D03*
X148819D02*
D03*
X156693D02*
D03*
Y81102D02*
D03*
X148819D02*
D03*
X141339D02*
D03*
X207874Y66142D02*
D03*
Y74410D02*
D03*
X239370Y293307D02*
D03*
X33858Y37402D02*
D03*
X77165Y21457D02*
D03*
X33858Y29528D02*
D03*
X34252Y22047D02*
D03*
Y13780D02*
D03*
M02*
