M48
;Layer_Color=9474304
;FILE_FORMAT=2:5
INCH,LZ
;TYPE=PLATED
T1F00S00C0.01181
;TYPE=NON_PLATED
%
T01
X0233071Y0029134
Y0048172
X0331496Y0046457
X0355906Y0049213
X0361417Y002874
X0347638Y0017717
X037559Y0034252
X0288189Y011063
X0306458Y0145905
X0303937Y0185827
X0294488Y0183071
X0270079Y0186614
X0254724Y0181102
X0263779Y0171653
X026063Y0144488
X0249213Y015315
X0237795Y0144826
X022364Y0179134
X0218504Y0182677
X0215619Y018635
X0216727Y0190198
X0220079Y0193307
X0286221Y0204724
X0209842Y0189764
X0202756Y0184646
X0206299Y0215748
X0273622Y0223622
X0285827Y0270866
M30
