M48
;Layer_Color=9474304
;FILE_FORMAT=2:5
INCH,LZ
;TYPE=PLATED
T1F00S00C0.01181
T2F00S00C0.01378
T3F00S00C0.01968
T4F00S00C0.03150
T5F00S00C0.03425
T6F00S00C0.03543
T7F00S00C0.03937
T9F00S00C0.04331
T11F00S00C0.05118
T12F00S00C0.06890
;TYPE=NON_PLATED
T13F00S00C0.08268
%
T01
X0073622Y0012205
X0205512Y0046063
X0233071Y0037795
X0312992Y0038976
X0316929Y0031102
X0327953Y0041339
X035Y0033071
X0357874Y0004331
X0370472Y0004724
X0395276Y0024409
X0371654Y0082677
X0382677Y0114173
X0338189Y011811
X0312205Y0116929
X0309267Y0138371
X0297244Y0138583
X0283465Y0143701
X0276378Y0170079
X0270472Y0175787
X023937Y0177953
X0238189Y0187402
X0251575Y0195669
X025Y0160236
X0227953Y0171653
X0241732Y0098425
X0217717Y008087
Y0077902
X0340551Y0066142
X0350787Y0072441
X0300591Y0189961
Y0192929
X0212205Y0145669
X0209449Y0107874
X0178347Y0093307
Y008937
X0113189Y0125984
X0076378Y013937
X0224803Y0244882
X025315Y0261024
X0270079Y0225984
T02
X0034252Y001378
Y0022047
X0033858Y0029528
Y0037402
X0048031Y0009449
X0077165Y0021457
X0318898Y0012598
X0363779Y0065748
X0368504
X0353937Y0094488
X0347638
X0342913
X0283071Y0083858
X0279134Y0080315
X0275197Y0077165
X0272047Y007441
X0268898Y0071653
X0264961Y0068504
X0238779Y0057677
X0217717Y0085039
X0237598Y0134252
Y0138386
X0251969Y0164173
X0273228Y0158661
X0274803Y013248
X0282677
X0289961
X0266732Y0122047
X0263779Y0116929
X0212992Y0170472
X0220472Y0196063
X0206693Y0199606
X0199606Y0202362
Y0206299
X0191732
Y0202362
X0201575Y0194882
X019685Y0190157
X0204331Y017874
X0212205Y0205512
X0176378Y0166142
X0166535Y0154331
X0170866Y0135039
Y0131102
Y0123228
Y0119291
Y0111417
Y0107087
X0153543Y0107874
Y0113779
Y0118898
X0156693Y0081102
Y0073228
X0148819
Y0081102
X0141339
X0140945Y0073228
X0207874Y007441
Y0066142
X0098425Y014915
Y0153512
Y0157874
X009252
Y0153512
Y014915
X0067716Y0149213
Y0156693
X0066929Y0177165
X0062992
X0070866
X0065354Y020748
X0061417
X005748
X0120866Y0206693
Y0198819
Y0190945
X0019291Y0140157
X0025984Y0132283
X003189Y0126772
X0037402Y0119685
X0017717Y023189
Y0238976
Y0246063
X0008268Y0246457
Y0238976
X0007874Y023189
X0248031Y0225197
X0247047Y0218504
X0250137Y0216279
X0268503Y0213779
X0286299Y0260709
X023937Y0293307
T03
X0398427Y0114133
X0412586Y0114149
Y0100007
T04
X005696Y0124536
X004304Y0138456
T05
X0301969Y0097382
Y0103287
Y0109193
Y0115098
Y0121004
Y0126909
X0327953Y0105905
Y01
Y0094095
Y0088189
Y0082284
Y0076378
T06
X01Y0008661
X0111811
T07
X0183858Y0122047
Y0141732
X0034646Y0267735
X0014961
X0014942Y0311024
X0034627
X0077953Y0332283
X0156693
X0137008Y0253543
X0097638
T09
X0168504Y0376929
X0050394
T11
X0199055Y0290394
Y0330394
Y0360394
X0229055Y0350394
X0250354Y0359803
Y0329803
Y0289803
X0229055Y0290394
X0280354Y0289803
Y0349803
T12
X0022441Y0356929
X0219055Y0375984
X0250236
X0270236
X0199055
X0022441Y0376929
T13
X0173228Y0006299
X0013386Y0187795
M30
